<svg width="24" height="24" viewBox="0 0 24 24" fill="none" xmlns="http://www.w3.org/2000/svg">
<path fill-rule="evenodd" clip-rule="evenodd" d="M18 2.18036L18.6171 3.07374C19.7056 4.64959 20.25 5.73838 20.25 6.49999C20.25 7.47956 19.624 8.31292 18.7503 8.62187L18.7506 10.0079C20.624 10.1276 22 11.5845 22 13.5V22H2V13.5C2 11.5841 3.3765 10.127 5.25042 10.0079L5.25077 8.62223C4.37647 8.31357 3.75 7.47994 3.75 6.49999C3.75 5.78318 4.23223 4.77655 5.19646 3.3468L5.3829 3.07374L6 2.18036L6.6171 3.07374C7.7056 4.64959 8.25 5.73838 8.25 6.49999C8.25 7.47956 7.62402 8.31292 6.75025 8.62187L6.75 9.99936H11.25L11.2508 8.62223C10.4227 8.32988 9.81689 7.56657 9.75519 6.65404L9.75 6.49999C9.75 5.78318 10.2322 4.77655 11.1965 3.3468L11.3829 3.07374L12 2.18036L12.6171 3.07374C13.7056 4.64959 14.25 5.73838 14.25 6.49999C14.25 7.47956 13.624 8.31292 12.7503 8.62187L12.75 9.99936H17.25L17.2508 8.62223C16.4227 8.32988 15.8169 7.56657 15.7552 6.65404L15.75 6.49999C15.75 5.78318 16.2322 4.77655 17.1965 3.3468L17.3829 3.07374L18 2.18036ZM15.2525 17.1749L15 17.025L14.9911 17.0311C14.1889 17.5331 13.2875 17.808 12.2991 17.8538L12 17.8607C10.9943 17.8607 10.0744 17.6315 9.2525 17.1749L9 17.025L8.99113 17.0311C8.18892 17.5331 7.28752 17.808 6.29912 17.8538L6 17.8607C5.28909 17.8607 4.62104 17.7462 4.00017 17.5177L4 20H20L20.0008 17.5174C19.3797 17.746 18.7113 17.8607 18 17.8607C16.9943 17.8607 16.0744 17.6315 15.2525 17.1749ZM18.5 12H5.5C4.5 12 3.99984 12.5 3.99984 13.5V15.8741C4.59297 16.1992 5.25576 16.3607 6 16.3607C6.88939 16.3607 7.66247 16.13 8.33935 15.6652L8.53954 15.5187L9 15.1606L9.46046 15.5187C10.1841 16.0815 11.0217 16.3607 12 16.3607C12.8894 16.3607 13.6625 16.13 14.3393 15.6652L14.5395 15.5187L15 15.1606L15.4605 15.5187C16.1841 16.0815 17.0217 16.3607 18 16.3607C18.7447 16.3607 19.4078 16.199 20.0012 15.8735L20 13.5C20 12.5 19.5 12 18.5 12ZM12.1777 5.16381L12 4.86799L11.7715 5.25184L11.5527 5.65496C11.3509 6.05137 11.25 6.3386 11.25 6.49999C11.25 6.91421 11.5858 7.24999 12 7.24999C12.4142 7.24999 12.75 6.91421 12.75 6.49999C12.75 6.35877 12.6728 6.12121 12.5182 5.79846L12.4473 5.65496L12.277 5.33744L12.1777 5.16381ZM18.1777 5.16381L18 4.86799L17.7715 5.25184L17.5527 5.65496C17.3509 6.05137 17.25 6.3386 17.25 6.49999C17.25 6.91421 17.5858 7.24999 18 7.24999C18.4142 7.24999 18.75 6.91421 18.75 6.49999C18.75 6.35877 18.6728 6.12121 18.5182 5.79846L18.4473 5.65496L18.277 5.33744L18.1777 5.16381ZM6.17766 5.16381L6 4.86799L5.77149 5.25184L5.55271 5.65496C5.35089 6.05137 5.25 6.3386 5.25 6.49999C5.25 6.91421 5.58579 7.24999 6 7.24999C6.41421 7.24999 6.75 6.91421 6.75 6.49999C6.75 6.35877 6.67275 6.12121 6.51824 5.79846L6.44729 5.65496L6.277 5.33744L6.17766 5.16381Z" fill="black"/>
</svg>
