<svg width="24" height="24" viewBox="0 0 24 24" fill="none" xmlns="http://www.w3.org/2000/svg">
<path fill-rule="evenodd" clip-rule="evenodd" d="M19.0714 3C20.0855 3 20.9173 3.78353 20.9942 4.7779L21 4.92857V19.0714C21 20.0855 20.2165 20.9173 19.2221 20.9942L19.0714 21H4.92857C3.91454 21 3.08273 20.2165 3.0058 19.2221L3 19.0714V4.92857C3 3.91454 3.78353 3.08273 4.7779 3.0058L4.92857 3H19.0714ZM13.6423 8L13.4983 8.16466L13.7211 8.23568C15.316 8.76514 16.0594 9.47094 16.0594 9.47094C14.9897 8.88466 13.9406 8.59666 12.9634 8.48351C12.2229 8.40123 11.5131 8.4218 10.8857 8.50409L10.7983 8.51051L10.7109 8.52466L10.4262 8.55887C10.0223 8.61923 9.38097 8.7597 8.61081 9.07329L8.376 9.17266L8.04952 9.3277L7.76914 9.47094L7.85039 9.40076C8.08165 9.20989 8.77962 8.6929 10.0029 8.27238L10.2384 8.19476L10.4743 8.12351L10.3714 8L10.2246 8.00492L10.1515 8.01045C9.72556 8.04732 8.73678 8.21166 7.67997 8.93734L7.48114 9.08009L7.35905 9.31959L7.2129 9.63255C6.80463 10.5427 6.06768 12.4851 6.00436 14.7639L6 15.0767L6.05866 15.1654L6.09235 15.2116C6.35578 15.5636 7.20295 16.4917 8.89034 16.6264L9.13714 16.6401L9.82629 15.7864L9.62674 15.7212C8.72658 15.4023 8.25849 14.8847 8.09491 14.6704L8.02629 14.5727L8.15733 14.6565L8.31429 14.7475L8.331 14.7629L8.448 14.8298L8.70438 14.9639C8.87429 15.0469 9.04114 15.1178 9.19886 15.1795C9.62057 15.3441 10.1246 15.5087 10.7109 15.6218C11.4823 15.7658 12.3874 15.8172 13.3749 15.6321C13.6649 15.5827 13.9587 15.5111 14.2584 15.4151L14.5601 15.3108L15.0871 15.102C15.3124 15.0065 15.5511 14.8872 15.7987 14.7399L16.0491 14.5829L16.0134 14.6355L15.9828 14.6764C15.8176 14.8911 15.3322 15.4257 14.3952 15.7426L14.1874 15.8069L14.8663 16.6401L15.1131 16.6264C17.203 16.4597 18.0137 15.0767 18.0137 15.0767C18.0137 11.7647 16.5326 9.08009 16.5326 9.08009C15.4692 8.28255 14.4429 8.07346 13.9486 8.01896L13.7891 8.00492L13.6423 8ZM10.0834 11.8367C10.6697 11.8367 11.1429 12.3509 11.1326 12.9784C11.1326 13.6058 10.6697 14.1201 10.0834 14.1201C9.50743 14.1201 9.03429 13.6058 9.03429 12.9784C9.03429 12.3509 9.49714 11.8367 10.0834 11.8367ZM13.8377 11.8367C14.424 11.8367 14.8869 12.3509 14.8869 12.9784C14.8869 13.6058 14.424 14.1201 13.8377 14.1201C13.2617 14.1201 12.7886 13.6058 12.7886 12.9784C12.7886 12.3509 13.2514 11.8367 13.8377 11.8367Z" fill="black"/>
</svg>
