<?xml version="1.0" encoding="UTF-8"?><svg viewBox="0 0 24 24" xmlns="http://www.w3.org/2000/svg"><path d="m20.996 2.9996-0.023664 15.166h-0.0070993-17.736c0.20588-0.39677 0.5427-0.72255 0.9663-0.91345l6.6639-2.8997c1.7094-0.74385 2.8129-2.4288 2.809-4.2911l-0.0023664-7.0615h7.3297zm2.0036-1.9996h-11.308-0.025242l0.0031553 9.0619c0.0015776 1.0657-0.63105 2.0312-1.6076 2.4564l-6.6718 2.9036c-1.4546 0.64604-2.3909 2.088-2.3909 3.6774v3.1813s1.7882 1.7109 3.3809 1.7109c1.1982 0 1.8458-0.34708 2.368-0.62632 0.42123-0.22639 0.72492-0.38967 1.4214-0.38967s1.0018 0.16328 1.4222 0.38967c0.52141 0.27924 1.169 0.62632 2.368 0.62632 1.199 0 1.8482-0.34708 2.3688-0.62632 0.42123-0.22639 0.7265-0.38967 1.423-0.38967 0.69494 0 1.0002 0.16328 1.4214 0.38967 0.52062 0.27924 1.1698 0.62632 2.368 0.62632 1.5358 0 3.4242-1.5942 3.4242-1.5942l0.033919-21.397zm-18.619 20.992c-0.67365 0-1.1146-0.32736-1.3804-0.63342v-1.1943h17.965s-7.888e-4 1.2897-0.0015777 1.2897c-0.26504 0.26504-0.64131 0.51036-1.4222 0.53797-0.041018 0.0015777-0.080459 0.0023665-0.1199 0.0023665-0.61212 0-0.90635-0.17827-1.3023-0.39204-0.52141-0.27924-1.1698-0.62632-2.3672-0.62632-1.1998 0-1.8474 0.34708-2.368 0.62632-0.42202 0.22639-0.72571 0.38967-1.4238 0.38967-0.69652 0-1.001-0.16328-1.423-0.38967-0.52062-0.27924-1.1682-0.62632-2.3672-0.62632-1.1982 0-1.8474 0.34708-2.368 0.62632-0.42123 0.22639-0.72571 0.38967-1.4214 0.38967z"/></svg>