<?xml version="1.0" encoding="UTF-8"?><svg viewBox="0 0 23 23" xmlns="http://www.w3.org/2000/svg"><path d="m11.691 6.5725e-13c2.2469 0 4.4945 0.84835 6.2084 2.5458 3.4278 3.3942 3.1962 8.6838 0 12.292-3.2815 3.7064-5.0314 6.0183-6.2084 8.341-1.1708-2.3228-2.9254-4.6346-6.2061-8.341-3.1962-3.6086-3.4286-8.8983 0-12.292 1.7139-1.6975 3.9608-2.5458 6.2061-2.5458zm0 1.739c-1.883 0-3.6532 0.72548-4.9829 2.0418-1.3132 1.2999-1.9941 2.9622-1.969 4.8083 0.024261 1.8235 0.7513 3.6329 2.0473 5.0971 2.2531 2.5443 3.7816 4.4303 4.9062 6.091 1.1293-1.6654 2.6554-3.5507 4.9054-6.091 1.296-1.4643 2.023-3.2737 2.0473-5.0971 0.023478-1.8462-0.65739-3.5084-1.969-4.8083-1.3312-1.3163-3.1007-2.0418-4.9852-2.0418zm0.0010957 3.4764c1.9205 0 3.4763 1.5566 3.4763 3.4771 0 1.9197-1.5558 3.4763-3.4763 3.4763-1.9205 0-3.4771-1.5566-3.4771-3.4763 0-1.9205 1.5566-3.4771 3.4771-3.4771zm0 1.7382c-0.95948 0-1.739 0.78026-1.739 1.739 0 0.95791 0.77948 1.7382 1.739 1.7382 0.9587 0 1.7382-0.78026 1.7382-1.7382 0-0.9587-0.77948-1.739-1.7382-1.739z"/></svg>