<?xml version="1.0" encoding="UTF-8"?><svg viewBox="0 0 24 24" xmlns="http://www.w3.org/2000/svg"><path d="m14.829 20.512c1.5771 0 2.3774 0.18554 3.1514 0.36415 0.71031 0.16546 1.3812 0.32054 2.7609 0.32054v1.7079c-1.5736 0-2.3739-0.18485-3.1472-0.36277-0.711-0.16615-1.3832-0.32123-2.7651-0.32123-1.3818 0-2.0534 0.15508-2.7651 0.32054-0.77262 0.17862-1.5729 0.36346-3.1493 0.36346-1.575 0-2.376-0.18485-3.15-0.36346-0.71169-0.16546-1.3839-0.32054-2.7651-0.32054v-1.7086c1.5764 0 2.3767 0.18554 3.15 0.36415 0.71169 0.16546 1.3839 0.32054 2.7651 0.32054 1.3812 0 2.0527-0.15508 2.7637-0.32054 0.774-0.17862 1.5743-0.36415 3.1507-0.36415zm-10.921-5.7883 2.4819 2.4812-3.3902 0.90831 0.90831-3.3895zm14.994-10.862 1.2143 1.2143-11.544 11.544-1.2143-1.2143 11.544-11.544zm-2.8626-2.8623 1.215 1.215-11.544 11.544-1.2143-1.2143 11.544-11.544z"/></svg>