<?xml version="1.0" encoding="UTF-8"?><svg viewBox="0 0 24 24" xmlns="http://www.w3.org/2000/svg"><path d="m10.688 18.072 1.8465 0.4945-1.2959 4.8372-1.8465-0.49522 1.2959-4.8365zm7.7159-17.072c1.3354 0 2.5911 0.51966 3.5355 1.4634 0.94372 0.94516 1.4641 2.2008 1.4641 3.5362 0 1.3347-0.52038 2.5904-1.4641 3.5355l-4.2952 4.2996v7.6267l-14.702-14.702h7.631l4.2952-4.296c0.94444-0.94372 2.2008-1.4634 3.5355-1.4634zm-10.578 14.226 1.352 1.352-3.8238 3.823-1.352-1.352 3.8238-3.823zm2.7472-6.5545h-3.0152l8.1743 8.1743v-3.0108l-5.1592-5.1635zm-4.7369 3.197 0.4945 1.8458-4.8365 1.2973-0.4945-1.8472 4.8365-1.2959zm12.568-8.9571c-0.82512 0-1.6007 0.32128-2.1836 0.90491l-3.8999 3.8992 4.3678 4.3722 3.8985-3.9042c1.2046-1.2046 1.2046-3.1632 0-4.3671-0.58219-0.58362-1.3584-0.90491-2.1828-0.90491z"/></svg>