<?xml version="1.0" encoding="UTF-8"?><svg viewBox="0 0 24 24" xmlns="http://www.w3.org/2000/svg"><path d="m12 16.908c-3.4902 0-6.4804-1.3343-8.9365-3.7414 1.2529-0.041539 2.1068-0.32332 2.821-0.56117 0.56061-0.18652 1.0035-0.33371 1.5318-0.33371 0.959 0 1.4509 0.27883 2.0208 0.60215 0.62933 0.35682 1.3418 0.76156 2.5618 0.76156 1.2338 0 1.9469-0.40415 2.5762-0.76501 0.56353-0.3216 1.0503-0.59871 2.0058-0.59871 0.52947 0 0.97344 0.14779 1.5352 0.33543 0.71364 0.23729 1.5659 0.5196 2.8153 0.56469-2.459 2.403-5.4446 3.7361-8.9313 3.7361m-6.5468-7.8701c0.85451-0.85391 1.6368-1.4036 3.0023-1.4036 1.631 0 1.9053 0.81813 3.545 0.81813 1.6397 0 1.9145-0.80833 3.5456-0.81813 1.3638-0.0063554 2.1455 0.54906 3.0023 1.4036 0.82677 0.82737 0.81869 0.80833 2.6195 2.5029-1.1091-0.01387-1.8303-0.25348-2.5306-0.48674-0.61837-0.20611-1.2581-0.41974-2.0531-0.41974-1.3891 0-2.1807 0.45152-2.8164 0.81409-0.53923 0.30769-0.96536 0.55022-1.7656 0.55022-0.78751 0-1.2125-0.24193-1.7535-0.5485-0.64028-0.36317-1.4365-0.81581-2.8291-0.81581-0.7939 0-1.4313 0.21247-2.0485 0.41798-0.69977 0.23097-1.4203 0.47174-2.5294 0.4827 1.7927-1.6888 1.7852-1.6703 2.6114-2.4971m14.253-1.1547c-1.0392-1.0364-2.2518-1.8828-3.8937-1.8828-2.1767 0-2.6132 0.81813-3.8107 0.81813-1.1975 0-1.6374-0.81813-3.5462-0.81813-1.9088 0-3.123 0.84352-4.1634 1.8828-1.1005 1.097-4.2921 4.388-4.2921 4.388 2.1807 3.0023 5.9988 6.276 12.001 6.276 6.0023 0 9.8141-3.2737 11.999-6.276 0 0-3.1928-3.291-4.2939-4.388"/></svg>