<?xml version="1.0" encoding="UTF-8"?><svg fill-rule="evenodd" viewBox="0 0 26 25" xmlns="http://www.w3.org/2000/svg"><path d="m18.643 11.8c2.402 0.023 4.737 1.454 5.834 3.595 0.925 1.805 0.951 4.042 0.071 5.866-1.245 2.583-4.281 4.18-7.196 3.621-2.008-0.385-3.807-1.769-4.7-3.621-0.879-1.823-0.855-4.059 0.071-5.866 1.094-2.133 3.425-3.572 5.834-3.595h0.086zm-10.243-9.6h9.2v-2.2h2v2.2h6.4v9h-2v-2.2h-22v12.4h7.8v2h-9.8v-21.2h6.4v-2.2h2v2.2zm10.17 11.6c-2.086 0.02-4.054 1.61-4.476 3.673-0.31 1.509 0.202 3.165 1.313 4.237 1.278 1.233 3.296 1.63 4.956 0.94 1.468-0.611 2.572-2.032 2.792-3.606 0.274-1.952-0.863-4.023-2.663-4.838-0.601-0.272-1.258-0.408-1.922-0.406zm2.43 5.6h-3.4v-3.4h2v1.4h1.4v2zm-19-15.2v2.8h22v-2.8h-22z"/></svg>