<?xml version="1.0" encoding="UTF-8"?><svg viewBox="0 0 24 24" xmlns="http://www.w3.org/2000/svg"><path d="m11.623 1 11.227 4.8117c0 2.6195-1.06 5.1751-2.7784 6.8917l-4.042 4.043c-1.7165 1.7174-2.7784 4.0886-2.7784 6.7081l-11.251-4.8127c0-2.6186 1.0865-5.176 2.803-6.8926l4.042-4.0411c1.7165-1.7174 2.7784-4.0886 2.7784-6.7081zm1.9055 3.434c-0.18991 0.63091-0.43278 1.2436-0.72496 1.8334 0.17074 0.059348 0.3287 0.1543 0.45652 0.28396 0.22461 0.22278 0.35426 0.53322 0.35426 0.85004 0 0.315-0.12965 0.62635-0.35426 0.84913-0.2237 0.22552-0.53413 0.35426-0.85004 0.35426-0.31409 0-0.62452-0.12874-0.8473-0.35243-0.31135 0.40448-0.65009 0.7907-1.0171 1.1568l-4.0411 4.042c-0.96874 0.96691-1.649 2.2753-1.9393 3.6713l6.7803 2.8998c0.55878-1.8599 1.5713-3.5645 2.9829-4.977l3.5782-3.5773c-0.065739-0.042913-0.12783-0.09313-0.18261-0.14791-0.2237-0.22461-0.35243-0.53413-0.35243-0.85187 0-0.31683 0.12874-0.62543 0.35243-0.85096 0.22461-0.22461 0.53413-0.35243 0.85096-0.35243 0.31409 0 0.62452 0.12691 0.8473 0.35152 0.40357-0.69848 0.70213-1.4746 0.86739-2.2844zm0.88848 3.9622c0.29765-0.59348 1.0208-0.83452 1.6143-0.53596 0.59439 0.29583 0.83361 1.019 0.53687 1.6133-0.21183 0.42183-0.63457 0.66287-1.0756 0.66287-0.1817 0-0.36613-0.039261-0.53961-0.126-0.59257-0.29857-0.83361-1.0217-0.53596-1.6143z"/></svg>