<?xml version="1.0" encoding="UTF-8"?><svg viewBox="0 0 24 24" xmlns="http://www.w3.org/2000/svg"><path d="m16.749 12.549c2.7328 0 4.9489 2.216 4.9489 4.9489v4.9495h-18.698v-4.9489c0-2.7335 2.216-4.9495 4.9495-4.9495zm0 1.6492h-8.7995c-1.8196 0-3.2997 1.4801-3.2997 3.3003v3.299h15.399v-3.2997c0-1.8196-1.4801-3.2997-3.2997-3.2997zm-4.4-13.198c2.8101 0 5.0869 2.2768 5.0869 5.0863s-2.2768 5.0876-5.0869 5.0876c-2.8095 0-5.0869-2.2781-5.0869-5.0876s2.2775-5.0863 5.0869-5.0863zm0 1.6492c-1.8956 0-3.4371 1.5428-3.4371 3.4371 0 1.8956 1.5415 3.4371 3.4371 3.4371 1.8956 0 3.4371-1.5415 3.4371-3.4371 0-1.8943-1.5415-3.4371-3.4371-3.4371z"/></svg>