<?xml version="1.0" encoding="UTF-8"?><svg viewBox="0 0 24 24" xmlns="http://www.w3.org/2000/svg"><path d="m17.785 14.572c-0.90977 0-1.7302 0.37838-2.315 0.98512l-6.0837-3.0446c0.027081-0.16687 0.041719-0.3374 0.041719-0.51232 0-0.17419-0.014638-0.34545-0.041719-0.51305l6.0859-3.041c0.5848 0.606 1.4045 0.98292 2.3129 0.98292 1.7749 0 3.2146-1.4389 3.2146-3.2137 0-1.7763-1.4397-3.2152-3.2146-3.2152-1.7749 0-3.2153 1.4389-3.2153 3.2152 0 0.17126 0.014638 0.34106 0.040987 0.505l-6.0895 3.0439c-0.5848-0.60307-1.4016-0.9778-2.3085-0.9778-1.7742 0-3.2131 1.4389-3.2131 3.2137 0 1.7756 1.4389 3.2144 3.2131 3.2144 0.90684 0 1.7251-0.37619 2.3092-0.97853l6.0881 3.0476c-0.025617 0.16394-0.040255 0.33154-0.040255 0.50281 0 1.7741 1.4404 3.2137 3.2153 3.2137 1.7749 0 3.2146-1.4396 3.2146-3.2137 0-1.7756-1.4397-3.2144-3.2146-3.2144m0-9.6426c0.70923 0 1.286 0.57599 1.286 1.2859 0 0.70847-0.57675 1.2852-1.286 1.2852-0.70923 0-1.286-0.57673-1.286-1.2852 0-0.70993 0.57675-1.2859 1.286-1.2859m-11.572 8.3567c-0.70776 0-1.2845-0.57673-1.2845-1.2859 0-0.70847 0.57675-1.2859 1.2845-1.2859 0.70996 0 1.2867 0.57746 1.2867 1.2859 0 0.7092-0.57675 1.2859-1.2867 1.2859m11.572 5.7848c-0.70923 0-1.286-0.57673-1.286-1.2845 0-0.7092 0.57675-1.2859 1.286-1.2859 0.70923 0 1.286 0.57673 1.286 1.2859 0 0.70773-0.57675 1.2845-1.286 1.2845"/></svg>