<?xml version="1.0" encoding="UTF-8"?><svg fill-rule="evenodd" viewBox="0 0 32 32" xmlns="http://www.w3.org/2000/svg"><path d="m23.026 9.649c2.365 0.012 4.688 1.141 6.178 3 1.179 1.472 1.846 3.366 1.795 5.246-0.041 1.485-0.76 2.893-1.541 4.209-1.739 2.925-4.051 5.56-6.458 7.896-2.473-2.4-4.724-4.98-6.458-7.896-0.831-1.4-1.58-2.905-1.539-4.525 0.069-2.798 1.646-5.504 4.099-6.9 1.174-0.668 2.52-1.023 3.872-1.03h0.052zm-15.526 9.181c0.017 3.661 3.065 7.111 7.002 7.117l-4e-3 2c-3.523-5e-3 -6.911-2.263-8.293-5.588-0.463-1.114-0.699-2.318-0.705-3.523v-0.027l2-4e-3v0.025zm15.481-7.181c-2.321 0.011-4.53 1.505-5.462 3.637-0.447 1.022-0.682 2.192-0.408 3.257 0.416 1.614 1.399 3.041 2.395 4.41 1.069 1.47 2.254 2.852 3.488 4.175l6e-3 6e-3c2.049-2.188 4.048-4.474 5.356-7.196 0.412-0.856 0.714-1.729 0.614-2.763-0.282-2.923-2.823-5.471-5.873-5.525-0.039-1e-3 -0.078-1e-3 -0.116-1e-3zm0.038 2.579c1.357 0.013 2.624 1.053 2.912 2.401 0.408 1.906-1.326 4.059-3.48 3.653-1.15-0.217-2.124-1.176-2.378-2.331-0.384-1.74 0.981-3.704 2.908-3.723h0.038zm-0.025 2c-0.396 4e-3 -0.768 0.276-0.916 0.645-0.25 0.622 0.222 1.46 0.922 1.46 0.446 0 0.859-0.344 0.968-0.787 0.148-0.599-0.289-1.311-0.962-1.318h-0.012zm-16.458-15.228c1.921 0.019 3.787 1.133 4.735 2.811 0.637 1.127 0.936 2.498 0.582 3.741-0.44 1.544-1.452 2.879-2.506 4.157-0.873 1.058-1.812 2.061-2.812 2.995l-0.035 0.033c-1.878-1.736-3.612-3.625-4.781-5.82-0.545-1.024-0.842-2.164-0.627-3.346 0.44-2.419 2.596-4.45 5.16-4.565 0.095-5e-3 0.189-6e-3 0.284-6e-3zm-0.059 2c-1.811 0.018-3.441 1.639-3.476 3.525-0.015 0.792 0.493 1.54 0.975 2.275 0.722 1.101 1.585 2.107 2.479 3.063l0.045 0.047c1.251-1.329 2.506-2.725 3.238-4.388 0.618-1.403-0.12-3.241-1.51-4.054-0.528-0.309-1.134-0.47-1.751-0.468zm0.042 2.07c0.677 0.013 1.303 0.532 1.447 1.2 0.188 0.879-0.549 1.853-1.466 1.853-0.675 0-1.31-0.516-1.462-1.182-0.197-0.869 0.477-1.852 1.443-1.871h0.038zm-0.025 1.053c-0.352 7e-3 -0.654 0.453-0.383 0.771 0.258 0.304 0.919 0.17 0.888-0.324-0.015-0.246-0.248-0.449-0.505-0.447z"/></svg>