<?xml version="1.0" encoding="UTF-8"?><svg viewBox="0 0 24 24" xmlns="http://www.w3.org/2000/svg"><path d="m11.962 2c5.5021 0 9.9614 4.46 9.9614 9.9621 0 5.5021-4.4593 9.9629-9.9614 9.9629-5.5021 0-9.9621-4.4607-9.9621-9.9629 0-5.5021 4.46-9.9621 9.9621-9.9621zm-4.6555 15.008-0.3294 0.03431c-0.76197 0.087198-1.5206 0.19452-2.2745 0.32196l0.65755-0.10447c0.98343 1.2233 2.2992 2.1686 3.8089 2.6976-0.76388-0.90068-1.3885-1.8921-1.8625-2.9494zm9.3091-0.0021488-0.026862 0.063636c-0.47053 1.0342-1.0856 2.0045-1.8331 2.8875 1.5088-0.52856 2.8244-1.4739 3.8077-2.6972-0.6472-0.10032-1.2964-0.18447-1.9477-0.25395zm-5.4012-0.24061c-0.77316 0.013093-1.5458 0.046526-2.3164 0.1003 0.57496 1.1377 1.3547 2.1774 2.3159 3.0798zm1.4952 3.39e-5 -2.536e-4 3.18c0.96122-0.90237 1.7409-1.9421 2.3172-3.0771-0.77139-0.056335-1.5439-0.089793-2.3169-0.10292zm-6.4537-4.0557-2.729 3.658e-4c0.10014 1.1392 0.42679 2.2143 0.93452 3.1801 0.76316-0.13169 1.5317-0.24088 2.3036-0.33016-0.27886-0.91664-0.45091-1.8717-0.50904-2.8503zm14.141 3.658e-4 -2.729-8.047e-4c-0.058125 0.97886-0.23026 1.9342-0.50912 2.852 0.77105 0.087978 1.5401 0.19722 2.3044 0.32632 0.50705-0.96314 0.83365-2.0383 0.93376-3.1775zm-9.1826-9.969e-4 -3.4605 9.237e-4c0.063084 0.93044 0.24365 1.8364 0.53361 2.7022 1.2221-0.10159 2.4488-0.15145 3.675-0.15145l-0.74807 0.0072857v-2.559zm4.9561 9.237e-4 -3.4611-9.237e-4 7.477e-4 2.5579c0.97647 0.016143 1.9527 0.06389 2.9256 0.14308 0.29114-0.86367 0.47171-1.7696 0.53479-2.7zm-11.709-4.6726-0.07467 0.143c-0.4651 0.9279-0.76466 1.9526-0.85968 3.035l2.7291 5.78e-5c0.058112-0.97864 0.23016-1.9337 0.50889-2.8513-0.77112-0.0888-1.5398-0.1979-2.3037-0.3268zm11.175 0.47488-0.21344 0.019048c-1.1508 0.088137-2.3063 0.13237-3.4614 0.13237l0.7475-0.0075714v2.559l3.4612 5.654e-4c-0.063046-0.93086-0.24367-1.8372-0.53379-2.7034zm3.8262-0.47713-0.60631 0.10037c-0.56356 0.087101-1.1295 0.16348-1.6972 0.2291 0.27848 0.91704 0.45045 1.8721 0.50854 2.8507l2.7291 7.49e-5c-0.099991-1.1392-0.4265-2.2145-0.9341-3.1803zm-11.174 0.47935-0.062489 0.1859c-0.25449 0.80902-0.41421 1.6516-0.47271 2.5153l3.4606-5.654e-4 8.419e-4 -2.5576c-0.9766-0.016128-1.9531-0.063871-2.9262-0.14304zm2.9255-4.535c-0.96139 0.90251-1.7412 1.9424-2.3175 3.0776 0.77181 0.056194 1.5448 0.089669 2.3183 0.10278zm1.4954 9.981e-5 -4.788e-4 3.1803c0.77313-0.013093 1.5458-0.046527 2.3163-0.1003-0.57475-1.1376-1.3545-2.1775-2.3159-3.08zm-3.5416-0.011575-0.10726 0.038475c-1.4642 0.53565-2.7405 1.4647-3.7003 2.6584 0.64587 0.10054 1.2952 0.18474 1.9468 0.25428 0.47353-1.0593 1.0982-2.0506 1.8607-2.9512zm5.5901 6.5511e-4 0.050174 0.060113c0.73907 0.88436 1.3462 1.8549 1.8093 2.8885 0.87192-0.091167 1.7407-0.21064 2.6033-0.35646l-0.65727 0.10404c-0.98266-1.2223-2.2972-2.1671-3.8055-2.6962z"/></svg>