<?xml version="1.0" encoding="UTF-8"?><svg viewBox="0 0 54 57" xmlns="http://www.w3.org/2000/svg"><g fill-rule="evenodd"><g transform="translate(-930 -654)"><g transform="translate(930 653)"><path d="m47.108 37.716 3.8613 3.8457 2.8374-2.8275-26.764-26.654-26.762 26.656 2.8374 2.8259 3.8581-3.8457v19.801h40.132v-19.801zm-24.077 15.803h8.0251v-13.293h-8.0251v13.293zm12.039 0v-17.289h-16.052v17.289h-8.0268v-19.801l16.052-15.987 16.052 15.987v19.801h-8.0251z"/><path d="m43.764 22.895h4.0118c0-3.4897-1.8085-5.2893-3.2628-6.7377-1.2585-1.2518-2.09-2.0799-2.09-3.915 0-1.8383 0.82985-2.6648 2.0884-3.9166 1.4559-1.4468 3.2644-3.2496 3.2644-6.7425h-4.0118c0 1.8367-0.83147 2.6648-2.0884 3.915-1.4559 1.45-3.2676 3.2512-3.2676 6.7441 0 3.4945 1.8134 5.2957 3.2676 6.7425 1.2585 1.2518 2.0884 2.0767 2.0884 3.9102"/></g></g></g></svg>