<?xml version="1.0" encoding="UTF-8"?><svg viewBox="0 0 24 24" xmlns="http://www.w3.org/2000/svg"><path d="m10.636 17.978v3.6522h2.472v-3.6522h1.6854v5.3376h-5.8428v-5.3376h1.6854zm2.276-10.393c1.4436 0 2.6814 0.9816 3.0096 2.388l1.8222 7.8144-1.6416 0.3828-1.8228-7.8144c-0.1488-0.639-0.711-1.0854-1.3674-1.0854h-2.0568c-0.654 0-1.2162 0.4446-1.3668 1.0818l-1.848 7.8204-1.6404-0.3876 1.848-7.8204c0.3306-1.401 1.5678-2.3796 3.0072-2.3796zm-1.04-7.5849c1.6446 0 2.9778 1.3332 2.9778 2.9778 0 1.6452-1.3332 2.9778-2.9778 2.9778s-2.9778-1.3326-2.9778-2.9778c0-1.6446 1.3332-2.9778 2.9778-2.9778zm0 1.6854c-0.7128 0-1.2924 0.5796-1.2924 1.2924 0 0.7122 0.5796 1.2924 1.2924 1.2924 0.7122 0 1.2918-0.5802 1.2918-1.2924 0-0.7128-0.5796-1.2924-1.2918-1.2924z"/></svg>