<?xml version="1.0" encoding="UTF-8"?><svg viewBox="0 0 24 24" xmlns="http://www.w3.org/2000/svg"><path d="m13.971 10.951c0.17815-0.196 0.4307-0.30773 0.69553-0.30773h1.0912c0.53356 0 1.042-0.2267 1.3985-0.62364l3.8433-4.2783-0.58162-0.58162-2.8249 2.8249-0.41542-0.41542 2.7418-2.908-0.58158-0.58158-2.9079 2.7418-0.41546-0.41538 2.8249-2.8249-0.58158-0.58162-4.2783 3.8432c-0.39694 0.35657-0.62367 0.86501-0.62367 1.3986v1.1601c0 0.26325-0.11037 0.5144-0.30426 0.69244l-1.314 1.2148-8.0954-8.1213c-0.2516-0.25163-0.68207-0.045152-0.63959 0.30822 0.23794 1.9793 1.3026 4.2656 3.5386 6.5017l1.645 1.645h1.772l0.63216 0.7271-6.5563 6.0616 1.6167 1.6023 5.953-6.4983 5.7286 6.5888 1.6572-1.5399-6.259-6.279 1.2404-1.354z"/></svg>