<?xml version="1.0" encoding="UTF-8"?><svg viewBox="0 0 24 24" xmlns="http://www.w3.org/2000/svg"><path d="m22.51 5.4931c-0.96245-0.96245-2.2428-1.4931-3.6043-1.4931-1.692 0-2.7961 0.71507-3.4463 1.3559-0.079313-0.073648-0.15988-0.14415-0.24297-0.21276-0.62947-0.5426-1.5869-1.0751-2.9522-1.1356-0.079942-0.0044063-0.16051-0.0069241-0.24109-0.0069241-0.0075536 0-0.014478-6.2947e-4 -0.022031-6.2947e-4h-6.295e-4 -6.295e-4c-0.0075536 0-0.014478 6.2947e-4 -0.021402 6.2947e-4 -0.081201 0-0.16177 0.0025179-0.24172 0.0069241-1.3647 0.060429-2.3227 0.59296-2.9522 1.1356-0.08309 0.068612-0.16303 0.13911-0.24234 0.21276-0.65087-0.6408-1.755-1.3559-3.447-1.3559-1.3615 0-2.6419 0.53064-3.6043 1.4931-1.9872 1.9872-1.9872 5.2214 0 7.2087 0.91776 0.91839 1.7543 1.6549 2.5613 2.3668 1.1091 0.97819 2.1572 1.901 3.2424 3.1543 0.084978 0.097567 0.40789 0.50924 0.5917 0.74592l0.66094 0.85482 0.66157-0.85482c0.1838-0.23668 0.50609-0.64835 0.59233-0.74592 0.73962-0.85482 1.4623-1.556 2.1994-2.2258 0.73648 0.66975 1.4597 1.3703 2.2 2.2258 0.086237 0.097567 0.40789 0.50924 0.5917 0.74592l0.66157 0.85482 0.66157-0.85482c0.1838-0.23668 0.50672-0.64835 0.59107-0.74592 1.0858-1.2533 2.1333-2.1761 3.2424-3.1543 0.80761-0.71193 1.6435-1.4484 2.5613-2.3668 1.9872-1.9872 1.9872-5.2214 0-7.2087m-13.963 11.618c-1.1544-1.3294-2.2396-2.2869-3.3872-3.2984-0.78935-0.69556-1.6045-1.4132-2.4851-2.2944-1.3345-1.3351-1.3345-3.5068 6.2946e-4 -4.8419 0.64646-0.64583 1.5051-1.0021 2.4197-1.0021 0.38649 0 0.72515 0.054764 1.0204 0.14289 1.7568 0.41419 2.4316 1.9904 2.4316 1.9904s0.66786-1.5586 2.4033-1.9835c0.30151-0.091902 0.64898-0.14981 1.0493-0.14981 0.91399 0 1.7732 0.35628 2.4197 1.0027 1.3345 1.3345 1.3345 3.5061 0 4.8412-0.88062 0.88125-1.6958 1.5988-2.4839 2.2944-1.1488 1.0116-2.2333 1.969-3.3884 3.2984m12.779-5.5928c-0.88062 0.88125-1.6964 1.5988-2.4845 2.295-1.1481 1.0109-2.2333 1.9677-3.3878 3.2978-0.74844-0.863-1.4685-1.5674-2.195-2.2333 0.74088-0.65402 1.5082-1.3395 2.3448-2.1761 1.6247-1.6247 1.9205-4.0815 0.88881-6.0114 0.37013-0.4186 1.1242-1.016 2.4134-1.016 0.91524 0 1.7738 0.35628 2.4203 1.0027 1.3345 1.3345 1.3345 3.5061 0 4.8412"/></svg>