<?xml version="1.0" encoding="UTF-8"?><svg viewBox="0 0 24 24" xmlns="http://www.w3.org/2000/svg"><path d="m17.251 11.232c0-0.36658 0.24646-0.68861 0.64631-1.1826 0.49178-0.60514 1.1031-1.3586 1.1031-2.4849 0-1.9401-1.6462-2.7127-2.5305-3.1283-0.20077-0.094183-0.42805-0.20021-0.50701-0.26281-0.19344-0.15058-0.39986-0.49235-0.61868-0.85329-0.55833-0.92435-1.4032-2.3202-3.3438-2.3202-1.9716 0-2.7826 1.4077-3.3184 2.3377-0.20641 0.35756-0.40042 0.69425-0.58371 0.84088-0.077264 0.062037-0.32541 0.17652-0.52449 0.26901-0.89953 0.41508-2.5734 1.1888-2.5734 3.1171 0 1.1262 0.61134 1.8797 1.1026 2.4849 0.40098 0.49404 0.64631 0.81607 0.64631 1.1826 0 0.27691-0.087979 0.41339-0.30736 0.72188-0.28988 0.41001-0.68748 0.97003-0.68748 2.0122 0 1.6902 1.4201 2.7426 2.7933 3.7617 1.3896 1.0298 2.702 2.0027 2.702 3.5367v0.0022558 1.4872h1.5013v-1.4894c0-1.534 1.3124-2.5068 2.702-3.5367 1.3727-1.0191 2.7933-2.0715 2.7933-3.7617 0-1.0422-0.39704-1.6022-0.68804-2.0122-0.21882-0.30849-0.30736-0.44497-0.30736-0.72188m-0.91645 1.5893c0.23856 0.33725 0.41113 0.58089 0.41113 1.1449 0 0.93506-1.0129 1.6857-2.1859 2.5565-0.61134 0.45287-1.2543 0.92942-1.8087 1.4816v-1.9271l2.2841-2.2852-1.0608-1.0608-1.2233 1.2238v-2.8785l2.7798-2.7809-1.0608-1.0614-1.719 1.7201v-3.6901h-1.5013v3.6901l-1.719-1.7201-1.0608 1.0614 2.7798 2.7809v2.8785l-1.2238-1.2238-1.0603 1.0608 2.2841 2.2852v1.9271c-0.55495-0.55213-1.1973-1.0287-1.8081-1.4816-1.1736-0.87077-2.1871-1.6214-2.1871-2.5565 0-0.56397 0.17257-0.80761 0.41113-1.1449 0.26055-0.36658 0.58371-0.8234 0.58371-1.5893 0-0.91814-0.52111-1.5605-0.98131-2.1273-0.4117-0.50814-0.76756-0.94578-0.76756-1.5402 0-0.54931 0.12577-1.0264 1.7026-1.7556 0.32879-0.15227 0.61304-0.28311 0.83242-0.45907 0.4038-0.32316 0.66661-0.77997 0.94521-1.2627 0.56905-0.98751 0.9892-1.5864 2.0196-1.5864 1.0214 0 1.4596 0.60232 2.0602 1.596 0.29214 0.48163 0.56848 0.93845 0.97792 1.2582 0.21262 0.16637 0.48219 0.29326 0.79351 0.43933 0.97623 0.45907 1.6677 0.85385 1.6677 1.7703 0 0.59442-0.3553 1.0321-0.76756 1.5402-0.45907 0.56679-0.98131 1.2092-0.98131 2.1273 0 0.76587 0.32372 1.2227 0.58371 1.5893"/></svg>