<?xml version="1.0" encoding="UTF-8"?><svg viewBox="0 0 24 24" xmlns="http://www.w3.org/2000/svg"><path d="m13.382 16.439c3.1679-0.39084 5.6178-2.8507 5.6178-5.8195 0-1.6689-0.37094-3.15-0.72926-4.582-0.34705-1.3902-0.67551-2.7034-0.67551-4.1546v-0.88255h-10.191v0.88255c0 1.4512-0.3278 2.7644-0.67485 4.1546-0.35833 1.432-0.72926 2.9131-0.72926 4.582 0 2.9688 2.4492 5.4287 5.6178 5.8195v5.1553l-4.7293-6.636e-4v1.7651h11.223v-1.7651l-4.7293 6.636e-4v-5.1553zm-4.2455-13.673h6.7266c0.099536 1.3165 0.40146 2.5242 0.69476 3.7001 0.13006 0.51891 0.25747 1.0279 0.36563 1.5362-0.26145 0.072993-0.47976 0.16257-0.67485 0.24353-0.33643 0.13935-0.58129 0.24154-1.0119 0.24154s-0.67419-0.10219-1.0113-0.24154c-0.41009-0.16987-0.91971-0.38155-1.7259-0.38155-0.80557 0-1.3159 0.21168-1.7253 0.38155-0.33709 0.13935-0.58129 0.24154-1.0119 0.24154-0.43066 0-0.67485-0.10219-1.0113-0.24154-0.19509-0.080956-0.41407-0.17054-0.67551-0.24353 0.10816-0.50829 0.23557-1.0173 0.36629-1.5362 0.29263-1.1758 0.59456-2.3835 0.69476-3.7001zm-1.3716 7.8534c0-0.28865 0.014599-0.572 0.037823-0.85136 0.087591 0.032515 0.17585 0.069011 0.2714 0.10816 0.40345 0.16722 0.90577 0.37624 1.6881 0.37624 0.78301 0 1.284-0.20902 1.6881-0.37624 0.34506-0.14267 0.59456-0.24685 1.0491-0.24685 0.45455 0 0.70405 0.10418 1.0498 0.24685 0.40345 0.16722 0.90511 0.37624 1.6875 0.37624 0.78301 0 1.2847-0.20902 1.6888-0.37624 0.09489-0.039151 0.18381-0.075647 0.2714-0.10816 0.023225 0.27936 0.03716 0.56271 0.03716 0.85136 0 2.2668-2.1241 4.1102-4.7346 4.1102-2.6105 0-4.7346-1.8434-4.7346-4.1102z"/></svg>