<?xml version="1.0" encoding="UTF-8"?><svg viewBox="0 0 24 24" xmlns="http://www.w3.org/2000/svg"><path d="m12.014 1.019c6.0561 0.0010552 10.966 4.9107 10.966 10.966 0 6.0555-4.9112 10.965-10.966 10.965-6.0545 0-10.965-4.9091-10.965-10.965 0-6.0561 4.9107-10.965 10.965-10.966zm0 1.8275c-5.0384 0-9.1361 4.1003-9.1361 9.1387 0 5.0384 4.0988 9.1376 9.1376 9.1376 5.0389 0 9.1382-4.0993 9.1382-9.1376 0-5.0384-4.1009-9.1387-9.1398-9.1387zm4.3552 11.256 1.6429 0.80086c-1.1092 2.3021-3.4427 3.7618-5.998 3.7521-2.5569 0.011271-4.8923-1.449-6.0017-3.7527l1.6429-0.80034c0.81118 1.6674 2.5028 2.7256 4.357 2.7256s3.5458-1.0582 4.357-2.7256zm-8.3146-5.7728c0.84119 0 1.5231 0.68192 1.5231 1.5231 0 0.84119-0.68192 1.5231-1.5231 1.5231-0.84119 0-1.5231-0.68192-1.5231-1.5231 0-0.84119 0.68192-1.5231 1.5231-1.5231zm7.9195 0c0.84119 0 1.5231 0.68192 1.5231 1.5231 0 0.84119-0.68192 1.5231-1.5231 1.5231-0.84119 0-1.5231-0.68192-1.5231-1.5231 0-0.84119 0.68192-1.5231 1.5231-1.5231z"/></svg>