<?xml version="1.0" encoding="UTF-8"?><svg viewBox="0 0 24 24" xmlns="http://www.w3.org/2000/svg"><path d="m16.053 5.9901c-0.075383 0-0.14795 0.0049316-0.22051 0.0070452v-4.9971h-3.2535c-2.432 0-4.4103 1.9797-4.4103 4.4117v0.58616c-0.074679-0.0021136-0.14513-0.0077497-0.22192-0.0077497h-6.9473v16.212h6.9473c1.8367 0 2.7998 0.58264 3.5233 1.228l0.44737 0.44737 0.010568-0.011272c0.023954 0.023954 0.047907 0.048612 0.071156 0.07327 0.8102-0.8102 1.738-1.7373 4.0538-1.7373h6.9466v-16.212h-6.9466zm-6.0102-0.57841c0-1.3992 1.1378-2.5377 2.5363-2.5377h1.3787v10.864h-1.3794c-0.93983 0-1.8162 0.30506-2.5356 0.82147v-9.1475zm0 12.746c0.014795-0.82429 0.41567-1.5563 1.0194-2.0227v4.2363l-0.27828-0.27758c-0.42694-0.42764-0.71931-1.166-0.74115-1.8606v-0.075384zm-7.1692 2.1699v-12.464h5.0732c0.076793 0 0.14795 0.0042271 0.22192 0.0070452l-0.001409 10.279c0 0.76299 0.19304 1.538 0.53332 2.208-0.23883-0.019726-0.48964-0.030294-0.75383-0.030294h-5.0732zm18.252 0h-5.0725c-1.3182 0-2.3249 0.2494-3.1161 0.6073v-5.3233h2.8956v-7.7412c0.071861-0.0028181 0.14443-0.0063407 0.22051-0.0063407h5.0725v12.464z"/></svg>