<?xml version="1.0" encoding="UTF-8"?><svg viewBox="0 0 24 24" xmlns="http://www.w3.org/2000/svg"><path d="m15.358 0.053525c-3.3015-0.0017292-6.3104 1.8931-7.7356 4.8712-1.4251 2.9781-1.0131 6.5099 1.0593 9.0799l-8.6728 8.6717 1.299 1.2996 8.6745-8.6722c2.9342 2.3654 7.0688 2.5378 10.19 0.42493 3.1209-2.1129 4.4965-6.0158 3.3901-9.6186-1.1064-3.6028-4.4354-6.061-8.2043-6.0581v0.0017292zm0 15.312c-3.7209 0-6.7373-3.0164-6.7373-6.7373 0-3.7209 3.0164-6.7373 6.7373-6.7373s6.7373 3.0164 6.7373 6.7373c-0.0038057 3.7195-3.0178 6.734-6.7373 6.7384v-0.0011511z"/></svg>