<svg width="24" height="24" viewBox="0 0 24 24" fill="none" xmlns="http://www.w3.org/2000/svg">
<path fill-rule="evenodd" clip-rule="evenodd" d="M5.20198 22.2312L5.41934 20.5028L6.15589 14.6557L2.18333 10.3775L1 9.11495L2.69047 8.78397L8.40175 7.70525L11.1789 2.53228L12 1L12.8211 2.53228L15.5982 7.70525L21.3095 8.78397L23 9.11495L21.8167 10.3775L17.832 14.6679L18.5686 20.5028L18.798 22.2312L17.2404 21.4835L12 18.9705L6.75961 21.4835L5.20198 22.2312H5.20198ZM7.49616 19.0196L11.6015 17.046L12 16.8621L12.3985 17.046L16.4918 19.0196L15.9122 14.4595L15.8518 14.006L16.1657 13.6873L19.2689 10.3408L14.8255 9.49495L14.3787 9.40915L14.1734 9.00462L12 4.95941L9.82657 9.00462L9.60922 9.40915L9.17454 9.49495L4.73107 10.3408L7.83426 13.6873L8.13614 14.006L8.08782 14.4595L7.49616 19.0196Z" fill="black"/>
</svg>
