<svg width="24" height="24" viewBox="0 0 24 24" fill="none" xmlns="http://www.w3.org/2000/svg">
<path fill-rule="evenodd" clip-rule="evenodd" d="M15 2.5V21.5L9.273 17H6C3.23858 17 1 14.7614 1 12C1 9.28538 3.16334 7.07603 5.86005 7.00192L9.273 7L15 2.5ZM13 6.8115L10 8.926V15.073L13 17.188V6.8115ZM17.2218 7.73654C19.5049 10.0196 19.5634 13.6848 17.3974 16.0388L17.2218 16.2218L15.8076 14.8076C17.3176 13.2976 17.368 10.8806 15.9586 9.31013L15.8076 9.15076L17.2218 7.73654ZM6.02745 8.99981L5.91499 9.00117C4.29498 9.04569 3 10.3746 3 12C3 13.6192 4.28279 14.9388 5.88753 14.9979L6 15H8V9L6.02745 8.99981Z" fill="black"/>
</svg>
