<?xml version="1.0" encoding="UTF-8"?>
<svg width="1200px" height="400px" viewBox="0 0 1200 400" version="1.1" 
    xmlns="http://www.w3.org/2000/svg" 
    xmlns:xlink="http://www.w3.org/1999/xlink">
    <defs>
        <polygon id="path-1" points="25.5359165 7 22.3626565 10.17326 33.4896053 21.3019203 6 21.3019203 6 25.7913814 33.4878937 25.7913814 22.3626565 36.9166186 25.5359165 40.088167 42.08 23.5440835"></polygon>
    </defs>
    <g id="for-developers" stroke="none" stroke-width="1" fill="none" fill-rule="evenodd">
        <rect fill="#FFFFFF" x="0" y="0" width="1200" height="400"></rect>
        <rect id="Rectangle-6" fill="#00DBA3" transform="translate(600.000000, 259.593814) rotate(-180.000000) translate(-600.000000, -259.593814) " x="-120" y="119.093814" width="1440" height="281"></rect>
        <rect id="Rectangle" fill="#27272D" x="873.19131" y="224" width="301" height="176" rx="2"></rect>
        <path d="M908.92,362 L911.032,362 L911.032,354.512 L918.808,354.512 L918.808,352.592 L911.032,352.592 L911.032,347.312 L919.192,347.312 L919.192,345.392 L908.92,345.392 L908.92,362 Z M926.584,362.288 C929.944,362.288 932.056,359.6 932.056,355.952 C932.056,352.304 929.944,349.616 926.584,349.616 C923.224,349.616 921.112,352.304 921.112,355.952 C921.112,359.6 923.224,362.288 926.584,362.288 Z M923.128,355.952 C923.128,353.456 924.28,351.344 926.584,351.344 C928.888,351.344 930.04,353.456 930.04,355.952 C930.04,358.448 928.888,360.56 926.584,360.56 C924.28,360.56 923.128,358.448 923.128,355.952 Z M934.84,362 L936.856,362 L936.856,355.088 C936.856,353.192 937.528,351.536 939.112,351.536 C940.168,351.536 940.648,352.376 940.648,353.432 C940.648,354.2 940.432,355.232 940.432,355.232 L942.4,354.056 L942.440146,353.643303 C942.456663,353.426746 942.472,353.142154 942.472,352.832 C942.472,351.08 941.368,349.712 939.712,349.712 C938.272,349.712 937.24,350.672 936.76,352.016 L936.712,352.016 L936.856,349.904 L934.84,349.904 L934.84,362 Z M949.72,345.392 L949.72,362 L955.288,362 C959.992,362 963.256,359.024 963.256,353.648 C963.256,348.272 959.992,345.392 955.288,345.392 L949.72,345.392 Z M961.096,353.648 C961.096,357.296 959.2,360.08 955.888,360.08 L951.832,360.08 L951.832,347.312 L955.888,347.312 C959.2,347.312 961.096,350 961.096,353.648 Z M967.6,356.432 L976.072,356.432 L976.113983,356.229085 C976.15649,355.996082 976.216,355.581714 976.216,355.088 C976.216,351.92 974.296,349.616 971.128,349.616 C967.864,349.616 965.656,352.304 965.656,355.952 C965.656,359.696 967.72,362.288 971.176,362.288 C973.672,362.288 975.472,360.68 976.144,358.952 L974.248,357.824 C973.984,359.312 972.904,360.56 971.176,360.56 C968.992,360.56 967.744,358.736 967.6,356.432 Z M971.128,351.296 C973.144,351.296 974.224,352.976 974.224,354.8 L967.672,354.8 C967.984,352.832 969.16,351.296 971.128,351.296 Z M981.712,356.072 L979.624,349.904 L977.464,349.904 L981.88,362 L983.896,362 L988.312,349.904 L986.248,349.904 L982.96,359.648 L982.96,359.648 L982.912,359.648 L981.712,356.072 L981.712,356.072 Z M991.216,356.432 L999.688,356.432 L999.729983,356.229085 C999.77249,355.996082 999.832,355.581714 999.832,355.088 C999.832,351.92 997.912,349.616 994.744,349.616 C991.48,349.616 989.272,352.304 989.272,355.952 C989.272,359.696 991.336,362.288 994.792,362.288 C997.288,362.288 999.088,360.68 999.76,358.952 L997.864,357.824 C997.6,359.312 996.52,360.56 994.792,360.56 C992.608,360.56 991.36,358.736 991.216,356.432 Z M994.744,351.296 C996.76,351.296 997.84,352.976 997.84,354.8 L991.288,354.8 C991.6,352.832 992.776,351.296 994.744,351.296 Z M1002.52,362 L1004.536,362 L1004.536,344.624 L1002.52,344.624 L1002.52,362 Z M1012.792,362.288 C1016.152,362.288 1018.264,359.6 1018.264,355.952 C1018.264,352.304 1016.152,349.616 1012.792,349.616 C1009.432,349.616 1007.32,352.304 1007.32,355.952 C1007.32,359.6 1009.432,362.288 1012.792,362.288 Z M1009.336,355.952 C1009.336,353.456 1010.488,351.344 1012.792,351.344 C1015.096,351.344 1016.248,353.456 1016.248,355.952 C1016.248,358.448 1015.096,360.56 1012.792,360.56 C1010.488,360.56 1009.336,358.448 1009.336,355.952 Z M1022.92,352.016 L1023.064,349.904 L1021.048,349.904 L1021.048,366.704 L1023.064,366.704 L1023.064,360.176 L1023.112,360.176 C1023.544,360.944 1024.696,362.288 1026.808,362.288 C1029.592,362.288 1031.896,359.696 1031.896,355.952 C1031.896,352.208 1029.592,349.616 1026.808,349.616 C1024.696,349.616 1023.448,350.96 1022.968,352.016 L1022.92,352.016 Z M1022.968,355.952 C1022.968,353.456 1024.12,351.344 1026.424,351.344 C1028.728,351.344 1029.88,353.456 1029.88,355.952 C1029.88,358.448 1028.728,360.56 1026.424,360.56 C1024.12,360.56 1022.968,358.448 1022.968,355.952 Z M1036.048,356.432 L1044.52,356.432 L1044.56198,356.229085 C1044.60449,355.996082 1044.664,355.581714 1044.664,355.088 C1044.664,351.92 1042.744,349.616 1039.576,349.616 C1036.312,349.616 1034.104,352.304 1034.104,355.952 C1034.104,359.696 1036.168,362.288 1039.624,362.288 C1042.12,362.288 1043.92,360.68 1044.592,358.952 L1042.696,357.824 C1042.432,359.312 1041.352,360.56 1039.624,360.56 C1037.44,360.56 1036.192,358.736 1036.048,356.432 Z M1039.576,351.296 C1041.592,351.296 1042.672,352.976 1042.672,354.8 L1036.12,354.8 C1036.432,352.832 1037.608,351.296 1039.576,351.296 Z M1047.352,362 L1049.368,362 L1049.368,355.088 C1049.368,353.192 1050.04,351.536 1051.624,351.536 C1052.68,351.536 1053.16,352.376 1053.16,353.432 C1053.16,354.2 1052.944,355.232 1052.944,355.232 L1054.912,354.056 L1054.95215,353.643303 C1054.96866,353.426746 1054.984,353.142154 1054.984,352.832 C1054.984,351.08 1053.88,349.712 1052.224,349.712 C1050.784,349.712 1049.752,350.672 1049.272,352.016 L1049.224,352.016 L1049.368,349.904 L1047.352,349.904 L1047.352,362 Z M1062.16,360.656 C1063.408,360.656 1064.56,360.056 1064.56,358.808 C1064.56,357.706667 1063.58726,357.273185 1062.35319,356.90907 L1060.90052,356.502096 C1059.13919,355.994 1057.072,355.184 1057.072,353.024 C1057.072,350.912 1059.088,349.616 1061.2,349.616 C1063.6,349.616 1065.664,350.888 1066.432,352.784 L1064.56,353.912 C1064.32,352.568 1063.144,351.248 1061.296,351.248 C1060.144,351.248 1059.016,351.8 1059.016,352.952 C1059.016,354.32 1061.008,354.512 1062.736,355.064 L1063.13524,355.195605 C1064.97781,355.821013 1066.504,356.6304 1066.504,358.736 C1066.504,360.944 1064.464,362.288 1062.256,362.288 C1059.184,362.288 1057.24,360.824 1056.544,358.568 L1058.464,357.416 C1058.656,359.048 1059.856,360.656 1062.16,360.656 Z" id="ForDevelopers" fill="#FFFFFF" fill-rule="nonzero"></path>
        <g id="Icons/Arrow-right/48" transform="translate(1096.000000, 329.000000)">
            <rect id="Bounding-box" x="0" y="0" width="48" height="48"></rect>
            <mask id="mask-2" fill="white">
                <use xlink:href="#path-1"></use>
            </mask>
            <use id="Color" fill="#FFFFFF" fill-rule="evenodd" xlink:href="#path-1"></use>
        </g>
        <path d="M1320,70.6938141 L1320,127.093814 L-120,127.093814 L-120,70.6938141 L1320,70.6938141 Z M141.619985,127.090988 C109.571537,127.090988 108.263437,85.9604658 76.2149886,85.9604658 C44.1814167,85.9604658 44.1665474,127.052813 10.856421,127.090962 L10.9008327,127.090988 C-21.1698713,127.090988 -22.4788796,85.5275129 -54.5495836,85.5275129 C-86.6202877,85.5275129 -86.6202877,127.090988 -120,127.090988 L141.619985,127.090988 Z M1254.595,85.9604658 C1222.54656,85.9604658 1222.54656,127.090988 1189.19001,127.090988 L1320,127.090988 C1287.95155,127.090988 1286.64345,85.9604658 1254.595,85.9604658 Z M1123.78501,85.9604658 C1091.73656,85.9604658 1091.73656,127.090988 1058.38002,127.090988 L1189.19001,127.090988 C1157.14156,127.090988 1155.83346,85.9604658 1123.78501,85.9604658 Z M992.975019,85.9604658 C960.926571,85.9604658 960.926571,127.090988 927.570023,127.090988 L1058.38002,127.090988 C1026.33157,127.090988 1025.02347,85.9604658 992.975019,85.9604658 Z M862.165026,85.9604658 C830.116578,85.9604658 830.116578,127.090988 796.76003,127.090988 L927.570023,127.090988 C895.521575,127.090988 894.213475,85.9604658 862.165026,85.9604658 Z M731.355034,85.9604658 C699.306586,85.9604658 699.306586,127.090988 665.950038,127.090988 L796.76003,127.090988 C764.711582,127.090988 763.403482,85.9604658 731.355034,85.9604658 Z M600.545042,85.9604658 C568.496593,85.9604658 568.496593,127.090988 535.140045,127.090988 L665.950038,127.090988 C633.90159,127.090988 632.59349,85.9604658 600.545042,85.9604658 Z M468.644966,85.9604658 C436.596518,85.9604658 436.596518,127.090988 403.23997,127.090988 L534.049962,127.090988 C502.001514,127.090988 500.693414,85.9604658 468.644966,85.9604658 Z M337.834974,85.9604658 C305.786525,85.9604658 305.786525,127.090988 272.429977,127.090988 L403.23997,127.090988 C371.191522,127.090988 369.883422,85.9604658 337.834974,85.9604658 Z M207.024981,85.9604658 C174.976533,85.9604658 174.976533,127.090988 141.619985,127.090988 L272.429977,127.090988 C240.381529,127.090988 239.073429,85.9604658 207.024981,85.9604658 Z" id="pulssi" fill="#00DBA3" transform="translate(600.000000, 98.893814) rotate(-180.000000) translate(-600.000000, -98.893814) "></path>
        <text id="&lt;/&gt;" font-family="HelsinkiGrotesk-Regular, Helsinki Grotesk" font-size="160" font-weight="normal" fill="#27272D">
            <tspan x="54" y="342">&lt;/&gt;</tspan>
        </text>
    </g>
</svg>