<?xml version="1.0" encoding="UTF-8"?>
<svg version="1.1" viewBox="0 0 78 36" xmlns="http://www.w3.org/2000/svg">
<g>
<path d="m75.753 2.251v20.7c0 3.951-3.2751 7.178-7.3095 7.178h-22.261c-2.6738 0-5.2053 0.96021-7.183 2.739-1.9777-1.763-4.5091-2.739-7.183-2.739h-22.308c-4.0028 0-7.2462-3.2112-7.2462-7.178v-20.7h73.491zm-35.567 32.584c1.598-1.5899 3.7339-2.4714 6.0122-2.4714h22.245c5.2686 0 9.5562-4.2186 9.5562-9.4132v-22.951h-78v22.935c0 5.1946 4.256 9.4132 9.5087 9.4132h22.308c2.2625 0 4.3984 0.8815 6.0122 2.4714l1.1866 1.1806 1.1708-1.1648z"/>
<path d="m67.522 11.676c0 0.68177-0.5562 1.1776-1.2554 1.1776s-1.2554-0.49583-1.2554-1.1776c0-0.68177 0.5562-1.1776 1.2554-1.1776 0.69923-0.03099 1.2554 0.46484 1.2554 1.1776zm-2.3519 9.6222h2.1771v-7.5459h-2.1771v7.5459zm-3.9093-4.5555 2.8446 4.5555h-2.3678l-1.907-3.0215-1.033 1.2706v1.7509h-2.1613v-10.846h2.1613v5.0048c0 0.92968-0.11124 1.8594-0.11124 1.8594h0.047675s0.50853-0.82122 0.9376-1.41l1.6527-2.1538h2.5426l-2.6062 2.9905zm-6.8175-0.27891c0-1.8749-0.9376-2.8975-2.4314-2.8975-1.2713 0-1.9388 0.72825-2.3202 1.4255h-0.047675l0.11124-1.2396h-2.1613v7.5459h2.1613v-4.478c0-0.86771 0.52442-1.472 1.3349-1.472s1.1601 0.52682 1.1601 1.534v4.416h2.1771l0.015892-4.8344zm-8.9311-4.7879c0 0.68177-0.5562 1.1776-1.2554 1.1776s-1.2554-0.49583-1.2554-1.1776c0-0.68177 0.5562-1.1776 1.2554-1.1776 0.71512-0.03099 1.2554 0.46484 1.2554 1.1776zm-2.3519 9.6222h2.1771v-7.5459h-2.1771v7.5459zm-3.7504-2.1073c0-0.6043-0.85814-0.72825-1.8593-1.0072-1.1601-0.2944-2.6221-0.86771-2.6221-2.3087 0-1.4255 1.3985-2.3242 3.0512-2.3242 1.5415 0 2.9558 0.71276 3.5438 1.7199l-1.8593 1.0227c-0.1907-0.66627-0.76279-1.1931-1.6209-1.1931-0.5562 0-1.0171 0.23242-1.0171 0.68177 0 0.57331 1.0171 0.63528 2.1613 0.99166 1.2078 0.37187 2.3202 0.91419 2.3202 2.2932 0 1.5185-1.4461 2.4172-3.1147 2.4172-1.8116 0-3.2419-0.74375-3.8775-1.9523l1.8911-1.0381c0.23837 0.82122 0.92171 1.441 1.9547 1.441 0.61977 0 1.0488-0.24792 1.0488-0.74375zm-6.881-8.6771h-2.1771v8.6926c0 0.77474 0.17481 1.348 0.50853 1.7044 0.34961 0.35638 0.88993 0.52682 1.6368 0.52682 0.25426 0 0.52442-0.03099 0.77869-0.077474 0.27016-0.061979 0.47675-0.13945 0.65155-0.23242l0.1907-1.4255c-0.17481 0.061979-0.31783 0.10846-0.46086 0.12396-0.12713 0.03099-0.28605 0.03099-0.46086 0.03099-0.28605 0-0.41318-0.077474-0.50853-0.21693-0.11124-0.13945-0.15892-0.38737-0.15892-0.74375v-8.3827zm-7.2465 4.5709c-0.79458 0-1.4461 0.55781-1.6209 1.5805h3.0512c0.015892-0.8987-0.58799-1.5805-1.4302-1.5805zm3.3531 3.006h-5.0058c0.095349 1.2241 0.79458 1.8284 1.7004 1.8284 0.81047 0 1.3667-0.52682 1.4938-1.2396l1.8275 1.0072c-0.54031 0.96067-1.7004 1.7974-3.3213 1.7974-2.1613 0-3.7504-1.472-3.7504-3.9512 0-2.4637 1.6209-3.9512 3.7027-3.9512s3.4644 1.441 3.4644 3.4863c-0.015892 0.6043-0.11124 1.0227-0.11124 1.0227zm-11.076 3.2074h2.2566v-10.381h-2.2566v4.1061h-4.243v-4.0906h-2.2566v10.366h2.2566v-4.292h4.243v4.292z"/>
</g>
</svg>