<?xml version="1.0" encoding="UTF-8"?>
<svg version="1.1" viewBox="0 0 104 36" xmlns="http://www.w3.org/2000/svg">
<g>
<path d="m103.1-9.9476e-14v22.935c0 5.1788-4.2659 9.3975-9.5234 9.3975l-34.867 0.031482c-2.251 0-4.376 0.8815-5.9816 2.4714l-1.1806 1.1648-1.1806-1.1648c-1.5899-1.5899-3.7149-2.4714-5.9816-2.4714h-34.914c-5.2261 0-9.4762-4.2186-9.4762-9.3975v-22.966h103.1zm-2.2352 2.2352h-98.618v20.731c0 3.951 3.2427 7.1622 7.2252 7.1622h34.914c2.676 0 5.1946 0.96021 7.1622 2.739 1.9676-1.7787 4.4862-2.739 7.1622-2.739l34.867-0.031482c4.014 0 7.2882-3.2112 7.2882-7.1622v-20.7zm-38.849 9.854 1.9991 1.1491c-0.031482 1.0074-0.48798 1.4797-1.3537 1.4797-0.20463 0-0.47223-0.047223-0.6139-0.094447v0.062965c0.42501 0.33056 0.94447 0.8815 0.94447 1.763 0 1.5111-1.4639 2.4714-3.2742 2.4714-0.83428 0-1.5584 0.2676-1.5584 0.67687 0 0.31482 0.2676 0.45649 0.91299 0.45649 0.64539 0 1.3695-0.12593 2.2038-0.12593 1.6528 0 2.7547 0.66113 2.7547 2.1565 0 1.7945-2.0149 2.5028-4.2816 2.5028-2.1093 0-4.0297-0.59816-4.0297-1.9519 0-0.81854 0.85002-1.3065 1.6213-1.4482v-0.047224c-0.58242-0.17315-1.1019-0.55094-1.1019-1.2121 0-0.86576 0.8815-1.338 1.7787-1.5269v-0.047223c-0.83428-0.33056-1.5426-1.0074-1.5426-2.188 0-1.5111 1.3223-2.5501 3.1325-2.5501 0.69261 0 1.0861 0.14167 1.6056 0.14167 0.64539 0 0.8815-0.36205 0.8815-0.94447 0-0.2676-0.047223-0.5352-0.078706-0.72409zm-1.7315 9.5391c-0.92873 0-2.7232 0.078706-2.7232 0.78706 0 0.5352 0.89725 0.78706 2.1565 0.8028 1.4167 0 2.2352-0.2676 2.2352-0.91299 0-0.50372-0.75558-0.67687-1.6686-0.67687zm28.995-8.0122c1.5269 0 2.9279 0.72409 3.526 1.7473l-1.8417 1.0389c-0.18889-0.67687-0.77132-1.2121-1.6056-1.2121-0.55094 0-1.0074 0.23612-1.0074 0.67687 0 0.58242 1.0074 0.64539 2.1565 1.0074 1.1963 0.37779 2.2982 0.92873 2.2982 2.3297 0 1.5426-1.4324 2.4556-3.101 2.4556-1.7945 0-3.2112-0.77132-3.8408-1.9834l1.8732-1.0547c0.25186 0.83428 0.91299 1.4639 1.9362 1.4639 0.59816 0 1.0232-0.2676 1.0232-0.73983 0-0.6139-0.85002-0.75557-1.8417-1.0232-1.1648-0.31482-2.613-0.8815-2.613-2.3454 0-1.4482 1.3852-2.3612 3.038-2.3612zm-14.655 0c2.0778 0 3.6992 1.5269 3.6992 4.014s-1.6056 4.014-3.6992 4.014c-2.1093 0-3.7149-1.5269-3.7149-4.014s1.6056-4.014 3.7149-4.014zm-49.679 0c2.0621 0 3.4316 1.4639 3.4316 3.5418 0.015741 0.6139-0.094447 1.0389-0.094447 1.0389h-4.9742c0.094447 1.2436 0.78706 1.8575 1.6843 1.8575 0.8028 0 1.3537-0.5352 1.4797-1.2593l1.8102 1.0232c-0.5352 0.97595-1.6843 1.826-3.2899 1.826-2.1408 0-3.7149-1.4954-3.7149-4.014 0-2.4871 1.6056-4.014 3.6677-4.014zm13.065-0.015741c1.5269 0 2.9279 0.72409 3.526 1.7473l-1.8417 1.0389c-0.18889-0.67687-0.75558-1.2121-1.6056-1.2121-0.55094 0-1.0074 0.23612-1.0074 0.67687 0 0.58242 1.0074 0.64539 2.1408 1.0074 1.1963 0.37779 2.2982 0.92873 2.2982 2.3297 0 1.5426-1.4324 2.4399-3.0853 2.4399-1.7945 0-3.2112-0.75558-3.8408-1.9834l1.8732-1.0547c0.23612 0.83428 0.91299 1.4639 1.9362 1.4639 0.58242 0.015741 1.0074-0.23612 1.0074-0.72409 0-0.6139-0.85002-0.73983-1.8417-1.0232-1.1648-0.29908-2.5973-0.8815-2.5973-2.3454 0-1.4482 1.3852-2.3612 3.038-2.3612zm-5.714-3.0695v8.5002c0 0.36205 0.047223 0.6139 0.15741 0.75558 0.094447 0.15741 0.22038 0.22038 0.50372 0.22038 0.17315 0 0.33056 0 0.45649-0.031482 0.14167-0.015741 0.28334-0.062965 0.45649-0.12593l-0.18889 1.4482c-0.17315 0.094447-0.37779 0.17315-0.64539 0.23612-0.25186 0.047223-0.51946 0.078706-0.77132 0.078706-0.73983 0-1.275-0.17315-1.6213-0.5352-0.33056-0.36205-0.50372-0.94447-0.50372-1.7315v-8.815h2.1565zm19.818 3.0853c1.4797 0 2.4084 1.0232 2.4084 2.9279v4.9112h-2.1565v-4.4862c0-1.0074-0.36205-1.5426-1.1648-1.5426-0.8028 0-1.3223 0.6139-1.3223 1.4954v4.5492h-2.1408v-7.6659h2.1408l-0.11019 1.2593h0.047223c0.37779-0.70835 1.0389-1.4482 2.2982-1.4482zm16.733-3.3371c1.3695 0 2.2667 0.72409 2.739 1.401l-1.8575 1.1334c-0.031482-0.45649-0.25186-0.92873-0.77132-0.92873-0.5352 0-0.78706 0.40927-0.78706 1.0861v0.83428h1.6843v1.6371h-1.6843v6.0289h-2.1408v-6.0289h-1.1806v-1.6371h1.1806v-0.81854c0-1.7945 1.1806-2.7075 2.8177-2.7075zm14.812 3.3843c1.0861 0 1.6843 0.91299 1.6843 2.0306 0 0.50372-0.078706 0.89725-0.078706 0.89725l-1.9362 1.1176c0.031482-0.22038 0.12593-0.73983 0.12593-1.2593 0-0.50372-0.18889-0.97595-0.72409-0.97595-0.67687 0-0.94447 0.62965-0.94447 1.6213v4.376h-2.1565v-7.6502h2.1565l-0.11019 1.2593h0.047224c0.37779-0.73983 0.96021-1.4167 1.9362-1.4167zm-70.52-2.7232v4.1714h4.2029v-4.1714h2.2352v10.515h-2.2352v-4.3603h-4.2029v4.3603h-2.2352v-10.515h2.2352zm32.332 2.8491v7.6659h-2.1565v-7.6659h2.1565zm29.153 1.4639c-1.0704 0-1.5426 1.0074-1.5426 2.3769 0 1.3695 0.47223 2.3769 1.5426 2.3769 1.0547 0 1.5269-1.0074 1.5269-2.3769 0-1.3695-0.47223-2.3769-1.5269-2.3769zm-14.891-0.18889c-0.72409 0-1.3065 0.47223-1.3065 1.1963 0 0.73983 0.58242 1.2121 1.3065 1.1963 0.72409 0 1.3065-0.47223 1.3065-1.1963s-0.58242-1.1963-1.3065-1.1963zm-34.772 0.094447c-0.78706 0-1.4324 0.56668-1.6056 1.6056h3.038c0-0.91299-0.59816-1.6056-1.4324-1.6056zm19.44-4.6751c0.69261 0 1.2436 0.50372 1.2436 1.1963s-0.55094 1.1963-1.2436 1.1963c-0.70835 0-1.2436-0.50372-1.2436-1.1963s0.55094-1.1963 1.2436-1.1963z"/>
</g>
</svg>