<?xml version="1.0" encoding="UTF-8"?>
<svg width="128px" height="128px" viewBox="0 0 128 128" version="1.1" xmlns="http://www.w3.org/2000/svg" xmlns:xlink="http://www.w3.org/1999/xlink">
    <title>start-contribute</title>
    <g id="start-contribute" stroke="none" stroke-width="1" fill="none" fill-rule="evenodd">
        <circle id="Oval-Copy" fill="#0072C6" cx="64" cy="64" r="64"></circle>
        <path d="M42,102 L42,78 L60,78 L60,42 L102,42 L102,102 L42,102 Z M59.9993942,83.9997925 L47.9993942,83.9997925 L47.9993942,95.9997925 L59.9993942,95.9997925 L59.9993942,83.9997925 Z M77.999,84 L66,84 L66,95.999 L77.9993942,95.9997925 L77.999,84 Z M95.999,84 L84,84 L84,95.999 L95.9993942,95.9997925 L95.999,84 Z M77.999,66 L65.999,66 L65.9993942,77.9997925 L77.9993942,77.9997925 L77.999,66 Z M95.999,66 L84,66 L84,77.999 L95.9993942,77.9997925 L95.999,66 Z M77.9993942,47.9997925 L65.9993942,47.9997925 L65.9993942,59.9997925 L77.9993942,59.9997925 L77.9993942,47.9997925 Z M95.9993942,47.9997925 L84,47.999 L84,59.999 L95.9993942,59.9997925 L95.9993942,47.9997925 Z" id="Shape" fill="#FFFFFF" fill-rule="nonzero"></path>
        <path d="M50.0263099,70.3902709 L26.0263099,70.3902709 L26.0263099,28.3902709 L50.0263099,28.3902709 L50.0263099,70.3902709 Z M44.0263099,52.3902709 L32.0263099,52.3902709 L32.0263099,64.3902709 L44.0263099,64.3902709 L44.0263099,52.3902709 Z M44.0263099,34.3902709 L32.0263099,34.3902709 L32.0263099,46.3902709 L44.0263099,46.3902709 L44.0263099,34.3902709 Z" id="Shape" fill="#FFFFFF" fill-rule="nonzero" transform="translate(38.026310, 49.390271) rotate(-15.000000) translate(-38.026310, -49.390271) "></path>
    </g>
</svg>