<?xml version="1.0" encoding="UTF-8"?>
<svg width="600px" height="128px" viewBox="0 0 600 128" version="1.1" xmlns="http://www.w3.org/2000/svg" xmlns:xlink="http://www.w3.org/1999/xlink">
    <title>start-design-block</title>
    <g id="start-design-block" stroke="none" stroke-width="1" fill="none" fill-rule="evenodd">
        <rect id="Rectangle" fill="#FFE977" x="0" y="0" width="600" height="128"></rect>
        <path d="M42.0181818,25 L64,46.982 L83.1454545,27.8363636 C86.2117566,24.7700616 91.1426792,24.7048211 94.2883268,27.6406422 L94.4909091,27.8363636 L100.163636,33.5090909 C103.296597,36.6420517 103.296597,41.7215847 100.163636,44.8545455 L100.163636,44.8545455 L81.018,63.999 L103,85.9818182 L85.9818182,103 L63.999,81.018 L48.6546132,96.3635686 L28.232795,99.767205 L31.6364314,79.3453868 L46.982,64 L25,42.0181818 L42.0181818,25 Z M78.181,66.836 L66.836,78.181 L85.9814,97.327361 L97.3271469,85.9816142 L93.072,81.727 L88.1090909,86.6909091 L85.2727273,83.8545455 L90.236,78.89 L85.272,73.927 L80.3090909,78.8909091 L77.4727273,76.0545455 L82.436,71.09 L78.181,66.836 Z M77.472,39.181 L35.3818158,81.2714345 L33.1114631,94.8875341 L46.7275627,92.6171813 L88.818,50.527 L84.563,46.272 L44.1454545,86.6909091 L41.3090909,83.8545455 L81.727,43.436 L77.472,39.181 Z M42.017383,30.6718503 L30.6716362,42.0175972 L49.818,61.163 L61.163,49.818 L56.909,45.563 L51.9454545,50.5272727 L49.1090909,47.6909091 L54.072,42.727 L49.109,37.763 L44.1454545,42.7272727 L41.3090909,39.8909091 L46.272,34.927 L42.017383,30.6718503 Z M91.6545455,30.6727273 C90.0880651,29.1062469 87.5482986,29.1062469 85.9818182,30.6727273 L85.9818182,30.6727273 L80.308,36.345 L91.654,47.69 L97.3272727,42.0181818 C98.7893211,40.5561335 98.886791,38.2462447 97.6196824,36.671151 L97.4786992,36.5052748 L97.3272727,36.3454545 Z" id="Color" fill="#1A1A1A" fill-rule="nonzero"></path>
        <text id="Responsive-navigation" font-family="HelsinkiGrotesk-Regular, Helsinki Grotesk" font-size="24" font-weight="normal" fill="#1A1A1A">
            <tspan x="152" y="46">Getting Started</tspan>
        </text>
        <text id="For-Designers" font-family="HelsinkiGrotesk-Bold, Helsinki Grotesk" font-size="52" font-weight="bold" fill="#1A1A1A">
            <tspan x="152" y="98">For Designers</tspan>
        </text>
    </g>
</svg>