<svg viewBox="0 0 24 24" role="img" xmlns="http://www.w3.org/2000/svg"><g fill="none" fill-rule="evenodd"><path d="M0 0h24v24H0z"/><path d="M19.071 3a1.93 1.93 0 011.923 1.778l.006.15v14.143a1.93 1.93 0 01-1.778 1.923l-.15.006H4.928a1.93 1.93 0 01-1.923-1.778L3 19.072V4.928a1.93 1.93 0 011.778-1.923L4.928 3h14.143zM9.113 5.05C7.994 5.101 7 5.357 6.18 6.176c-.822.818-1.075 1.811-1.13 2.932l-.02.437c-.046 1.423-.04 4.304.02 5.338.052 1.122.308 2.115 1.13 2.933.821.818 1.811 1.074 2.933 1.13l.436.02c1.423.046 4.304.04 5.338-.02 1.122-.052 2.115-.309 2.933-1.13.818-.818 1.075-1.811 1.13-2.933l.02-.436c.046-1.422.04-4.301-.02-5.335-.052-1.122-.308-2.115-1.13-2.933-.818-.818-1.811-1.075-2.933-1.13l-.436-.02c-1.423-.046-4.304-.04-5.338.02zm2.889 1.211l1.018-.007c1.077-.005 2.434.022 3.107.288a2.362 2.362 0 011.33 1.33c.366.922.282 3.108.282 4.126l.008 1.319c-.002 1.018-.045 2.195-.29 2.807a2.362 2.362 0 01-1.33 1.33c-.921.366-3.107.282-4.125.282l-1.019.007c-1.077.005-2.434-.023-3.107-.288a2.362 2.362 0 01-1.33-1.33c-.366-.922-.282-3.108-.282-4.127l-.007-1.018c-.005-1.077.023-2.434.288-3.107a2.362 2.362 0 011.33-1.33c.922-.366 3.108-.282 4.127-.282zm0 2.149a3.583 3.583 0 00-3.59 3.588 3.583 3.583 0 003.59 3.59 3.583 3.583 0 003.588-3.59 3.583 3.583 0 00-3.588-3.588zm0 1.255a2.335 2.335 0 012.333 2.333 2.337 2.337 0 01-2.333 2.334 2.337 2.337 0 01-2.334-2.334 2.335 2.335 0 012.334-2.333zm3.735-2.239a.837.837 0 100 1.674.837.837 0 000-1.674z" fill="currentColor"/></g></svg>
