<svg role="img" xmlns="http://www.w3.org/2000/svg" viewBox="0 0 24 24">
  <g fill="none" fill-rule="evenodd">
    <rect width="24" height="24"/>
    <path fill="currentColor" d="M19.0714286,3 C20.0854592,3 20.9172741,3.7835277 20.9941951,4.77790504 L21,4.92857143 L21,19.0714286 C21,20.0854592 20.2164723,20.9172741 19.222095,20.9941951 L19.0714286,21 L4.92857143,21 C3.91454082,21 3.08272595,20.2164723 3.00580487,19.222095 L3,19.0714286 L3,4.92857143 C3,3.91454082 3.7835277,3.08272595 4.77790504,3.00580487 L4.92857143,3 L19.0714286,3 Z M7,15 C5.8954305,15 5,15.8954305 5,17 C5,18.1045695 5.8954305,19 7,19 C8.1045695,19 9,18.1045695 9,17 C9,15.8954305 8.1045695,15 7,15 Z M5,9.5 L5,12 L5.24064975,12.004059 C8.91533222,12.1282025 11.8717975,15.0846678 11.995941,18.7593502 L12,19 L14.5,19 L14.4962236,18.7295213 C14.3555514,13.697747 10.302253,9.64444864 5.27047867,9.50377636 L5,9.5 Z M5,5 L5,7.5 L5.2922675,7.50364153 C11.4098083,7.65624559 16.3412304,12.5861648 16.4962422,18.7031076 L16.5,19 L19,19 L18.996578,18.687355 C18.8326359,11.2051357 12.7986365,5.16972457 5.31697569,5.00351759 L5,5 Z"/>
  </g>
</svg>
