<svg viewBox="0 0 24 24" role="img" xmlns="http://www.w3.org/2000/svg">
    <g fill="none" fill-rule="evenodd">
        <path d="M19.0714286,3 C20.0854592,3 20.9172741,3.7835277 20.9941951,4.77790504 L21,4.92857143 L21,19.0714286 C21,20.0854592 20.2164723,20.9172741 19.222095,20.9941951 L19.0714286,21 L4.92857143,21 C3.91454082,21 3.08272595,20.2164723 3.00580487,19.222095 L3,19.0714286 L3,4.92857143 C3,3.91454082 3.7835277,3.08272595 4.77790504,3.00580487 L4.92857143,3 L19.0714286,3 Z M11.9731935,6 C8.70535645,6 6.02678569,8.67856935 6.02678569,11.9464355 C6.02678569,12.9285847 6.27436767,13.8656841 6.70763528,14.6959023 L6.83035645,14.919629 L6,18 L9.13393065,17.1964355 L9.37695315,17.3159173 C10.1934002,17.6982881 11.0722258,17.919629 11.9731935,17.919629 C15.267871,17.919629 18,15.2410645 18,11.9731935 C18,10.3660694 17.3035645,8.89285645 16.1785645,7.76785645 C15.080371,6.64285645 13.580371,6 11.9731935,6 Z M10.2235081,9.21413996 C10.2973237,9.21774048 10.3738973,9.2447742 10.4616719,9.40500049 L10.5,9.48214355 L10.5690722,9.66021913 L10.955371,10.5803565 C10.982129,10.6607129 11.0089355,10.7410694 10.955371,10.8481935 C10.8839383,10.9981935 10.8086972,11.1062908 10.7398061,11.1892463 L10.6894872,11.2470108 L10.5998026,11.3405407 L10.5310713,11.4152145 C10.4753564,11.4846503 10.4625,11.5446581 10.5267871,11.6518065 C11.0767845,12.5768 11.6034462,12.9417815 12.3898956,13.3347734 L12.6253759,13.4511315 C12.7042504,13.4818887 12.7652684,13.4689863 12.8322289,13.4283241 L12.8839355,13.392871 L13.2279366,12.9602191 L13.3108814,12.8472687 C13.3220529,12.8310194 13.3316513,12.8163203 13.3393065,12.8035645 C13.4330444,12.6629577 13.5267823,12.6658684 13.6384775,12.7046772 L13.6874986,12.7231935 L14.0573567,12.8929339 L14.705371,13.205371 L14.8497983,13.2829235 C14.8965623,13.3075126 14.9335593,13.3299383 14.9559082,13.3599582 L14.9731935,13.392871 L14.9889687,13.419397 C15.0251529,13.5125705 15.0119247,13.7797581 14.892871,14.0893065 C14.7700968,14.4084839 14.2646845,14.7051771 13.9750101,14.77302 L13.7130642,14.8114298 C13.309629,14.8517849 12.919629,14.7821581 12.107129,14.4106935 C11.5821341,14.1857056 11.1227622,13.8557135 10.7439439,13.5183352 L10.5865685,13.3735769 L10.3559364,13.1443446 L10.1522936,12.9241627 L10.0609276,12.8196515 L10.0609276,12.8196515 L9.97671008,12.7200257 L9.83025551,12.5389279 L9.5625,12.1875 L9.47035726,12.0567917 L9.37400789,11.9037776 C9.1994043,11.6101285 8.9732129,11.1339339 8.9732129,10.6339306 C8.9732129,10.1332414 9.15294663,9.81228828 9.30799235,9.60885404 L9.35847947,9.54530984 L9.48214355,9.4017871 C9.5969371,9.26402903 9.73141452,9.22467255 9.83496623,9.21623923 L9.88393065,9.2142871 L10.2235081,9.21413996 Z" fill="currentColor"></path>
    </g>
</svg>
