<svg viewBox="0 0 104 36" title="Helsingfors stad" role="img" xmlns="http://www.w3.org/2000/svg">
    <path
        d="M103.105 0v22.935c0 5.179-4.266 9.397-9.524 9.397l-34.867.032a8.46 8.46 0 00-5.981 2.471L51.553 36l-1.181-1.165a8.405 8.405 0 00-5.982-2.471H9.476C4.25 32.364 0 28.145 0 22.966V0h103.105zm-2.236 2.235H2.251v20.731c0 3.951 3.243 7.163 7.225 7.163H44.39c2.676 0 5.195.96 7.162 2.739 1.968-1.78 4.486-2.74 7.162-2.74l34.867-.03c4.014 0 7.288-3.212 7.288-7.163v-20.7zM62.02 12.09l2 1.15c-.032 1.007-.489 1.479-1.354 1.479-.205 0-.473-.047-.614-.094v.062c.425.331.944.882.944 1.763 0 1.512-1.464 2.472-3.274 2.472-.834 0-1.558.267-1.558.677 0 .315.267.456.913.456.645 0 1.369-.126 2.203-.126 1.653 0 2.755.661 2.755 2.157 0 1.794-2.015 2.503-4.282 2.503-2.109 0-4.03-.598-4.03-1.952 0-.819.85-1.307 1.622-1.448v-.048c-.582-.173-1.102-.55-1.102-1.212 0-.865.882-1.338 1.779-1.527v-.047c-.834-.33-1.543-1.007-1.543-2.188 0-1.511 1.322-2.55 3.133-2.55.692 0 1.086.142 1.605.142.646 0 .882-.362.882-.945 0-.267-.047-.535-.079-.724zm-1.731 9.54c-.93 0-2.724.078-2.724.786 0 .536.898.787 2.157.803 1.417 0 2.235-.267 2.235-.913 0-.504-.755-.677-1.668-.677zm28.995-8.013c1.527 0 2.928.724 3.526 1.747l-1.842 1.04a1.624 1.624 0 00-1.606-1.213c-.55 0-1.007.236-1.007.677 0 .582 1.007.645 2.157 1.008 1.196.377 2.298.928 2.298 2.33 0 1.542-1.433 2.455-3.101 2.455-1.795 0-3.211-.771-3.841-1.984l1.873-1.054c.252.834.913 1.464 1.936 1.464.598 0 1.023-.268 1.023-.74 0-.614-.85-.756-1.841-1.023-1.165-.315-2.613-.882-2.613-2.346 0-1.448 1.385-2.36 3.038-2.36zm-14.655 0c2.078 0 3.699 1.527 3.699 4.014s-1.606 4.014-3.7 4.014c-2.109 0-3.714-1.527-3.714-4.014s1.605-4.014 3.715-4.014zm-49.68 0c2.063 0 3.432 1.464 3.432 3.542.016.614-.094 1.039-.094 1.039h-4.974c.094 1.243.787 1.857 1.684 1.857.803 0 1.354-.535 1.48-1.26l1.81 1.024c-.535.976-1.684 1.826-3.29 1.826-2.14 0-3.715-1.495-3.715-4.014 0-2.487 1.606-4.014 3.668-4.014zm13.066-.016c1.527 0 2.928.724 3.526 1.748l-1.842 1.039c-.189-.677-.755-1.213-1.605-1.213-.551 0-1.008.237-1.008.677 0 .583 1.008.646 2.14 1.008 1.197.378 2.3.928 2.3 2.33 0 1.542-1.433 2.44-3.086 2.44-1.795 0-3.211-.756-3.841-1.984l1.873-1.055c.236.835.913 1.464 1.936 1.464.583.016 1.008-.236 1.008-.724 0-.614-.85-.74-1.842-1.023-1.165-.3-2.597-.882-2.597-2.345 0-1.449 1.385-2.362 3.038-2.362zM32.3 10.53v8.501c0 .362.047.614.157.756.095.157.22.22.504.22.173 0 .33 0 .456-.031a2.01 2.01 0 00.457-.126l-.189 1.448a2.532 2.532 0 01-.645.236c-.252.047-.52.079-.772.079-.74 0-1.275-.174-1.621-.536-.33-.362-.504-.944-.504-1.731V10.53h2.157zm19.818 3.086c1.48 0 2.408 1.023 2.408 2.928v4.911h-2.156V16.97c0-1.007-.362-1.543-1.165-1.543s-1.322.614-1.322 1.496v4.549h-2.141v-7.666h2.14l-.11 1.26h.048c.378-.71 1.039-1.449 2.298-1.449zm16.733-3.337a3.27 3.27 0 012.739 1.4l-1.858 1.134c-.031-.456-.252-.928-.771-.928-.535 0-.787.409-.787 1.086v.834h1.684v1.637h-1.684v6.029h-2.14v-6.029h-1.181v-1.637h1.18v-.819c0-1.794 1.18-2.707 2.818-2.707zm14.812 3.384c1.086 0 1.684.913 1.684 2.03 0 .505-.078.898-.078.898l-1.936 1.118c.031-.22.126-.74.126-1.26 0-.503-.19-.975-.725-.975-.676 0-.944.63-.944 1.62v4.377h-2.157v-7.65h2.157l-.11 1.259h.047c.378-.74.96-1.417 1.936-1.417zm-70.52-2.723v4.171h4.203v-4.17h2.235v10.514h-2.235v-4.36h-4.203v4.36h-2.235V10.94h2.235zm32.332 2.85v7.665H43.32V13.79h2.156zm29.153 1.463c-1.07 0-1.543 1.008-1.543 2.377 0 1.37.472 2.377 1.543 2.377 1.054 0 1.527-1.007 1.527-2.377 0-1.37-.473-2.377-1.527-2.377zm-14.891-.189c-.724 0-1.307.473-1.307 1.197 0 .74.583 1.212 1.307 1.196.724 0 1.306-.472 1.306-1.196s-.582-1.197-1.306-1.197zm-34.773.095c-.787 0-1.432.566-1.605 1.605h3.038c0-.913-.598-1.605-1.433-1.605zm19.44-4.675c.693 0 1.244.503 1.244 1.196s-.55 1.196-1.243 1.196c-.709 0-1.244-.503-1.244-1.196s.551-1.196 1.244-1.196z"
        fill="currentColor" />
</svg>