<svg xmlns="http://www.w3.org/2000/svg" width="600" height="128" viewBox="0 0 600 128">
  <g fill="none" fill-rule="evenodd">
    <rect width="600" height="128" fill="#DEDFE1"/>
    <path fill="#1A1A1A" fill-rule="nonzero" d="M36.032 46L36.032 38.416 44.48 38.416 44.48 46 46.592 46 46.592 29.392 44.48 29.392 44.48 36.496 36.032 36.496 36.032 29.392 33.92 29.392 33.92 46 36.032 46zM55.088 46.288C57.584 46.288 59.384 44.68 60.056 42.952L58.16 41.824C57.896 43.312 56.816 44.56 55.088 44.56 52.904 44.56 51.656 42.736 51.512 40.432L59.984 40.432C59.984 40.432 60.128 39.856 60.128 39.088 60.128 35.92 58.208 33.616 55.04 33.616 51.776 33.616 49.568 36.304 49.568 39.952 49.568 43.696 51.632 46.288 55.088 46.288zM58.136 38.8L51.584 38.8C51.896 36.832 53.072 35.296 55.04 35.296 57.056 35.296 58.136 36.976 58.136 38.8zM64.832 46L64.832 28.624 62.816 28.624 62.816 46 64.832 46zM73.256 46.288C75.464 46.288 77.504 44.944 77.504 42.736 77.504 40.48 75.752 39.712 73.736 39.064 72.008 38.512 70.016 38.32 70.016 36.952 70.016 35.8 71.144 35.248 72.296 35.248 74.144 35.248 75.32 36.568 75.56 37.912L77.432 36.784C76.664 34.888 74.6 33.616 72.2 33.616 70.088 33.616 68.072 34.912 68.072 37.024 68.072 39.328 70.424 40.096 72.248 40.6 73.952 41.08 75.56 41.392 75.56 42.808 75.56 44.056 74.408 44.656 73.16 44.656 70.856 44.656 69.656 43.048 69.464 41.416L67.544 42.568C68.24 44.824 70.184 46.288 73.256 46.288zM81.296 31.888C82.112 31.888 82.688 31.312 82.688 30.496 82.688 29.68 82.112 29.104 81.296 29.104 80.48 29.104 79.904 29.68 79.904 30.496 79.904 31.312 80.48 31.888 81.296 31.888zM82.304 46L82.304 33.904 80.288 33.904 80.288 46 82.304 46zM87.776 46L87.776 38.848C87.776 37 88.976 35.44 90.848 35.44 92.576 35.44 93.536 36.4 93.536 38.8L93.536 46 95.552 46 95.552 38.416C95.552 35.248 93.92 33.616 91.424 33.616 89.312 33.616 88.16 34.96 87.68 36.016L87.632 36.016 87.776 33.904 85.76 33.904 85.76 46 87.776 46zM100.928 46L100.928 42.856 103.184 40.168 106.952 46 109.256 46 104.48 38.704 108.608 33.904 106.184 33.904 102.584 38.176C101.768 39.16 100.832 40.456 100.832 40.456L100.784 40.456C100.784 40.456 100.928 38.896 100.928 37.456L100.928 28.624 98.912 28.624 98.912 46 100.928 46zM111.896 31.888C112.712 31.888 113.288 31.312 113.288 30.496 113.288 29.68 112.712 29.104 111.896 29.104 111.08 29.104 110.504 29.68 110.504 30.496 110.504 31.312 111.08 31.888 111.896 31.888zM112.904 46L112.904 33.904 110.888 33.904 110.888 46 112.904 46zM127.64 46C132.344 46 135.608 43.024 135.608 37.648 135.608 32.272 132.344 29.392 127.64 29.392L122.072 29.392 122.072 46 127.64 46zM128.24 44.08L124.184 44.08 124.184 31.312 128.24 31.312C131.552 31.312 133.448 34 133.448 37.648 133.448 41.296 131.552 44.08 128.24 44.08zM143.528 46.288C146.024 46.288 147.824 44.68 148.496 42.952L146.6 41.824C146.336 43.312 145.256 44.56 143.528 44.56 141.344 44.56 140.096 42.736 139.952 40.432L148.424 40.432C148.424 40.432 148.568 39.856 148.568 39.088 148.568 35.92 146.648 33.616 143.48 33.616 140.216 33.616 138.008 36.304 138.008 39.952 138.008 43.696 140.072 46.288 143.528 46.288zM146.576 38.8L140.024 38.8C140.336 36.832 141.512 35.296 143.48 35.296 145.496 35.296 146.576 36.976 146.576 38.8zM156.224 46.288C158.432 46.288 160.472 44.944 160.472 42.736 160.472 40.48 158.72 39.712 156.704 39.064 154.976 38.512 152.984 38.32 152.984 36.952 152.984 35.8 154.112 35.248 155.264 35.248 157.112 35.248 158.288 36.568 158.528 37.912L160.4 36.784C159.632 34.888 157.568 33.616 155.168 33.616 153.056 33.616 151.04 34.912 151.04 37.024 151.04 39.328 153.392 40.096 155.216 40.6 156.92 41.08 158.528 41.392 158.528 42.808 158.528 44.056 157.376 44.656 156.128 44.656 153.824 44.656 152.624 43.048 152.432 41.416L150.512 42.568C151.208 44.824 153.152 46.288 156.224 46.288zM164.264 31.888C165.08 31.888 165.656 31.312 165.656 30.496 165.656 29.68 165.08 29.104 164.264 29.104 163.448 29.104 162.872 29.68 162.872 30.496 162.872 31.312 163.448 31.888 164.264 31.888zM165.272 46L165.272 33.904 163.256 33.904 163.256 46 165.272 46zM173.336 50.992C176.504 50.992 179.576 49.936 179.576 47.056 179.576 44.848 177.752 43.792 175.544 43.792 174.2 43.792 173.144 43.984 171.992 43.984 170.744 43.984 170.264 43.696 170.264 43.12 170.264 42.256 171.8 41.68 173.24 41.68 175.64 41.68 177.8 40.048 177.8 37.648 177.8 36.304 177.056 35.464 176.6 35.008L176.6 34.96C176.888 35.056 177.368 35.152 177.752 35.152 178.904 35.152 179.576 34.576 179.576 33.136L177.368 31.888C177.416 32.272 177.464 32.56 177.464 32.944 177.464 33.52 177.176 34 176.12 34 175.064 34 174.392 33.616 173.24 33.616 170.84 33.616 168.68 35.056 168.68 37.648 168.68 39.232 169.544 40.36 170.888 40.984L170.888 41.032C169.544 41.416 168.344 42.064 168.344 43.36 168.344 44.416 169.112 44.92 169.976 45.208L169.976 45.256C168.728 45.52 167.384 46.456 167.384 47.728 167.384 50.032 170.36 50.992 173.336 50.992zM173.24 40.096C171.8 40.096 170.6 39.184 170.6 37.648 170.6 36.112 171.8 35.2 173.24 35.2 174.68 35.2 175.88 36.112 175.88 37.648 175.88 39.184 174.68 40.096 173.24 40.096zM173.336 49.36C171.224 49.36 169.208 48.784 169.208 47.584 169.208 45.904 172.808 45.616 174.776 45.616 176.312 45.616 177.656 46 177.656 47.152 177.656 48.688 175.544 49.36 173.336 49.36zM183.416 46L183.416 38.848C183.416 37 184.616 35.44 186.488 35.44 188.216 35.44 189.176 36.4 189.176 38.8L189.176 46 191.192 46 191.192 38.416C191.192 35.248 189.56 33.616 187.064 33.616 184.952 33.616 183.8 34.96 183.32 36.016L183.272 36.016 183.416 33.904 181.4 33.904 181.4 46 183.416 46zM206.288 46.288C209.744 46.288 212.168 44.32 212.168 41.44 212.168 38.5386667 209.856 37.4997778 207.47621 36.7058848L207.056 36.568 207.056 36.568C204.752 35.824 202.088 35.512 202.088 33.448 202.088 31.912 203.528 30.976 205.256 30.976 207.656 30.976 209.432 32.512 209.768 34.936L211.784 33.688C210.704 30.472 207.944 29.104 205.256 29.104 202.304 29.104 199.976 30.856 199.976 33.64 199.976 36.616 202.88 37.456 204.992 38.128 205.133176 38.1731765 205.275266 38.216692 205.417674 38.2590645L205.845253 38.3832705 205.845253 38.3832705 206.271161 38.5037248C208.249273 39.0619239 210.056 39.5990588 210.056 41.536 210.056 43.36 208.4 44.416 206.288 44.416 203.192 44.416 201.656 42.256 201.416 39.76L199.4 41.008C200.072 44.44 202.928 46.288 206.288 46.288zM216.08 50.992C218.168 50.128 219.104 48.112 219.656 46.504L223.976 33.904 221.936 33.904 219.92 40.12C219.464 41.536 218.864 43.384 218.864 43.384L218.816 43.384C218.816 43.384 218.144 41.44 217.688 40.12L215.552 33.904 213.416 33.904 217.88 46.024 217.76 46.432C217.232 48.04 216.056 49.096 214.448 49.552L216.08 50.992zM230.672 46.288C232.88 46.288 234.92 44.944 234.92 42.736 234.92 40.48 233.168 39.712 231.152 39.064 229.424 38.512 227.432 38.32 227.432 36.952 227.432 35.8 228.56 35.248 229.712 35.248 231.56 35.248 232.736 36.568 232.976 37.912L234.848 36.784C234.08 34.888 232.016 33.616 229.616 33.616 227.504 33.616 225.488 34.912 225.488 37.024 225.488 39.328 227.84 40.096 229.664 40.6 231.368 41.08 232.976 41.392 232.976 42.808 232.976 44.056 231.824 44.656 230.576 44.656 228.272 44.656 227.072 43.048 226.88 41.416L224.96 42.568C225.656 44.824 227.6 46.288 230.672 46.288zM241.184 46.288C242.432 46.288 243.344 45.64 243.776 45.064L242.696 43.408C242.504 43.888 242.072 44.56 241.4 44.56 240.68 44.56 240.344 44.152 240.344 43L240.344 35.632 243.464 35.632 243.464 33.904 240.344 33.904 240.344 29.872 238.376 31.12 238.376 33.904 236.168 33.904 236.168 35.632 238.376 35.632 238.376 43.168C238.376 45.616 239.648 46.288 241.184 46.288zM250.544 46.288C253.04 46.288 254.84 44.68 255.512 42.952L253.616 41.824C253.352 43.312 252.272 44.56 250.544 44.56 248.36 44.56 247.112 42.736 246.968 40.432L255.44 40.432C255.44 40.432 255.584 39.856 255.584 39.088 255.584 35.92 253.664 33.616 250.496 33.616 247.232 33.616 245.024 36.304 245.024 39.952 245.024 43.696 247.088 46.288 250.544 46.288zM253.592 38.8L247.04 38.8C247.352 36.832 248.528 35.296 250.496 35.296 252.512 35.296 253.592 36.976 253.592 38.8zM260.288 46L260.288 38.848C260.288 36.808 261.392 35.44 263.072 35.44 264.56 35.44 265.472 36.352 265.472 38.44L265.472 46 267.488 46 267.488 38.992C267.488 36.88 268.544 35.44 270.272 35.44 271.808 35.44 272.672 36.4 272.672 38.608L272.672 46 274.688 46 274.688 38.128C274.688 35.248 273.152 33.616 270.752 33.616 268.64 33.616 267.536 34.96 267.056 36.016L267.008 36.016C266.48 34.432 265.328 33.616 263.648 33.616 261.728 33.616 260.672 34.96 260.192 36.016L260.144 36.016 260.288 33.904 258.272 33.904 258.272 46 260.288 46zM43.024 98L43.024 62.016 35.276 62.016 35.276 98 43.024 98zM56.648 98L56.648 82.452C56.648 79.436 58.416 77.356 61.172 77.356 63.928 77.356 65.124 79.176 65.124 82.66L65.124 98 72.508 98 72.508 81.204C72.508 74.704 69.336 71.168 64.292 71.168 59.976 71.168 57.74 73.716 56.44 76.108L56.284 76.108 56.648 71.792 49.316 71.792 49.316 98 56.648 98zM86.808 98.624C89.824 98.624 92.268 97.168 93.152 96.336L90.396 91.032C90.084 91.708 89.46 92.696 88.368 92.696 87.172 92.696 86.548 92.02 86.548 89.992L86.548 77.408 92.476 77.408 92.476 71.792 86.548 71.792 86.548 62.432 79.268 66.488 79.268 71.792 75.056 71.792 75.056 77.408 79.268 77.408 79.268 90.72C79.268 96.284 82.232 98.624 86.808 98.624zM104.02 98L104.02 83.024C104.02 79.644 104.956 77.46 107.244 77.46 109.064 77.46 109.688 79.072 109.688 80.788 109.688 82.556 109.376 84.324 109.272 85.104L115.876 81.308C115.876 81.308 116.136 79.956 116.136 78.24 116.136 74.392 114.108 71.272 110.416 71.272 107.088 71.272 105.112 73.56 103.812 76.108L103.656 76.108 104.02 71.792 96.688 71.792 96.688 98 104.02 98zM131.58 98.624C138.704 98.624 144.216 93.424 144.216 84.896 144.216 76.368 138.704 71.168 131.58 71.168 124.404 71.168 118.892 76.368 118.892 84.896 118.892 93.424 124.404 98.624 131.58 98.624zM131.58 93.008C127.94 93.008 126.328 89.576 126.328 84.896 126.328 80.216 127.94 76.784 131.58 76.784 135.168 76.784 136.78 80.216 136.78 84.896 136.78 89.576 135.168 93.008 131.58 93.008zM157.996 98.624C161.948 98.624 164.444 96.232 165.692 93.684L165.9 93.684 165.484 98 172.816 98 172.816 60.352 165.484 60.352 165.484 75.38 165.328 75.38C164.236 73.56 161.948 71.168 157.996 71.168 152.484 71.168 147.804 76.524 147.804 84.896 147.804 93.268 152.484 98.624 157.996 98.624zM160.492 92.748C157.112 92.748 155.24 89.576 155.24 84.896 155.24 80.216 157.112 77.044 160.492 77.044 163.82 77.044 165.692 80.216 165.692 84.896 165.692 89.576 163.82 92.748 160.492 92.748zM186.752 98.624C191.068 98.624 193.148 96.076 194.448 93.684L194.604 93.684 194.24 98 201.624 98 201.624 71.792 194.24 71.792 194.24 87.392C194.24 90.408 192.628 92.436 189.872 92.436 187.116 92.436 186.024 90.616 186.024 87.132L186.024 71.792 178.692 71.792 178.692 88.588C178.692 95.088 181.708 98.624 186.752 98.624zM218.732 98.624C225.232 98.624 229.184 94.308 230.016 90.096L223.308 86.664C223.308 90.148 221.956 93.008 218.732 93.008 215.196 93.008 213.688 89.576 213.688 84.896 213.688 80.216 215.196 76.784 218.732 76.784 221.956 76.784 223.308 79.644 223.308 83.128L230.016 79.696C229.184 75.484 225.232 71.168 218.732 71.168 211.556 71.168 206.252 76.368 206.252 84.896 206.252 93.424 211.556 98.624 218.732 98.624zM243.588 98.624C246.604 98.624 249.048 97.168 249.932 96.336L247.176 91.032C246.864 91.708 246.24 92.696 245.148 92.696 243.952 92.696 243.328 92.02 243.328 89.992L243.328 77.408 249.256 77.408 249.256 71.792 243.328 71.792 243.328 62.432 236.048 66.488 236.048 71.792 231.836 71.792 231.836 77.408 236.048 77.408 236.048 90.72C236.048 96.284 239.012 98.624 243.588 98.624zM256.9 68.672C259.292 68.672 261.164 66.956 261.164 64.564 261.164 62.172 259.292 60.456 256.9 60.456 254.508 60.456 252.636 62.172 252.636 64.564 252.636 66.956 254.508 68.672 256.9 68.672zM260.592 98L260.592 71.792 253.208 71.792 253.208 98 260.592 98zM277.96 98.624C285.084 98.624 290.596 93.424 290.596 84.896 290.596 76.368 285.084 71.168 277.96 71.168 270.784 71.168 265.272 76.368 265.272 84.896 265.272 93.424 270.784 98.624 277.96 98.624zM277.96 93.008C274.32 93.008 272.708 89.576 272.708 84.896 272.708 80.216 274.32 76.784 277.96 76.784 281.548 76.784 283.16 80.216 283.16 84.896 283.16 89.576 281.548 93.008 277.96 93.008zM302.608 98L302.608 82.452C302.608 79.436 304.376 77.356 307.132 77.356 309.888 77.356 311.084 79.176 311.084 82.66L311.084 98 318.468 98 318.468 81.204C318.468 74.704 315.296 71.168 310.252 71.168 305.936 71.168 303.7 73.716 302.4 76.108L302.244 76.108 302.608 71.792 295.276 71.792 295.276 98 302.608 98z"/>
  </g>
</svg>
