<svg xmlns="http://www.w3.org/2000/svg" width="600" height="128" viewBox="0 0 600 128">
  <g fill="none" fill-rule="evenodd">
    <rect width="600" height="128" fill="#FFE977"/>
    <path fill="#1A1A1A" fill-rule="nonzero" d="M42.0181818 25L64 46.982 83.1454545 27.8363636C86.2117566 24.7700616 91.1426792 24.7048211 94.2883268 27.6406422L94.4909091 27.8363636 100.163636 33.5090909C103.296597 36.6420517 103.296597 41.7215847 100.163636 44.8545455L100.163636 44.8545455 81.018 63.999 103 85.9818182 85.9818182 103 63.999 81.018 48.6546132 96.3635686 28.232795 99.767205 31.6364314 79.3453868 46.982 64 25 42.0181818 42.0181818 25zM78.181 66.836L66.836 78.181 85.9814 97.327361 97.3271469 85.9816142 93.072 81.727 88.1090909 86.6909091 85.2727273 83.8545455 90.236 78.89 85.272 73.927 80.3090909 78.8909091 77.4727273 76.0545455 82.436 71.09 78.181 66.836zM77.472 39.181L35.3818158 81.2714345 33.1114631 94.8875341 46.7275627 92.6171813 88.818 50.527 84.563 46.272 44.1454545 86.6909091 41.3090909 83.8545455 81.727 43.436 77.472 39.181zM42.017383 30.6718503L30.6716362 42.0175972 49.818 61.163 61.163 49.818 56.909 45.563 51.9454545 50.5272727 49.1090909 47.6909091 54.072 42.727 49.109 37.763 44.1454545 42.7272727 41.3090909 39.8909091 46.272 34.927 42.017383 30.6718503zM91.6545455 30.6727273C90.0880651 29.1062469 87.5482986 29.1062469 85.9818182 30.6727273L85.9818182 30.6727273 80.308 36.345 91.654 47.691 97.3272727 42.0181818C98.7893211 40.5561335 98.886791 38.2462447 97.6196824 36.671151L97.4786992 36.5052748 97.3272727 36.3454545zM160.208 46.288C162.704 46.288 164.336 44.92 165.2 43.312L165.248 43.312 165.008 46 167.168 46 167.168 36.976 159.2 36.976 159.2 38.896 165.056 38.896 165.056 39.376C165.056 42.448 163.28 44.368 160.496 44.368 156.944 44.368 155.312 41.392 155.312 37.648 155.312 33.904 157.16 31.024 160.64 31.024 163.424 31.024 164.96 32.944 165.344 35.248L167.36 34C166.688 31.36 164.288 29.104 160.64 29.104 156.512 29.104 153.152 32.272 153.152 37.648 153.152 43.024 156.176 46.288 160.208 46.288zM175.472 46.288C177.968 46.288 179.768 44.68 180.44 42.952L178.544 41.824C178.28 43.312 177.2 44.56 175.472 44.56 173.288 44.56 172.04 42.736 171.896 40.432L180.368 40.432C180.368 40.432 180.512 39.856 180.512 39.088 180.512 35.92 178.592 33.616 175.424 33.616 172.16 33.616 169.952 36.304 169.952 39.952 169.952 43.696 172.016 46.288 175.472 46.288zM178.52 38.8L171.968 38.8C172.28 36.832 173.456 35.296 175.424 35.296 177.44 35.296 178.52 36.976 178.52 38.8zM194.528 46.288C195.776 46.288 196.688 45.64 197.12 45.064L196.04 43.408C195.848 43.888 195.416 44.56 194.744 44.56 194.024 44.56 193.688 44.152 193.688 43L193.688 35.632 196.808 35.632 196.808 33.904 193.688 33.904 193.688 29.872 191.72 31.12 191.72 33.904 189.608 33.904 189.608 35.632 191.72 35.632 191.72 43.168C191.72 45.616 192.992 46.288 194.528 46.288zM186.68 46.288C187.928 46.288 188.84 45.64 189.272 45.064L188.192 43.408C188 43.888 187.568 44.56 186.896 44.56 186.176 44.56 185.84 44.152 185.84 43L185.84 35.632 188.456 35.632 188.456 33.904 185.84 33.904 185.84 29.872 183.872 31.12 183.872 33.904 181.664 33.904 181.664 35.632 183.872 35.632 183.872 43.168C183.872 45.616 185.144 46.288 186.68 46.288zM200.144 31.888C200.96 31.888 201.536 31.312 201.536 30.496 201.536 29.68 200.96 29.104 200.144 29.104 199.328 29.104 198.752 29.68 198.752 30.496 198.752 31.312 199.328 31.888 200.144 31.888zM201.152 46L201.152 33.904 199.136 33.904 199.136 46 201.152 46zM206.624 46L206.624 38.848C206.624 37 207.824 35.44 209.696 35.44 211.424 35.44 212.384 36.4 212.384 38.8L212.384 46 214.4 46 214.4 38.416C214.4 35.248 212.768 33.616 210.272 33.616 208.16 33.616 207.008 34.96 206.528 36.016L206.48 36.016 206.624 33.904 204.608 33.904 204.608 46 206.624 46zM222.368 50.992C225.536 50.992 228.608 49.936 228.608 47.056 228.608 44.848 226.784 43.792 224.576 43.792 223.232 43.792 222.176 43.984 221.024 43.984 219.776 43.984 219.296 43.696 219.296 43.12 219.296 42.256 220.832 41.68 222.272 41.68 224.672 41.68 226.832 40.048 226.832 37.648 226.832 36.304 226.088 35.464 225.632 35.008L225.632 34.96C225.92 35.056 226.4 35.152 226.784 35.152 227.936 35.152 228.608 34.576 228.608 33.136L226.4 31.888C226.448 32.272 226.496 32.56 226.496 32.944 226.496 33.52 226.208 34 225.152 34 224.096 34 223.424 33.616 222.272 33.616 219.872 33.616 217.712 35.056 217.712 37.648 217.712 39.232 218.576 40.36 219.92 40.984L219.92 41.032C218.576 41.416 217.376 42.064 217.376 43.36 217.376 44.416 218.144 44.92 219.008 45.208L219.008 45.256C217.76 45.52 216.416 46.456 216.416 47.728 216.416 50.032 219.392 50.992 222.368 50.992zM222.272 40.096C220.832 40.096 219.632 39.184 219.632 37.648 219.632 36.112 220.832 35.2 222.272 35.2 223.712 35.2 224.912 36.112 224.912 37.648 224.912 39.184 223.712 40.096 222.272 40.096zM222.368 49.36C220.256 49.36 218.24 48.784 218.24 47.584 218.24 45.904 221.84 45.616 223.808 45.616 225.344 45.616 226.688 46 226.688 47.152 226.688 48.688 224.576 49.36 222.368 49.36zM242.36 46.288C245.816 46.288 248.24 44.32 248.24 41.44 248.24 38.5386667 245.928 37.4997778 243.54821 36.7058848L243.128 36.568 243.128 36.568C240.824 35.824 238.16 35.512 238.16 33.448 238.16 31.912 239.6 30.976 241.328 30.976 243.728 30.976 245.504 32.512 245.84 34.936L247.856 33.688C246.776 30.472 244.016 29.104 241.328 29.104 238.376 29.104 236.048 30.856 236.048 33.64 236.048 36.616 238.952 37.456 241.064 38.128 241.205176 38.1731765 241.347266 38.216692 241.489674 38.2590645L241.917253 38.3832705 241.917253 38.3832705 242.343161 38.5037248C244.321273 39.0619239 246.128 39.5990588 246.128 41.536 246.128 43.36 244.472 44.416 242.36 44.416 239.264 44.416 237.728 42.256 237.488 39.76L235.472 41.008C236.144 44.44 239 46.288 242.36 46.288zM254.6 46.288C255.848 46.288 256.76 45.64 257.192 45.064L256.112 43.408C255.92 43.888 255.488 44.56 254.816 44.56 254.096 44.56 253.76 44.152 253.76 43L253.76 35.632 256.88 35.632 256.88 33.904 253.76 33.904 253.76 29.872 251.792 31.12 251.792 33.904 249.584 33.904 249.584 35.632 251.792 35.632 251.792 43.168C251.792 45.616 253.064 46.288 254.6 46.288zM262.88 46.288C264.8 46.288 266.024 45.232 266.6 44.368L266.648 44.368C266.72 44.944 266.792 45.328 267.176 46L268.808 46C268.64 45.328 268.52 44.752 268.52 43.408L268.52 37.864C268.52 34.864 266.456 33.616 263.96 33.616 261.368 33.616 259.376 35.248 258.776 37.384L260.648 38.512C260.936 36.784 261.944 35.344 263.96 35.344 265.4 35.344 266.504 36.184 266.504 37.432 266.504 38.464 265.472 38.68 263.648 39.064 261.536 39.496 259.04 40.144 259.04 42.736 259.04 45.016 260.648 46.288 262.88 46.288zM263.264 44.56C261.8 44.56 261.056 43.792 261.056 42.736 261.056 41.296 262.64 40.96 264.08 40.648 265.328 40.36 266.216 40.048 266.6 39.472L266.6 41.296C266.6 43.312 264.992 44.56 263.264 44.56zM273.896 46L273.896 39.088C273.896 37.192 274.568 35.536 276.152 35.536 277.208 35.536 277.688 36.376 277.688 37.432 277.688 38.2 277.472 39.232 277.472 39.232L279.44 38.056C279.44 38.056 279.512 37.504 279.512 36.832 279.512 35.08 278.408 33.712 276.752 33.712 275.312 33.712 274.28 34.672 273.8 36.016L273.752 36.016 273.896 33.904 271.88 33.904 271.88 46 273.896 46zM285.776 46.288C287.024 46.288 287.936 45.64 288.368 45.064L287.288 43.408C287.096 43.888 286.664 44.56 285.992 44.56 285.272 44.56 284.936 44.152 284.936 43L284.936 35.632 288.056 35.632 288.056 33.904 284.936 33.904 284.936 29.872 282.968 31.12 282.968 33.904 280.76 33.904 280.76 35.632 282.968 35.632 282.968 43.168C282.968 45.616 284.24 46.288 285.776 46.288zM295.136 46.288C297.632 46.288 299.432 44.68 300.104 42.952L298.208 41.824C297.944 43.312 296.864 44.56 295.136 44.56 292.952 44.56 291.704 42.736 291.56 40.432L300.032 40.432C300.032 40.432 300.176 39.856 300.176 39.088 300.176 35.92 298.256 33.616 295.088 33.616 291.824 33.616 289.616 36.304 289.616 39.952 289.616 43.696 291.68 46.288 295.136 46.288zM298.184 38.8L291.632 38.8C291.944 36.832 293.12 35.296 295.088 35.296 297.104 35.296 298.184 36.976 298.184 38.8zM307.376 46.288C309.488 46.288 310.736 44.944 311.216 43.888L311.264 43.888 311.12 46 313.136 46 313.136 28.624 311.12 28.624 311.12 35.728 311.072 35.728C310.64 34.96 309.488 33.616 307.376 33.616 304.592 33.616 302.288 36.208 302.288 39.952 302.288 43.696 304.592 46.288 307.376 46.288zM307.76 44.56C305.456 44.56 304.304 42.448 304.304 39.952 304.304 37.456 305.456 35.344 307.76 35.344 310.064 35.344 311.216 37.456 311.216 39.952 311.216 42.448 310.064 44.56 307.76 44.56zM162.92 98L162.92 83.336 178.26 83.336 178.26 76.836 162.92 76.836 162.92 68.62 179.248 68.62 179.248 62.016 155.276 62.016 155.276 98 162.92 98zM194.952 98.624C202.076 98.624 207.588 93.424 207.588 84.896 207.588 76.368 202.076 71.168 194.952 71.168 187.776 71.168 182.264 76.368 182.264 84.896 182.264 93.424 187.776 98.624 194.952 98.624zM194.952 93.008C191.312 93.008 189.7 89.576 189.7 84.896 189.7 80.216 191.312 76.784 194.952 76.784 198.54 76.784 200.152 80.216 200.152 84.896 200.152 89.576 198.54 93.008 194.952 93.008zM219.6 98L219.6 83.024C219.6 79.644 220.536 77.46 222.824 77.46 224.644 77.46 225.268 79.072 225.268 80.788 225.268 82.556 224.956 84.324 224.852 85.104L231.456 81.308C231.456 81.308 231.716 79.956 231.716 78.24 231.716 74.392 229.688 71.272 225.996 71.272 222.668 71.272 220.692 73.56 219.392 76.108L219.236 76.108 219.6 71.792 212.268 71.792 212.268 98 219.6 98zM259.484 98C269.78 98 277.008 91.24 277.008 79.904 277.008 68.568 269.78 62.016 259.484 62.016L245.964 62.016 245.964 98 259.484 98zM260.316 91.396L253.608 91.396 253.608 68.62 260.316 68.62C266.4 68.62 269.208 73.768 269.208 79.904 269.208 86.196 266.4 91.396 260.316 91.396zM293.388 98.624C298.848 98.624 302.8 95.712 304.62 92.384L298.432 88.9C298.016 91.396 296.144 93.216 293.388 93.216 290.32 93.216 287.928 91.136 287.616 86.872L304.568 86.872C304.568 86.872 304.932 85.416 304.932 83.284 304.932 76.16 300.252 71.168 293.232 71.168 286.16 71.168 280.7 76.368 280.7 84.896 280.7 93.528 286.056 98.624 293.388 98.624zM298.12 81.984L287.772 81.984C288.344 78.396 290.528 76.472 293.232 76.472 296.092 76.472 298.12 78.812 298.12 81.984zM320.688 98.624C326.356 98.624 331.244 95.504 331.244 90.252 331.244 85.468 327.5 83.596 323.392 82.296 319.492 81.048 316.06 80.84 316.06 78.864 316.06 77.356 317.62 76.524 319.492 76.524 322.352 76.524 324.328 78.344 324.952 80.684L331.244 77.148C329.216 73.664 324.432 71.168 319.232 71.168 313.616 71.168 308.884 74.288 308.884 79.228 308.884 84.22 313.824 86.196 317.776 87.236 321.156 88.172 324.068 88.64 324.068 90.72 324.068 92.384 322.612 93.268 320.584 93.268 317.1 93.268 314.812 91.136 313.98 88.276L307.584 91.864C309.716 96.024 314.552 98.624 320.688 98.624zM339.408 68.672C341.8 68.672 343.672 66.956 343.672 64.564 343.672 62.172 341.8 60.456 339.408 60.456 337.016 60.456 335.144 62.172 335.144 64.564 335.144 66.956 337.016 68.672 339.408 68.672zM343.1 98L343.1 71.792 335.716 71.792 335.716 98 343.1 98zM359.688 108.608C367.436 108.608 374.3 106.164 374.3 100.028 374.3 94.932 370.556 92.644 364.888 92.644 362.028 92.644 359.584 93.06 357.348 93.06 355.164 93.06 354.228 92.592 354.228 91.5 354.228 90.096 356.672 89.212 359.532 89.212 365.72 89.212 370.712 85.936 370.712 80.736 370.712 77.72 368.944 75.848 367.488 74.704L367.488 74.496C367.956 74.652 368.892 74.808 369.568 74.808 372.532 74.808 374.092 73.196 374.196 69.764L367.488 65.916C367.592 66.54 367.748 67.476 367.748 68.412 367.748 70.388 366.916 71.636 364.732 71.636 362.964 71.636 361.612 71.168 359.272 71.168 353.084 71.168 348.56 74.704 348.56 79.852 348.56 83.908 350.952 86.196 353.812 87.34L353.812 87.496C350.744 88.12 347.728 89.732 347.728 92.696 347.728 94.932 349.496 96.232 351.472 96.856L351.472 97.012C348.82 97.48 345.96 99.144 345.96 101.952 345.96 106.58 352.512 108.608 359.688 108.608zM359.688 84.324C357.192 84.324 355.216 82.712 355.216 80.216 355.216 77.72 357.192 76.108 359.688 76.108 362.184 76.108 364.16 77.72 364.16 80.216 364.16 82.712 362.184 84.324 359.688 84.324zM359.584 103.928C355.32 103.928 352.252 103.096 352.252 101.224 352.252 98.78 358.388 98.52 361.56 98.52 364.68 98.52 367.228 99.092 367.228 100.808 367.228 102.992 364.42 103.928 359.584 103.928zM384.388 98L384.388 82.452C384.388 79.436 386.156 77.356 388.912 77.356 391.668 77.356 392.864 79.176 392.864 82.66L392.864 98 400.248 98 400.248 81.204C400.248 74.704 397.076 71.168 392.032 71.168 387.716 71.168 385.48 73.716 384.18 76.108L384.024 76.108 384.388 71.792 377.056 71.792 377.056 98 384.388 98zM417.46 98.624C422.92 98.624 426.872 95.712 428.692 92.384L422.504 88.9C422.088 91.396 420.216 93.216 417.46 93.216 414.392 93.216 412 91.136 411.688 86.872L428.64 86.872C428.64 86.872 429.004 85.416 429.004 83.284 429.004 76.16 424.324 71.168 417.304 71.168 410.232 71.168 404.772 76.368 404.772 84.896 404.772 93.528 410.128 98.624 417.46 98.624zM422.192 81.984L411.844 81.984C412.416 78.396 414.6 76.472 417.304 76.472 420.164 76.472 422.192 78.812 422.192 81.984zM440.912 98L440.912 83.024C440.912 79.644 441.848 77.46 444.136 77.46 445.956 77.46 446.58 79.072 446.58 80.788 446.58 82.556 446.268 84.324 446.164 85.104L452.768 81.308C452.768 81.308 453.028 79.956 453.028 78.24 453.028 74.392 451 71.272 447.308 71.272 443.98 71.272 442.004 73.56 440.704 76.108L440.548 76.108 440.912 71.792 433.58 71.792 433.58 98 440.912 98zM468.212 98.624C473.88 98.624 478.768 95.504 478.768 90.252 478.768 85.468 475.024 83.596 470.916 82.296 467.016 81.048 463.584 80.84 463.584 78.864 463.584 77.356 465.144 76.524 467.016 76.524 469.876 76.524 471.852 78.344 472.476 80.684L478.768 77.148C476.74 73.664 471.956 71.168 466.756 71.168 461.14 71.168 456.408 74.288 456.408 79.228 456.408 84.22 461.348 86.196 465.3 87.236 468.68 88.172 471.592 88.64 471.592 90.72 471.592 92.384 470.136 93.268 468.108 93.268 464.624 93.268 462.336 91.136 461.504 88.276L455.108 91.864C457.24 96.024 462.076 98.624 468.212 98.624z"/>
  </g>
</svg>
