<svg xmlns="http://www.w3.org/2000/svg" width="600" height="128" viewBox="0 0 600 128">
  <g fill="none" fill-rule="evenodd">
    <rect width="600" height="128" fill="#00D7A7"/>
    <path fill="#1A1A1A" fill-rule="nonzero" d="M48.1491562 79.8692661L50.533043 74.9025229 24.4505171 62.5905963 50.533043 50.2786697 48.1491562 45.3119266 18 60.1422018 18 65.0389908 48.1491562 79.8692661zM57.8649973 94L76.0246053 33 70.1350027 33 51.9753947 94 57.8649973 94zM79.8508438 79.8692661L110 65.0389908 110 60.1422018 79.8508438 45.3119266 77.466957 50.2786697 103.549483 62.5905963 77.466957 74.9025229 79.8508438 79.8692661zM160.208 46.288C162.704 46.288 164.336 44.92 165.2 43.312L165.248 43.312 165.008 46 167.168 46 167.168 36.976 159.2 36.976 159.2 38.896 165.056 38.896 165.056 39.376C165.056 42.448 163.28 44.368 160.496 44.368 156.944 44.368 155.312 41.392 155.312 37.648 155.312 33.904 157.16 31.024 160.64 31.024 163.424 31.024 164.96 32.944 165.344 35.248L167.36 34C166.688 31.36 164.288 29.104 160.64 29.104 156.512 29.104 153.152 32.272 153.152 37.648 153.152 43.024 156.176 46.288 160.208 46.288zM175.472 46.288C177.968 46.288 179.768 44.68 180.44 42.952L178.544 41.824C178.28 43.312 177.2 44.56 175.472 44.56 173.288 44.56 172.04 42.736 171.896 40.432L180.368 40.432C180.368 40.432 180.512 39.856 180.512 39.088 180.512 35.92 178.592 33.616 175.424 33.616 172.16 33.616 169.952 36.304 169.952 39.952 169.952 43.696 172.016 46.288 175.472 46.288zM178.52 38.8L171.968 38.8C172.28 36.832 173.456 35.296 175.424 35.296 177.44 35.296 178.52 36.976 178.52 38.8zM194.528 46.288C195.776 46.288 196.688 45.64 197.12 45.064L196.04 43.408C195.848 43.888 195.416 44.56 194.744 44.56 194.024 44.56 193.688 44.152 193.688 43L193.688 35.632 196.808 35.632 196.808 33.904 193.688 33.904 193.688 29.872 191.72 31.12 191.72 33.904 189.608 33.904 189.608 35.632 191.72 35.632 191.72 43.168C191.72 45.616 192.992 46.288 194.528 46.288zM186.68 46.288C187.928 46.288 188.84 45.64 189.272 45.064L188.192 43.408C188 43.888 187.568 44.56 186.896 44.56 186.176 44.56 185.84 44.152 185.84 43L185.84 35.632 188.456 35.632 188.456 33.904 185.84 33.904 185.84 29.872 183.872 31.12 183.872 33.904 181.664 33.904 181.664 35.632 183.872 35.632 183.872 43.168C183.872 45.616 185.144 46.288 186.68 46.288zM200.144 31.888C200.96 31.888 201.536 31.312 201.536 30.496 201.536 29.68 200.96 29.104 200.144 29.104 199.328 29.104 198.752 29.68 198.752 30.496 198.752 31.312 199.328 31.888 200.144 31.888zM201.152 46L201.152 33.904 199.136 33.904 199.136 46 201.152 46zM206.624 46L206.624 38.848C206.624 37 207.824 35.44 209.696 35.44 211.424 35.44 212.384 36.4 212.384 38.8L212.384 46 214.4 46 214.4 38.416C214.4 35.248 212.768 33.616 210.272 33.616 208.16 33.616 207.008 34.96 206.528 36.016L206.48 36.016 206.624 33.904 204.608 33.904 204.608 46 206.624 46zM222.368 50.992C225.536 50.992 228.608 49.936 228.608 47.056 228.608 44.848 226.784 43.792 224.576 43.792 223.232 43.792 222.176 43.984 221.024 43.984 219.776 43.984 219.296 43.696 219.296 43.12 219.296 42.256 220.832 41.68 222.272 41.68 224.672 41.68 226.832 40.048 226.832 37.648 226.832 36.304 226.088 35.464 225.632 35.008L225.632 34.96C225.92 35.056 226.4 35.152 226.784 35.152 227.936 35.152 228.608 34.576 228.608 33.136L226.4 31.888C226.448 32.272 226.496 32.56 226.496 32.944 226.496 33.52 226.208 34 225.152 34 224.096 34 223.424 33.616 222.272 33.616 219.872 33.616 217.712 35.056 217.712 37.648 217.712 39.232 218.576 40.36 219.92 40.984L219.92 41.032C218.576 41.416 217.376 42.064 217.376 43.36 217.376 44.416 218.144 44.92 219.008 45.208L219.008 45.256C217.76 45.52 216.416 46.456 216.416 47.728 216.416 50.032 219.392 50.992 222.368 50.992zM222.272 40.096C220.832 40.096 219.632 39.184 219.632 37.648 219.632 36.112 220.832 35.2 222.272 35.2 223.712 35.2 224.912 36.112 224.912 37.648 224.912 39.184 223.712 40.096 222.272 40.096zM222.368 49.36C220.256 49.36 218.24 48.784 218.24 47.584 218.24 45.904 221.84 45.616 223.808 45.616 225.344 45.616 226.688 46 226.688 47.152 226.688 48.688 224.576 49.36 222.368 49.36zM242.36 46.288C245.816 46.288 248.24 44.32 248.24 41.44 248.24 38.5386667 245.928 37.4997778 243.54821 36.7058848L243.128 36.568 243.128 36.568C240.824 35.824 238.16 35.512 238.16 33.448 238.16 31.912 239.6 30.976 241.328 30.976 243.728 30.976 245.504 32.512 245.84 34.936L247.856 33.688C246.776 30.472 244.016 29.104 241.328 29.104 238.376 29.104 236.048 30.856 236.048 33.64 236.048 36.616 238.952 37.456 241.064 38.128 241.205176 38.1731765 241.347266 38.216692 241.489674 38.2590645L241.917253 38.3832705 241.917253 38.3832705 242.343161 38.5037248C244.321273 39.0619239 246.128 39.5990588 246.128 41.536 246.128 43.36 244.472 44.416 242.36 44.416 239.264 44.416 237.728 42.256 237.488 39.76L235.472 41.008C236.144 44.44 239 46.288 242.36 46.288zM254.6 46.288C255.848 46.288 256.76 45.64 257.192 45.064L256.112 43.408C255.92 43.888 255.488 44.56 254.816 44.56 254.096 44.56 253.76 44.152 253.76 43L253.76 35.632 256.88 35.632 256.88 33.904 253.76 33.904 253.76 29.872 251.792 31.12 251.792 33.904 249.584 33.904 249.584 35.632 251.792 35.632 251.792 43.168C251.792 45.616 253.064 46.288 254.6 46.288zM262.88 46.288C264.8 46.288 266.024 45.232 266.6 44.368L266.648 44.368C266.72 44.944 266.792 45.328 267.176 46L268.808 46C268.64 45.328 268.52 44.752 268.52 43.408L268.52 37.864C268.52 34.864 266.456 33.616 263.96 33.616 261.368 33.616 259.376 35.248 258.776 37.384L260.648 38.512C260.936 36.784 261.944 35.344 263.96 35.344 265.4 35.344 266.504 36.184 266.504 37.432 266.504 38.464 265.472 38.68 263.648 39.064 261.536 39.496 259.04 40.144 259.04 42.736 259.04 45.016 260.648 46.288 262.88 46.288zM263.264 44.56C261.8 44.56 261.056 43.792 261.056 42.736 261.056 41.296 262.64 40.96 264.08 40.648 265.328 40.36 266.216 40.048 266.6 39.472L266.6 41.296C266.6 43.312 264.992 44.56 263.264 44.56zM273.896 46L273.896 39.088C273.896 37.192 274.568 35.536 276.152 35.536 277.208 35.536 277.688 36.376 277.688 37.432 277.688 38.2 277.472 39.232 277.472 39.232L279.44 38.056C279.44 38.056 279.512 37.504 279.512 36.832 279.512 35.08 278.408 33.712 276.752 33.712 275.312 33.712 274.28 34.672 273.8 36.016L273.752 36.016 273.896 33.904 271.88 33.904 271.88 46 273.896 46zM285.776 46.288C287.024 46.288 287.936 45.64 288.368 45.064L287.288 43.408C287.096 43.888 286.664 44.56 285.992 44.56 285.272 44.56 284.936 44.152 284.936 43L284.936 35.632 288.056 35.632 288.056 33.904 284.936 33.904 284.936 29.872 282.968 31.12 282.968 33.904 280.76 33.904 280.76 35.632 282.968 35.632 282.968 43.168C282.968 45.616 284.24 46.288 285.776 46.288zM295.136 46.288C297.632 46.288 299.432 44.68 300.104 42.952L298.208 41.824C297.944 43.312 296.864 44.56 295.136 44.56 292.952 44.56 291.704 42.736 291.56 40.432L300.032 40.432C300.032 40.432 300.176 39.856 300.176 39.088 300.176 35.92 298.256 33.616 295.088 33.616 291.824 33.616 289.616 36.304 289.616 39.952 289.616 43.696 291.68 46.288 295.136 46.288zM298.184 38.8L291.632 38.8C291.944 36.832 293.12 35.296 295.088 35.296 297.104 35.296 298.184 36.976 298.184 38.8zM307.376 46.288C309.488 46.288 310.736 44.944 311.216 43.888L311.264 43.888 311.12 46 313.136 46 313.136 28.624 311.12 28.624 311.12 35.728 311.072 35.728C310.64 34.96 309.488 33.616 307.376 33.616 304.592 33.616 302.288 36.208 302.288 39.952 302.288 43.696 304.592 46.288 307.376 46.288zM307.76 44.56C305.456 44.56 304.304 42.448 304.304 39.952 304.304 37.456 305.456 35.344 307.76 35.344 310.064 35.344 311.216 37.456 311.216 39.952 311.216 42.448 310.064 44.56 307.76 44.56zM162.92 98L162.92 83.336 178.26 83.336 178.26 76.836 162.92 76.836 162.92 68.62 179.248 68.62 179.248 62.016 155.276 62.016 155.276 98 162.92 98zM194.952 98.624C202.076 98.624 207.588 93.424 207.588 84.896 207.588 76.368 202.076 71.168 194.952 71.168 187.776 71.168 182.264 76.368 182.264 84.896 182.264 93.424 187.776 98.624 194.952 98.624zM194.952 93.008C191.312 93.008 189.7 89.576 189.7 84.896 189.7 80.216 191.312 76.784 194.952 76.784 198.54 76.784 200.152 80.216 200.152 84.896 200.152 89.576 198.54 93.008 194.952 93.008zM219.6 98L219.6 83.024C219.6 79.644 220.536 77.46 222.824 77.46 224.644 77.46 225.268 79.072 225.268 80.788 225.268 82.556 224.956 84.324 224.852 85.104L231.456 81.308C231.456 81.308 231.716 79.956 231.716 78.24 231.716 74.392 229.688 71.272 225.996 71.272 222.668 71.272 220.692 73.56 219.392 76.108L219.236 76.108 219.6 71.792 212.268 71.792 212.268 98 219.6 98zM259.484 98C269.78 98 277.008 91.24 277.008 79.904 277.008 68.568 269.78 62.016 259.484 62.016L245.964 62.016 245.964 98 259.484 98zM260.316 91.396L253.608 91.396 253.608 68.62 260.316 68.62C266.4 68.62 269.208 73.768 269.208 79.904 269.208 86.196 266.4 91.396 260.316 91.396zM293.388 98.624C298.848 98.624 302.8 95.712 304.62 92.384L298.432 88.9C298.016 91.396 296.144 93.216 293.388 93.216 290.32 93.216 287.928 91.136 287.616 86.872L304.568 86.872C304.568 86.872 304.932 85.416 304.932 83.284 304.932 76.16 300.252 71.168 293.232 71.168 286.16 71.168 280.7 76.368 280.7 84.896 280.7 93.528 286.056 98.624 293.388 98.624zM298.12 81.984L287.772 81.984C288.344 78.396 290.528 76.472 293.232 76.472 296.092 76.472 298.12 78.812 298.12 81.984zM323.548 98L331.972 71.792 324.432 71.792 321.26 83.232C321.116093 83.7653023 320.968052 84.3330557 320.821036 84.9099106L320.695394 85.4059953C319.986211 88.2230719 319.336 91.084 319.336 91.084L319.18 91.084C319.18 91.084 318.529789 88.2230719 317.820606 85.4059953L317.694964 84.9099106C317.547948 84.3330557 317.399907 83.7653023 317.256 83.232L314.084 71.792 306.336 71.792 314.76 98 323.548 98zM345.7 98.624C351.16 98.624 355.112 95.712 356.932 92.384L350.744 88.9C350.328 91.396 348.456 93.216 345.7 93.216 342.632 93.216 340.24 91.136 339.928 86.872L356.88 86.872C356.88 86.872 357.244 85.416 357.244 83.284 357.244 76.16 352.564 71.168 345.544 71.168 338.472 71.168 333.012 76.368 333.012 84.896 333.012 93.528 338.368 98.624 345.7 98.624zM350.432 81.984L340.084 81.984C340.656 78.396 342.84 76.472 345.544 76.472 348.404 76.472 350.432 78.812 350.432 81.984zM369.204 98L369.204 60.352 361.82 60.352 361.82 98 369.204 98zM386.572 98.624C393.696 98.624 399.208 93.424 399.208 84.896 399.208 76.368 393.696 71.168 386.572 71.168 379.396 71.168 373.884 76.368 373.884 84.896 373.884 93.424 379.396 98.624 386.572 98.624zM386.572 93.008C382.932 93.008 381.32 89.576 381.32 84.896 381.32 80.216 382.932 76.784 386.572 76.784 390.16 76.784 391.772 80.216 391.772 84.896 391.772 89.576 390.16 93.008 386.572 93.008zM411.22 108.192L411.22 94.308 411.324 94.308C412.52 96.232 414.756 98.624 418.708 98.624 424.272 98.624 428.952 93.268 428.952 84.896 428.952 76.524 424.272 71.168 418.708 71.168 414.756 71.168 412.312 73.56 411.012 76.108L410.908 76.108 411.22 71.792 403.888 71.792 403.888 108.192 411.22 108.192zM416.264 92.748C412.884 92.748 411.012 89.576 411.012 84.896 411.012 80.216 412.884 77.044 416.264 77.044 419.644 77.044 421.516 80.216 421.516 84.896 421.516 89.576 419.644 92.748 416.264 92.748zM445.228 98.624C450.688 98.624 454.64 95.712 456.46 92.384L450.272 88.9C449.856 91.396 447.984 93.216 445.228 93.216 442.16 93.216 439.768 91.136 439.456 86.872L456.408 86.872C456.408 86.872 456.772 85.416 456.772 83.284 456.772 76.16 452.092 71.168 445.072 71.168 438 71.168 432.54 76.368 432.54 84.896 432.54 93.528 437.896 98.624 445.228 98.624zM449.96 81.984L439.612 81.984C440.184 78.396 442.368 76.472 445.072 76.472 447.932 76.472 449.96 78.812 449.96 81.984zM468.68 98L468.68 83.024C468.68 79.644 469.616 77.46 471.904 77.46 473.724 77.46 474.348 79.072 474.348 80.788 474.348 82.556 474.036 84.324 473.932 85.104L480.536 81.308C480.536 81.308 480.796 79.956 480.796 78.24 480.796 74.392 478.768 71.272 475.076 71.272 471.748 71.272 469.772 73.56 468.472 76.108L468.316 76.108 468.68 71.792 461.348 71.792 461.348 98 468.68 98zM495.98 98.624C501.648 98.624 506.536 95.504 506.536 90.252 506.536 85.468 502.792 83.596 498.684 82.296 494.784 81.048 491.352 80.84 491.352 78.864 491.352 77.356 492.912 76.524 494.784 76.524 497.644 76.524 499.62 78.344 500.244 80.684L506.536 77.148C504.508 73.664 499.724 71.168 494.524 71.168 488.908 71.168 484.176 74.288 484.176 79.228 484.176 84.22 489.116 86.196 493.068 87.236 496.448 88.172 499.36 88.64 499.36 90.72 499.36 92.384 497.904 93.268 495.876 93.268 492.392 93.268 490.104 91.136 489.272 88.276L482.876 91.864C485.008 96.024 489.844 98.624 495.98 98.624z"/>
  </g>
</svg>
