<?xml version="1.0" encoding="UTF-8"?>
<svg width="87px" height="40px" viewBox="0 0 87 40" version="1.1" xmlns="http://www.w3.org/2000/svg" xmlns:xlink="http://www.w3.org/1999/xlink">
    <title>Logo/FI/02 S (height 40px)/01 Black</title>
    <g id="Logo/FI/02-S-(height-40px)/01-Black" stroke="none" stroke-width="1" fill="none" fill-rule="evenodd">
        <g id="Logo-color" fill="#000000">
            <path d="M84.4941176,2.50109314 L84.4941176,25.5006559 C84.4941176,29.8906865 80.8411765,33.4761697 76.3411765,33.4761697 L51.5117647,33.4761697 C48.5294118,33.4761697 45.7058824,34.5430695 43.5,36.5194578 C41.2941176,34.5605597 38.4705882,33.4761697 35.4882353,33.4761697 L10.6058824,33.4761697 C6.14117647,33.4761697 2.52352941,29.9081767 2.52352941,25.5006559 L2.52352941,2.50109314 L84.4941176,2.50109314 Z M44.8235294,38.705728 C46.6058824,36.9392217 48.9882353,35.9597726 51.5294118,35.9597726 L76.3411765,35.9597726 C82.2176471,35.9597726 87,31.2724093 87,25.5006559 L87,0 L0,0 L0,25.4831657 C0,31.2549191 4.74705882,35.9422825 10.6058824,35.9422825 L35.4882353,35.9422825 C38.0117647,35.9422825 40.3941176,36.9217315 42.1941176,38.6882379 L43.5176471,40 L44.8235294,38.705728 Z" id="Outline"></path>
            <path d="M75.3134328,12.9729975 C75.3134328,13.7305183 74.6930511,14.2814426 73.9131426,14.2814426 C73.1332341,14.2814426 72.5128523,13.7305183 72.5128523,12.9729975 C72.5128523,12.2154766 73.1332341,11.6645524 73.9131426,11.6645524 C74.6930511,11.6301196 75.3134328,12.1810439 75.3134328,12.9729975 L75.3134328,12.9729975 Z M72.6901042,23.6643711 L75.1184557,23.6643711 L75.1184557,15.2799928 L72.6901042,15.2799928 L72.6901042,23.6643711 Z M68.3297067,18.6027546 L71.5025163,23.6643711 L68.8614625,23.6643711 L66.7344393,20.3071765 L65.5823017,21.7189199 L65.5823017,23.6643711 L63.1716754,23.6643711 L63.1716754,11.6129032 L65.5823017,11.6129032 L65.5823017,17.1737949 C65.5823017,18.2067778 65.4582253,19.2397608 65.4582253,19.2397608 L65.5114009,19.2397608 C65.5114009,19.2397608 66.0786071,18.3272925 66.5571873,17.67307 L68.4006074,15.2799928 L71.2366384,15.2799928 L68.3297067,18.6027546 Z M60.7255987,18.2928597 C60.7255987,16.2096774 59.6798123,15.0733962 58.0136441,15.0733962 C56.5956287,15.0733962 55.8511705,15.8825661 55.4257659,16.6573034 L55.3725903,16.6573034 L55.4966667,15.2799928 L53.0860404,15.2799928 L53.0860404,23.6643711 L55.4966667,23.6643711 L55.4966667,18.6888365 C55.4966667,17.7247191 56.0815981,17.0532802 56.9855829,17.0532802 C57.8895678,17.0532802 58.279522,17.6386372 58.279522,18.7577021 L58.279522,23.6643711 L60.7078735,23.6643711 L60.7255987,18.2928597 L60.7255987,18.2928597 Z M50.7640401,12.9729975 C50.7640401,13.7305183 50.1436583,14.2814426 49.3637498,14.2814426 C48.5838413,14.2814426 47.9634595,13.7305183 47.9634595,12.9729975 C47.9634595,12.2154766 48.5838413,11.6645524 49.3637498,11.6645524 C50.1613835,11.6301196 50.7640401,12.1810439 50.7640401,12.9729975 L50.7640401,12.9729975 Z M48.1407114,23.6643711 L50.5690629,23.6643711 L50.5690629,15.2799928 L48.1407114,15.2799928 L48.1407114,23.6643711 Z M43.9575658,21.3229431 C43.9575658,20.6515042 43.0004054,20.5137731 41.8837182,20.2038782 C40.5897791,19.8767669 38.9590613,19.2397608 38.9590613,17.6386372 C38.9590613,16.05473 40.5188783,15.0561798 42.3622984,15.0561798 C44.0816422,15.0561798 45.6591844,15.8481334 46.3150165,16.9671983 L44.2411689,18.1034795 C44.0284666,17.3631751 43.3903596,16.7778181 42.4331992,16.7778181 C41.8128174,16.7778181 41.2987868,17.0360638 41.2987868,17.5353389 C41.2987868,18.1723451 42.4331992,18.2412106 43.7094131,18.6371874 C45.0565278,19.0503806 46.2972913,19.652954 46.2972913,21.185212 C46.2972913,22.8724175 44.6842987,23.8709677 42.8231534,23.8709677 C40.8024814,23.8709677 39.207214,23.0445814 38.4982063,21.7017035 L40.6075043,20.5482059 C40.8733822,21.4606742 41.6355655,22.1493295 42.7877031,22.1493295 C43.4789856,22.1493295 43.9575658,21.8738673 43.9575658,21.3229431 L43.9575658,21.3229431 Z M36.2825571,11.6817688 L33.8542056,11.6817688 L33.8542056,21.3401595 C33.8542056,22.2009786 34.0491827,22.8379848 34.4214118,23.2339616 C34.8113661,23.6299384 35.4140226,23.8193186 36.2471067,23.8193186 C36.5307098,23.8193186 36.8320381,23.7848858 37.1156412,23.7332367 C37.4169695,23.6643711 37.647397,23.5782892 37.8423741,23.4749909 L38.0550764,21.8910837 C37.8600993,21.9599493 37.7005726,22.0115984 37.5410458,22.0288148 C37.3992443,22.0632476 37.2219923,22.0632476 37.0270152,22.0632476 C36.7079617,22.0632476 36.5661602,21.9771656 36.459809,21.8222182 C36.3357327,21.6672708 36.2825571,21.3918086 36.2825571,20.9958318 L36.2825571,11.6817688 Z M28.1998689,16.7606017 C27.3136093,16.7606017 26.5868763,17.3803914 26.3918992,18.5166727 L29.7951363,18.5166727 C29.8128615,17.5181225 29.1393042,16.7606017 28.1998689,16.7606017 L28.1998689,16.7606017 Z M31.9398847,20.1005799 L26.3564488,20.1005799 C26.4628,21.4606742 27.2427085,22.1321131 28.2530445,22.1321131 C29.1570294,22.1321131 29.7774111,21.5467561 29.9192127,20.7548025 L31.9576099,21.8738673 C31.3549534,22.9412831 30.0610142,23.8709677 28.2530445,23.8709677 C25.8424182,23.8709677 24.0698989,22.2354114 24.0698989,19.4807901 C24.0698989,16.7433853 25.8778686,15.0906125 28.1998689,15.0906125 C30.5218693,15.0906125 32.0639611,16.6917361 32.0639611,18.9642987 C32.0462359,19.6357376 31.9398847,20.1005799 31.9398847,20.1005799 L31.9398847,20.1005799 Z M19.585425,23.6643711 L22.1024024,23.6643711 L22.1024024,12.1293947 L19.585425,12.1293947 L19.585425,16.6917361 L14.8527983,16.6917361 L14.8527983,12.1466111 L12.3358209,12.1466111 L12.3358209,23.6643711 L14.8527983,23.6643711 L14.8527983,18.8954331 L19.585425,18.8954331 L19.585425,23.6643711 L19.585425,23.6643711 Z" id="Helsinki-text"></path>
        </g>
    </g>
</svg>
