<svg xmlns="http://www.w3.org/2000/svg" width="600" height="128" viewBox="0 0 600 128">
  <g fill="none" fill-rule="evenodd">
    <rect width="600" height="128" fill="#0072C6"/>
    <path fill="#FFF" fill-rule="nonzero" d="M170.252 98.624C177.896 98.624 183.772 92.956 185.124 87.132L178 82.66C177.792 87.548 175.296 91.864 170.252 91.864 164.272 91.864 161.568 86.456 161.568 79.904 161.568 73.352 164.272 68.152 170.252 68.152 175.296 68.152 177.792 72.26 178 77.148L185.124 72.676C183.772 66.852 177.896 61.392 170.252 61.392 161.048 61.392 153.768 68.256 153.768 79.904 153.768 91.552 161.048 98.624 170.252 98.624zM200.984 98.624C208.108 98.624 213.62 93.424 213.62 84.896 213.62 76.368 208.108 71.168 200.984 71.168 193.808 71.168 188.296 76.368 188.296 84.896 188.296 93.424 193.808 98.624 200.984 98.624zM200.984 93.008C197.344 93.008 195.732 89.576 195.732 84.896 195.732 80.216 197.344 76.784 200.984 76.784 204.572 76.784 206.184 80.216 206.184 84.896 206.184 89.576 204.572 93.008 200.984 93.008zM225.632 98L225.632 82.452C225.632 79.436 227.4 77.356 230.156 77.356 232.912 77.356 234.108 79.176 234.108 82.66L234.108 98 241.492 98 241.492 81.204C241.492 74.704 238.32 71.168 233.276 71.168 228.96 71.168 226.724 73.716 225.424 76.108L225.268 76.108 225.632 71.792 218.3 71.792 218.3 98 225.632 98zM255.792 98.624C258.808 98.624 261.252 97.168 262.136 96.336L259.38 91.032C259.068 91.708 258.444 92.696 257.352 92.696 256.156 92.696 255.532 92.02 255.532 89.992L255.532 77.408 261.46 77.408 261.46 71.792 255.532 71.792 255.532 62.432 248.252 66.488 248.252 71.792 244.04 71.792 244.04 77.408 248.252 77.408 248.252 90.72C248.252 96.284 251.216 98.624 255.792 98.624zM273.004 98L273.004 83.024C273.004 79.644 273.94 77.46 276.228 77.46 278.048 77.46 278.672 79.072 278.672 80.788 278.672 82.556 278.36 84.324 278.256 85.104L284.86 81.308C284.86 81.308 285.12 79.956 285.12 78.24 285.12 74.392 283.092 71.272 279.4 71.272 276.072 71.272 274.096 73.56 272.796 76.108L272.64 76.108 273.004 71.792 265.672 71.792 265.672 98 273.004 98zM292.504 68.672C294.896 68.672 296.768 66.956 296.768 64.564 296.768 62.172 294.896 60.456 292.504 60.456 290.112 60.456 288.24 62.172 288.24 64.564 288.24 66.956 290.112 68.672 292.504 68.672zM296.196 98L296.196 71.792 288.812 71.792 288.812 98 296.196 98zM317.048 98.624C322.612 98.624 327.292 93.268 327.292 84.896 327.292 76.524 322.612 71.168 317.048 71.168 313.096 71.168 310.652 73.56 309.352 76.108L309.196 76.108C309.196 76.108 309.56 72.936 309.56 69.66L309.56 60.352 302.228 60.352 302.228 98 309.3 98 309.3 93.944 309.508 93.944C310.756 96.232 313.096 98.624 317.048 98.624zM314.604 92.748C311.224 92.748 309.352 89.576 309.352 84.896 309.352 80.216 311.224 77.044 314.604 77.044 317.984 77.044 319.856 80.216 319.856 84.896 319.856 89.576 317.984 92.748 314.604 92.748zM339.876 98.624C344.192 98.624 346.272 96.076 347.572 93.684L347.728 93.684 347.364 98 354.748 98 354.748 71.792 347.364 71.792 347.364 87.392C347.364 90.408 345.752 92.436 342.996 92.436 340.24 92.436 339.148 90.616 339.148 87.132L339.148 71.792 331.816 71.792 331.816 88.588C331.816 95.088 334.832 98.624 339.876 98.624zM369.932 98.624C372.948 98.624 375.392 97.168 376.276 96.336L373.52 91.032C373.208 91.708 372.584 92.696 371.492 92.696 370.296 92.696 369.672 92.02 369.672 89.992L369.672 77.408 375.6 77.408 375.6 71.792 369.672 71.792 369.672 62.432 362.392 66.488 362.392 71.792 358.18 71.792 358.18 77.408 362.392 77.408 362.392 90.72C362.392 96.284 365.356 98.624 369.932 98.624zM383.244 68.672C385.636 68.672 387.508 66.956 387.508 64.564 387.508 62.172 385.636 60.456 383.244 60.456 380.852 60.456 378.98 62.172 378.98 64.564 378.98 66.956 380.852 68.672 383.244 68.672zM386.936 98L386.936 71.792 379.552 71.792 379.552 98 386.936 98zM400.3 98L400.3 82.452C400.3 79.436 402.068 77.356 404.824 77.356 407.58 77.356 408.776 79.176 408.776 82.66L408.776 98 416.16 98 416.16 81.204C416.16 74.704 412.988 71.168 407.944 71.168 403.628 71.168 401.392 73.716 400.092 76.108L399.936 76.108 400.3 71.792 392.968 71.792 392.968 98 400.3 98zM432.592 108.608C440.34 108.608 447.204 106.164 447.204 100.028 447.204 94.932 443.46 92.644 437.792 92.644 434.932 92.644 432.488 93.06 430.252 93.06 428.068 93.06 427.132 92.592 427.132 91.5 427.132 90.096 429.576 89.212 432.436 89.212 438.624 89.212 443.616 85.936 443.616 80.736 443.616 77.72 441.848 75.848 440.392 74.704L440.392 74.496C440.86 74.652 441.796 74.808 442.472 74.808 445.436 74.808 446.996 73.196 447.1 69.764L440.392 65.916C440.496 66.54 440.652 67.476 440.652 68.412 440.652 70.388 439.82 71.636 437.636 71.636 435.868 71.636 434.516 71.168 432.176 71.168 425.988 71.168 421.464 74.704 421.464 79.852 421.464 83.908 423.856 86.196 426.716 87.34L426.716 87.496C423.648 88.12 420.632 89.732 420.632 92.696 420.632 94.932 422.4 96.232 424.376 96.856L424.376 97.012C421.724 97.48 418.864 99.144 418.864 101.952 418.864 106.58 425.416 108.608 432.592 108.608zM432.592 84.324C430.096 84.324 428.12 82.712 428.12 80.216 428.12 77.72 430.096 76.108 432.592 76.108 435.088 76.108 437.064 77.72 437.064 80.216 437.064 82.712 435.088 84.324 432.592 84.324zM432.488 103.928C428.224 103.928 425.156 103.096 425.156 101.224 425.156 98.78 431.292 98.52 434.464 98.52 437.584 98.52 440.132 99.092 440.132 100.808 440.132 102.992 437.324 103.928 432.488 103.928zM42 102L42 78 60 78 60 42 102 42 102 102 42 102zM59.9993942 83.9997925L47.9993942 83.9997925 47.9993942 95.9997925 59.9993942 95.9997925 59.9993942 83.9997925zM77.999 84L66 84 66 95.999 77.9993942 95.9997925 77.999 84zM95.999 84L84 84 84 95.999 95.9993942 95.9997925 95.999 84zM77.999 66L65.999 66 65.9993942 77.9997925 77.9993942 77.9997925 77.999 66zM95.999 66L84 66 84 77.999 95.9993942 77.9997925 95.999 66zM77.9993942 47.9997925L65.9993942 47.9997925 65.9993942 59.9997925 77.9993942 59.9997925 77.9993942 47.9997925zM95.9993942 47.9997925L84 47.999 84 59.999 95.9993942 59.9997925 95.9993942 47.9997925zM160.208 46.288C162.704 46.288 164.336 44.92 165.2 43.312L165.248 43.312 165.008 46 167.168 46 167.168 36.976 159.2 36.976 159.2 38.896 165.056 38.896 165.056 39.376C165.056 42.448 163.28 44.368 160.496 44.368 156.944 44.368 155.312 41.392 155.312 37.648 155.312 33.904 157.16 31.024 160.64 31.024 163.424 31.024 164.96 32.944 165.344 35.248L167.36 34C166.688 31.36 164.288 29.104 160.64 29.104 156.512 29.104 153.152 32.272 153.152 37.648 153.152 43.024 156.176 46.288 160.208 46.288zM174.56 46.288C176.672 46.288 177.728 44.944 178.208 43.888L178.256 43.888 178.112 46 180.128 46 180.128 33.904 178.112 33.904 178.112 41.056C178.112 42.928 177.008 44.464 175.136 44.464 173.408 44.464 172.544 43.504 172.544 41.104L172.544 33.904 170.528 33.904 170.528 41.488C170.528 44.656 172.064 46.288 174.56 46.288zM184.592 31.888C185.408 31.888 185.984 31.312 185.984 30.496 185.984 29.68 185.408 29.104 184.592 29.104 183.776 29.104 183.2 29.68 183.2 30.496 183.2 31.312 183.776 31.888 184.592 31.888zM185.6 46L185.6 33.904 183.584 33.904 183.584 46 185.6 46zM193.472 46.288C195.584 46.288 196.832 44.944 197.312 43.888L197.36 43.888 197.216 46 199.232 46 199.232 28.624 197.216 28.624 197.216 35.728 197.168 35.728C196.736 34.96 195.584 33.616 193.472 33.616 190.688 33.616 188.384 36.208 188.384 39.952 188.384 43.696 190.688 46.288 193.472 46.288zM193.856 44.56C191.552 44.56 190.4 42.448 190.4 39.952 190.4 37.456 191.552 35.344 193.856 35.344 196.16 35.344 197.312 37.456 197.312 39.952 197.312 42.448 196.16 44.56 193.856 44.56zM207.536 46.288C210.032 46.288 211.832 44.68 212.504 42.952L210.608 41.824C210.344 43.312 209.264 44.56 207.536 44.56 205.352 44.56 204.104 42.736 203.96 40.432L212.432 40.432C212.432 40.432 212.576 39.856 212.576 39.088 212.576 35.92 210.656 33.616 207.488 33.616 204.224 33.616 202.016 36.304 202.016 39.952 202.016 43.696 204.08 46.288 207.536 46.288zM210.584 38.8L204.032 38.8C204.344 36.832 205.52 35.296 207.488 35.296 209.504 35.296 210.584 36.976 210.584 38.8zM217.28 46L217.28 28.624 215.264 28.624 215.264 46 217.28 46zM221.744 31.888C222.56 31.888 223.136 31.312 223.136 30.496 223.136 29.68 222.56 29.104 221.744 29.104 220.928 29.104 220.352 29.68 220.352 30.496 220.352 31.312 220.928 31.888 221.744 31.888zM222.752 46L222.752 33.904 220.736 33.904 220.736 46 222.752 46zM228.224 46L228.224 38.848C228.224 37 229.424 35.44 231.296 35.44 233.024 35.44 233.984 36.4 233.984 38.8L233.984 46 236 46 236 38.416C236 35.248 234.368 33.616 231.872 33.616 229.76 33.616 228.608 34.96 228.128 36.016L228.08 36.016 228.224 33.904 226.208 33.904 226.208 46 228.224 46zM244.208 46.288C246.704 46.288 248.504 44.68 249.176 42.952L247.28 41.824C247.016 43.312 245.936 44.56 244.208 44.56 242.024 44.56 240.776 42.736 240.632 40.432L249.104 40.432C249.104 40.432 249.248 39.856 249.248 39.088 249.248 35.92 247.328 33.616 244.16 33.616 240.896 33.616 238.688 36.304 238.688 39.952 238.688 43.696 240.752 46.288 244.208 46.288zM247.256 38.8L240.704 38.8C241.016 36.832 242.192 35.296 244.16 35.296 246.176 35.296 247.256 36.976 247.256 38.8zM256.904 46.288C259.112 46.288 261.152 44.944 261.152 42.736 261.152 40.48 259.4 39.712 257.384 39.064 255.656 38.512 253.664 38.32 253.664 36.952 253.664 35.8 254.792 35.248 255.944 35.248 257.792 35.248 258.968 36.568 259.208 37.912L261.08 36.784C260.312 34.888 258.248 33.616 255.848 33.616 253.736 33.616 251.72 34.912 251.72 37.024 251.72 39.328 254.072 40.096 255.896 40.6 257.6 41.08 259.208 41.392 259.208 42.808 259.208 44.056 258.056 44.656 256.808 44.656 254.504 44.656 253.304 43.048 253.112 41.416L251.192 42.568C251.888 44.824 253.832 46.288 256.904 46.288zM272.384 46L272.384 35.632 275.408 35.632 275.408 33.904 272.384 33.904 272.384 32.464C272.384 30.928 272.912 30.064 274.016 30.064 275.024 30.064 275.456 30.976 275.504 31.816L277.424 30.664C276.944 29.608 275.888 28.336 273.968 28.336 271.856 28.336 270.416 29.776 270.416 32.368L270.416 33.904 268.304 33.904 268.304 35.632 270.416 35.632 270.416 46 272.384 46zM281.84 46.288C285.2 46.288 287.312 43.6 287.312 39.952 287.312 36.304 285.2 33.616 281.84 33.616 278.48 33.616 276.368 36.304 276.368 39.952 276.368 43.6 278.48 46.288 281.84 46.288zM281.84 44.56C279.536 44.56 278.384 42.448 278.384 39.952 278.384 37.456 279.536 35.344 281.84 35.344 284.144 35.344 285.296 37.456 285.296 39.952 285.296 42.448 284.144 44.56 281.84 44.56zM292.112 46L292.112 39.088C292.112 37.192 292.784 35.536 294.368 35.536 295.424 35.536 295.904 36.376 295.904 37.432 295.904 38.2 295.688 39.232 295.688 39.232L297.656 38.056C297.656 38.056 297.728 37.504 297.728 36.832 297.728 35.08 296.624 33.712 294.968 33.712 293.528 33.712 292.496 34.672 292.016 36.016L291.968 36.016 292.112 33.904 290.096 33.904 290.096 46 292.112 46z"/>
    <path fill="#FFF" fill-rule="nonzero" d="M50.0263099,70.3902709 L26.0263099,70.3902709 L26.0263099,28.3902709 L50.0263099,28.3902709 L50.0263099,70.3902709 Z M44.0263099,52.3902709 L32.0263099,52.3902709 L32.0263099,64.3902709 L44.0263099,64.3902709 L44.0263099,52.3902709 Z M44.0263099,34.3902709 L32.0263099,34.3902709 L32.0263099,46.3902709 L44.0263099,46.3902709 L44.0263099,34.3902709 Z" transform="rotate(-15 38.026 49.39)"/>
  </g>
</svg>
