<?xml version="1.0" encoding="UTF-8"?>
<svg width="128px" height="128px" viewBox="0 0 128 128" version="1.1" xmlns="http://www.w3.org/2000/svg" xmlns:xlink="http://www.w3.org/1999/xlink">
    <title>start-design</title>
    <g id="start-design" stroke="none" stroke-width="1" fill="none" fill-rule="evenodd">
        <circle id="Oval" fill="#FFE977" cx="64" cy="64" r="64"></circle>
        <path d="M41.9705627,25 L63.89,46.92 L82.9827561,27.8284271 C86.0404782,24.770705 90.9576034,24.7056471 94.0944491,27.6332534 L94.2964646,27.8284271 L99.9533188,33.4852814 C103.077513,36.6094757 103.077513,41.6747955 99.9533188,44.7989899 L99.9533188,44.7989899 L80.861,63.89 L102.781746,85.8111832 L85.8111832,102.781746 L63.89,80.861 L48.5884245,96.1638841 L28.2237492,99.5579967 L31.6178618,79.1933214 L46.92,63.89 L25,41.9705627 L41.9705627,25 Z M78.032,66.719 L66.719,78.032 L85.8107662,97.1249797 L97.1247662,85.8109797 L92.882,81.568 L87.9325035,86.51829 L85.1040764,83.6898628 L90.054,78.74 L85.104,73.79 L80.1543289,78.7401154 L77.3259018,75.9116882 L82.275,70.961 L78.032,66.719 Z M77.325,39.142 L35.3527662,81.1139797 L33.0887662,94.6919797 L46.6667662,92.4279797 L88.639,50.455 L84.396,46.213 L44.0918831,86.51829 L41.263456,83.6898628 L81.568,43.384 L77.325,39.142 Z M41.9697662,30.6559797 L30.6557662,41.9699797 L49.748,61.062 L61.062,49.748 L56.82,45.506 L51.8700577,50.4558441 L49.0416306,47.627417 L53.991,42.677 L49.041,37.727 L44.0918831,42.6776695 L41.263456,39.8492424 L46.213,34.899 L41.9697662,30.6559797 Z M91.4680374,30.6568542 C89.9059403,29.0947571 87.3732803,29.0947571 85.8111832,30.6568542 L85.8111832,30.6568542 L80.154,36.313 L91.467,47.626 L97.1248917,41.9705627 C98.582849,40.5126054 98.6800462,38.20918 97.4164832,36.6384936 L97.2758944,36.4730815 L97.1248917,36.3137085 Z" id="Color" fill="#1A1A1A" fill-rule="nonzero"></path>
    </g>
</svg>