<svg viewBox="0 0 512 512" xmlns="http://www.w3.org/2000/svg"><style>@media (prefers-color-scheme: light) { .hds-favicon { fill: #000 } } @media (prefers-color-scheme: dark) { .hds-favicon { fill: #fff } }</style><g class="hds-favicon" fill="#000"><path clip-rule="evenodd" d="m39 1h434v388.3c0 19.97-5.728 41.971-19.965 59.51-14.848 18.292-37.369 29.69-66.035 29.69h-57c-14.886 0-29.827 4.935-41.816 10.602-5.838 2.76-10.607 5.518-13.856 7.545-1.616 1.008-2.832 1.822-3.593 2.344-.208.143-.382.264-.519.36-.113.08-.201.142-.265.188-.047.034-.081.058-.1.072-.002.002-.002.002-.004.003-.006.004-.011.008-.013.009l-14.834 11.02-14.834-11.02c-.002-.001-.007-.005-.013-.009-.002-.001-.002-.001-.004-.003-.019-.014-.053-.038-.1-.072-.141-.101-.405-.288-.784-.548-.761-.522-1.977-1.336-3.593-2.344-3.249-2.027-8.018-4.785-13.856-7.545-11.989-5.667-26.93-10.602-41.816-10.602h-56c-29.2695 0-51.97-11.014-66.6401-29.955-13.8639-17.9-18.3599-40.025-18.3599-59.245zm50 50v338.3c0 12.344 3.004 22.32 7.8901 28.628 4.0799 5.268 11.3789 10.572 27.1099 10.572h56c25.114 0 47.673 8.065 63.184 15.398 4.412 2.085 8.378 4.171 11.816 6.103 3.438-1.932 7.404-4.018 11.816-6.103 15.511-7.333 38.07-15.398 63.184-15.398h57c14.334 0 22.313-5.163 27.215-11.202 5.513-6.792 8.785-16.89 8.785-27.998v-338.3z" fill-rule="evenodd"/><path d="m302.968 358.39h50.032v-237.388h-50.032v93.995h-93.936v-93.995h-50.032v237.388h50.032v-98.459h93.936z"/></g></svg>