<?xml version="1.0" encoding="UTF-8"?>
<svg width="173px" height="60px" viewBox="0 0 173 60" version="1.1" xmlns="http://www.w3.org/2000/svg" xmlns:xlink="http://www.w3.org/1999/xlink">
    <title>Logo/SE/01 M (height 60px)/03 Brand colour</title>
    <g id="Logo/SE/01-M-(height-60px)/03-Brand-colour" stroke="none" stroke-width="1" fill="none" fill-rule="evenodd">
        <g id="Logo-brand-colour" fill="#0000BF">
            <path d="M169.229923,3.72534555 L169.240205,38.2213935 C169.240205,44.8048316 163.755968,50.1620526 157.014875,50.1620526 L98.5116108,50.2140975 C94.028647,50.2140975 89.7963689,51.8255442 86.4919213,54.7721616 C83.1879633,51.826517 78.9542163,50.2140975 74.4722317,50.2140975 L15.8867109,50.2140975 C9.20045566,50.2140975 3.75930491,44.8573629 3.75930491,38.2734385 L3.75930491,3.72680475 L169.229923,3.72534555 Z M88.4694978,58.0466134 C91.151638,55.3981598 94.7170532,53.9394431 98.5116108,53.9394431 L157.014875,53.8873982 C165.82951,53.8873982 173,46.8593896 173,38.2213935 L172.990208,0 L0,0.00145920311 L0,38.2734385 C0,46.9114345 7.12691355,53.9394431 15.8867109,53.9394431 L74.4722317,53.9394431 C78.2658101,53.9394431 81.8322046,55.3981598 84.5138551,58.0456406 L86.4919213,60 L88.4694978,58.0466134 Z" id="Outline"></path>
            <path d="M104.062485,20.1390945 L107.361547,22.0146569 C107.310137,23.6873901 106.543392,24.4724413 105.084813,24.4724413 C104.819243,24.4724413 104.47126,24.4241903 104.225118,24.3657911 L104.062485,24.3206842 L104.062485,24.4218556 C104.7788,24.9797576 105.647876,25.8917596 105.647876,27.3621499 C105.647876,29.8084452 103.359308,31.3818791 100.461666,31.487483 L100.14895,31.4931539 C98.7427606,31.4931539 97.5397634,31.9241052 97.5397634,32.6084715 C97.5397634,33.1405942 98.0004961,33.3687163 99.0747231,33.3687163 C99.3890594,33.3687163 99.7117092,33.3521191 100.045059,33.3284088 L101.079597,33.2454229 C101.615303,33.2027444 102.180455,33.1654007 102.783108,33.1654007 C105.571495,33.1654007 107.412957,34.2807183 107.412957,36.7647684 C107.412957,39.7546755 104.037025,40.9463581 100.225331,40.9463581 C96.6956579,40.9463581 93.4729769,39.9579912 93.4729769,37.7025496 C93.4729769,36.4098577 94.7285735,35.6148007 95.9660701,35.338276 L96.1840047,35.2948644 L96.1840047,35.2184995 C95.212598,34.9144988 94.3430322,34.2807183 94.3430322,33.1911799 C94.3430322,31.822601 95.6740889,31.0451085 97.0972655,30.7085757 L97.3351021,30.6565441 L97.3351021,30.581152 C95.9289125,30.0227636 94.7523548,28.9079324 94.7523548,26.9311986 C94.7523548,24.4218556 96.9776793,22.6985367 100.021159,22.6985367 C100.452821,22.6985367 100.816043,22.7306164 101.14736,22.770716 L101.778279,22.8544796 C102.083295,22.8945792 102.380762,22.9266588 102.707216,22.9266588 C103.781443,22.9266588 104.190276,22.3181711 104.190276,21.3555835 C104.190276,21.081837 104.162779,20.8079154 104.129677,20.5670184 L104.062485,20.1390945 Z M101.146307,36.02933 L100.501727,36.0371105 L100.501727,36.0371105 L100.021969,36.0543309 L100.021969,36.0543309 L99.520312,36.0849729 C99.4357411,36.091379 99.3509053,36.09848 99.2661284,36.1063435 L98.7607649,36.1632169 C97.5953217,36.3198026 96.5683567,36.6524097 96.5683567,37.3469904 C96.5683567,38.2599651 98.0773665,38.6656236 100.1749,38.6656236 C102.553476,38.6656236 103.934205,38.2093794 103.934205,37.1446476 C103.934205,36.3080378 102.681267,36.02933 101.146307,36.02933 Z M149.795473,22.6985367 C152.23145,22.6985367 154.481794,23.8019281 155.552143,25.3742519 L155.703721,25.6135382 L152.608831,27.3363706 C152.302818,26.1962466 151.329943,25.3090511 149.922774,25.3090511 C149.001798,25.3090511 148.235053,25.7147096 148.235053,26.4501479 C148.235053,27.0277005 148.842632,27.2951433 149.743162,27.5481224 L151.274339,27.9536992 C151.367241,27.9797347 151.461084,28.0066964 151.555688,28.0347553 L152.093125,28.2031489 L152.093125,28.2031489 L152.587698,28.3753337 C154.293852,29.0063602 155.703721,29.959653 155.703721,31.9999838 C155.703721,34.5589396 153.299196,36.0799157 150.511297,36.0799157 C147.624028,36.0799157 145.323151,34.9210712 144.210272,33.0460851 L144.065935,32.7860079 L147.211746,31.0369097 C147.621558,32.4304487 148.746706,33.4698877 150.460377,33.4698877 C151.457734,33.4698877 152.174048,33.03845 152.174048,32.2276195 C152.174048,31.5521706 151.537324,31.2256333 150.62061,30.9476641 L150.140572,30.8113364 L150.140572,30.8113364 L149.080137,30.5295934 C148.930577,30.4906065 148.77814,30.4489228 148.624154,30.4040803 L148.158874,30.2596141 C146.445542,29.6917691 144.70538,28.6857968 144.70538,26.6267115 C144.70538,24.2195128 147.033035,22.6985367 149.795473,22.6985367 Z M125.196947,22.6985367 C128.70116,22.6985367 131.412188,25.2326861 131.412188,29.3894694 C131.412188,33.5457663 128.70116,36.0799157 125.196947,36.0799157 C121.667274,36.0799157 118.956246,33.5457663 118.956246,29.3894694 C118.956246,25.2326861 121.667274,22.6985367 125.196947,22.6985367 Z M41.8833962,22.6874468 C45.3337507,22.6874468 47.633987,25.119452 47.633987,28.5884642 C47.633987,28.9481016 47.6125734,29.2681657 47.5845709,29.5329608 L47.5394787,29.8867396 L47.5394787,29.8867396 L47.4956219,30.145843 L47.4956219,30.145843 L47.4552756,30.3361031 L39.1229168,30.3361031 C39.2756783,32.4135219 40.4517464,33.4266953 41.9602666,33.4266953 C43.3145564,33.4266953 44.234553,32.5404726 44.4392143,31.3239836 L47.4812255,33.0215232 C46.5866891,34.6422115 44.643386,36.0610433 41.9602666,36.0610433 C38.3561713,36.0610433 35.7234828,33.5784524 35.7234828,29.3735155 C35.7234828,25.2206234 38.4070919,22.6874468 41.8833962,22.6874468 Z M63.7415167,22.6874468 C66.2973348,22.6874468 68.6494709,23.902963 69.6458483,25.6005026 L66.5529166,27.3223623 C66.2459247,26.1832111 65.274518,25.2960156 63.868818,25.2960156 C62.949311,25.2960156 62.1820759,25.7011876 62.1820759,26.4361396 C62.1820759,26.9655628 62.6923154,27.2344076 63.4705306,27.470235 L64.1621339,27.6604334 L64.1621339,27.6604334 L64.9438429,27.8635939 L64.9438429,27.8635939 L65.5004798,28.0199129 L65.5004798,28.0199129 L65.7861712,28.1074136 C67.8053654,28.7411941 69.6458483,29.6522233 69.6458483,31.983057 C69.6458483,34.5410401 67.2427917,36.0610433 64.456852,36.0610433 C61.4407908,36.0610433 59.063684,34.7939686 58.0154069,32.7681083 L61.1597487,31.0204694 C61.5685817,32.4135219 62.6932396,33.4515018 64.4059315,33.4515018 C65.4023089,33.4515018 66.1186234,33.0215232 66.1186234,32.2111791 C66.1186234,31.4794428 65.3718678,31.1571931 64.3309899,30.862936 L63.0252021,30.5141259 C62.8757926,30.475139 62.7235091,30.4334553 62.5696778,30.3886138 L62.104867,30.2441554 C60.3932611,29.6763591 58.6548511,28.6707034 58.6548511,26.613676 C58.6548511,24.2069636 60.9805476,22.6874468 63.7415167,22.6874468 Z M54.2022438,17.5457014 L54.2022438,31.7296421 C54.2022438,32.337157 54.2913547,32.7603259 54.4710453,32.9952576 C54.6492671,33.2331077 54.8500115,33.3508167 55.3273913,33.3508167 C55.6157777,33.3508167 55.8674425,33.3299015 56.080917,33.2875846 C56.2406556,33.2558469 56.4218763,33.207146 56.6245792,33.1420975 L56.8344427,33.0716226 L56.52843,35.4783349 C56.2552218,35.647116 55.8973094,35.7774715 55.4546926,35.8698877 C55.0110966,35.9632767 54.5768033,36.0099712 54.1513232,36.0099712 C52.9067084,36.0099712 51.9994419,35.7103482 51.4285446,35.1106157 C50.909547,34.5654044 50.6264575,33.7239306 50.5792759,32.5861943 L50.5721986,32.2359856 L50.5721986,17.5457014 L54.2022438,17.5457014 Z M140.35951,22.7491225 C142.174532,22.7491225 143.171889,24.2700985 143.171889,26.1456609 L143.169384,26.3507243 L143.169384,26.3507243 L143.151998,26.7320249 L143.151998,26.7320249 L143.124003,27.063733 L143.124003,27.063733 L143.077591,27.4390193 L143.077591,27.4390193 L143.044587,27.6408577 L139.795957,29.4906408 L139.902867,28.7406491 L139.902867,28.7406491 L139.959707,28.2307901 C139.98446,27.9613419 140.001597,27.6740951 140.001597,27.3869563 C140.001597,26.5513194 139.694115,25.7652953 138.7986,25.7652953 C137.735961,25.7652953 137.265963,26.7150098 137.217021,28.2075527 L137.21272,28.4764947 L137.21272,35.7764014 L133.607156,35.7764014 L133.607156,23.002051 L137.21272,23.002051 L137.034008,25.1067083 L137.110879,25.1067083 C137.750323,23.86444 138.72173,22.7491225 140.35951,22.7491225 Z M115.519112,17.1229216 C117.693407,17.1229216 119.1602,18.1854392 119.98425,19.2639613 L120.123012,19.4542418 L117.002172,21.3555835 C116.950761,20.5953387 116.567389,19.8093146 115.697823,19.8093146 C114.862008,19.8093146 114.427117,20.4050499 114.372846,21.3920667 L114.367035,21.6094848 L114.367035,23.002051 L117.180883,23.002051 L117.180883,25.7400024 L114.367035,25.7400024 L114.367035,35.7764014 L110.787421,35.7764014 L110.787421,25.7400024 L108.817678,25.7400024 L108.817678,23.002051 L110.787421,23.002051 L110.787421,21.6342913 C110.787421,18.6434113 112.782624,17.1229216 115.519112,17.1229216 Z M87.4533397,22.6874468 C89.8442258,22.6874468 91.3796558,24.2885127 91.4862797,27.2424891 L91.4922179,27.5762636 L91.4922179,35.7565563 L87.8621727,35.7565563 L87.8621727,28.2849499 C87.8621727,26.5878967 87.2746283,25.7011876 85.9198489,25.7011876 C84.6403349,25.7011876 83.7936197,26.6053471 83.7034893,27.9432679 L83.6955037,28.1837785 L83.6955037,35.7565563 L80.0914084,35.7565563 L80.0914084,22.9914474 L83.6955037,22.9914474 L83.5167923,25.0936727 L83.5936627,25.0936727 C84.2321276,23.9287422 85.3313252,22.6874468 87.4533397,22.6874468 Z M22.0503454,18.2295813 L22.0503454,25.1700377 L29.1047952,25.1700377 L29.1047952,18.2295813 L32.8621416,18.2295813 L32.8621416,35.7565563 L29.1047952,35.7565563 L29.1047952,28.4872928 L22.0503454,28.4872928 L22.0503454,35.7565563 L18.2925094,35.7565563 L18.2925094,18.2295813 L22.0503454,18.2295813 Z M76.3051744,22.9914474 L76.3051744,35.7565563 L72.6751293,35.7565563 L72.6751293,22.9914474 L76.3051744,22.9914474 Z M125.196947,25.4360018 C123.406406,25.4360018 122.61371,27.1082486 122.61371,29.3894694 C122.61371,31.6702039 123.406406,33.3429371 125.196947,33.3429371 C126.961539,33.3429371 127.754234,31.6702039 127.754234,29.3894694 C127.754234,27.1082486 126.961539,25.4360018 125.196947,25.4360018 Z M100.225331,25.1067083 C98.9983424,25.1067083 98.0254668,25.8917596 98.0254668,27.1082486 C98.0254668,28.3247375 98.9983424,29.1107616 100.225331,29.1107616 C101.453299,29.1107616 102.425195,28.3247375 102.425195,27.1082486 C102.425195,25.8917596 101.453299,25.1067083 100.225331,25.1067083 Z M41.8833962,25.2712091 C40.5545666,25.2712091 39.4803396,26.2080175 39.1992976,27.9556564 L44.2864528,27.9556564 C44.2864528,26.4113331 43.2890962,25.2712091 41.8833962,25.2712091 Z M74.4906415,17.4703093 C75.6662199,17.4703093 76.5867061,18.3059463 76.5867061,19.4708767 C76.5867061,20.6362936 75.6662199,21.4719306 74.4906415,21.4719306 C73.315063,21.4719306 72.3940872,20.6362936 72.3940872,19.4708767 C72.3940872,18.3059463 73.315063,17.4703093 74.4906415,17.4703093 Z" id="Helsingfors-text"></path>
        </g>
    </g>
</svg>
