<svg width="435" height="1234" viewBox="0 0 435 1234" fill="none" xmlns="http://www.w3.org/2000/svg">
<rect x="231" y="35" width="150" height="150" rx="75" fill="#F5A3C7"/>
<path d="M279.273 77.5V66.428H277.081V72.396C277.081 73.42 277.209 74.764 277.209 74.764H277.145C277.145 74.764 276.553 73.34 276.185 72.588L273.081 66.428H269.961V77.5H272.169V71.532C272.169 70.524 272.073 69.212 272.073 69.18L272.137 69.164C272.137 69.164 272.697 70.588 273.065 71.34L276.153 77.5H279.273ZM288.153 74.076C288.153 74.076 288.265 73.628 288.265 72.972C288.265 70.78 286.825 69.244 284.665 69.244C282.489 69.244 280.809 70.844 280.809 73.468C280.809 76.124 282.457 77.692 284.713 77.692C286.393 77.692 287.609 76.796 288.169 75.772L286.265 74.7C286.137 75.468 285.561 76.028 284.713 76.028C283.769 76.028 283.033 75.388 282.937 74.076H288.153ZM284.665 70.876C285.545 70.876 286.169 71.596 286.169 72.572H282.985C283.161 71.468 283.833 70.876 284.665 70.876ZM296.7 74.076C296.7 74.076 296.812 73.628 296.812 72.972C296.812 70.78 295.372 69.244 293.212 69.244C291.036 69.244 289.356 70.844 289.356 73.468C289.356 76.124 291.004 77.692 293.26 77.692C294.94 77.692 296.156 76.796 296.716 75.772L294.812 74.7C294.684 75.468 294.108 76.028 293.26 76.028C292.316 76.028 291.58 75.388 291.484 74.076H296.7ZM293.212 70.876C294.092 70.876 294.716 71.596 294.716 72.572H291.532C291.708 71.468 292.38 70.876 293.212 70.876ZM303.471 76.172L303.343 77.5H305.599V65.916H303.343V70.54H303.295C302.959 69.98 302.255 69.244 301.039 69.244C299.343 69.244 297.903 70.892 297.903 73.468C297.903 76.044 299.343 77.692 301.039 77.692C302.255 77.692 303.023 76.956 303.407 76.172H303.471ZM301.807 75.884C300.767 75.884 300.191 74.908 300.191 73.468C300.191 72.028 300.767 71.052 301.807 71.052C302.831 71.052 303.407 72.028 303.407 73.468C303.407 74.908 302.831 75.884 301.807 75.884ZM314.685 67.42C315.229 67.42 315.469 67.916 315.501 68.396L317.453 67.196C316.957 66.476 316.013 65.724 314.573 65.724C312.861 65.724 311.613 66.684 311.613 68.572V69.436H310.381V71.164H311.613V77.5H313.853V71.164H315.613V69.436H313.853V68.556C313.853 67.852 314.125 67.42 314.685 67.42ZM319.994 77.692C322.186 77.692 323.882 76.092 323.882 73.468C323.882 70.844 322.186 69.244 319.994 69.244C317.786 69.244 316.09 70.844 316.09 73.468C316.09 76.092 317.786 77.692 319.994 77.692ZM318.378 73.468C318.378 72.028 318.874 70.972 319.994 70.972C321.098 70.972 321.594 72.028 321.594 73.468C321.594 74.908 321.098 75.964 319.994 75.964C318.874 75.964 318.378 74.908 318.378 73.468ZM325.319 77.5H327.575V72.892C327.575 71.852 327.863 71.18 328.567 71.18C329.127 71.18 329.319 71.676 329.319 72.204C329.319 72.748 329.223 73.292 329.191 73.532L331.223 72.364C331.223 72.364 331.303 71.948 331.303 71.42C331.303 70.236 330.679 69.276 329.543 69.276C328.519 69.276 327.911 69.98 327.511 70.764H327.463L327.575 69.436H325.319V77.5ZM338.864 70.972C339.52 70.972 340.016 71.324 340.016 71.852C340.016 72.412 339.392 72.556 338.288 72.796C336.992 73.052 335.328 73.516 335.328 75.324C335.328 76.812 336.448 77.692 337.872 77.692C339.104 77.692 339.84 76.988 340.16 76.492H340.208C340.304 76.876 340.4 77.132 340.656 77.5H342.352C342.192 76.892 342.16 76.316 342.16 75.468V72.252C342.16 70.236 340.72 69.244 338.896 69.244C337.104 69.244 335.712 70.172 335.088 71.516L337.072 72.572C337.296 71.612 337.936 70.972 338.864 70.972ZM340.08 74.46C340.08 75.452 339.36 75.996 338.56 75.996C337.856 75.996 337.504 75.66 337.504 75.164C337.504 74.524 338.128 74.348 338.816 74.172C339.424 74.012 339.856 73.836 340.08 73.548V74.46ZM299.478 96.332C299.478 94.332 298.502 93.244 296.95 93.244C295.622 93.244 294.934 94.028 294.534 94.764H294.486L294.598 93.436H292.342V101.5H294.598V96.716C294.598 95.788 295.142 95.148 295.99 95.148C296.838 95.148 297.206 95.708 297.206 96.78V101.5H299.478V96.332ZM308.208 98.076C308.208 98.076 308.32 97.628 308.32 96.972C308.32 94.78 306.88 93.244 304.72 93.244C302.544 93.244 300.864 94.844 300.864 97.468C300.864 100.124 302.512 101.692 304.768 101.692C306.448 101.692 307.664 100.796 308.224 99.772L306.32 98.7C306.192 99.468 305.616 100.028 304.768 100.028C303.824 100.028 303.088 99.388 302.992 98.076H308.208ZM304.72 94.876C305.6 94.876 306.224 95.596 306.224 96.572H303.04C303.216 95.468 303.888 94.876 304.72 94.876ZM314.773 95.5H314.821C314.821 95.5 315.109 96.844 315.333 97.852L316.101 101.5H318.789L320.469 93.436H318.261L317.797 96.364C317.621 97.484 317.349 99.356 317.349 99.356H317.301C317.301 99.356 316.965 97.468 316.725 96.364L316.101 93.436H313.541L312.917 96.364C312.677 97.468 312.357 99.356 312.357 99.356H312.309C312.309 99.356 312.037 97.484 311.861 96.364L311.381 93.436H309.077L310.757 101.5H313.509L314.277 97.852C314.485 96.86 314.773 95.5 314.773 95.5ZM260.704 118.972C261.696 118.972 262.112 119.852 262.112 120.924L264.176 119.868C263.92 118.572 262.704 117.244 260.704 117.244C258.496 117.244 256.864 118.844 256.864 121.468C256.864 124.092 258.496 125.692 260.704 125.692C262.704 125.692 263.92 124.364 264.176 123.068L262.112 122.012C262.112 123.084 261.696 123.964 260.704 123.964C259.616 123.964 259.152 122.908 259.152 121.468C259.152 120.028 259.616 118.972 260.704 118.972ZM268.971 125.692C271.163 125.692 272.859 124.092 272.859 121.468C272.859 118.844 271.163 117.244 268.971 117.244C266.763 117.244 265.067 118.844 265.067 121.468C265.067 124.092 266.763 125.692 268.971 125.692ZM267.355 121.468C267.355 120.028 267.851 118.972 268.971 118.972C270.075 118.972 270.571 120.028 270.571 121.468C270.571 122.908 270.075 123.964 268.971 123.964C267.851 123.964 267.355 122.908 267.355 121.468ZM274.295 125.5H276.519V120.652C276.519 119.708 277.015 119.148 277.783 119.148C278.519 119.148 278.903 119.644 278.903 120.572V125.5H281.127V120.796C281.127 119.772 281.591 119.148 282.391 119.148C283.127 119.148 283.511 119.644 283.511 120.572V125.5H285.735V120.172C285.735 118.3 284.823 117.244 283.303 117.244C282.039 117.244 281.335 117.948 280.855 118.732H280.807C280.487 117.74 279.783 117.244 278.759 117.244C277.511 117.244 276.855 118.06 276.455 118.764H276.407L276.519 117.436H274.295V125.5ZM289.705 118.764L289.801 117.436H287.545V128.636H289.801V124.364H289.833C290.201 124.956 290.889 125.692 292.105 125.692C293.817 125.692 295.257 124.044 295.257 121.468C295.257 118.892 293.817 117.244 292.105 117.244C290.889 117.244 290.137 117.98 289.737 118.764H289.705ZM289.737 121.468C289.737 120.028 290.313 119.052 291.353 119.052C292.393 119.052 292.969 120.028 292.969 121.468C292.969 122.908 292.393 123.884 291.353 123.884C290.313 123.884 289.737 122.908 289.737 121.468ZM300.268 125.692C302.46 125.692 304.156 124.092 304.156 121.468C304.156 118.844 302.46 117.244 300.268 117.244C298.06 117.244 296.364 118.844 296.364 121.468C296.364 124.092 298.06 125.692 300.268 125.692ZM298.652 121.468C298.652 120.028 299.148 118.972 300.268 118.972C301.372 118.972 301.868 120.028 301.868 121.468C301.868 122.908 301.372 123.964 300.268 123.964C299.148 123.964 298.652 122.908 298.652 121.468ZM312.728 120.332C312.728 118.332 311.752 117.244 310.2 117.244C308.872 117.244 308.184 118.028 307.784 118.764H307.736L307.848 117.436H305.592V125.5H307.848V120.716C307.848 119.788 308.392 119.148 309.24 119.148C310.088 119.148 310.456 119.708 310.456 120.78V125.5H312.728V120.332ZM321.458 122.076C321.458 122.076 321.57 121.628 321.57 120.972C321.57 118.78 320.13 117.244 317.97 117.244C315.794 117.244 314.114 118.844 314.114 121.468C314.114 124.124 315.762 125.692 318.018 125.692C319.698 125.692 320.914 124.796 321.474 123.772L319.57 122.7C319.442 123.468 318.866 124.028 318.018 124.028C317.074 124.028 316.338 123.388 316.242 122.076H321.458ZM317.97 118.876C318.85 118.876 319.474 119.596 319.474 120.572H316.29C316.466 119.468 317.138 118.876 317.97 118.876ZM330.119 120.332C330.119 118.332 329.143 117.244 327.591 117.244C326.263 117.244 325.575 118.028 325.175 118.764H325.127L325.239 117.436H322.983V125.5H325.239V120.716C325.239 119.788 325.783 119.148 326.631 119.148C327.479 119.148 327.847 119.708 327.847 120.78V125.5H330.119V120.332ZM335.622 123.356C335.526 123.564 335.334 123.868 334.998 123.868C334.63 123.868 334.438 123.66 334.438 123.036V119.164H336.262V117.436H334.438V114.556L332.198 115.804V117.436H330.902V119.164H332.198V123.26C332.198 124.972 333.11 125.692 334.518 125.692C335.446 125.692 336.198 125.244 336.47 124.988L335.622 123.356ZM344.549 125.692C346.741 125.692 348.437 124.092 348.437 121.468C348.437 118.844 346.741 117.244 344.549 117.244C342.341 117.244 340.645 118.844 340.645 121.468C340.645 124.092 342.341 125.692 344.549 125.692ZM342.933 121.468C342.933 120.028 343.429 118.972 344.549 118.972C345.653 118.972 346.149 120.028 346.149 121.468C346.149 122.908 345.653 123.964 344.549 123.964C343.429 123.964 342.933 122.908 342.933 121.468ZM349.873 125.5H352.129V120.892C352.129 119.852 352.417 119.18 353.121 119.18C353.681 119.18 353.873 119.676 353.873 120.204C353.873 120.748 353.777 121.292 353.745 121.532L355.777 120.364C355.777 120.364 355.857 119.948 355.857 119.42C355.857 118.236 355.233 117.276 354.097 117.276C353.073 117.276 352.465 117.98 352.065 118.764H352.017L352.129 117.436H349.873V125.5ZM284.373 139.42C284.917 139.42 285.157 139.916 285.189 140.396L287.141 139.196C286.645 138.476 285.701 137.724 284.261 137.724C282.549 137.724 281.301 138.684 281.301 140.572V141.436H280.069V143.164H281.301V149.5H283.541V143.164H285.301V141.436H283.541V140.556C283.541 139.852 283.813 139.42 284.373 139.42ZM293.122 146.076C293.122 146.076 293.234 145.628 293.234 144.972C293.234 142.78 291.794 141.244 289.634 141.244C287.458 141.244 285.778 142.844 285.778 145.468C285.778 148.124 287.426 149.692 289.682 149.692C291.362 149.692 292.578 148.796 293.138 147.772L291.234 146.7C291.106 147.468 290.53 148.028 289.682 148.028C288.738 148.028 288.002 147.388 287.906 146.076H293.122ZM289.634 142.876C290.514 142.876 291.138 143.596 291.138 144.572H287.954C288.13 143.468 288.802 142.876 289.634 142.876ZM297.911 142.972C298.567 142.972 299.063 143.324 299.063 143.852C299.063 144.412 298.439 144.556 297.335 144.796C296.039 145.052 294.375 145.516 294.375 147.324C294.375 148.812 295.495 149.692 296.919 149.692C298.151 149.692 298.887 148.988 299.207 148.492H299.255C299.351 148.876 299.447 149.132 299.703 149.5H301.399C301.239 148.892 301.207 148.316 301.207 147.468V144.252C301.207 142.236 299.767 141.244 297.943 141.244C296.151 141.244 294.759 142.172 294.135 143.516L296.119 144.572C296.343 143.612 296.983 142.972 297.911 142.972ZM299.127 146.46C299.127 147.452 298.407 147.996 297.607 147.996C296.903 147.996 296.551 147.66 296.551 147.164C296.551 146.524 297.175 146.348 297.863 146.172C298.471 146.012 298.903 145.836 299.127 145.548V146.46ZM306.723 147.356C306.627 147.564 306.435 147.868 306.099 147.868C305.731 147.868 305.539 147.66 305.539 147.036V143.164H307.363V141.436H305.539V138.556L303.299 139.804V141.436H302.003V143.164H303.299V147.26C303.299 148.972 304.211 149.692 305.619 149.692C306.547 149.692 307.299 149.244 307.571 148.988L306.723 147.356ZM308.536 146.604C308.536 148.604 309.464 149.692 311.016 149.692C312.344 149.692 312.984 148.908 313.384 148.172H313.432L313.32 149.5H315.592V141.436H313.32V146.236C313.32 147.164 312.824 147.788 311.976 147.788C311.128 147.788 310.792 147.228 310.792 146.156V141.436H308.536V146.604ZM317.428 149.5H319.684V144.892C319.684 143.852 319.972 143.18 320.676 143.18C321.236 143.18 321.428 143.676 321.428 144.204C321.428 144.748 321.332 145.292 321.3 145.532L323.332 144.364C323.332 144.364 323.412 143.948 323.412 143.42C323.412 142.236 322.788 141.276 321.652 141.276C320.628 141.276 320.02 141.98 319.62 142.764H319.572L319.684 141.436H317.428V149.5ZM331.606 146.076C331.606 146.076 331.718 145.628 331.718 144.972C331.718 142.78 330.278 141.244 328.118 141.244C325.942 141.244 324.262 142.844 324.262 145.468C324.262 148.124 325.91 149.692 328.166 149.692C329.846 149.692 331.062 148.796 331.622 147.772L329.718 146.7C329.59 147.468 329.014 148.028 328.166 148.028C327.222 148.028 326.486 147.388 326.39 146.076H331.606ZM328.118 142.876C328.998 142.876 329.622 143.596 329.622 144.572H326.438C326.614 143.468 327.286 142.876 328.118 142.876Z" fill="black"/>
<path d="M307.5 187C307.5 186.172 306.828 185.5 306 185.5C305.172 185.5 304.5 186.172 304.5 187H307.5ZM304.939 223.061C305.525 223.646 306.475 223.646 307.061 223.061L316.607 213.515C317.192 212.929 317.192 211.979 316.607 211.393C316.021 210.808 315.071 210.808 314.485 211.393L306 219.879L297.515 211.393C296.929 210.808 295.979 210.808 295.393 211.393C294.808 211.979 294.808 212.929 295.393 213.515L304.939 223.061ZM304.5 187V222H307.5V187H304.5Z" fill="black"/>
<rect x="246" y="284" width="84.8528" height="84.8528" rx="5" transform="rotate(-45 246 284)" fill="#E2F5F3"/>
<path d="M278.032 286.926L279.264 286.93L279.275 282.786L281.599 282.792L284.052 286.942L285.396 286.946L282.887 282.669C284.274 282.323 285.131 281.345 285.134 280.001C285.139 278.321 283.882 277.254 281.754 277.248L278.058 277.239L278.032 286.926ZM283.874 279.998C283.871 281.104 283.142 281.676 281.91 281.673L279.278 281.666L279.287 278.362L281.919 278.369C283.151 278.372 283.877 278.906 283.874 279.998ZM292.267 283.716C292.267 283.716 292.352 283.38 292.353 282.932C292.358 281.084 291.241 279.737 289.393 279.732C287.489 279.727 286.197 281.292 286.192 283.42C286.186 285.604 287.386 287.119 289.402 287.124C290.858 287.128 291.91 286.193 292.305 285.186L291.201 284.525C291.045 285.393 290.413 286.119 289.405 286.116C288.131 286.113 287.405 285.047 287.325 283.703L292.267 283.716ZM289.391 280.712C290.567 280.715 291.194 281.697 291.191 282.761L287.369 282.751C287.554 281.604 288.243 280.709 289.391 280.712ZM296.76 286.192C295.416 286.188 294.719 285.248 294.609 284.296L293.487 284.965C293.89 286.282 295.022 287.139 296.814 287.144C298.102 287.147 299.294 286.366 299.297 285.078C299.301 283.762 298.28 283.312 297.105 282.931C296.098 282.606 294.936 282.491 294.938 281.693C294.94 281.021 295.599 280.701 296.271 280.702C297.349 280.705 298.033 281.477 298.171 282.261L299.264 281.606C298.819 280.499 297.617 279.754 296.217 279.75C294.985 279.747 293.807 280.5 293.804 281.732C293.8 283.076 295.171 283.528 296.234 283.824C297.228 284.107 298.165 284.291 298.163 285.117C298.161 285.845 297.488 286.194 296.76 286.192ZM306.554 283.753C306.554 283.753 306.639 283.418 306.64 282.97C306.645 281.122 305.528 279.775 303.68 279.77C301.776 279.765 300.484 281.33 300.479 283.458C300.473 285.642 301.673 287.157 303.689 287.162C305.145 287.166 306.197 286.231 306.592 285.224L305.488 284.563C305.332 285.43 304.7 286.157 303.692 286.154C302.418 286.151 301.692 285.085 301.612 283.74L306.554 283.753ZM303.678 280.75C304.854 280.753 305.481 281.735 305.479 282.799L301.657 282.789C301.842 281.641 302.53 280.747 303.678 280.75ZM310.88 280.797C311.72 280.799 312.362 281.291 312.36 282.019C312.359 282.621 311.756 282.745 310.692 282.966C309.459 283.215 308.002 283.589 307.998 285.101C307.995 286.431 308.931 287.176 310.233 287.179C311.353 287.182 312.068 286.568 312.406 286.065L312.434 286.065C312.475 286.401 312.516 286.625 312.739 287.018L313.691 287.02C313.594 286.628 313.525 286.292 313.527 285.508L313.536 282.274C313.54 280.524 312.338 279.793 310.882 279.789C309.37 279.785 308.206 280.734 307.852 281.979L308.943 282.64C309.113 281.632 309.704 280.794 310.88 280.797ZM312.41 284.273C312.407 285.449 311.467 286.174 310.459 286.172C309.605 286.17 309.173 285.72 309.174 285.104C309.176 284.264 310.101 284.071 310.941 283.891C311.67 283.725 312.188 283.544 312.413 283.209L312.41 284.273ZM315.477 287.025L316.653 287.028L316.663 282.996C316.666 281.89 317.061 280.925 317.985 280.928C318.601 280.929 318.879 281.42 318.878 282.036C318.877 282.484 318.749 283.086 318.749 283.086L319.899 282.403C319.899 282.403 319.942 282.081 319.943 281.689C319.945 280.667 319.304 279.867 318.338 279.864C317.498 279.862 316.894 280.421 316.612 281.204L316.584 281.204L316.671 279.972L315.495 279.969L315.477 287.025ZM324.061 280.832C325.237 280.835 325.795 281.844 325.792 282.852L326.914 282.183C326.748 281.175 325.856 279.828 324.064 279.824C322.104 279.818 320.924 281.383 320.918 283.511C320.913 285.639 322.084 287.21 324.044 287.216C325.836 287.22 326.736 285.879 326.907 284.871L325.788 284.196C325.786 285.204 325.223 286.211 324.047 286.208C322.703 286.204 322.09 284.97 322.094 283.514C322.098 282.058 322.717 280.828 324.061 280.832ZM334.134 282.65C334.139 280.802 333.189 279.848 331.733 279.844C330.501 279.84 329.827 280.623 329.546 281.238L329.518 281.238C329.518 281.238 329.604 280.342 329.606 279.502L329.613 276.926L328.437 276.923L328.41 287.059L329.586 287.062L329.597 282.89C329.6 281.812 330.302 280.904 331.394 280.907C332.402 280.909 332.961 281.471 332.957 282.871L332.946 287.071L334.122 287.074L334.134 282.65Z" fill="black"/>
<path d="M307.5 345C307.5 344.172 306.828 343.5 306 343.5C305.172 343.5 304.5 344.172 304.5 345H307.5ZM304.939 376.061C305.525 376.646 306.475 376.646 307.061 376.061L316.607 366.515C317.192 365.929 317.192 364.979 316.607 364.393C316.021 363.808 315.071 363.808 314.485 364.393L306 372.879L297.515 364.393C296.929 363.808 295.979 363.808 295.393 364.393C294.808 364.979 294.808 365.929 295.393 366.515L304.939 376.061ZM304.5 345V375H307.5V345H304.5Z" fill="black"/>
<rect x="246" y="436" width="84.8528" height="84.8528" rx="5" transform="rotate(-45 246 436)" fill="#E2F5F3"/>
<path d="M285.939 429.259L285.914 438.947L289.162 438.956C291.906 438.963 293.814 437.232 293.823 434.096C293.831 430.96 291.931 429.275 289.187 429.268L285.939 429.259ZM292.563 434.093C292.557 436.221 291.447 437.842 289.515 437.837L287.149 437.83L287.168 430.382L289.534 430.389C291.466 430.394 292.568 431.965 292.563 434.093ZM301.297 435.74C301.297 435.74 301.382 435.404 301.383 434.956C301.388 433.108 300.272 431.761 298.424 431.756C296.52 431.751 295.227 433.316 295.222 435.444C295.216 437.628 296.416 439.143 298.432 439.148C299.888 439.152 300.941 438.217 301.335 437.21L300.231 436.549C300.075 437.416 299.443 438.143 298.435 438.14C297.161 438.137 296.436 437.071 296.355 435.727L301.297 435.74ZM298.421 432.736C299.597 432.739 300.224 433.721 300.222 434.785L296.4 434.775C296.585 433.627 297.273 432.733 298.421 432.736ZM305.79 438.215C304.446 438.212 303.749 437.272 303.639 436.32L302.518 436.989C302.92 438.306 304.052 439.163 305.844 439.168C307.132 439.171 308.324 438.39 308.327 437.102C308.331 435.786 307.31 435.335 306.135 434.954C305.128 434.63 303.966 434.515 303.968 433.717C303.97 433.045 304.629 432.724 305.301 432.726C306.379 432.729 307.063 433.501 307.201 434.285L308.295 433.63C307.849 432.523 306.647 431.778 305.247 431.774C304.015 431.771 302.837 432.524 302.834 433.756C302.831 435.1 304.201 435.551 305.265 435.848C306.258 436.131 307.195 436.315 307.193 437.141C307.191 437.869 306.518 438.217 305.79 438.215ZM309.946 439.01L311.122 439.013L311.141 431.957L309.965 431.954L309.946 439.01ZM310.56 429.156C310.084 429.155 309.747 429.49 309.746 429.966C309.745 430.442 310.08 430.779 310.556 430.78C311.032 430.781 311.369 430.446 311.37 429.97C311.371 429.494 311.036 429.157 310.56 429.156ZM313.117 434.147C313.114 435.071 313.617 435.73 314.4 436.096L314.4 436.124C313.615 436.346 312.914 436.722 312.912 437.478C312.91 438.094 313.358 438.389 313.861 438.559L313.861 438.587C313.133 438.739 312.347 439.283 312.345 440.025C312.342 441.369 314.076 441.933 315.812 441.938C317.66 441.943 319.454 441.331 319.458 439.651C319.462 438.363 318.399 437.745 317.111 437.741C316.327 437.739 315.711 437.85 315.039 437.848C314.311 437.846 314.031 437.677 314.032 437.341C314.034 436.837 314.931 436.503 315.771 436.506C317.171 436.509 318.433 435.561 318.437 434.161C318.439 433.377 318.006 432.886 317.741 432.619L317.741 432.591C317.909 432.647 318.189 432.704 318.413 432.705C319.085 432.706 319.477 432.371 319.48 431.531L318.194 430.8C318.221 431.024 318.249 431.192 318.248 431.416C318.247 431.752 318.078 432.032 317.462 432.03C316.846 432.029 316.455 431.803 315.783 431.802C314.383 431.798 313.121 432.635 313.117 434.147ZM313.409 439.943C313.412 438.963 315.512 438.801 316.66 438.804C317.556 438.806 318.34 439.032 318.338 439.704C318.336 440.6 317.103 440.989 315.815 440.986C314.583 440.983 313.408 440.643 313.409 439.943ZM314.237 434.15C314.239 433.254 314.94 432.723 315.78 432.726C316.62 432.728 317.319 433.262 317.317 434.158C317.314 435.054 316.613 435.584 315.773 435.582C314.933 435.579 314.234 435.046 314.237 434.15ZM326.252 434.629C326.257 432.781 325.307 431.827 323.851 431.823C322.619 431.82 321.945 432.602 321.664 433.217L321.636 433.217L321.723 431.985L320.547 431.982L320.528 439.038L321.704 439.041L321.715 434.869C321.718 433.791 322.421 432.883 323.513 432.886C324.521 432.889 325.079 433.45 325.075 434.85L325.064 439.05L326.24 439.053L326.252 434.629Z" fill="black"/>
<path d="M307.5 497C307.5 496.172 306.828 495.5 306 495.5C305.172 495.5 304.5 496.172 304.5 497H307.5ZM304.939 528.061C305.525 528.646 306.475 528.646 307.061 528.061L316.607 518.515C317.192 517.929 317.192 516.979 316.607 516.393C316.021 515.808 315.071 515.808 314.485 516.393L306 524.879L297.515 516.393C296.929 515.808 295.979 515.808 295.393 516.393C294.808 516.979 294.808 517.929 295.393 518.515L304.939 528.061ZM304.5 497V527H307.5V497H304.5Z" fill="black"/>
<rect x="246" y="588" width="84.8528" height="84.8528" rx="5" transform="rotate(-45 246 588)" fill="#E2F5F3"/>
<path d="M270.254 586.314C271.653 586.766 273.207 586.938 273.203 588.31C273.2 589.374 272.233 589.987 271.001 589.984C269.195 589.979 268.302 588.717 268.166 587.26L266.988 587.985C267.375 589.988 269.038 591.071 270.998 591.076C273.014 591.081 274.431 589.937 274.435 588.257C274.44 586.465 272.929 585.887 271.461 585.407C270.118 584.97 268.564 584.784 268.568 583.58C268.57 582.684 269.411 582.14 270.419 582.142C271.819 582.146 272.853 583.045 273.045 584.459L274.223 583.734C273.598 581.857 271.99 581.055 270.422 581.05C268.7 581.046 267.34 582.064 267.335 583.688C267.331 585.424 269.023 585.919 270.254 586.314ZM277.107 585.1L277.194 583.868L276.018 583.865L275.992 593.665L277.168 593.668L277.178 589.86L277.206 589.86C277.457 590.309 278.127 591.095 279.359 591.098C280.983 591.102 282.331 589.594 282.336 587.41C282.342 585.226 281.002 583.71 279.378 583.706C278.146 583.703 277.416 584.485 277.135 585.1L277.107 585.1ZM277.128 587.396C277.132 585.94 277.808 584.71 279.152 584.713C280.496 584.717 281.164 585.951 281.16 587.407C281.157 588.863 280.481 590.093 279.137 590.089C277.793 590.086 277.125 588.852 277.128 587.396ZM289.703 587.709C289.703 587.709 289.788 587.373 289.789 586.925C289.794 585.077 288.678 583.73 286.83 583.726C284.926 583.721 283.634 585.285 283.628 587.413C283.622 589.597 284.822 591.112 286.838 591.118C288.294 591.121 289.347 590.186 289.742 589.179L288.637 588.518C288.481 589.386 287.849 590.112 286.841 590.11C285.567 590.106 284.842 589.04 284.761 587.696L289.703 587.709ZM286.827 584.706C288.003 584.709 288.631 585.69 288.628 586.754L284.806 586.744C284.991 585.597 285.679 584.703 286.827 584.706ZM294.168 584.753C295.344 584.756 295.901 585.765 295.898 586.773L297.02 586.104C296.855 585.096 295.962 583.75 294.17 583.745C292.21 583.74 291.03 585.305 291.025 587.433C291.019 589.561 292.191 591.132 294.151 591.137C295.943 591.142 296.842 589.8 297.013 588.792L295.895 588.117C295.892 589.125 295.33 590.132 294.154 590.129C292.81 590.125 292.197 588.892 292.201 587.436C292.204 585.98 292.824 584.749 294.168 584.753ZM298.517 590.98L299.693 590.983L299.711 583.927L298.535 583.924L298.517 590.98ZM299.131 581.126C298.655 581.125 298.318 581.46 298.317 581.936C298.315 582.412 298.65 582.749 299.126 582.75C299.602 582.751 299.939 582.416 299.941 581.94C299.942 581.464 299.607 581.127 299.131 581.126ZM302.262 590.99L303.41 590.993L303.426 584.945L305.134 584.95L305.137 583.942L303.429 583.937L303.43 583.405C303.433 582.173 304.079 581.699 304.807 581.701C305.423 581.702 305.884 581.998 306.05 582.726L307.2 582.043C306.74 581.216 305.985 580.696 304.809 580.693C303.549 580.69 302.287 581.442 302.282 583.43L302.281 583.934L301.049 583.931L301.046 584.939L302.278 584.942L302.262 590.99ZM306.028 591L307.204 591.003L307.223 583.947L306.047 583.944L306.028 591ZM311.982 584.8C313.158 584.803 313.715 585.812 313.713 586.82L314.835 586.151C314.669 585.143 313.777 583.796 311.985 583.792C310.025 583.787 308.845 585.351 308.839 587.479C308.833 589.607 310.005 591.179 311.965 591.184C313.757 591.188 314.657 589.847 314.827 588.839L313.709 588.164C313.707 589.172 313.144 590.179 311.968 590.176C310.624 590.172 310.011 588.939 310.015 587.483C310.019 586.027 310.638 584.796 311.982 584.8ZM319.007 584.818C319.847 584.82 320.49 585.312 320.488 586.04C320.487 586.642 319.884 586.767 318.82 586.988C317.587 587.236 316.13 587.611 316.126 589.123C316.123 590.453 317.059 591.197 318.361 591.201C319.481 591.203 320.196 590.589 320.534 590.086L320.562 590.086C320.603 590.422 320.644 590.647 320.867 591.039L321.819 591.042C321.722 590.649 321.653 590.313 321.655 589.529L321.664 586.295C321.668 584.545 320.466 583.814 319.01 583.81C317.498 583.806 316.334 584.755 315.98 586L317.071 586.661C317.241 585.654 317.831 584.815 319.007 584.818ZM320.538 588.294C320.535 589.47 319.595 590.196 318.587 590.193C317.733 590.191 317.301 589.742 317.302 589.126C317.304 588.286 318.229 588.092 319.069 587.912C319.798 587.746 320.316 587.566 320.541 587.23L320.538 588.294ZM326.359 589.542C326.246 589.821 325.993 590.213 325.601 590.212C325.181 590.21 324.986 589.972 324.988 589.3L324.999 585.002L326.819 585.007L326.822 583.999L325.002 583.994L325.008 581.642L323.858 582.367L323.854 583.991L322.566 583.988L322.563 584.996L323.851 584.999L323.839 589.395C323.836 590.823 324.577 591.217 325.473 591.219C326.201 591.221 326.734 590.845 326.987 590.509L326.359 589.542ZM328.157 591.058L329.333 591.061L329.352 584.005L328.176 584.002L328.157 591.058ZM328.771 581.204C328.295 581.203 327.958 581.538 327.957 582.014C327.956 582.49 328.291 582.827 328.767 582.828C329.243 582.829 329.58 582.494 329.581 582.018C329.582 581.542 329.247 581.205 328.771 581.204ZM334.142 591.242C336.102 591.247 337.338 589.682 337.344 587.554C337.35 585.426 336.122 583.855 334.162 583.85C332.202 583.845 330.966 585.41 330.96 587.538C330.954 589.666 332.182 591.237 334.142 591.242ZM332.136 587.541C332.14 586.085 332.815 584.855 334.159 584.858C335.503 584.862 336.172 586.095 336.168 587.551C336.164 589.007 335.489 590.238 334.145 590.234C332.801 590.23 332.132 588.997 332.136 587.541ZM344.682 586.678C344.686 584.83 343.737 583.875 342.281 583.871C341.049 583.868 340.375 584.65 340.093 585.266L340.065 585.266L340.153 584.034L338.977 584.031L338.958 591.087L340.134 591.09L340.145 586.918C340.148 585.84 340.85 584.932 341.942 584.935C342.95 584.937 343.509 585.499 343.505 586.899L343.494 591.099L344.67 591.102L344.682 586.678Z" fill="black"/>
<path d="M307.5 649C307.5 648.172 306.828 647.5 306 647.5C305.172 647.5 304.5 648.172 304.5 649H307.5ZM304.939 680.061C305.525 680.646 306.475 680.646 307.061 680.061L316.607 670.515C317.192 669.929 317.192 668.979 316.607 668.393C316.021 667.808 315.071 667.808 314.485 668.393L306 676.879L297.515 668.393C296.929 667.808 295.979 667.808 295.393 668.393C294.808 668.979 294.808 669.929 295.393 670.515L304.939 680.061ZM304.5 649V679H307.5V649H304.5Z" fill="black"/>
<g clip-path="url(#clip0_6_2)">
<rect x="246" y="740" width="84.8528" height="84.8528" rx="5" transform="rotate(-45 246 740)" fill="#E2F5F3"/>
<path d="M259.596 742.878L260.856 742.881L260.881 733.193L259.621 733.19L259.596 742.878ZM262.984 742.887L264.16 742.89L264.171 738.718C264.174 737.528 264.82 736.732 265.8 736.734C266.668 736.737 267.198 737.27 267.195 738.488L267.184 742.898L268.36 742.901L268.37 738.813C268.374 737.581 268.992 736.743 270 736.745C270.896 736.748 271.398 737.309 271.395 738.597L271.384 742.909L272.56 742.912L272.572 738.32C272.576 736.64 271.683 735.686 270.283 735.682C269.051 735.679 268.405 736.461 268.123 737.076L268.095 737.076C267.789 736.151 267.119 735.674 266.139 735.671C265.019 735.668 264.401 736.451 264.119 737.066L264.091 737.066L264.178 735.834L263.002 735.831L262.984 742.887ZM275.63 737.096L275.717 735.864L274.541 735.861L274.515 745.661L275.691 745.664L275.701 741.856L275.729 741.856C275.98 742.305 276.65 743.091 277.882 743.094C279.506 743.098 280.854 741.59 280.86 739.406C280.866 737.222 279.526 735.706 277.902 735.702C276.67 735.699 275.94 736.481 275.658 737.096L275.63 737.096ZM275.652 739.392C275.656 737.936 276.331 736.706 277.675 736.709C279.019 736.713 279.688 737.947 279.684 739.403C279.68 740.859 279.005 742.089 277.661 742.085C276.317 742.082 275.648 740.848 275.652 739.392ZM282.48 742.938L283.656 742.941L283.682 732.805L282.506 732.802L282.48 742.938ZM291.358 739.713C291.358 739.713 291.443 739.378 291.444 738.93C291.449 737.082 290.332 735.735 288.484 735.73C286.58 735.725 285.288 737.289 285.283 739.417C285.277 741.601 286.477 743.117 288.493 743.122C289.949 743.126 291.001 742.191 291.396 741.184L290.292 740.523C290.135 741.39 289.503 742.117 288.495 742.114C287.221 742.111 286.496 741.045 286.416 739.7L291.358 739.713ZM288.482 736.71C289.658 736.713 290.285 737.695 290.282 738.759L286.46 738.749C286.645 737.601 287.334 736.707 288.482 736.71ZM293.007 742.966L294.183 742.969L294.194 738.797C294.197 737.607 294.843 736.811 295.823 736.813C296.691 736.815 297.222 737.349 297.219 738.567L297.207 742.977L298.383 742.98L298.394 738.892C298.397 737.66 299.015 736.822 300.023 736.824C300.919 736.827 301.422 737.388 301.418 738.676L301.407 742.988L302.583 742.991L302.595 738.399C302.599 736.719 301.706 735.765 300.306 735.761C299.074 735.758 298.428 736.54 298.146 737.155L298.118 737.155C297.813 736.23 297.142 735.753 296.162 735.75C295.042 735.747 294.424 736.53 294.142 737.145L294.114 737.145L294.202 735.913L293.026 735.91L293.007 742.966ZM310.239 739.763C310.239 739.763 310.323 739.427 310.325 738.979C310.329 737.131 309.213 735.784 307.365 735.78C305.461 735.775 304.169 737.339 304.163 739.467C304.158 741.651 305.358 743.166 307.374 743.172C308.83 743.175 309.882 742.24 310.277 741.233L309.172 740.572C309.016 741.44 308.384 742.166 307.376 742.164C306.102 742.16 305.377 741.094 305.297 739.75L310.239 739.763ZM307.362 736.76C308.538 736.763 309.166 737.744 309.163 738.808L305.341 738.798C305.526 737.651 306.214 736.757 307.362 736.76ZM317.611 738.607C317.616 736.759 316.667 735.804 315.211 735.8C313.979 735.797 313.305 736.579 313.023 737.194L312.995 737.194L313.082 735.963L311.906 735.96L311.888 743.015L313.064 743.019L313.075 738.847C313.078 737.769 313.78 736.86 314.872 736.863C315.88 736.866 316.439 737.427 316.435 738.827L316.424 743.027L317.6 743.031L317.611 738.607ZM322.312 741.531C322.2 741.811 321.946 742.202 321.554 742.201C321.134 742.2 320.939 741.961 320.941 741.289L320.952 736.991L322.772 736.996L322.775 735.988L320.955 735.983L320.961 733.631L319.811 734.356L319.807 735.98L318.519 735.977L318.516 736.985L319.804 736.988L319.793 741.384C319.789 742.812 320.53 743.206 321.426 743.209C322.154 743.21 322.687 742.834 322.94 742.499L322.312 741.531ZM326.896 736.839C327.736 736.841 328.379 737.333 328.377 738.061C328.375 738.663 327.773 738.787 326.708 739.008C325.476 739.257 324.019 739.631 324.015 741.143C324.011 742.473 324.947 743.218 326.249 743.221C327.369 743.224 328.085 742.61 328.422 742.107L328.45 742.107C328.491 742.443 328.533 742.667 328.756 743.06L329.708 743.062C329.611 742.67 329.542 742.334 329.544 741.55L329.552 738.316C329.557 736.566 328.355 735.835 326.899 735.831C325.387 735.827 324.222 736.776 323.869 738.021L324.959 738.682C325.13 737.674 325.72 736.836 326.896 736.839ZM328.427 740.315C328.424 741.491 327.484 742.216 326.476 742.214C325.622 742.212 325.189 741.762 325.191 741.146C325.193 740.306 326.118 740.113 326.958 739.933C327.686 739.767 328.205 739.586 328.43 739.251L328.427 740.315ZM334.248 741.562C334.135 741.842 333.882 742.233 333.49 742.232C333.07 742.231 332.875 741.993 332.876 741.321L332.888 737.023L334.708 737.027L334.71 736.019L332.89 736.015L332.897 733.663L331.747 734.388L331.742 736.012L330.454 736.008L330.452 737.016L331.74 737.02L331.728 741.416C331.724 742.844 332.465 743.238 333.361 743.24C334.089 743.242 334.622 742.865 334.875 742.53L334.248 741.562ZM336.046 743.079L337.222 743.082L337.24 736.026L336.064 736.023L336.046 743.079ZM336.66 733.225C336.184 733.223 335.847 733.558 335.846 734.034C335.844 734.51 336.18 734.847 336.656 734.849C337.132 734.85 337.468 734.515 337.47 734.039C337.471 733.563 337.136 733.226 336.66 733.225ZM342.031 743.263C343.991 743.268 345.227 741.703 345.233 739.575C345.238 737.447 344.01 735.876 342.05 735.871C340.09 735.866 338.854 737.43 338.849 739.558C338.843 741.686 340.071 743.258 342.031 743.263ZM340.025 739.561C340.029 738.105 340.704 736.875 342.048 736.879C343.392 736.882 344.061 738.116 344.057 739.572C344.053 741.028 343.378 742.258 342.034 742.255C340.69 742.251 340.021 741.017 340.025 739.561ZM352.57 738.698C352.575 736.85 351.626 735.896 350.17 735.892C348.938 735.889 348.264 736.671 347.982 737.286L347.954 737.286L348.041 736.055L346.865 736.051L346.847 743.107L348.023 743.111L348.034 738.939C348.036 737.861 348.739 736.952 349.831 736.955C350.839 736.958 351.397 737.519 351.394 738.919L351.383 743.119L352.559 743.122L352.57 738.698Z" fill="black"/>
</g>
<path d="M307.5 801C307.5 800.172 306.828 799.5 306 799.5C305.172 799.5 304.5 800.172 304.5 801H307.5ZM304.939 832.061C305.525 832.646 306.475 832.646 307.061 832.061L316.607 822.515C317.192 821.929 317.192 820.979 316.607 820.393C316.021 819.808 315.071 819.808 314.485 820.393L306 828.879L297.515 820.393C296.929 819.808 295.979 819.808 295.393 820.393C294.808 820.979 294.808 821.929 295.393 822.515L304.939 832.061ZM304.5 801V831H307.5V801H304.5Z" fill="black"/>
<rect x="246" y="892" width="84.8528" height="84.8528" rx="5" transform="rotate(-45 246 892)" fill="#E2F5F3"/>
<path d="M260.312 885.192L260.286 894.88L263.534 894.888C266.278 894.896 268.187 893.165 268.195 890.029C268.203 886.893 266.304 885.208 263.56 885.2L260.312 885.192ZM266.935 890.025C266.929 892.153 265.819 893.774 263.887 893.769L261.521 893.763L261.541 886.315L263.907 886.321C265.839 886.326 266.941 887.897 266.935 890.025ZM272.776 895.081C274.736 895.086 275.972 893.521 275.978 891.393C275.984 889.265 274.756 887.694 272.796 887.689C270.836 887.684 269.6 889.248 269.594 891.376C269.588 893.504 270.816 895.076 272.776 895.081ZM270.77 891.379C270.774 889.923 271.449 888.693 272.793 888.697C274.137 888.7 274.806 889.934 274.802 891.39C274.798 892.846 274.123 894.076 272.779 894.073C271.435 894.069 270.766 892.835 270.77 891.379ZM280.407 888.717C281.583 888.72 282.14 889.729 282.138 890.737L283.26 890.068C283.094 889.06 282.202 887.713 280.41 887.709C278.45 887.704 277.27 889.268 277.264 891.396C277.258 893.524 278.43 895.096 280.39 895.101C282.182 895.105 283.082 893.764 283.252 892.756L282.134 892.081C282.132 893.089 281.569 894.096 280.393 894.093C279.049 894.089 278.436 892.856 278.44 891.4C278.444 889.944 279.063 888.713 280.407 888.717ZM284.707 892.312C284.702 894.16 285.596 895.114 287.052 895.118C288.284 895.121 288.902 894.339 289.183 893.724L289.211 893.724L289.124 894.956L290.3 894.959L290.319 887.903L289.143 887.9L289.132 892.072C289.129 893.164 288.482 894.058 287.39 894.055C286.382 894.052 285.88 893.491 285.884 892.091L285.895 887.891L284.719 887.888L284.707 892.312ZM292.317 894.964L293.493 894.967L293.504 890.795C293.507 889.605 294.153 888.809 295.133 888.811C296.001 888.814 296.531 889.347 296.528 890.565L296.517 894.975L297.693 894.978L297.703 890.89C297.707 889.658 298.325 888.82 299.333 888.822C300.229 888.825 300.731 889.386 300.728 890.674L300.717 894.986L301.893 894.989L301.905 890.397C301.909 888.717 301.016 887.763 299.616 887.759C298.384 887.756 297.738 888.538 297.456 889.154L297.428 889.153C297.122 888.229 296.452 887.751 295.472 887.748C294.352 887.745 293.734 888.528 293.452 889.143L293.424 889.143L293.511 887.911L292.335 887.908L292.317 894.964ZM309.548 891.761C309.548 891.761 309.633 891.426 309.634 890.978C309.639 889.13 308.523 887.783 306.675 887.778C304.771 887.773 303.478 889.337 303.473 891.465C303.467 893.649 304.667 895.165 306.683 895.17C308.139 895.174 309.192 894.238 309.586 893.231L308.482 892.571C308.326 893.438 307.694 894.165 306.686 894.162C305.412 894.158 304.687 893.093 304.606 891.748L309.548 891.761ZM306.672 888.758C307.848 888.761 308.475 889.743 308.473 890.807L304.651 890.796C304.836 889.649 305.524 888.755 306.672 888.758ZM316.921 890.605C316.926 888.757 315.976 887.802 314.52 887.798C313.288 887.795 312.614 888.577 312.333 889.193L312.305 889.193L312.392 887.961L311.216 887.958L311.197 895.014L312.373 895.017L312.384 890.845C312.387 889.767 313.09 888.859 314.182 888.862C315.19 888.864 315.748 889.426 315.744 890.826L315.733 895.026L316.909 895.029L316.921 890.605ZM321.622 893.529C321.509 893.809 321.256 894.2 320.864 894.199C320.444 894.198 320.249 893.96 320.25 893.288L320.262 888.99L322.082 888.994L322.084 887.986L320.264 887.982L320.271 885.63L319.121 886.355L319.116 887.979L317.828 887.975L317.826 888.983L319.114 888.987L319.102 893.383C319.098 894.81 319.839 895.204 320.735 895.207C321.463 895.209 321.996 894.832 322.249 894.497L321.622 893.529ZM326.206 888.837C327.046 888.839 327.688 889.331 327.687 890.059C327.685 890.661 327.083 890.785 326.018 891.007C324.785 891.255 323.328 891.63 323.324 893.142C323.321 894.472 324.257 895.216 325.559 895.219C326.679 895.222 327.395 894.608 327.732 894.105L327.76 894.105C327.801 894.441 327.842 894.665 328.065 895.058L329.017 895.061C328.92 894.668 328.851 894.332 328.853 893.548L328.862 890.314C328.866 888.564 327.664 887.833 326.208 887.829C324.696 887.825 323.532 888.774 323.179 890.019L324.269 890.68C324.44 889.673 325.03 888.834 326.206 888.837ZM327.737 892.313C327.733 893.489 326.794 894.215 325.786 894.212C324.932 894.21 324.499 893.761 324.5 893.145C324.503 892.305 325.427 892.111 326.268 891.931C326.996 891.765 327.514 891.585 327.739 891.249L327.737 892.313ZM333.557 893.561C333.445 893.84 333.192 894.232 332.8 894.231C332.38 894.229 332.184 893.991 332.186 893.319L332.197 889.021L334.017 889.026L334.02 888.018L332.2 888.013L332.206 885.661L331.056 886.386L331.052 888.01L329.764 888.007L329.761 889.015L331.049 889.018L331.038 893.414C331.034 894.842 331.775 895.236 332.671 895.238C333.399 895.24 333.932 894.864 334.185 894.528L333.557 893.561ZM335.356 895.077L336.532 895.08L336.55 888.024L335.374 888.021L335.356 895.077ZM335.969 885.223C335.493 885.222 335.157 885.557 335.155 886.033C335.154 886.509 335.489 886.846 335.965 886.847C336.441 886.848 336.778 886.513 336.779 886.037C336.781 885.561 336.445 885.224 335.969 885.223ZM341.341 895.261C343.301 895.266 344.537 893.701 344.542 891.573C344.548 889.445 343.32 887.874 341.36 887.869C339.4 887.864 338.164 889.429 338.158 891.557C338.153 893.685 339.381 895.256 341.341 895.261ZM339.334 891.56C339.338 890.104 340.013 888.873 341.357 888.877C342.701 888.881 343.37 890.114 343.366 891.57C343.362 893.026 342.687 894.257 341.343 894.253C339.999 894.249 339.33 893.016 339.334 891.56ZM351.88 890.697C351.885 888.849 350.935 887.894 349.479 887.89C348.247 887.887 347.573 888.669 347.292 889.285L347.264 889.285L347.351 888.053L346.175 888.05L346.156 895.106L347.332 895.109L347.343 890.937C347.346 889.859 348.048 888.951 349.14 888.953C350.148 888.956 350.707 889.518 350.703 890.918L350.692 895.118L351.868 895.121L351.88 890.697Z" fill="black"/>
<rect x="231" y="990" width="150" height="150" rx="75" fill="#A3E3C2"/>
<path d="M274.23 1055.22C277.146 1055.22 279.306 1053.67 279.306 1049.89V1042.54H276.66V1050.05C276.66 1051.87 275.868 1052.88 274.23 1052.88C272.592 1052.88 271.8 1051.87 271.8 1050.05V1042.54H269.172V1049.89C269.172 1053.67 271.314 1055.22 274.23 1055.22ZM283.819 1047.42L283.927 1045.93H281.389V1058.53H283.927V1053.72H283.963C284.377 1054.39 285.151 1055.22 286.519 1055.22C288.445 1055.22 290.065 1053.36 290.065 1050.46C290.065 1047.57 288.445 1045.71 286.519 1045.71C285.151 1045.71 284.305 1046.54 283.855 1047.42H283.819ZM283.855 1050.46C283.855 1048.84 284.503 1047.75 285.673 1047.75C286.843 1047.75 287.491 1048.84 287.491 1050.46C287.491 1052.08 286.843 1053.18 285.673 1053.18C284.503 1053.18 283.855 1052.08 283.855 1050.46ZM297.573 1053.51L297.429 1055H299.967V1041.97H297.429V1047.17H297.375C296.997 1046.54 296.205 1045.71 294.837 1045.71C292.929 1045.71 291.309 1047.57 291.309 1050.46C291.309 1053.36 292.929 1055.22 294.837 1055.22C296.205 1055.22 297.069 1054.39 297.501 1053.51H297.573ZM295.701 1053.18C294.531 1053.18 293.883 1052.08 293.883 1050.46C293.883 1048.84 294.531 1047.75 295.701 1047.75C296.853 1047.75 297.501 1048.84 297.501 1050.46C297.501 1052.08 296.853 1053.18 295.701 1053.18ZM305.733 1047.66C306.471 1047.66 307.029 1048.05 307.029 1048.65C307.029 1049.28 306.327 1049.44 305.085 1049.71C303.627 1050 301.755 1050.52 301.755 1052.55C301.755 1054.23 303.015 1055.22 304.617 1055.22C306.003 1055.22 306.831 1054.42 307.191 1053.87H307.245C307.353 1054.3 307.461 1054.59 307.749 1055H309.657C309.477 1054.32 309.441 1053.67 309.441 1052.71V1049.1C309.441 1046.83 307.821 1045.71 305.769 1045.71C303.753 1045.71 302.187 1046.76 301.485 1048.27L303.717 1049.46C303.969 1048.38 304.689 1047.66 305.733 1047.66ZM307.101 1051.58C307.101 1052.7 306.291 1053.31 305.391 1053.31C304.599 1053.31 304.203 1052.93 304.203 1052.37C304.203 1051.65 304.905 1051.45 305.679 1051.26C306.363 1051.08 306.849 1050.88 307.101 1050.55V1051.58ZM315.647 1052.59C315.539 1052.82 315.323 1053.16 314.945 1053.16C314.531 1053.16 314.315 1052.93 314.315 1052.23V1047.87H316.367V1045.93H314.315V1042.69L311.795 1044.09V1045.93H310.337V1047.87H311.795V1052.48C311.795 1054.41 312.821 1055.22 314.405 1055.22C315.449 1055.22 316.295 1054.71 316.601 1054.42L315.647 1052.59ZM325.464 1051.15C325.464 1051.15 325.59 1050.64 325.59 1049.91C325.59 1047.44 323.97 1045.71 321.54 1045.71C319.092 1045.71 317.202 1047.51 317.202 1050.46C317.202 1053.45 319.056 1055.22 321.594 1055.22C323.484 1055.22 324.852 1054.21 325.482 1053.06L323.34 1051.85C323.196 1052.71 322.548 1053.34 321.594 1053.34C320.532 1053.34 319.704 1052.62 319.596 1051.15H325.464ZM321.54 1047.55C322.53 1047.55 323.232 1048.36 323.232 1049.46H319.65C319.848 1048.21 320.604 1047.55 321.54 1047.55ZM331.205 1055H333.761V1045.93H331.205V1055ZM332.483 1042C331.655 1042 331.007 1042.6 331.007 1043.43C331.007 1044.25 331.655 1044.85 332.483 1044.85C333.311 1044.85 333.959 1044.25 333.959 1043.43C333.959 1042.6 333.311 1042 332.483 1042ZM339.68 1053.36C338.474 1053.36 337.682 1052.62 337.394 1051.63L335.18 1052.88C335.918 1054.32 337.592 1055.22 339.716 1055.22C341.678 1055.22 343.37 1054.14 343.37 1052.32C343.37 1050.66 342.074 1050.01 340.652 1049.56C339.302 1049.13 338.114 1049.06 338.114 1048.38C338.114 1047.85 338.654 1047.57 339.302 1047.57C340.292 1047.57 340.976 1048.2 341.192 1049.01L343.37 1047.78C342.668 1046.58 341.012 1045.71 339.212 1045.71C337.268 1045.71 335.63 1046.79 335.63 1048.5C335.63 1050.23 337.34 1050.91 338.708 1051.27C339.878 1051.6 340.886 1051.76 340.886 1052.48C340.886 1053.06 340.382 1053.36 339.68 1053.36ZM273.944 1083H276.482V1077.82C276.482 1076.65 276.806 1075.89 277.598 1075.89C278.228 1075.89 278.444 1076.45 278.444 1077.04C278.444 1077.65 278.336 1078.27 278.3 1078.54L280.586 1077.22C280.586 1077.22 280.676 1076.75 280.676 1076.16C280.676 1074.83 279.974 1073.75 278.696 1073.75C277.544 1073.75 276.86 1074.54 276.41 1075.42H276.356L276.482 1073.93H273.944V1083ZM289.895 1079.15C289.895 1079.15 290.021 1078.64 290.021 1077.91C290.021 1075.44 288.401 1073.71 285.971 1073.71C283.523 1073.71 281.633 1075.51 281.633 1078.46C281.633 1081.45 283.487 1083.22 286.025 1083.22C287.915 1083.22 289.283 1082.21 289.913 1081.06L287.771 1079.85C287.627 1080.71 286.979 1081.34 286.025 1081.34C284.963 1081.34 284.135 1080.62 284.027 1079.15H289.895ZM285.971 1075.55C286.961 1075.55 287.663 1076.36 287.663 1077.46H284.081C284.279 1076.21 285.035 1075.55 285.971 1075.55ZM291.61 1083H294.166V1069.97H291.61V1083ZM304.045 1079.15C304.045 1079.15 304.171 1078.64 304.171 1077.91C304.171 1075.44 302.551 1073.71 300.121 1073.71C297.673 1073.71 295.783 1075.51 295.783 1078.46C295.783 1081.45 297.637 1083.22 300.175 1083.22C302.065 1083.22 303.433 1082.21 304.063 1081.06L301.921 1079.85C301.777 1080.71 301.129 1081.34 300.175 1081.34C299.113 1081.34 298.285 1080.62 298.177 1079.15H304.045ZM300.121 1075.55C301.111 1075.55 301.813 1076.36 301.813 1077.46H298.231C298.429 1076.21 299.185 1075.55 300.121 1075.55ZM309.433 1075.66C310.171 1075.66 310.729 1076.05 310.729 1076.65C310.729 1077.28 310.027 1077.44 308.785 1077.71C307.327 1078 305.455 1078.52 305.455 1080.55C305.455 1082.23 306.715 1083.22 308.317 1083.22C309.703 1083.22 310.531 1082.42 310.891 1081.87H310.945C311.053 1082.3 311.161 1082.59 311.449 1083H313.357C313.177 1082.32 313.141 1081.67 313.141 1080.71V1077.1C313.141 1074.83 311.521 1073.71 309.469 1073.71C307.453 1073.71 305.887 1074.76 305.185 1076.27L307.417 1077.46C307.669 1076.38 308.389 1075.66 309.433 1075.66ZM310.801 1079.58C310.801 1080.7 309.991 1081.31 309.091 1081.31C308.299 1081.31 307.903 1080.93 307.903 1080.37C307.903 1079.65 308.605 1079.45 309.379 1079.26C310.063 1079.08 310.549 1078.88 310.801 1078.55V1079.58ZM319.017 1081.36C317.811 1081.36 317.019 1080.62 316.731 1079.63L314.517 1080.88C315.255 1082.32 316.929 1083.22 319.053 1083.22C321.015 1083.22 322.707 1082.14 322.707 1080.32C322.707 1078.66 321.411 1078.01 319.989 1077.56C318.639 1077.13 317.451 1077.06 317.451 1076.38C317.451 1075.85 317.991 1075.57 318.639 1075.57C319.629 1075.57 320.313 1076.2 320.529 1077.01L322.707 1075.78C322.005 1074.58 320.349 1073.71 318.549 1073.71C316.605 1073.71 314.967 1074.79 314.967 1076.5C314.967 1078.23 316.677 1078.91 318.045 1079.27C319.215 1079.6 320.223 1079.76 320.223 1080.48C320.223 1081.06 319.719 1081.36 319.017 1081.36ZM332.065 1079.15C332.065 1079.15 332.191 1078.64 332.191 1077.91C332.191 1075.44 330.571 1073.71 328.141 1073.71C325.693 1073.71 323.803 1075.51 323.803 1078.46C323.803 1081.45 325.657 1083.22 328.195 1083.22C330.085 1083.22 331.453 1082.21 332.083 1081.06L329.941 1079.85C329.797 1080.71 329.149 1081.34 328.195 1081.34C327.133 1081.34 326.305 1080.62 326.197 1079.15H332.065ZM328.141 1075.55C329.131 1075.55 329.833 1076.36 329.833 1077.46H326.251C326.449 1076.21 327.205 1075.55 328.141 1075.55ZM339.682 1081.51L339.538 1083H342.076V1069.97H339.538V1075.17H339.484C339.106 1074.54 338.314 1073.71 336.946 1073.71C335.038 1073.71 333.418 1075.57 333.418 1078.46C333.418 1081.36 335.038 1083.22 336.946 1083.22C338.314 1083.22 339.178 1082.39 339.61 1081.51H339.682ZM337.81 1081.18C336.64 1081.18 335.992 1080.08 335.992 1078.46C335.992 1076.84 336.64 1075.75 337.81 1075.75C338.962 1075.75 339.61 1076.84 339.61 1078.46C339.61 1080.08 338.962 1081.18 337.81 1081.18Z" fill="black"/>
<path d="M307.5 952C307.5 951.172 306.828 950.5 306 950.5C305.172 950.5 304.5 951.172 304.5 952H307.5ZM304.939 988.061C305.525 988.646 306.475 988.646 307.061 988.061L316.607 978.515C317.192 977.929 317.192 976.979 316.607 976.393C316.021 975.808 315.071 975.808 314.485 976.393L306 984.879L297.515 976.393C296.929 975.808 295.979 975.808 295.393 976.393C294.808 976.979 294.808 977.929 295.393 978.515L304.939 988.061ZM304.5 952V987H307.5V952H304.5Z" fill="black"/>
<path d="M246.061 284.561C246.646 283.975 246.646 283.025 246.061 282.439L236.515 272.893C235.929 272.308 234.979 272.308 234.393 272.893C233.808 273.479 233.808 274.429 234.393 275.015L242.879 283.5L234.393 291.985C233.808 292.571 233.808 293.521 234.393 294.107C234.979 294.692 235.929 294.692 236.515 294.107L246.061 284.561ZM205 285H245V282H205V285Z" fill="black"/>
<path d="M246.061 436.561C246.646 435.975 246.646 435.025 246.061 434.439L236.515 424.893C235.929 424.308 234.979 424.308 234.393 424.893C233.808 425.479 233.808 426.429 234.393 427.015L242.879 435.5L234.393 443.985C233.808 444.571 233.808 445.521 234.393 446.107C234.979 446.692 235.929 446.692 236.515 446.107L246.061 436.561ZM205 437H245V434H205V437Z" fill="black"/>
<path d="M173 586C172.172 586 171.5 586.672 171.5 587.5C171.5 588.328 172.172 589 173 589V586ZM246.061 588.561C246.646 587.975 246.646 587.025 246.061 586.439L236.515 576.893C235.929 576.308 234.979 576.308 234.393 576.893C233.808 577.479 233.808 578.429 234.393 579.015L242.879 587.5L234.393 595.985C233.808 596.571 233.808 597.521 234.393 598.107C234.979 598.692 235.929 598.692 236.515 598.107L246.061 588.561ZM173 589H245V586H173V589Z" fill="black"/>
<path d="M246.061 740.561C246.646 739.975 246.646 739.025 246.061 738.439L236.515 728.893C235.929 728.308 234.979 728.308 234.393 728.893C233.808 729.479 233.808 730.429 234.393 731.015L242.879 739.5L234.393 747.985C233.808 748.571 233.808 749.521 234.393 750.107C234.979 750.692 235.929 750.692 236.515 750.107L246.061 740.561ZM205 741H245V738H205V741Z" fill="black"/>
<path d="M246.061 892.561C246.646 891.975 246.646 891.025 246.061 890.439L236.515 880.893C235.929 880.308 234.979 880.308 234.393 880.893C233.808 881.479 233.808 882.429 234.393 883.015L242.879 891.5L234.393 899.985C233.808 900.571 233.808 901.521 234.393 902.107C234.979 902.692 235.929 902.692 236.515 902.107L246.061 892.561ZM205 893H245V890H205V893Z" fill="black"/>
<rect x="20" y="513" width="150" height="150" rx="75" fill="#9FC9EB"/>
<path d="M53.0817 578H55.8177L51.4797 565.544H48.2757L43.9377 578H46.5657L47.5197 575.156H52.1277L53.0817 578ZM49.3377 569.702C49.5717 569 49.8057 568.064 49.8057 568.064H49.8597C49.8597 568.064 50.0937 569 50.3277 569.702L51.4077 572.978H48.2397L49.3377 569.702ZM60.6792 570.656C61.7952 570.656 62.2632 571.646 62.2632 572.852L64.5852 571.664C64.2972 570.206 62.9292 568.712 60.6792 568.712C58.1952 568.712 56.3592 570.512 56.3592 573.464C56.3592 576.416 58.1952 578.216 60.6792 578.216C62.9292 578.216 64.2972 576.722 64.5852 575.264L62.2632 574.076C62.2632 575.282 61.7952 576.272 60.6792 576.272C59.4552 576.272 58.9332 575.084 58.9332 573.464C58.9332 571.844 59.4552 570.656 60.6792 570.656ZM69.9077 570.656C71.0237 570.656 71.4917 571.646 71.4917 572.852L73.8137 571.664C73.5257 570.206 72.1577 568.712 69.9077 568.712C67.4237 568.712 65.5877 570.512 65.5877 573.464C65.5877 576.416 67.4237 578.216 69.9077 578.216C72.1577 578.216 73.5257 576.722 73.8137 575.264L71.4917 574.076C71.4917 575.282 71.0237 576.272 69.9077 576.272C68.6837 576.272 68.1617 575.084 68.1617 573.464C68.1617 571.844 68.6837 570.656 69.9077 570.656ZM83.0782 574.148C83.0782 574.148 83.2042 573.644 83.2042 572.906C83.2042 570.44 81.5842 568.712 79.1542 568.712C76.7062 568.712 74.8162 570.512 74.8162 573.464C74.8162 576.452 76.6702 578.216 79.2082 578.216C81.0982 578.216 82.4662 577.208 83.0962 576.056L80.9542 574.85C80.8102 575.714 80.1622 576.344 79.2082 576.344C78.1462 576.344 77.3182 575.624 77.2102 574.148H83.0782ZM79.1542 570.548C80.1442 570.548 80.8462 571.358 80.8462 572.456H77.2642C77.4622 571.214 78.2182 570.548 79.1542 570.548ZM88.628 576.362C87.422 576.362 86.63 575.624 86.342 574.634L84.128 575.876C84.866 577.316 86.54 578.216 88.664 578.216C90.626 578.216 92.318 577.136 92.318 575.318C92.318 573.662 91.022 573.014 89.6 572.564C88.25 572.132 87.062 572.06 87.062 571.376C87.062 570.854 87.602 570.566 88.25 570.566C89.24 570.566 89.924 571.196 90.14 572.006L92.318 570.782C91.616 569.576 89.96 568.712 88.16 568.712C86.216 568.712 84.578 569.792 84.578 571.502C84.578 573.23 86.288 573.914 87.656 574.274C88.826 574.598 89.834 574.76 89.834 575.48C89.834 576.056 89.33 576.362 88.628 576.362ZM97.6456 576.362C96.4396 576.362 95.6476 575.624 95.3596 574.634L93.1456 575.876C93.8836 577.316 95.5576 578.216 97.6816 578.216C99.6436 578.216 101.336 577.136 101.336 575.318C101.336 573.662 100.04 573.014 98.6176 572.564C97.2676 572.132 96.0796 572.06 96.0796 571.376C96.0796 570.854 96.6196 570.566 97.2676 570.566C98.2576 570.566 98.9416 571.196 99.1576 572.006L101.336 570.782C100.634 569.576 98.9776 568.712 97.1776 568.712C95.2336 568.712 93.5956 569.792 93.5956 571.502C93.5956 573.23 95.3056 573.914 96.6736 574.274C97.8436 574.598 98.8516 574.76 98.8516 575.48C98.8516 576.056 98.3476 576.362 97.6456 576.362ZM102.882 578H105.438V568.928H102.882V578ZM104.16 565.004C103.332 565.004 102.684 565.598 102.684 566.426C102.684 567.254 103.332 567.848 104.16 567.848C104.988 567.848 105.636 567.254 105.636 566.426C105.636 565.598 104.988 565.004 104.16 565.004ZM109.971 576.596H110.043C110.475 577.388 111.285 578.216 112.653 578.216C114.579 578.216 116.199 576.362 116.199 573.464C116.199 570.566 114.579 568.712 112.653 568.712C111.285 568.712 110.439 569.54 109.989 570.422H109.935C109.935 570.422 110.061 569.324 110.061 568.19V564.968H107.523V578H109.971V576.596ZM109.989 573.464C109.989 571.844 110.637 570.746 111.807 570.746C112.977 570.746 113.625 571.844 113.625 573.464C113.625 575.084 112.977 576.182 111.807 576.182C110.637 576.182 109.989 575.084 109.989 573.464ZM117.823 578H120.379V568.928H117.823V578ZM119.101 565.004C118.273 565.004 117.625 565.598 117.625 566.426C117.625 567.254 118.273 567.848 119.101 567.848C119.929 567.848 120.577 567.254 120.577 566.426C120.577 565.598 119.929 565.004 119.101 565.004ZM122.464 578H125.02V564.968H122.464V578ZM127.105 578H129.661V568.928H127.105V578ZM128.383 565.004C127.555 565.004 126.907 565.598 126.907 566.426C126.907 567.254 127.555 567.848 128.383 567.848C129.211 567.848 129.859 567.254 129.859 566.426C129.859 565.598 129.211 565.004 128.383 565.004ZM136.173 575.588C136.065 575.822 135.849 576.164 135.471 576.164C135.057 576.164 134.841 575.93 134.841 575.228V570.872H136.893V568.928H134.841V565.688L132.321 567.092V568.928H130.863V570.872H132.321V575.48C132.321 577.406 133.347 578.216 134.931 578.216C135.975 578.216 136.821 577.712 137.127 577.424L136.173 575.588ZM141.97 575.138C141.97 575.138 141.592 573.59 141.268 572.51L140.206 568.928H137.47L140.764 577.982L140.728 578.126C140.368 579.26 139.396 579.818 138.298 580.088L140.35 581.744C141.952 581.204 142.708 579.836 143.194 578.342L146.308 568.928H143.68L142.654 572.6C142.348 573.716 142.024 575.138 142.024 575.138H141.97ZM49.9085 603.588C49.8005 603.822 49.5845 604.164 49.2065 604.164C48.7925 604.164 48.5765 603.93 48.5765 603.228V598.872H50.6285V596.928H48.5765V593.688L46.0565 595.092V596.928H44.5985V598.872H46.0565V603.48C46.0565 605.406 47.0825 606.216 48.6665 606.216C49.7105 606.216 50.5565 605.712 50.8625 605.424L49.9085 603.588ZM59.7257 602.148C59.7257 602.148 59.8517 601.644 59.8517 600.906C59.8517 598.44 58.2317 596.712 55.8017 596.712C53.3537 596.712 51.4637 598.512 51.4637 601.464C51.4637 604.452 53.3177 606.216 55.8557 606.216C57.7457 606.216 59.1137 605.208 59.7437 604.056L57.6017 602.85C57.4577 603.714 56.8097 604.344 55.8557 604.344C54.7937 604.344 53.9657 603.624 53.8577 602.148H59.7257ZM55.8017 598.548C56.7917 598.548 57.4937 599.358 57.4937 600.456H53.9117C54.1097 599.214 54.8657 598.548 55.8017 598.548ZM65.1135 598.656C65.8515 598.656 66.4095 599.052 66.4095 599.646C66.4095 600.276 65.7075 600.438 64.4655 600.708C63.0075 600.996 61.1355 601.518 61.1355 603.552C61.1355 605.226 62.3955 606.216 63.9975 606.216C65.3835 606.216 66.2115 605.424 66.5715 604.866H66.6255C66.7335 605.298 66.8415 605.586 67.1295 606H69.0375C68.8575 605.316 68.8215 604.668 68.8215 603.714V600.096C68.8215 597.828 67.2015 596.712 65.1495 596.712C63.1335 596.712 61.5675 597.756 60.8655 599.268L63.0975 600.456C63.3495 599.376 64.0695 598.656 65.1135 598.656ZM66.4815 602.58C66.4815 603.696 65.6715 604.308 64.7715 604.308C63.9795 604.308 63.5835 603.93 63.5835 603.372C63.5835 602.652 64.2855 602.454 65.0595 602.256C65.7435 602.076 66.2295 601.878 66.4815 601.554V602.58ZM70.8633 606H73.3653V600.546C73.3653 599.484 73.9233 598.854 74.7873 598.854C75.6153 598.854 76.0473 599.412 76.0473 600.456V606H78.5493V600.708C78.5493 599.556 79.0713 598.854 79.9713 598.854C80.7993 598.854 81.2313 599.412 81.2313 600.456V606H83.7333V600.006C83.7333 597.9 82.7073 596.712 80.9973 596.712C79.5753 596.712 78.7833 597.504 78.2433 598.386H78.1893C77.8293 597.27 77.0373 596.712 75.8853 596.712C74.4813 596.712 73.7433 597.63 73.2933 598.422H73.2393L73.3653 596.928H70.8633V606ZM93.647 598.656C94.763 598.656 95.231 599.646 95.231 600.852L97.553 599.664C97.265 598.206 95.897 596.712 93.647 596.712C91.163 596.712 89.327 598.512 89.327 601.464C89.327 604.416 91.163 606.216 93.647 606.216C95.897 606.216 97.265 604.722 97.553 603.264L95.231 602.076C95.231 603.282 94.763 604.272 93.647 604.272C92.423 604.272 91.901 603.084 91.901 601.464C91.901 599.844 92.423 598.656 93.647 598.656ZM107.016 600.186C107.016 597.936 105.918 596.712 104.172 596.712C102.678 596.712 101.904 597.594 101.454 598.422H101.4C101.4 598.422 101.526 597.324 101.526 596.19V592.968H98.9883V606H101.526V600.618C101.526 599.574 102.138 598.854 103.092 598.854C104.046 598.854 104.46 599.484 104.46 600.69V606H107.016V600.186ZM116.837 602.148C116.837 602.148 116.963 601.644 116.963 600.906C116.963 598.44 115.343 596.712 112.913 596.712C110.465 596.712 108.575 598.512 108.575 601.464C108.575 604.452 110.429 606.216 112.967 606.216C114.857 606.216 116.225 605.208 116.855 604.056L114.713 602.85C114.569 603.714 113.921 604.344 112.967 604.344C111.905 604.344 111.077 603.624 110.969 602.148H116.837ZM112.913 598.548C113.903 598.548 114.605 599.358 114.605 600.456H111.023C111.221 599.214 111.977 598.548 112.913 598.548ZM122.51 598.656C123.626 598.656 124.094 599.646 124.094 600.852L126.416 599.664C126.128 598.206 124.76 596.712 122.51 596.712C120.026 596.712 118.19 598.512 118.19 601.464C118.19 604.416 120.026 606.216 122.51 606.216C124.76 606.216 126.128 604.722 126.416 603.264L124.094 602.076C124.094 603.282 123.626 604.272 122.51 604.272C121.286 604.272 120.764 603.084 120.764 601.464C120.764 599.844 121.286 598.656 122.51 598.656ZM136.33 596.928H133.36L131.416 599.52C130.912 600.222 130.318 601.212 130.318 601.212H130.264C130.264 601.212 130.39 600.096 130.39 598.98V592.968H127.852V606H130.39V603.894L131.596 602.364L133.828 606H136.6L133.27 600.528L136.33 596.928ZM141.371 604.362C140.165 604.362 139.373 603.624 139.085 602.634L136.871 603.876C137.609 605.316 139.283 606.216 141.407 606.216C143.369 606.216 145.061 605.136 145.061 603.318C145.061 601.662 143.765 601.014 142.343 600.564C140.993 600.132 139.805 600.06 139.805 599.376C139.805 598.854 140.345 598.566 140.993 598.566C141.983 598.566 142.667 599.196 142.883 600.006L145.061 598.782C144.359 597.576 142.703 596.712 140.903 596.712C138.959 596.712 137.321 597.792 137.321 599.502C137.321 601.23 139.031 601.914 140.399 602.274C141.569 602.598 142.577 602.76 142.577 603.48C142.577 604.056 142.073 604.362 141.371 604.362Z" fill="black"/>
<path d="M205 282L205 893" stroke="black" stroke-width="3"/>
<defs>
<clipPath id="clip0_6_2">
<rect x="246" y="740" width="84.8528" height="84.8528" rx="5" transform="rotate(-45 246 740)" fill="white"/>
</clipPath>
</defs>
</svg>
