<svg width="822" height="579" viewBox="0 0 822 579" fill="none" xmlns="http://www.w3.org/2000/svg">
<rect x="8" y="29" width="150" height="150" rx="75" fill="#F5A3C7"/>
<path d="M56.2731 71.5V60.428H54.0811V66.396C54.0811 67.42 54.2091 68.764 54.2091 68.764H54.1451C54.1451 68.764 53.5531 67.34 53.1851 66.588L50.0811 60.428H46.9611V71.5H49.1691V65.532C49.1691 64.524 49.0731 63.212 49.0731 63.18L49.1371 63.164C49.1371 63.164 49.6971 64.588 50.0651 65.34L53.1531 71.5H56.2731ZM65.1529 68.076C65.1529 68.076 65.2649 67.628 65.2649 66.972C65.2649 64.78 63.8249 63.244 61.6649 63.244C59.4889 63.244 57.8089 64.844 57.8089 67.468C57.8089 70.124 59.4569 71.692 61.7129 71.692C63.3929 71.692 64.6089 70.796 65.1689 69.772L63.2649 68.7C63.1369 69.468 62.5609 70.028 61.7129 70.028C60.7689 70.028 60.0329 69.388 59.9369 68.076H65.1529ZM61.6649 64.876C62.5449 64.876 63.1689 65.596 63.1689 66.572H59.9849C60.1609 65.468 60.8329 64.876 61.6649 64.876ZM73.6998 68.076C73.6998 68.076 73.8118 67.628 73.8118 66.972C73.8118 64.78 72.3718 63.244 70.2118 63.244C68.0358 63.244 66.3558 64.844 66.3558 67.468C66.3558 70.124 68.0038 71.692 70.2598 71.692C71.9398 71.692 73.1558 70.796 73.7158 69.772L71.8118 68.7C71.6838 69.468 71.1078 70.028 70.2598 70.028C69.3158 70.028 68.5798 69.388 68.4838 68.076H73.6998ZM70.2118 64.876C71.0918 64.876 71.7158 65.596 71.7158 66.572H68.5318C68.7078 65.468 69.3798 64.876 70.2118 64.876ZM80.4706 70.172L80.3426 71.5H82.5986V59.916H80.3426V64.54H80.2946C79.9586 63.98 79.2546 63.244 78.0386 63.244C76.3426 63.244 74.9026 64.892 74.9026 67.468C74.9026 70.044 76.3426 71.692 78.0386 71.692C79.2546 71.692 80.0226 70.956 80.4066 70.172H80.4706ZM78.8066 69.884C77.7666 69.884 77.1906 68.908 77.1906 67.468C77.1906 66.028 77.7666 65.052 78.8066 65.052C79.8306 65.052 80.4066 66.028 80.4066 67.468C80.4066 68.908 79.8306 69.884 78.8066 69.884ZM91.6854 61.42C92.2294 61.42 92.4694 61.916 92.5014 62.396L94.4534 61.196C93.9574 60.476 93.0134 59.724 91.5734 59.724C89.8614 59.724 88.6134 60.684 88.6134 62.572V63.436H87.3814V65.164H88.6134V71.5H90.8534V65.164H92.6134V63.436H90.8534V62.556C90.8534 61.852 91.1254 61.42 91.6854 61.42ZM96.9941 71.692C99.1861 71.692 100.882 70.092 100.882 67.468C100.882 64.844 99.1861 63.244 96.9941 63.244C94.7861 63.244 93.0901 64.844 93.0901 67.468C93.0901 70.092 94.7861 71.692 96.9941 71.692ZM95.3781 67.468C95.3781 66.028 95.8741 64.972 96.9941 64.972C98.0981 64.972 98.5941 66.028 98.5941 67.468C98.5941 68.908 98.0981 69.964 96.9941 69.964C95.8741 69.964 95.3781 68.908 95.3781 67.468ZM102.319 71.5H104.575V66.892C104.575 65.852 104.863 65.18 105.567 65.18C106.127 65.18 106.319 65.676 106.319 66.204C106.319 66.748 106.223 67.292 106.191 67.532L108.223 66.364C108.223 66.364 108.303 65.948 108.303 65.42C108.303 64.236 107.679 63.276 106.543 63.276C105.519 63.276 104.911 63.98 104.511 64.764H104.463L104.575 63.436H102.319V71.5ZM115.864 64.972C116.52 64.972 117.016 65.324 117.016 65.852C117.016 66.412 116.392 66.556 115.288 66.796C113.992 67.052 112.328 67.516 112.328 69.324C112.328 70.812 113.448 71.692 114.872 71.692C116.104 71.692 116.84 70.988 117.16 70.492H117.208C117.304 70.876 117.4 71.132 117.656 71.5H119.352C119.192 70.892 119.16 70.316 119.16 69.468V66.252C119.16 64.236 117.72 63.244 115.896 63.244C114.104 63.244 112.712 64.172 112.088 65.516L114.072 66.572C114.296 65.612 114.936 64.972 115.864 64.972ZM117.08 68.46C117.08 69.452 116.36 69.996 115.56 69.996C114.856 69.996 114.504 69.66 114.504 69.164C114.504 68.524 115.128 68.348 115.816 68.172C116.424 68.012 116.856 67.836 117.08 67.548V68.46ZM76.4781 90.332C76.4781 88.332 75.5021 87.244 73.9501 87.244C72.6221 87.244 71.9341 88.028 71.5341 88.764H71.4861L71.5981 87.436H69.3421V95.5H71.5981V90.716C71.5981 89.788 72.1421 89.148 72.9901 89.148C73.8381 89.148 74.2061 89.708 74.2061 90.78V95.5H76.4781V90.332ZM85.2076 92.076C85.2076 92.076 85.3196 91.628 85.3196 90.972C85.3196 88.78 83.8796 87.244 81.7196 87.244C79.5436 87.244 77.8636 88.844 77.8636 91.468C77.8636 94.124 79.5116 95.692 81.7676 95.692C83.4476 95.692 84.6636 94.796 85.2236 93.772L83.3196 92.7C83.1916 93.468 82.6156 94.028 81.7676 94.028C80.8236 94.028 80.0876 93.388 79.9916 92.076H85.2076ZM81.7196 88.876C82.5996 88.876 83.2236 89.596 83.2236 90.572H80.0396C80.2156 89.468 80.8876 88.876 81.7196 88.876ZM91.7727 89.5H91.8207C91.8207 89.5 92.1087 90.844 92.3327 91.852L93.1007 95.5H95.7887L97.4687 87.436H95.2607L94.7967 90.364C94.6207 91.484 94.3487 93.356 94.3487 93.356H94.3007C94.3007 93.356 93.9647 91.468 93.7247 90.364L93.1007 87.436H90.5407L89.9167 90.364C89.6767 91.468 89.3567 93.356 89.3567 93.356H89.3087C89.3087 93.356 89.0367 91.484 88.8607 90.364L88.3807 87.436H86.0767L87.7567 95.5H90.5087L91.2767 91.852C91.4847 90.86 91.7727 89.5 91.7727 89.5ZM37.7036 112.972C38.6956 112.972 39.1116 113.852 39.1116 114.924L41.1756 113.868C40.9196 112.572 39.7036 111.244 37.7036 111.244C35.4956 111.244 33.8636 112.844 33.8636 115.468C33.8636 118.092 35.4956 119.692 37.7036 119.692C39.7036 119.692 40.9196 118.364 41.1756 117.068L39.1116 116.012C39.1116 117.084 38.6956 117.964 37.7036 117.964C36.6156 117.964 36.1516 116.908 36.1516 115.468C36.1516 114.028 36.6156 112.972 37.7036 112.972ZM45.9707 119.692C48.1627 119.692 49.8587 118.092 49.8587 115.468C49.8587 112.844 48.1627 111.244 45.9707 111.244C43.7627 111.244 42.0667 112.844 42.0667 115.468C42.0667 118.092 43.7627 119.692 45.9707 119.692ZM44.3547 115.468C44.3547 114.028 44.8507 112.972 45.9707 112.972C47.0747 112.972 47.5707 114.028 47.5707 115.468C47.5707 116.908 47.0747 117.964 45.9707 117.964C44.8507 117.964 44.3547 116.908 44.3547 115.468ZM51.2952 119.5H53.5192V114.652C53.5192 113.708 54.0152 113.148 54.7832 113.148C55.5192 113.148 55.9032 113.644 55.9032 114.572V119.5H58.1272V114.796C58.1272 113.772 58.5912 113.148 59.3912 113.148C60.1272 113.148 60.5112 113.644 60.5112 114.572V119.5H62.7352V114.172C62.7352 112.3 61.8232 111.244 60.3032 111.244C59.0392 111.244 58.3352 111.948 57.8552 112.732H57.8072C57.4872 111.74 56.7832 111.244 55.7592 111.244C54.5112 111.244 53.8552 112.06 53.4552 112.764H53.4072L53.5192 111.436H51.2952V119.5ZM66.7052 112.764L66.8012 111.436H64.5452V122.636H66.8012V118.364H66.8332C67.2012 118.956 67.8892 119.692 69.1052 119.692C70.8172 119.692 72.2572 118.044 72.2572 115.468C72.2572 112.892 70.8172 111.244 69.1052 111.244C67.8892 111.244 67.1372 111.98 66.7372 112.764H66.7052ZM66.7372 115.468C66.7372 114.028 67.3132 113.052 68.3532 113.052C69.3932 113.052 69.9692 114.028 69.9692 115.468C69.9692 116.908 69.3932 117.884 68.3532 117.884C67.3132 117.884 66.7372 116.908 66.7372 115.468ZM77.2676 119.692C79.4596 119.692 81.1556 118.092 81.1556 115.468C81.1556 112.844 79.4596 111.244 77.2676 111.244C75.0596 111.244 73.3636 112.844 73.3636 115.468C73.3636 118.092 75.0596 119.692 77.2676 119.692ZM75.6516 115.468C75.6516 114.028 76.1476 112.972 77.2676 112.972C78.3716 112.972 78.8676 114.028 78.8676 115.468C78.8676 116.908 78.3716 117.964 77.2676 117.964C76.1476 117.964 75.6516 116.908 75.6516 115.468ZM89.7281 114.332C89.7281 112.332 88.7521 111.244 87.2001 111.244C85.8721 111.244 85.1841 112.028 84.7841 112.764H84.7361L84.8481 111.436H82.5921V119.5H84.8481V114.716C84.8481 113.788 85.3921 113.148 86.2401 113.148C87.0881 113.148 87.4561 113.708 87.4561 114.78V119.5H89.7281V114.332ZM98.4576 116.076C98.4576 116.076 98.5696 115.628 98.5696 114.972C98.5696 112.78 97.1296 111.244 94.9696 111.244C92.7936 111.244 91.1136 112.844 91.1136 115.468C91.1136 118.124 92.7616 119.692 95.0176 119.692C96.6976 119.692 97.9136 118.796 98.4736 117.772L96.5696 116.7C96.4416 117.468 95.8656 118.028 95.0176 118.028C94.0736 118.028 93.3376 117.388 93.2416 116.076H98.4576ZM94.9696 112.876C95.8496 112.876 96.4736 113.596 96.4736 114.572H93.2896C93.4656 113.468 94.1376 112.876 94.9696 112.876ZM107.119 114.332C107.119 112.332 106.143 111.244 104.591 111.244C103.263 111.244 102.575 112.028 102.175 112.764H102.127L102.239 111.436H99.9827V119.5H102.239V114.716C102.239 113.788 102.783 113.148 103.631 113.148C104.479 113.148 104.847 113.708 104.847 114.78V119.5H107.119V114.332ZM112.622 117.356C112.526 117.564 112.334 117.868 111.998 117.868C111.63 117.868 111.438 117.66 111.438 117.036V113.164H113.262V111.436H111.438V108.556L109.198 109.804V111.436H107.902V113.164H109.198V117.26C109.198 118.972 110.11 119.692 111.518 119.692C112.446 119.692 113.198 119.244 113.47 118.988L112.622 117.356ZM121.549 119.692C123.741 119.692 125.437 118.092 125.437 115.468C125.437 112.844 123.741 111.244 121.549 111.244C119.341 111.244 117.645 112.844 117.645 115.468C117.645 118.092 119.341 119.692 121.549 119.692ZM119.933 115.468C119.933 114.028 120.429 112.972 121.549 112.972C122.653 112.972 123.149 114.028 123.149 115.468C123.149 116.908 122.653 117.964 121.549 117.964C120.429 117.964 119.933 116.908 119.933 115.468ZM126.873 119.5H129.129V114.892C129.129 113.852 129.417 113.18 130.121 113.18C130.681 113.18 130.873 113.676 130.873 114.204C130.873 114.748 130.777 115.292 130.745 115.532L132.777 114.364C132.777 114.364 132.857 113.948 132.857 113.42C132.857 112.236 132.233 111.276 131.097 111.276C130.073 111.276 129.465 111.98 129.065 112.764H129.017L129.129 111.436H126.873V119.5ZM61.3729 133.42C61.9169 133.42 62.1569 133.916 62.1889 134.396L64.1409 133.196C63.6449 132.476 62.7009 131.724 61.2609 131.724C59.5489 131.724 58.3009 132.684 58.3009 134.572V135.436H57.0689V137.164H58.3009V143.5H60.5409V137.164H62.3009V135.436H60.5409V134.556C60.5409 133.852 60.8129 133.42 61.3729 133.42ZM70.1216 140.076C70.1216 140.076 70.2336 139.628 70.2336 138.972C70.2336 136.78 68.7936 135.244 66.6336 135.244C64.4576 135.244 62.7776 136.844 62.7776 139.468C62.7776 142.124 64.4256 143.692 66.6816 143.692C68.3616 143.692 69.5776 142.796 70.1376 141.772L68.2336 140.7C68.1056 141.468 67.5296 142.028 66.6816 142.028C65.7376 142.028 65.0016 141.388 64.9056 140.076H70.1216ZM66.6336 136.876C67.5136 136.876 68.1376 137.596 68.1376 138.572H64.9536C65.1296 137.468 65.8016 136.876 66.6336 136.876ZM74.9108 136.972C75.5668 136.972 76.0628 137.324 76.0628 137.852C76.0628 138.412 75.4388 138.556 74.3348 138.796C73.0388 139.052 71.3748 139.516 71.3748 141.324C71.3748 142.812 72.4948 143.692 73.9188 143.692C75.1508 143.692 75.8868 142.988 76.2068 142.492H76.2548C76.3508 142.876 76.4468 143.132 76.7028 143.5H78.3988C78.2388 142.892 78.2068 142.316 78.2068 141.468V138.252C78.2068 136.236 76.7668 135.244 74.9427 135.244C73.1508 135.244 71.7588 136.172 71.1348 137.516L73.1188 138.572C73.3428 137.612 73.9828 136.972 74.9108 136.972ZM76.1268 140.46C76.1268 141.452 75.4068 141.996 74.6068 141.996C73.9028 141.996 73.5508 141.66 73.5508 141.164C73.5508 140.524 74.1748 140.348 74.8628 140.172C75.4708 140.012 75.9028 139.836 76.1268 139.548V140.46ZM83.7234 141.356C83.6274 141.564 83.4354 141.868 83.0994 141.868C82.7314 141.868 82.5394 141.66 82.5394 141.036V137.164H84.3634V135.436H82.5394V132.556L80.2994 133.804V135.436H79.0034V137.164H80.2994V141.26C80.2994 142.972 81.2114 143.692 82.6194 143.692C83.5474 143.692 84.2994 143.244 84.5714 142.988L83.7234 141.356ZM85.5363 140.604C85.5363 142.604 86.4643 143.692 88.0163 143.692C89.3443 143.692 89.9843 142.908 90.3843 142.172H90.4323L90.3203 143.5H92.5923V135.436H90.3203V140.236C90.3203 141.164 89.8243 141.788 88.9763 141.788C88.1283 141.788 87.7923 141.228 87.7923 140.156V135.436H85.5363V140.604ZM94.428 143.5H96.684V138.892C96.684 137.852 96.972 137.18 97.676 137.18C98.236 137.18 98.428 137.676 98.428 138.204C98.428 138.748 98.332 139.292 98.3 139.532L100.332 138.364C100.332 138.364 100.412 137.948 100.412 137.42C100.412 136.236 99.788 135.276 98.652 135.276C97.628 135.276 97.02 135.98 96.62 136.764H96.572L96.684 135.436H94.428V143.5ZM108.606 140.076C108.606 140.076 108.718 139.628 108.718 138.972C108.718 136.78 107.278 135.244 105.118 135.244C102.942 135.244 101.262 136.844 101.262 139.468C101.262 142.124 102.91 143.692 105.166 143.692C106.846 143.692 108.062 142.796 108.622 141.772L106.718 140.7C106.59 141.468 106.014 142.028 105.166 142.028C104.222 142.028 103.486 141.388 103.39 140.076H108.606ZM105.118 136.876C105.998 136.876 106.622 137.596 106.622 138.572H103.438C103.614 137.468 104.286 136.876 105.118 136.876Z" fill="black"/>
<path d="M84.9998 179.993C84.9998 179.164 84.3282 178.493 83.4998 178.493C82.6714 178.493 81.9998 179.164 81.9998 179.993H84.9998ZM82.4392 216.054C83.0249 216.639 83.9747 216.639 84.5605 216.054L94.1064 206.508C94.6922 205.922 94.6922 204.972 94.1064 204.386C93.5206 203.8 92.5709 203.8 91.9851 204.386L83.4998 212.872L75.0145 204.386C74.4287 203.8 73.479 203.8 72.8932 204.386C72.3074 204.972 72.3074 205.922 72.8932 206.508L82.4392 216.054ZM81.9998 179.993V214.993H84.9998V179.993H81.9998Z" fill="black"/>
<path d="M745.5 216C745.5 216.828 746.172 217.5 747 217.5C747.828 217.5 748.5 216.828 748.5 216H745.5ZM748.061 179.939C747.475 179.354 746.525 179.354 745.939 179.939L736.393 189.485C735.808 190.071 735.808 191.021 736.393 191.607C736.979 192.192 737.929 192.192 738.515 191.607L747 183.121L755.485 191.607C756.071 192.192 757.021 192.192 757.607 191.607C758.192 191.021 758.192 190.071 757.607 189.485L748.061 179.939ZM748.5 216V181H745.5V216H748.5Z" fill="black"/>
<rect x="24" y="276" width="84.8528" height="84.8528" rx="5" transform="rotate(-45 24 276)" fill="#E2F5F3"/>
<path d="M56.0321 278.926L57.2641 278.93L57.275 274.786L59.599 274.792L62.0521 278.942L63.3961 278.946L60.8874 274.669C62.2743 274.323 63.1308 273.345 63.1344 272.001C63.1388 270.321 61.8816 269.254 59.7536 269.248L56.0576 269.239L56.0321 278.926ZM61.8744 271.998C61.8715 273.104 61.142 273.676 59.91 273.673L57.278 273.666L57.2867 270.362L59.9187 270.369C61.1507 270.372 61.8773 270.906 61.8744 271.998ZM70.2669 275.716C70.2669 275.716 70.3518 275.38 70.353 274.932C70.3579 273.084 69.2414 271.737 67.3934 271.732C65.4894 271.727 64.1973 273.292 64.1917 275.42C64.1859 277.604 65.386 279.119 67.402 279.124C68.858 279.128 69.9104 278.193 70.3051 277.186L69.2008 276.525C69.0445 277.393 68.4126 278.119 67.4046 278.116C66.1306 278.113 65.4054 277.047 65.325 275.703L70.2669 275.716ZM67.3908 272.712C68.5668 272.715 69.1942 273.697 69.1914 274.761L65.3695 274.751C65.5545 273.604 66.2428 272.709 67.3908 272.712ZM74.7602 278.192C73.4162 278.188 72.7187 277.248 72.6092 276.296L71.4875 276.965C71.89 278.282 73.0217 279.139 74.8137 279.144C76.1017 279.147 77.2938 278.366 77.2972 277.078C77.3006 275.762 76.2798 275.312 75.1048 274.931C74.0977 274.606 72.936 274.491 72.9381 273.693C72.9398 273.021 73.5987 272.701 74.2707 272.702C75.3487 272.705 76.0326 273.477 76.1706 274.261L77.2643 273.606C76.8192 272.499 75.6172 271.754 74.2172 271.75C72.9852 271.747 71.8072 272.5 71.804 273.732C71.8004 275.076 73.1712 275.528 74.2345 275.824C75.2277 276.107 76.1652 276.291 76.1631 277.117C76.1612 277.845 75.4882 278.194 74.7602 278.192ZM84.554 275.753C84.554 275.753 84.6389 275.418 84.6401 274.97C84.6449 273.122 83.5285 271.775 81.6805 271.77C79.7765 271.765 78.4844 273.33 78.4788 275.458C78.473 277.642 79.673 279.157 81.689 279.162C83.145 279.166 84.1975 278.231 84.5921 277.224L83.4879 276.563C83.3316 277.43 82.6997 278.157 81.6917 278.154C80.4177 278.151 79.6925 277.085 79.612 275.74L84.554 275.753ZM81.6779 272.75C82.8539 272.753 83.4813 273.735 83.4785 274.799L79.6565 274.789C79.8415 273.641 80.5299 272.747 81.6779 272.75ZM88.8796 272.797C89.7196 272.799 90.3623 273.291 90.3604 274.019C90.3588 274.621 89.7565 274.745 88.6919 274.966C87.4592 275.215 86.0022 275.589 85.9983 277.101C85.9948 278.431 86.9308 279.176 88.2328 279.179C89.3528 279.182 90.0684 278.568 90.4057 278.065L90.4337 278.065C90.4749 278.401 90.5163 278.625 90.7392 279.018L91.6912 279.02C91.5943 278.628 91.5251 278.292 91.5272 277.508L91.5357 274.274C91.5403 272.524 90.3382 271.793 88.8822 271.789C87.3702 271.785 86.2057 272.734 85.8525 273.979L86.9427 274.64C87.1134 273.632 87.7036 272.794 88.8796 272.797ZM90.4105 276.273C90.4074 277.449 89.4674 278.174 88.4595 278.172C87.6055 278.17 87.1726 277.72 87.1743 277.104C87.1765 276.264 88.101 276.071 88.9415 275.891C89.6699 275.725 90.1884 275.544 90.4133 275.209L90.4105 276.273ZM93.4767 279.025L94.6527 279.028L94.6633 274.996C94.6662 273.89 95.0607 272.925 95.9847 272.928C96.6007 272.929 96.8794 273.42 96.8778 274.036C96.8766 274.484 96.749 275.086 96.749 275.086L97.8988 274.403C97.8988 274.403 97.9417 274.081 97.9427 273.689C97.9454 272.667 97.3035 271.867 96.3375 271.864C95.4975 271.862 94.894 272.421 94.612 273.204L94.584 273.204L94.6712 271.972L93.4952 271.969L93.4767 279.025ZM102.061 272.832C103.237 272.835 103.795 273.844 103.792 274.852L104.914 274.183C104.748 273.175 103.856 271.828 102.064 271.824C100.104 271.818 98.9237 273.383 98.9181 275.511C98.9125 277.639 100.084 279.21 102.044 279.216C103.836 279.22 104.736 277.879 104.907 276.871L103.788 276.196C103.786 277.204 103.223 278.211 102.047 278.208C100.703 278.204 100.09 276.97 100.094 275.514C100.098 274.058 100.717 272.828 102.061 272.832ZM112.134 274.65C112.139 272.802 111.189 271.848 109.733 271.844C108.501 271.84 107.827 272.623 107.546 273.238L107.518 273.238C107.518 273.238 107.604 272.342 107.606 271.502L107.613 268.926L106.437 268.923L106.41 279.059L107.586 279.062L107.597 274.89C107.6 273.812 108.302 272.904 109.394 272.907C110.402 272.909 110.961 273.471 110.957 274.871L110.946 279.071L112.122 279.074L112.134 274.65Z" fill="black"/>
<path d="M143.641 274.552C142.812 274.553 142.142 275.226 142.143 276.054C142.143 276.882 142.816 277.553 143.644 277.552L143.641 274.552ZM189.676 277.059C190.261 276.473 190.26 275.523 189.674 274.938L180.117 265.403C179.53 264.818 178.581 264.819 177.996 265.406C177.41 265.992 177.412 266.942 177.998 267.527L186.493 276.003L178.018 284.498C177.433 285.084 177.434 286.034 178.02 286.619C178.607 287.204 179.556 287.203 180.142 286.617L189.676 277.059ZM143.644 277.552L188.616 277.5L188.613 274.5L143.641 274.552L143.644 277.552Z" fill="black"/>
<rect x="189.82" y="276" width="84.8528" height="84.8528" rx="5" transform="rotate(-45 189.82 276)" fill="#E2F5F3"/>
<path d="M229.76 269.259L229.734 278.947L232.982 278.956C235.726 278.963 237.635 277.232 237.643 274.096C237.651 270.96 235.752 269.275 233.008 269.268L229.76 269.259ZM236.383 274.093C236.378 276.221 235.267 277.842 233.335 277.837L230.969 277.83L230.989 270.383L233.355 270.389C235.287 270.394 236.389 271.965 236.383 274.093ZM245.118 275.74C245.118 275.74 245.203 275.404 245.204 274.956C245.209 273.108 244.092 271.761 242.244 271.756C240.34 271.751 239.048 273.316 239.042 275.444C239.037 277.628 240.237 279.143 242.253 279.148C243.709 279.152 244.761 278.217 245.156 277.21L244.052 276.549C243.895 277.416 243.263 278.143 242.255 278.14C240.981 278.137 240.256 277.071 240.176 275.727L245.118 275.74ZM242.242 272.736C243.418 272.739 244.045 273.721 244.042 274.785L240.22 274.775C240.405 273.627 241.094 272.733 242.242 272.736ZM249.611 278.216C248.267 278.212 247.569 277.272 247.46 276.32L246.338 276.989C246.741 278.306 247.872 279.163 249.664 279.168C250.952 279.171 252.144 278.39 252.148 277.102C252.151 275.786 251.131 275.335 249.956 274.954C248.948 274.63 247.787 274.515 247.789 273.717C247.791 273.045 248.449 272.724 249.121 272.726C250.199 272.729 250.883 273.501 251.021 274.285L252.115 273.63C251.67 272.523 250.468 271.778 249.068 271.774C247.836 271.771 246.658 272.524 246.655 273.756C246.651 275.1 248.022 275.551 249.085 275.848C250.078 276.131 251.016 276.315 251.014 277.141C251.012 277.869 250.339 278.217 249.611 278.216ZM253.767 279.01L254.943 279.014L254.961 271.958L253.785 271.954L253.767 279.01ZM254.381 269.156C253.905 269.155 253.568 269.49 253.567 269.966C253.565 270.442 253.901 270.779 254.377 270.78C254.853 270.781 255.189 270.446 255.191 269.97C255.192 269.494 254.857 269.157 254.381 269.156ZM256.937 274.147C256.935 275.071 257.437 275.73 258.22 276.096L258.22 276.124C257.435 276.346 256.734 276.722 256.732 277.478C256.731 278.094 257.178 278.389 257.682 278.559L257.682 278.587C256.953 278.739 256.168 279.283 256.166 280.025C256.162 281.369 257.897 281.933 259.633 281.938C261.481 281.943 263.274 281.331 263.279 279.651C263.282 278.363 262.22 277.745 260.932 277.741C260.148 277.739 259.531 277.85 258.859 277.848C258.131 277.846 257.852 277.677 257.853 277.341C257.854 276.837 258.751 276.504 259.591 276.506C260.991 276.509 262.254 275.561 262.257 274.161C262.259 273.377 261.827 272.886 261.561 272.619L261.561 272.591C261.729 272.647 262.009 272.704 262.233 272.705C262.905 272.706 263.298 272.371 263.3 271.531L262.014 270.8C262.041 271.024 262.069 271.192 262.068 271.416C262.068 271.752 261.899 272.032 261.283 272.03C260.667 272.029 260.275 271.804 259.603 271.802C258.203 271.798 256.941 272.635 256.937 274.147ZM257.23 279.944C257.233 278.964 259.333 278.801 260.481 278.804C261.377 278.806 262.16 279.033 262.159 279.705C262.156 280.601 260.923 280.989 259.635 280.986C258.403 280.983 257.228 280.644 257.23 279.944ZM258.057 274.15C258.06 273.254 258.761 272.724 259.601 272.726C260.441 272.728 261.14 273.262 261.137 274.158C261.135 275.054 260.433 275.584 259.593 275.582C258.753 275.58 258.055 275.046 258.057 274.15ZM270.072 274.629C270.077 272.781 269.128 271.827 267.672 271.823C266.44 271.82 265.766 272.602 265.484 273.217L265.456 273.217L265.543 271.985L264.367 271.982L264.349 279.038L265.525 279.041L265.536 274.869C265.539 273.791 266.241 272.883 267.333 272.886C268.341 272.889 268.9 273.45 268.896 274.85L268.885 279.05L270.061 279.053L270.072 274.629Z" fill="black"/>
<path d="M309.952 274.552C309.124 274.553 308.453 275.226 308.454 276.054C308.455 276.882 309.127 277.553 309.956 277.552L309.952 274.552ZM355.988 277.059C356.573 276.473 356.572 275.523 355.985 274.938L346.428 265.403C345.842 264.818 344.892 264.819 344.307 265.406C343.722 265.992 343.723 266.942 344.31 267.527L352.805 276.003L344.329 284.498C343.744 285.084 343.745 286.034 344.332 286.619C344.918 287.204 345.868 287.203 346.453 286.617L355.988 277.059ZM309.956 277.552L354.928 277.5L354.924 274.5L309.952 274.552L309.956 277.552Z" fill="black"/>
<rect x="355.641" y="276" width="84.8528" height="84.8528" rx="5" transform="rotate(-45 355.641 276)" fill="#E2F5F3"/>
<path d="M379.895 274.314C381.294 274.766 382.848 274.938 382.844 276.31C382.841 277.374 381.874 277.987 380.642 277.984C378.836 277.979 377.943 276.717 377.807 275.261L376.629 275.985C377.016 277.988 378.679 279.071 380.639 279.076C382.655 279.081 384.072 277.937 384.076 276.257C384.081 274.465 382.57 273.887 381.102 273.407C379.759 272.97 378.205 272.784 378.209 271.58C378.211 270.684 379.052 270.14 380.06 270.142C381.46 270.146 382.494 271.045 382.686 272.459L383.864 271.734C383.239 269.857 381.631 269.055 380.063 269.05C378.341 269.046 376.981 270.064 376.976 271.688C376.972 273.424 378.664 273.919 379.895 274.314ZM386.748 273.1L386.835 271.868L385.659 271.865L385.633 281.665L386.809 281.668L386.819 277.86L386.847 277.86C387.098 278.309 387.768 279.095 389 279.098C390.624 279.102 391.972 277.594 391.977 275.41C391.983 273.226 390.643 271.71 389.019 271.706C387.787 271.703 387.057 272.485 386.776 273.1L386.748 273.1ZM386.769 275.396C386.773 273.94 387.449 272.71 388.793 272.713C390.137 272.717 390.805 273.951 390.801 275.407C390.798 276.863 390.122 278.093 388.778 278.089C387.434 278.086 386.766 276.852 386.769 275.396ZM399.344 275.709C399.344 275.709 399.429 275.373 399.43 274.925C399.435 273.077 398.319 271.73 396.471 271.726C394.567 271.721 393.275 273.285 393.269 275.413C393.263 277.597 394.463 279.112 396.479 279.118C397.935 279.122 398.988 278.186 399.383 277.179L398.278 276.518C398.122 277.386 397.49 278.112 396.482 278.11C395.208 278.106 394.483 277.04 394.402 275.696L399.344 275.709ZM396.468 272.706C397.644 272.709 398.272 273.69 398.269 274.754L394.447 274.744C394.632 273.597 395.32 272.703 396.468 272.706ZM403.809 272.753C404.985 272.756 405.542 273.765 405.539 274.773L406.661 274.104C406.496 273.096 405.603 271.75 403.811 271.745C401.851 271.74 400.671 273.305 400.666 275.433C400.66 277.561 401.832 279.132 403.792 279.137C405.584 279.142 406.483 277.8 406.654 276.792L405.536 276.117C405.533 277.125 404.971 278.132 403.795 278.129C402.451 278.125 401.838 276.892 401.842 275.436C401.845 273.98 402.465 272.749 403.809 272.753ZM408.158 278.98L409.334 278.983L409.352 271.928L408.176 271.924L408.158 278.98ZM408.772 269.126C408.296 269.125 407.959 269.46 407.958 269.936C407.956 270.412 408.291 270.749 408.767 270.75C409.243 270.751 409.58 270.416 409.581 269.94C409.583 269.464 409.248 269.127 408.772 269.126ZM411.903 278.99L413.051 278.993L413.067 272.945L414.775 272.95L414.778 271.942L413.07 271.937L413.071 271.405C413.074 270.173 413.72 269.699 414.448 269.701C415.064 269.703 415.525 269.998 415.691 270.726L416.841 270.043C416.381 269.216 415.626 268.696 414.45 268.693C413.19 268.69 411.928 269.442 411.923 271.43L411.922 271.934L410.69 271.931L410.687 272.939L411.919 272.942L411.903 278.99ZM415.669 279L416.845 279.003L416.864 271.947L415.688 271.944L415.669 279ZM421.623 272.8C422.799 272.803 423.356 273.812 423.354 274.82L424.476 274.151C424.31 273.143 423.418 271.796 421.626 271.792C419.666 271.787 418.486 273.352 418.48 275.48C418.474 277.608 419.646 279.179 421.606 279.184C423.398 279.188 424.298 277.847 424.468 276.839L423.35 276.164C423.348 277.172 422.785 278.179 421.609 278.176C420.265 278.172 419.652 276.939 419.656 275.483C419.66 274.027 420.279 272.796 421.623 272.8ZM428.648 272.818C429.488 272.82 430.131 273.312 430.129 274.04C430.128 274.642 429.525 274.767 428.461 274.988C427.228 275.237 425.771 275.611 425.767 277.123C425.764 278.453 426.7 279.197 428.002 279.201C429.122 279.204 429.837 278.589 430.175 278.086L430.203 278.086C430.244 278.422 430.285 278.647 430.508 279.039L431.46 279.042C431.363 278.649 431.294 278.313 431.296 277.529L431.305 274.295C431.309 272.545 430.107 271.814 428.651 271.81C427.139 271.806 425.975 272.755 425.621 274L426.712 274.661C426.882 273.654 427.472 272.815 428.648 272.818ZM430.179 276.294C430.176 277.47 429.236 278.196 428.228 278.193C427.374 278.191 426.941 277.742 426.943 277.126C426.945 276.286 427.87 276.092 428.71 275.912C429.439 275.746 429.957 275.566 430.182 275.23L430.179 276.294ZM436 277.542C435.887 277.821 435.634 278.213 435.242 278.212C434.822 278.211 434.627 277.972 434.629 277.3L434.64 273.002L436.46 273.007L436.463 271.999L434.643 271.994L434.649 269.642L433.499 270.367L433.495 271.991L432.207 271.988L432.204 272.996L433.492 272.999L433.48 277.395C433.477 278.823 434.218 279.217 435.114 279.219C435.842 279.221 436.375 278.845 436.628 278.509L436 277.542ZM437.798 279.058L438.974 279.061L438.993 272.005L437.817 272.002L437.798 279.058ZM438.412 269.204C437.936 269.203 437.599 269.538 437.598 270.014C437.597 270.49 437.932 270.827 438.408 270.828C438.884 270.829 439.221 270.494 439.222 270.018C439.223 269.542 438.888 269.205 438.412 269.204ZM443.783 279.242C445.743 279.247 446.979 277.682 446.985 275.554C446.991 273.427 445.763 271.855 443.803 271.85C441.843 271.845 440.607 273.41 440.601 275.538C440.595 277.666 441.823 279.237 443.783 279.242ZM441.777 275.541C441.781 274.085 442.456 272.855 443.8 272.858C445.144 272.862 445.813 274.095 445.809 275.551C445.805 277.007 445.13 278.238 443.786 278.234C442.442 278.231 441.773 276.997 441.777 275.541ZM454.323 274.678C454.327 272.83 453.378 271.875 451.922 271.871C450.69 271.868 450.016 272.65 449.734 273.266L449.706 273.266L449.794 272.034L448.618 272.031L448.599 279.087L449.775 279.09L449.786 274.918C449.789 273.84 450.491 272.932 451.583 272.935C452.591 272.937 453.15 273.499 453.146 274.899L453.135 279.099L454.311 279.102L454.323 274.678Z" fill="black"/>
<path d="M476.265 274.5C475.436 274.501 474.765 275.172 474.766 276.001C474.766 276.829 475.438 277.501 476.266 277.5L476.265 274.5ZM520.826 277.035C521.411 276.449 521.411 275.5 520.824 274.914L511.273 265.374C510.687 264.788 509.737 264.789 509.152 265.375C508.566 265.961 508.567 266.911 509.153 267.496L517.643 275.977L509.163 284.467C508.577 285.053 508.578 286.003 509.164 286.588C509.75 287.173 510.7 287.173 511.285 286.587L520.826 277.035ZM476.266 277.5L519.765 277.475L519.764 274.475L476.265 274.5L476.266 277.5Z" fill="black"/>
<g clip-path="url(#clip0_1_82)">
<rect x="521.461" y="276" width="84.8528" height="84.8528" rx="5" transform="rotate(-45 521.461 276)" fill="#E2F5F3"/>
<path d="M535.057 278.878L536.317 278.881L536.343 269.193L535.083 269.19L535.057 278.878ZM538.445 278.887L539.621 278.89L539.632 274.718C539.635 273.528 540.281 272.732 541.261 272.734C542.129 272.737 542.66 273.27 542.657 274.488L542.645 278.898L543.821 278.901L543.832 274.813C543.835 273.581 544.453 272.743 545.461 272.745C546.357 272.748 546.86 273.309 546.856 274.597L546.845 278.909L548.021 278.912L548.033 274.32C548.038 272.64 547.144 271.686 545.744 271.682C544.512 271.679 543.866 272.461 543.584 273.076L543.556 273.076C543.251 272.152 542.58 271.674 541.6 271.671C540.48 271.668 539.862 272.451 539.58 273.066L539.552 273.066L539.64 271.834L538.464 271.831L538.445 278.887ZM551.091 273.096L551.179 271.864L550.003 271.861L549.977 281.661L551.153 281.664L551.163 277.856L551.191 277.856C551.442 278.305 552.112 279.091 553.344 279.094C554.968 279.098 556.316 277.59 556.321 275.406C556.327 273.222 554.987 271.706 553.363 271.702C552.131 271.699 551.401 272.481 551.119 273.096L551.091 273.096ZM551.113 275.392C551.117 273.936 551.792 272.706 553.136 272.71C554.48 272.713 555.149 273.947 555.145 275.403C555.142 276.859 554.466 278.089 553.122 278.086C551.778 278.082 551.11 276.848 551.113 275.392ZM557.941 278.938L559.117 278.941L559.144 268.805L557.968 268.802L557.941 278.938ZM566.819 275.714C566.819 275.714 566.904 275.378 566.905 274.93C566.91 273.082 565.794 271.735 563.946 271.73C562.042 271.725 560.75 273.29 560.744 275.418C560.738 277.602 561.938 279.117 563.954 279.122C565.41 279.126 566.463 278.191 566.857 277.184L565.753 276.523C565.597 277.39 564.965 278.117 563.957 278.114C562.683 278.111 561.958 277.045 561.877 275.701L566.819 275.714ZM563.943 272.71C565.119 272.713 565.747 273.695 565.744 274.759L561.922 274.749C562.107 273.601 562.795 272.707 563.943 272.71ZM568.468 278.966L569.644 278.969L569.655 274.797C569.659 273.607 570.305 272.811 571.285 272.813C572.153 272.816 572.683 273.349 572.68 274.567L572.668 278.977L573.844 278.98L573.855 274.892C573.858 273.66 574.477 272.822 575.485 272.824C576.381 272.827 576.883 273.388 576.88 274.676L576.868 278.988L578.044 278.991L578.056 274.399C578.061 272.719 577.167 271.765 575.767 271.761C574.535 271.758 573.889 272.54 573.608 273.155L573.58 273.155C573.274 272.23 572.603 271.753 571.623 271.75C570.503 271.747 569.885 272.53 569.604 273.145L569.576 273.145L569.663 271.913L568.487 271.91L568.468 278.966ZM585.7 275.763C585.7 275.763 585.785 275.427 585.786 274.979C585.791 273.131 584.674 271.784 582.826 271.78C580.922 271.775 579.63 273.339 579.625 275.467C579.619 277.651 580.819 279.166 582.835 279.172C584.291 279.175 585.343 278.24 585.738 277.233L584.634 276.572C584.478 277.44 583.846 278.166 582.838 278.164C581.564 278.16 580.838 277.094 580.758 275.75L585.7 275.763ZM582.824 272.76C584 272.763 584.627 273.744 584.625 274.808L580.803 274.798C580.988 273.651 581.676 272.757 582.824 272.76ZM593.073 274.607C593.078 272.759 592.128 271.804 590.672 271.8C589.44 271.797 588.766 272.579 588.485 273.195L588.457 273.194L588.544 271.963L587.368 271.96L587.349 279.016L588.525 279.019L588.536 274.847C588.539 273.769 589.241 272.86 590.333 272.863C591.341 272.866 591.9 273.427 591.896 274.827L591.885 279.027L593.061 279.031L593.073 274.607ZM597.774 277.531C597.661 277.811 597.408 278.202 597.016 278.201C596.596 278.2 596.401 277.961 596.402 277.289L596.414 272.991L598.234 272.996L598.236 271.988L596.416 271.983L596.422 269.631L595.273 270.356L595.268 271.98L593.98 271.977L593.978 272.985L595.266 272.988L595.254 277.384C595.25 278.812 595.991 279.206 596.887 279.209C597.615 279.211 598.148 278.834 598.401 278.499L597.774 277.531ZM602.358 272.839C603.198 272.841 603.84 273.333 603.838 274.061C603.837 274.663 603.234 274.787 602.17 275.009C600.937 275.257 599.48 275.631 599.476 277.143C599.473 278.473 600.409 279.218 601.711 279.221C602.831 279.224 603.546 278.61 603.884 278.107L603.912 278.107C603.953 278.443 603.994 278.667 604.217 279.06L605.169 279.062C605.072 278.67 605.003 278.334 605.005 277.55L605.014 274.316C605.018 272.566 603.816 271.835 602.36 271.831C600.848 271.827 599.684 272.776 599.33 274.021L600.421 274.682C600.591 273.674 601.182 272.836 602.358 272.839ZM603.888 276.315C603.885 277.491 602.945 278.217 601.937 278.214C601.083 278.212 600.651 277.763 600.652 277.147C600.654 276.307 601.579 276.113 602.419 275.933C603.148 275.767 603.666 275.586 603.891 275.251L603.888 276.315ZM609.709 277.562C609.596 277.842 609.343 278.233 608.951 278.232C608.531 278.231 608.336 277.993 608.338 277.321L608.349 273.023L610.169 273.028L610.172 272.02L608.352 272.015L608.358 269.663L607.208 270.388L607.204 272.012L605.916 272.008L605.913 273.016L607.201 273.02L607.19 277.416C607.186 278.844 607.927 279.238 608.823 279.24C609.551 279.242 610.084 278.865 610.337 278.53L609.709 277.562ZM611.507 279.079L612.683 279.082L612.702 272.026L611.526 272.023L611.507 279.079ZM612.121 269.225C611.645 269.223 611.308 269.559 611.307 270.035C611.306 270.511 611.641 270.847 612.117 270.849C612.593 270.85 612.93 270.515 612.931 270.039C612.932 269.563 612.597 269.226 612.121 269.225ZM617.492 279.263C619.452 279.268 620.689 277.703 620.694 275.575C620.7 273.447 619.472 271.876 617.512 271.871C615.552 271.866 614.316 273.43 614.31 275.558C614.305 277.686 615.532 279.258 617.492 279.263ZM615.486 275.562C615.49 274.106 616.165 272.875 617.509 272.879C618.853 272.882 619.522 274.116 619.518 275.572C619.514 277.028 618.839 278.258 617.495 278.255C616.151 278.251 615.482 277.018 615.486 275.562ZM628.032 274.699C628.037 272.851 627.087 271.896 625.631 271.892C624.399 271.889 623.725 272.671 623.443 273.286L623.415 273.286L623.503 272.055L622.327 272.052L622.308 279.107L623.484 279.111L623.495 274.939C623.498 273.861 624.2 272.952 625.292 272.955C626.3 272.958 626.859 273.519 626.855 274.919L626.844 279.119L628.02 279.123L628.032 274.699Z" fill="black"/>
</g>
<path d="M641.727 274.552C640.898 274.553 640.228 275.226 640.229 276.054C640.229 276.882 640.902 277.553 641.73 277.552L641.727 274.552ZM687.762 277.059C688.347 276.473 688.346 275.523 687.76 274.938L678.203 265.403C677.616 264.818 676.667 264.819 676.082 265.406C675.496 265.992 675.498 266.942 676.084 267.527L684.579 276.003L676.104 284.498C675.519 285.084 675.52 286.034 676.106 286.619C676.693 287.204 677.642 287.203 678.228 286.617L687.762 277.059ZM641.73 277.552L686.702 277.5L686.699 274.5L641.727 274.552L641.73 277.552Z" fill="black"/>
<rect x="687.282" y="276" width="84.8528" height="84.8528" rx="5" transform="rotate(-45 687.282 276)" fill="#E2F5F3"/>
<path d="M701.593 269.192L701.568 278.88L704.816 278.888C707.56 278.896 709.469 277.165 709.477 274.029C709.485 270.893 707.585 269.208 704.841 269.2L701.593 269.192ZM708.217 274.025C708.211 276.153 707.101 277.774 705.169 277.769L702.803 277.763L702.823 270.315L705.189 270.321C707.121 270.326 708.222 271.897 708.217 274.025ZM714.058 279.081C716.018 279.086 717.254 277.521 717.26 275.393C717.266 273.265 716.038 271.694 714.078 271.689C712.118 271.684 710.882 273.248 710.876 275.376C710.87 277.504 712.098 279.076 714.058 279.081ZM712.052 275.379C712.056 273.923 712.731 272.693 714.075 272.697C715.419 272.7 716.088 273.934 716.084 275.39C716.08 276.846 715.405 278.076 714.061 278.073C712.717 278.069 712.048 276.835 712.052 275.379ZM721.689 272.717C722.865 272.72 723.422 273.729 723.42 274.737L724.541 274.068C724.376 273.06 723.484 271.713 721.692 271.709C719.732 271.704 718.551 273.268 718.546 275.396C718.54 277.524 719.712 279.096 721.672 279.101C723.464 279.105 724.364 277.764 724.534 276.756L723.416 276.081C723.413 277.089 722.851 278.096 721.675 278.093C720.331 278.089 719.718 276.856 719.722 275.4C719.726 273.944 720.345 272.713 721.689 272.717ZM725.989 276.312C725.984 278.16 726.878 279.114 728.334 279.118C729.566 279.121 730.184 278.339 730.465 277.724L730.493 277.724L730.406 278.956L731.582 278.959L731.6 271.903L730.425 271.9L730.414 276.072C730.411 277.164 729.764 278.058 728.672 278.055C727.664 278.052 727.162 277.491 727.165 276.091L727.177 271.891L726.001 271.888L725.989 276.312ZM733.598 278.964L734.774 278.967L734.785 274.795C734.789 273.605 735.435 272.809 736.415 272.811C737.283 272.814 737.813 273.347 737.81 274.565L737.798 278.975L738.974 278.978L738.985 274.89C738.988 273.658 739.607 272.82 740.615 272.822C741.511 272.825 742.013 273.386 742.01 274.674L741.998 278.986L743.174 278.989L743.187 274.397C743.191 272.717 742.297 271.763 740.897 271.759C739.665 271.756 739.019 272.538 738.738 273.154L738.71 273.153C738.404 272.229 737.733 271.751 736.753 271.748C735.633 271.745 735.015 272.528 734.734 273.143L734.706 273.143L734.793 271.911L733.617 271.908L733.598 278.964ZM750.83 275.761C750.83 275.761 750.915 275.426 750.916 274.978C750.921 273.13 749.804 271.783 747.956 271.778C746.053 271.773 744.76 273.337 744.755 275.465C744.749 277.649 745.949 279.165 747.965 279.17C749.421 279.174 750.474 278.238 750.868 277.231L749.764 276.571C749.608 277.438 748.976 278.165 747.968 278.162C746.694 278.158 745.969 277.093 745.888 275.748L750.83 275.761ZM747.954 272.758C749.13 272.761 749.757 273.743 749.755 274.807L745.933 274.796C746.118 273.649 746.806 272.755 747.954 272.758ZM758.203 274.605C758.208 272.757 757.258 271.802 755.802 271.798C754.57 271.795 753.896 272.577 753.615 273.193L753.587 273.193L753.674 271.961L752.498 271.958L752.479 279.014L753.655 279.017L753.666 274.845C753.669 273.767 754.371 272.859 755.463 272.862C756.471 272.864 757.03 273.426 757.026 274.826L757.015 279.026L758.191 279.029L758.203 274.605ZM762.904 277.529C762.791 277.809 762.538 278.2 762.146 278.199C761.726 278.198 761.531 277.96 761.532 277.288L761.544 272.99L763.364 272.994L763.366 271.986L761.546 271.982L761.552 269.63L760.403 270.355L760.398 271.979L759.11 271.975L759.108 272.983L760.396 272.987L760.384 277.383C760.38 278.81 761.121 279.204 762.017 279.207C762.745 279.209 763.278 278.832 763.531 278.497L762.904 277.529ZM767.488 272.837C768.328 272.839 768.97 273.331 768.968 274.059C768.967 274.661 768.364 274.785 767.3 275.007C766.067 275.255 764.61 275.63 764.606 277.142C764.603 278.472 765.539 279.216 766.841 279.219C767.961 279.222 768.676 278.608 769.014 278.105L769.042 278.105C769.083 278.441 769.124 278.665 769.347 279.058L770.299 279.061C770.202 278.668 770.133 278.332 770.135 277.548L770.144 274.314C770.148 272.564 768.946 271.833 767.49 271.829C765.978 271.825 764.814 272.774 764.46 274.019L765.551 274.68C765.721 273.673 766.312 272.834 767.488 272.837ZM769.018 276.313C769.015 277.489 768.075 278.215 767.067 278.212C766.213 278.21 765.781 277.761 765.782 277.145C765.784 276.305 766.709 276.111 767.549 275.931C768.278 275.765 768.796 275.585 769.021 275.249L769.018 276.313ZM774.839 277.561C774.726 277.84 774.473 278.232 774.081 278.231C773.661 278.229 773.466 277.991 773.468 277.319L773.479 273.021L775.299 273.026L775.302 272.018L773.482 272.013L773.488 269.661L772.338 270.386L772.334 272.01L771.046 272.007L771.043 273.015L772.331 273.018L772.32 277.414C772.316 278.842 773.057 279.236 773.953 279.238C774.681 279.24 775.214 278.864 775.467 278.528L774.839 277.561ZM776.637 279.077L777.813 279.08L777.832 272.024L776.656 272.021L776.637 279.077ZM777.251 269.223C776.775 269.222 776.438 269.557 776.437 270.033C776.436 270.509 776.771 270.846 777.247 270.847C777.723 270.848 778.06 270.513 778.061 270.037C778.062 269.561 777.727 269.224 777.251 269.223ZM782.622 279.261C784.582 279.266 785.819 277.701 785.824 275.573C785.83 273.445 784.602 271.874 782.642 271.869C780.682 271.864 779.446 273.429 779.44 275.557C779.435 277.685 780.662 279.256 782.622 279.261ZM780.616 275.56C780.62 274.104 781.295 272.873 782.639 272.877C783.983 272.881 784.652 274.114 784.648 275.57C784.644 277.026 783.969 278.257 782.625 278.253C781.281 278.249 780.612 277.016 780.616 275.56ZM793.162 274.697C793.167 272.849 792.217 271.894 790.761 271.89C789.529 271.887 788.855 272.669 788.573 273.285L788.545 273.285L788.633 272.053L787.457 272.05L787.438 279.106L788.614 279.109L788.625 274.937C788.628 273.859 789.33 272.951 790.422 272.953C791.43 272.956 791.989 273.518 791.985 274.918L791.974 279.118L793.15 279.121L793.162 274.697Z" fill="black"/>
<rect x="672" y="30" width="150" height="150" rx="75" fill="#A3E3C2"/>
<path d="M715.23 95.216C718.146 95.216 720.306 93.668 720.306 89.888V82.544H717.66V90.05C717.66 91.868 716.868 92.876 715.23 92.876C713.592 92.876 712.8 91.868 712.8 90.05V82.544H710.172V89.888C710.172 93.668 712.314 95.216 715.23 95.216ZM724.819 87.422L724.927 85.928H722.389V98.528H724.927V93.722H724.963C725.377 94.388 726.151 95.216 727.519 95.216C729.445 95.216 731.065 93.362 731.065 90.464C731.065 87.566 729.445 85.712 727.519 85.712C726.151 85.712 725.305 86.54 724.855 87.422H724.819ZM724.855 90.464C724.855 88.844 725.503 87.746 726.673 87.746C727.843 87.746 728.491 88.844 728.491 90.464C728.491 92.084 727.843 93.182 726.673 93.182C725.503 93.182 724.855 92.084 724.855 90.464ZM738.573 93.506L738.429 95H740.967V81.968H738.429V87.17H738.375C737.997 86.54 737.205 85.712 735.837 85.712C733.929 85.712 732.309 87.566 732.309 90.464C732.309 93.362 733.929 95.216 735.837 95.216C737.205 95.216 738.069 94.388 738.501 93.506H738.573ZM736.701 93.182C735.531 93.182 734.883 92.084 734.883 90.464C734.883 88.844 735.531 87.746 736.701 87.746C737.853 87.746 738.501 88.844 738.501 90.464C738.501 92.084 737.853 93.182 736.701 93.182ZM746.733 87.656C747.471 87.656 748.029 88.052 748.029 88.646C748.029 89.276 747.327 89.438 746.085 89.708C744.627 89.996 742.755 90.518 742.755 92.552C742.755 94.226 744.015 95.216 745.617 95.216C747.003 95.216 747.831 94.424 748.191 93.866H748.245C748.353 94.298 748.461 94.586 748.749 95H750.657C750.477 94.316 750.441 93.668 750.441 92.714V89.096C750.441 86.828 748.821 85.712 746.769 85.712C744.753 85.712 743.187 86.756 742.485 88.268L744.717 89.456C744.969 88.376 745.689 87.656 746.733 87.656ZM748.101 91.58C748.101 92.696 747.291 93.308 746.391 93.308C745.599 93.308 745.203 92.93 745.203 92.372C745.203 91.652 745.905 91.454 746.679 91.256C747.363 91.076 747.849 90.878 748.101 90.554V91.58ZM756.647 92.588C756.539 92.822 756.323 93.164 755.945 93.164C755.531 93.164 755.315 92.93 755.315 92.228V87.872H757.367V85.928H755.315V82.688L752.795 84.092V85.928H751.337V87.872H752.795V92.48C752.795 94.406 753.821 95.216 755.405 95.216C756.449 95.216 757.295 94.712 757.601 94.424L756.647 92.588ZM766.464 91.148C766.464 91.148 766.59 90.644 766.59 89.906C766.59 87.44 764.97 85.712 762.54 85.712C760.092 85.712 758.202 87.512 758.202 90.464C758.202 93.452 760.056 95.216 762.594 95.216C764.484 95.216 765.852 94.208 766.482 93.056L764.34 91.85C764.196 92.714 763.548 93.344 762.594 93.344C761.532 93.344 760.704 92.624 760.596 91.148H766.464ZM762.54 87.548C763.53 87.548 764.232 88.358 764.232 89.456H760.65C760.848 88.214 761.604 87.548 762.54 87.548ZM772.205 95H774.761V85.928H772.205V95ZM773.483 82.004C772.655 82.004 772.007 82.598 772.007 83.426C772.007 84.254 772.655 84.848 773.483 84.848C774.311 84.848 774.959 84.254 774.959 83.426C774.959 82.598 774.311 82.004 773.483 82.004ZM780.68 93.362C779.474 93.362 778.682 92.624 778.394 91.634L776.18 92.876C776.918 94.316 778.592 95.216 780.716 95.216C782.678 95.216 784.37 94.136 784.37 92.318C784.37 90.662 783.074 90.014 781.652 89.564C780.302 89.132 779.114 89.06 779.114 88.376C779.114 87.854 779.654 87.566 780.302 87.566C781.292 87.566 781.976 88.196 782.192 89.006L784.37 87.782C783.668 86.576 782.012 85.712 780.212 85.712C778.268 85.712 776.63 86.792 776.63 88.502C776.63 90.23 778.34 90.914 779.708 91.274C780.878 91.598 781.886 91.76 781.886 92.48C781.886 93.056 781.382 93.362 780.68 93.362ZM714.944 123H717.482V117.816C717.482 116.646 717.806 115.89 718.598 115.89C719.228 115.89 719.444 116.448 719.444 117.042C719.444 117.654 719.336 118.266 719.3 118.536L721.586 117.222C721.586 117.222 721.676 116.754 721.676 116.16C721.676 114.828 720.974 113.748 719.696 113.748C718.544 113.748 717.86 114.54 717.41 115.422H717.356L717.482 113.928H714.944V123ZM730.895 119.148C730.895 119.148 731.021 118.644 731.021 117.906C731.021 115.44 729.401 113.712 726.971 113.712C724.523 113.712 722.633 115.512 722.633 118.464C722.633 121.452 724.487 123.216 727.025 123.216C728.915 123.216 730.283 122.208 730.913 121.056L728.771 119.85C728.627 120.714 727.979 121.344 727.025 121.344C725.963 121.344 725.135 120.624 725.027 119.148H730.895ZM726.971 115.548C727.961 115.548 728.663 116.358 728.663 117.456H725.081C725.279 116.214 726.035 115.548 726.971 115.548ZM732.61 123H735.166V109.968H732.61V123ZM745.045 119.148C745.045 119.148 745.171 118.644 745.171 117.906C745.171 115.44 743.551 113.712 741.121 113.712C738.673 113.712 736.783 115.512 736.783 118.464C736.783 121.452 738.637 123.216 741.175 123.216C743.065 123.216 744.433 122.208 745.063 121.056L742.921 119.85C742.777 120.714 742.129 121.344 741.175 121.344C740.113 121.344 739.285 120.624 739.177 119.148H745.045ZM741.121 115.548C742.111 115.548 742.813 116.358 742.813 117.456H739.231C739.429 116.214 740.185 115.548 741.121 115.548ZM750.433 115.656C751.171 115.656 751.729 116.052 751.729 116.646C751.729 117.276 751.027 117.438 749.785 117.708C748.327 117.996 746.455 118.518 746.455 120.552C746.455 122.226 747.715 123.216 749.317 123.216C750.703 123.216 751.531 122.424 751.891 121.866H751.945C752.053 122.298 752.161 122.586 752.449 123H754.357C754.177 122.316 754.141 121.668 754.141 120.714V117.096C754.141 114.828 752.521 113.712 750.469 113.712C748.453 113.712 746.887 114.756 746.185 116.268L748.417 117.456C748.669 116.376 749.389 115.656 750.433 115.656ZM751.801 119.58C751.801 120.696 750.991 121.308 750.091 121.308C749.299 121.308 748.903 120.93 748.903 120.372C748.903 119.652 749.605 119.454 750.379 119.256C751.063 119.076 751.549 118.878 751.801 118.554V119.58ZM760.017 121.362C758.811 121.362 758.019 120.624 757.731 119.634L755.517 120.876C756.255 122.316 757.929 123.216 760.053 123.216C762.015 123.216 763.707 122.136 763.707 120.318C763.707 118.662 762.411 118.014 760.989 117.564C759.639 117.132 758.451 117.06 758.451 116.376C758.451 115.854 758.991 115.566 759.639 115.566C760.629 115.566 761.313 116.196 761.529 117.006L763.707 115.782C763.005 114.576 761.349 113.712 759.549 113.712C757.605 113.712 755.967 114.792 755.967 116.502C755.967 118.23 757.677 118.914 759.045 119.274C760.215 119.598 761.223 119.76 761.223 120.48C761.223 121.056 760.719 121.362 760.017 121.362ZM773.065 119.148C773.065 119.148 773.191 118.644 773.191 117.906C773.191 115.44 771.571 113.712 769.141 113.712C766.693 113.712 764.803 115.512 764.803 118.464C764.803 121.452 766.657 123.216 769.195 123.216C771.085 123.216 772.453 122.208 773.083 121.056L770.941 119.85C770.797 120.714 770.149 121.344 769.195 121.344C768.133 121.344 767.305 120.624 767.197 119.148H773.065ZM769.141 115.548C770.131 115.548 770.833 116.358 770.833 117.456H767.251C767.449 116.214 768.205 115.548 769.141 115.548ZM780.682 121.506L780.538 123H783.076V109.968H780.538V115.17H780.484C780.106 114.54 779.314 113.712 777.946 113.712C776.038 113.712 774.418 115.566 774.418 118.464C774.418 121.362 776.038 123.216 777.946 123.216C779.314 123.216 780.178 122.388 780.61 121.506H780.682ZM778.81 121.182C777.64 121.182 776.992 120.084 776.992 118.464C776.992 116.844 777.64 115.746 778.81 115.746C779.962 115.746 780.61 116.844 780.61 118.464C780.61 120.084 779.962 121.182 778.81 121.182Z" fill="black"/>
<path d="M85.0607 336.939C84.4749 336.354 83.5251 336.354 82.9393 336.939L73.3934 346.485C72.8076 347.071 72.8076 348.021 73.3934 348.607C73.9792 349.192 74.9289 349.192 75.5147 348.607L84 340.121L92.4853 348.607C93.0711 349.192 94.0208 349.192 94.6066 348.607C95.1924 348.021 95.1924 347.071 94.6066 346.485L85.0607 336.939ZM85.5 370V338H82.5V370H85.5Z" fill="black"/>
<path d="M251.061 336.939C250.475 336.354 249.525 336.354 248.939 336.939L239.393 346.485C238.808 347.071 238.808 348.021 239.393 348.607C239.979 349.192 240.929 349.192 241.515 348.607L250 340.121L258.485 348.607C259.071 349.192 260.021 349.192 260.607 348.607C261.192 348.021 261.192 347.071 260.607 346.485L251.061 336.939ZM251.5 370V338H248.5V370H251.5Z" fill="black"/>
<path d="M417.061 336.939C416.475 336.354 415.525 336.354 414.939 336.939L405.393 346.485C404.808 347.071 404.808 348.021 405.393 348.607C405.979 349.192 406.929 349.192 407.515 348.607L416 340.121L424.485 348.607C425.071 349.192 426.021 349.192 426.607 348.607C427.192 348.021 427.192 347.071 426.607 346.485L417.061 336.939ZM417.5 393V338H414.5V393H417.5Z" fill="black"/>
<path d="M583.061 336.939C582.475 336.354 581.525 336.354 580.939 336.939L571.393 346.485C570.808 347.071 570.808 348.021 571.393 348.607C571.979 349.192 572.929 349.192 573.515 348.607L582 340.121L590.485 348.607C591.071 349.192 592.021 349.192 592.607 348.607C593.192 348.021 593.192 347.071 592.607 346.485L583.061 336.939ZM583.5 370V338H580.5V370H583.5Z" fill="black"/>
<path d="M749.061 336.939C748.475 336.354 747.525 336.354 746.939 336.939L737.393 346.485C736.808 347.071 736.808 348.021 737.393 348.607C737.979 349.192 738.929 349.192 739.515 348.607L748 340.121L756.485 348.607C757.071 349.192 758.021 349.192 758.607 348.607C759.192 348.021 759.192 347.071 758.607 346.485L749.061 336.939ZM749.5 370V338H746.5V370H749.5Z" fill="black"/>
<line x1="84" y1="368.5" x2="748" y2="368.5" stroke="black" stroke-width="3"/>
<rect x="341" y="388" width="150" height="150" rx="75" fill="#9FC9EB"/>
<path d="M374.082 453H376.818L372.48 440.544H369.276L364.938 453H367.566L368.52 450.156H373.128L374.082 453ZM370.338 444.702C370.572 444 370.806 443.064 370.806 443.064H370.86C370.86 443.064 371.094 444 371.328 444.702L372.408 447.978H369.24L370.338 444.702ZM381.679 445.656C382.795 445.656 383.263 446.646 383.263 447.852L385.585 446.664C385.297 445.206 383.929 443.712 381.679 443.712C379.195 443.712 377.359 445.512 377.359 448.464C377.359 451.416 379.195 453.216 381.679 453.216C383.929 453.216 385.297 451.722 385.585 450.264L383.263 449.076C383.263 450.282 382.795 451.272 381.679 451.272C380.455 451.272 379.933 450.084 379.933 448.464C379.933 446.844 380.455 445.656 381.679 445.656ZM390.908 445.656C392.024 445.656 392.492 446.646 392.492 447.852L394.814 446.664C394.526 445.206 393.158 443.712 390.908 443.712C388.424 443.712 386.588 445.512 386.588 448.464C386.588 451.416 388.424 453.216 390.908 453.216C393.158 453.216 394.526 451.722 394.814 450.264L392.492 449.076C392.492 450.282 392.024 451.272 390.908 451.272C389.684 451.272 389.162 450.084 389.162 448.464C389.162 446.844 389.684 445.656 390.908 445.656ZM404.078 449.148C404.078 449.148 404.204 448.644 404.204 447.906C404.204 445.44 402.584 443.712 400.154 443.712C397.706 443.712 395.816 445.512 395.816 448.464C395.816 451.452 397.67 453.216 400.208 453.216C402.098 453.216 403.466 452.208 404.096 451.056L401.954 449.85C401.81 450.714 401.162 451.344 400.208 451.344C399.146 451.344 398.318 450.624 398.21 449.148H404.078ZM400.154 445.548C401.144 445.548 401.846 446.358 401.846 447.456H398.264C398.462 446.214 399.218 445.548 400.154 445.548ZM409.628 451.362C408.422 451.362 407.63 450.624 407.342 449.634L405.128 450.876C405.866 452.316 407.54 453.216 409.664 453.216C411.626 453.216 413.318 452.136 413.318 450.318C413.318 448.662 412.022 448.014 410.6 447.564C409.25 447.132 408.062 447.06 408.062 446.376C408.062 445.854 408.602 445.566 409.25 445.566C410.24 445.566 410.924 446.196 411.14 447.006L413.318 445.782C412.616 444.576 410.96 443.712 409.16 443.712C407.216 443.712 405.578 444.792 405.578 446.502C405.578 448.23 407.288 448.914 408.656 449.274C409.826 449.598 410.834 449.76 410.834 450.48C410.834 451.056 410.33 451.362 409.628 451.362ZM418.646 451.362C417.44 451.362 416.648 450.624 416.36 449.634L414.146 450.876C414.884 452.316 416.558 453.216 418.682 453.216C420.644 453.216 422.336 452.136 422.336 450.318C422.336 448.662 421.04 448.014 419.618 447.564C418.268 447.132 417.08 447.06 417.08 446.376C417.08 445.854 417.62 445.566 418.268 445.566C419.258 445.566 419.942 446.196 420.158 447.006L422.336 445.782C421.634 444.576 419.978 443.712 418.178 443.712C416.234 443.712 414.596 444.792 414.596 446.502C414.596 448.23 416.306 448.914 417.674 449.274C418.844 449.598 419.852 449.76 419.852 450.48C419.852 451.056 419.348 451.362 418.646 451.362ZM423.882 453H426.438V443.928H423.882V453ZM425.16 440.004C424.332 440.004 423.684 440.598 423.684 441.426C423.684 442.254 424.332 442.848 425.16 442.848C425.988 442.848 426.636 442.254 426.636 441.426C426.636 440.598 425.988 440.004 425.16 440.004ZM430.971 451.596H431.043C431.475 452.388 432.285 453.216 433.653 453.216C435.579 453.216 437.199 451.362 437.199 448.464C437.199 445.566 435.579 443.712 433.653 443.712C432.285 443.712 431.439 444.54 430.989 445.422H430.935C430.935 445.422 431.061 444.324 431.061 443.19V439.968H428.523V453H430.971V451.596ZM430.989 448.464C430.989 446.844 431.637 445.746 432.807 445.746C433.977 445.746 434.625 446.844 434.625 448.464C434.625 450.084 433.977 451.182 432.807 451.182C431.637 451.182 430.989 450.084 430.989 448.464ZM438.823 453H441.379V443.928H438.823V453ZM440.101 440.004C439.273 440.004 438.625 440.598 438.625 441.426C438.625 442.254 439.273 442.848 440.101 442.848C440.929 442.848 441.577 442.254 441.577 441.426C441.577 440.598 440.929 440.004 440.101 440.004ZM443.464 453H446.02V439.968H443.464V453ZM448.105 453H450.661V443.928H448.105V453ZM449.383 440.004C448.555 440.004 447.907 440.598 447.907 441.426C447.907 442.254 448.555 442.848 449.383 442.848C450.211 442.848 450.859 442.254 450.859 441.426C450.859 440.598 450.211 440.004 449.383 440.004ZM457.173 450.588C457.065 450.822 456.849 451.164 456.471 451.164C456.057 451.164 455.841 450.93 455.841 450.228V445.872H457.893V443.928H455.841V440.688L453.321 442.092V443.928H451.863V445.872H453.321V450.48C453.321 452.406 454.347 453.216 455.931 453.216C456.975 453.216 457.821 452.712 458.127 452.424L457.173 450.588ZM462.97 450.138C462.97 450.138 462.592 448.59 462.268 447.51L461.206 443.928H458.47L461.764 452.982L461.728 453.126C461.368 454.26 460.396 454.818 459.298 455.088L461.35 456.744C462.952 456.204 463.708 454.836 464.194 453.342L467.308 443.928H464.68L463.654 447.6C463.348 448.716 463.024 450.138 463.024 450.138H462.97ZM370.909 478.588C370.801 478.822 370.585 479.164 370.207 479.164C369.793 479.164 369.577 478.93 369.577 478.228V473.872H371.629V471.928H369.577V468.688L367.057 470.092V471.928H365.599V473.872H367.057V478.48C367.057 480.406 368.083 481.216 369.667 481.216C370.711 481.216 371.557 480.712 371.863 480.424L370.909 478.588ZM380.726 477.148C380.726 477.148 380.852 476.644 380.852 475.906C380.852 473.44 379.232 471.712 376.802 471.712C374.354 471.712 372.464 473.512 372.464 476.464C372.464 479.452 374.318 481.216 376.856 481.216C378.746 481.216 380.114 480.208 380.744 479.056L378.602 477.85C378.458 478.714 377.81 479.344 376.856 479.344C375.794 479.344 374.966 478.624 374.858 477.148H380.726ZM376.802 473.548C377.792 473.548 378.494 474.358 378.494 475.456H374.912C375.11 474.214 375.866 473.548 376.802 473.548ZM386.113 473.656C386.851 473.656 387.409 474.052 387.409 474.646C387.409 475.276 386.707 475.438 385.465 475.708C384.007 475.996 382.135 476.518 382.135 478.552C382.135 480.226 383.395 481.216 384.997 481.216C386.383 481.216 387.211 480.424 387.571 479.866H387.625C387.733 480.298 387.841 480.586 388.129 481H390.037C389.857 480.316 389.821 479.668 389.821 478.714V475.096C389.821 472.828 388.201 471.712 386.149 471.712C384.133 471.712 382.567 472.756 381.865 474.268L384.097 475.456C384.349 474.376 385.069 473.656 386.113 473.656ZM387.481 477.58C387.481 478.696 386.671 479.308 385.771 479.308C384.979 479.308 384.583 478.93 384.583 478.372C384.583 477.652 385.285 477.454 386.059 477.256C386.743 477.076 387.229 476.878 387.481 476.554V477.58ZM391.863 481H394.365V475.546C394.365 474.484 394.923 473.854 395.787 473.854C396.615 473.854 397.047 474.412 397.047 475.456V481H399.549V475.708C399.549 474.556 400.071 473.854 400.971 473.854C401.799 473.854 402.231 474.412 402.231 475.456V481H404.733V475.006C404.733 472.9 403.707 471.712 401.997 471.712C400.575 471.712 399.783 472.504 399.243 473.386H399.189C398.829 472.27 398.037 471.712 396.885 471.712C395.481 471.712 394.743 472.63 394.293 473.422H394.239L394.365 471.928H391.863V481ZM414.647 473.656C415.763 473.656 416.231 474.646 416.231 475.852L418.553 474.664C418.265 473.206 416.897 471.712 414.647 471.712C412.163 471.712 410.327 473.512 410.327 476.464C410.327 479.416 412.163 481.216 414.647 481.216C416.897 481.216 418.265 479.722 418.553 478.264L416.231 477.076C416.231 478.282 415.763 479.272 414.647 479.272C413.423 479.272 412.901 478.084 412.901 476.464C412.901 474.844 413.423 473.656 414.647 473.656ZM428.016 475.186C428.016 472.936 426.918 471.712 425.172 471.712C423.678 471.712 422.904 472.594 422.454 473.422H422.4C422.4 473.422 422.526 472.324 422.526 471.19V467.968H419.988V481H422.526V475.618C422.526 474.574 423.138 473.854 424.092 473.854C425.046 473.854 425.46 474.484 425.46 475.69V481H428.016V475.186ZM437.837 477.148C437.837 477.148 437.963 476.644 437.963 475.906C437.963 473.44 436.343 471.712 433.913 471.712C431.465 471.712 429.575 473.512 429.575 476.464C429.575 479.452 431.429 481.216 433.967 481.216C435.857 481.216 437.225 480.208 437.855 479.056L435.713 477.85C435.569 478.714 434.921 479.344 433.967 479.344C432.905 479.344 432.077 478.624 431.969 477.148H437.837ZM433.913 473.548C434.903 473.548 435.605 474.358 435.605 475.456H432.023C432.221 474.214 432.977 473.548 433.913 473.548ZM443.51 473.656C444.626 473.656 445.094 474.646 445.094 475.852L447.416 474.664C447.128 473.206 445.76 471.712 443.51 471.712C441.026 471.712 439.19 473.512 439.19 476.464C439.19 479.416 441.026 481.216 443.51 481.216C445.76 481.216 447.128 479.722 447.416 478.264L445.094 477.076C445.094 478.282 444.626 479.272 443.51 479.272C442.286 479.272 441.764 478.084 441.764 476.464C441.764 474.844 442.286 473.656 443.51 473.656ZM457.33 471.928H454.36L452.416 474.52C451.912 475.222 451.318 476.212 451.318 476.212H451.264C451.264 476.212 451.39 475.096 451.39 473.98V467.968H448.852V481H451.39V478.894L452.596 477.364L454.828 481H457.6L454.27 475.528L457.33 471.928ZM462.371 479.362C461.165 479.362 460.373 478.624 460.085 477.634L457.871 478.876C458.609 480.316 460.283 481.216 462.407 481.216C464.369 481.216 466.061 480.136 466.061 478.318C466.061 476.662 464.765 476.014 463.343 475.564C461.993 475.132 460.805 475.06 460.805 474.376C460.805 473.854 461.345 473.566 461.993 473.566C462.983 473.566 463.667 474.196 463.883 475.006L466.061 473.782C465.359 472.576 463.703 471.712 461.903 471.712C459.959 471.712 458.321 472.792 458.321 474.502C458.321 476.23 460.031 476.914 461.399 477.274C462.569 477.598 463.577 477.76 463.577 478.48C463.577 479.056 463.073 479.362 462.371 479.362Z" fill="black"/>
<defs>
<clipPath id="clip0_1_82">
<rect x="521.461" y="276" width="84.8528" height="84.8528" rx="5" transform="rotate(-45 521.461 276)" fill="white"/>
</clipPath>
</defs>
</svg>
