<svg fill="none" height="494" viewBox="0 0 915 494" width="915" xmlns="http://www.w3.org/2000/svg"><path d="m0 0h915v494h-915z" fill="#fff"/><path d="m280 140c0 77.32-62.68 140-140 140-77.3199 0-140-62.68-140-140 0-77.3199 62.6801-140 140-140 77.32 0 140 62.6801 140 140z" fill="#f5a3c7"/><path d="m510 192c0 77.32-62.68 140-140 140s-140-62.68-140-140 62.68-140 140-140 140 62.68 140 140z" fill="#9fc9eb"/><path d="m374 354c0 77.32-62.68 140-140 140s-140-62.68-140-140 62.68-140 140-140 140 62.68 140 140z" fill="#ffe977"/><g fill="#000"><path d="m77.26 91.16v13.84h5.2c3.96 0 6.74-2.6 6.74-6.96s-2.78-6.88-6.74-6.88zm8.94 6.88c0 2.42-1.08 4.42-3.42 4.42h-2.58v-8.76h2.58c2.34 0 3.42 1.98 3.42 4.34z"/><path d="m99.8044 100.72s.14-.56.14-1.38c0-2.74-1.8-4.66-4.5-4.66-2.72 0-4.82 2-4.82 5.28 0 3.32 2.06 5.28 4.88 5.28 2.1 0 3.62-1.12 4.32-2.4l-2.38-1.34c-.16.96-.88 1.66-1.94 1.66-1.18 0-2.1-.8-2.22-2.44zm-4.36-4c1.1 0 1.88.9 1.88 2.12h-3.98c.22-1.38 1.06-2.12 2.1-2.12z"/><path d="m105.971 103.18c-1.34 0-2.22-.82-2.54-1.92l-2.46 1.38c.82 1.6 2.68 2.6 5.04 2.6 2.18 0 4.06-1.2 4.06-3.22 0-1.84-1.44-2.56-3.02-3.06-1.5-.48-2.82-.56-2.82-1.32 0-.58.6-.9 1.32-.9 1.1 0 1.86.7 2.1 1.6l2.42-1.36c-.78-1.34-2.62-2.3-4.62-2.3-2.16 0-3.98 1.2-3.98 3.1 0 1.92 1.9 2.68 3.42 3.08 1.3.36 2.42.54 2.42 1.34 0 .64-.56.98-1.34.98z"/><path d="m111.789 105h2.84v-10.08h-2.84zm1.42-14.44c-.92 0-1.64.66-1.64 1.58s.72 1.58 1.64 1.58 1.64-.66 1.64-1.58-.72-1.58-1.64-1.58z"/><path d="m116.725 98.02c0 1.56.92 2.44 2.02 2.88v.06c-1.18.24-2.34.86-2.34 2 0 .86.68 1.36 1.44 1.6v.06c-1.02.18-2.12.82-2.12 1.9 0 1.78 2.52 2.56 5.28 2.56 2.98 0 5.62-.94 5.62-3.3 0-1.96-1.44-2.84-3.62-2.84-1.1 0-2.04.16-2.9.16-.84 0-1.2-.18-1.2-.6 0-.54.94-.88 2.04-.88 2.38 0 4.3-1.26 4.3-3.26 0-1.16-.68-1.88-1.24-2.32v-.08c.18.06.54.12.8.12 1.14 0 1.74-.62 1.78-1.94l-2.58-1.48c.04.24.1.6.1.96 0 .76-.32 1.24-1.16 1.24-.68 0-1.2-.18-2.1-.18-2.38 0-4.12 1.36-4.12 3.34zm1.42 8.22c0-.94 2.36-1.04 3.58-1.04 1.2 0 2.18.22 2.18.88 0 .84-1.08 1.2-2.94 1.2-1.64 0-2.82-.32-2.82-1.04zm1.14-8.08c0-.96.76-1.58 1.72-1.58s1.72.62 1.72 1.58-.76 1.58-1.72 1.58-1.72-.62-1.72-1.58z"/><path d="m136.607 98.54c0-2.5-1.22-3.86-3.16-3.86-1.66 0-2.52.98-3.02 1.9h-.06l.14-1.66h-2.82v10.08h2.82v-5.98c0-1.16.68-1.96 1.74-1.96s1.52.7 1.52 2.04v5.9h2.84z"/><path d="m149.467 94.92h-1.84l-1.2 4.16c-.44 1.5-1.06 3.98-1.06 4h-.04s-.5-2.48-.82-4l-.88-4.16h-1.76l2.4 10.08h1.98l1.28-4.64c.42-1.5.98-3.64.98-3.64h.04s.56 2.14.98 3.64l1.28 4.64h1.94l2.4-10.08h-1.68l-.88 4.16c-.32 1.52-.82 4-.82 4h-.04s-.62-2.5-1.06-4z"/><path d="m157.065 105h1.68v-10.08h-1.68zm.84-14.08c-.68 0-1.16.48-1.16 1.16s.48 1.16 1.16 1.16 1.16-.48 1.16-1.16-.48-1.16-1.16-1.16z"/><path d="m165.936 102.84c-.16.4-.52.96-1.08.96-.6 0-.88-.34-.88-1.3v-6.14h2.6v-1.44h-2.6v-3.36l-1.64 1.04v2.32h-1.84v1.44h1.84v6.28c0 2.04 1.06 2.6 2.34 2.6 1.04 0 1.8-.54 2.16-1.02z"/><path d="m176.67 98.68c0-2.64-1.36-4-3.44-4-1.76 0-2.72 1.12-3.12 2h-.04s.12-1.28.12-2.48v-3.68h-1.68v14.48h1.68v-5.96c0-1.54 1-2.84 2.56-2.84 1.44 0 2.24.8 2.24 2.8v6h1.68z"/><path d="m188.397 102.84c-.16.4-.52.96-1.08.96-.6 0-.88-.34-.88-1.3v-6.14h2.6v-1.44h-2.6v-3.36l-1.64 1.04v2.32h-1.84v1.44h1.84v6.28c0 2.04 1.06 2.6 2.34 2.6 1.04 0 1.8-.54 2.16-1.02z"/><path d="m199.131 98.68c0-2.64-1.36-4-3.44-4-1.76 0-2.72 1.12-3.12 2h-.04s.12-1.28.12-2.48v-3.68h-1.68v14.48h1.68v-5.96c0-1.54 1-2.84 2.56-2.84 1.44 0 2.24.8 2.24 2.8v6h1.68z"/><path d="m210.048 100.36s.12-.48.12-1.12c0-2.64-1.6-4.56-4.24-4.56-2.72 0-4.56 2.24-4.56 5.28 0 3.12 1.72 5.28 4.6 5.28 2.08 0 3.58-1.34 4.14-2.78l-1.58-.94c-.22 1.24-1.12 2.28-2.56 2.28-1.82 0-2.86-1.52-2.98-3.44zm-4.12-4.28c1.68 0 2.58 1.4 2.58 2.92h-5.46c.26-1.64 1.24-2.92 2.88-2.92z"/><path d="m77.6 135h1.76v-6.24h6.48v-1.6h-6.48v-4.4h6.8v-1.6h-8.56z"/><path d="m92.3189 135.24c2.8 0 4.56-2.24 4.56-5.28s-1.76-5.28-4.56-5.28-4.56 2.24-4.56 5.28 1.76 5.28 4.56 5.28zm-2.88-5.28c0-2.08.96-3.84 2.88-3.84s2.88 1.76 2.88 3.84-.96 3.84-2.88 3.84-2.88-1.76-2.88-3.84z"/><path d="m99.1178 131.24c0 2.64 1.2802 4 3.3602 4 1.76 0 2.64-1.12 3.04-2h.04l-.12 1.76h1.68v-10.08h-1.68v5.96c0 1.56-.92 2.84-2.48 2.84-1.44 0-2.16-.8-2.16-2.8v-6h-1.6802z"/><path d="m118.159 128.68c0-2.64-1.36-4-3.44-4-1.76 0-2.72 1.12-3.12 2h-.04l.12-1.76h-1.68v10.08h1.68v-5.96c0-1.54 1-2.84 2.56-2.84 1.44 0 2.24.8 2.24 2.8v6h1.68z"/><path d="m127.876 133.24-.12 1.76h1.68v-14.48h-1.68v5.92h-.04c-.36-.64-1.32-1.76-3.08-1.76-2.32 0-4.24 2.16-4.24 5.28s1.92 5.28 4.24 5.28c1.76 0 2.8-1.12 3.2-2zm-2.92.56c-1.92 0-2.88-1.76-2.88-3.84s.96-3.84 2.88-3.84 2.88 1.76 2.88 3.84-.96 3.84-2.88 3.84z"/><path d="m136.123 126.12c1.2 0 2.12.7 2.12 1.74 0 .86-.86 1.04-2.38 1.36-1.76.36-3.84.9-3.84 3.06 0 1.9 1.34 2.96 3.2 2.96 1.6 0 2.62-.88 3.1-1.6h.04c.06.48.12.8.44 1.36h1.36c-.14-.56-.24-1.04-.24-2.16v-4.62c0-2.5-1.72-3.54-3.8-3.54-2.16 0-3.82 1.36-4.32 3.14l1.56.94c.24-1.44 1.08-2.64 2.76-2.64zm2.2 4.96c0 1.68-1.34 2.72-2.78 2.72-1.22 0-1.84-.64-1.84-1.52 0-1.2 1.32-1.48 2.52-1.74 1.04-.24 1.78-.5 2.1-.98z"/><path d="m146.643 132.84c-.16.4-.52.96-1.08.96-.6 0-.88-.34-.88-1.3v-6.14h2.6v-1.44h-2.6v-3.36l-1.64 1.04v2.32h-1.84v1.44h1.84v6.28c0 2.04 1.06 2.6 2.34 2.6 1.04 0 1.8-.54 2.16-1.02z"/><path d="m149.217 135h1.68v-10.08h-1.68zm.84-14.08c-.68 0-1.16.48-1.16 1.16s.48 1.16 1.16 1.16 1.16-.48 1.16-1.16-.48-1.16-1.16-1.16z"/><path d="m157.768 135.24c2.8 0 4.56-2.24 4.56-5.28s-1.76-5.28-4.56-5.28-4.56 2.24-4.56 5.28 1.76 5.28 4.56 5.28zm-2.88-5.28c0-2.08.96-3.84 2.88-3.84s2.88 1.76 2.88 3.84-.96 3.84-2.88 3.84-2.88-1.76-2.88-3.84z"/><path d="m172.807 128.68c0-2.64-1.36-4-3.44-4-1.76 0-2.72 1.12-3.12 2h-.04l.12-1.76h-1.68v10.08h1.68v-5.96c0-1.54 1-2.84 2.56-2.84 1.44 0 2.24.8 2.24 2.8v6h1.68z"/><path d="m179.664 133.88c-1.92 0-2.92-1.34-3.08-2.7l-1.6.96c.58 1.88 2.2 3.1 4.76 3.1 1.84 0 3.54-1.12 3.54-2.96 0-1.88-1.46-2.52-3.14-3.06-1.44-.46-3.1-.62-3.1-1.76 0-.96.94-1.42 1.9-1.42 1.54 0 2.52 1.1 2.72 2.22l1.56-.94c-.64-1.58-2.36-2.64-4.36-2.64-1.76 0-3.44 1.08-3.44 2.84 0 1.92 1.96 2.56 3.48 2.98 1.42.4 2.76.66 2.76 1.84 0 1.04-.96 1.54-2 1.54z"/><path d="m81.24 156.12c1.2 0 2.12.7 2.12 1.74 0 .86-.86 1.04-2.38 1.36-1.76.36-3.84.9-3.84 3.06 0 1.9 1.34 2.96 3.2 2.96 1.6 0 2.62-.88 3.1-1.6h.04c.06.48.12.8.44 1.36h1.36c-.14-.56-.24-1.04-.24-2.16v-4.62c0-2.5-1.72-3.54-3.8-3.54-2.16 0-3.82 1.36-4.32 3.14l1.56.94c.24-1.44 1.08-2.64 2.76-2.64zm2.2 4.96c0 1.68-1.34 2.72-2.78 2.72-1.22 0-1.84-.64-1.84-1.52 0-1.2 1.32-1.48 2.52-1.74 1.04-.24 1.78-.5 2.1-.98z"/><path d="m95.9906 158.68c0-2.64-1.36-4-3.44-4-1.76 0-2.72 1.12-3.12 2h-.04l.12-1.76h-1.68v10.08h1.68v-5.96c0-1.54 1-2.84 2.56-2.84 1.44 0 2.24.8 2.24 2.8v6h1.68z"/><path d="m105.708 163.24-.12 1.76h1.68v-14.48h-1.68v5.92h-.04c-.36-.64-1.32-1.76-3.08-1.76-2.32 0-4.2403 2.16-4.2403 5.28s1.9203 5.28 4.2403 5.28c1.76 0 2.8-1.12 3.2-2zm-2.92.56c-1.92 0-2.8803-1.76-2.8803-3.84s.9603-3.84 2.8803-3.84 2.88 1.76 2.88 3.84-.96 3.84-2.88 3.84z"/><path d="m120.004 165.24c3.28 0 5.26-1.98 5.26-5.9v-8.18h-1.76v8.26c0 2.8-1.26 4.22-3.5 4.22s-3.48-1.42-3.48-4.22v-8.26h-1.76v8.18c0 3.92 1.96 5.9 5.24 5.9z"/><path d="m128.303 165h1.8v-13.84h-1.8z"/><path d="m145.833 154.92h-2.021l-3 3.56c-.679.82-1.46 1.9-1.46 1.9h-.04s.12-1.3.12-2.5v-7.36h-1.679v14.48h1.679v-2.62l1.88-2.24 3.14 4.86h1.92l-3.979-6.08z"/><path d="m147.733 165h1.68v-10.08h-1.68zm.84-14.08c-.68 0-1.16.48-1.16 1.16s.48 1.16 1.16 1.16 1.16-.48 1.16-1.16-.48-1.16-1.16-1.16z"/><path d="m156.604 162.84c-.16.4-.52.96-1.08.96-.6 0-.88-.34-.88-1.3v-6.14h2.6v-1.44h-2.6v-3.36l-1.64 1.04v2.32h-1.84v1.44h1.84v6.28c0 2.04 1.06 2.6 2.34 2.6 1.04 0 1.8-.54 2.16-1.02z"/><path d="m311.26 141.502v13.84h5.2c3.96 0 6.74-2.6 6.74-6.96s-2.78-6.88-6.74-6.88zm8.94 6.88c0 2.42-1.08 4.42-3.42 4.42h-2.58v-8.76h2.58c2.34 0 3.42 1.98 3.42 4.34z"/><path d="m333.804 151.062s.14-.56.14-1.38c0-2.74-1.8-4.66-4.5-4.66-2.72 0-4.82 2-4.82 5.28 0 3.32 2.06 5.28 4.88 5.28 2.1 0 3.62-1.12 4.32-2.4l-2.38-1.34c-.16.96-.88 1.66-1.94 1.66-1.18 0-2.1-.8-2.22-2.44zm-4.36-4c1.1 0 1.88.9 1.88 2.12h-3.98c.22-1.38 1.06-2.12 2.1-2.12z"/><path d="m338.693 149.662-1.22-4.4h-2.98l3.24 10.08h3.38l3.24-10.08h-2.9l-1.22 4.4c-.34 1.26-.74 3.02-.74 3.02h-.06s-.4-1.76-.74-3.02z"/><path d="m353.941 151.062s.14-.56.14-1.38c0-2.74-1.8-4.66-4.5-4.66-2.72 0-4.82 2-4.82 5.28 0 3.32 2.06 5.28 4.88 5.28 2.1 0 3.62-1.12 4.32-2.4l-2.38-1.34c-.16.96-.88 1.66-1.94 1.66-1.18 0-2.1-.8-2.22-2.44zm-4.36-4c1.1 0 1.88.9 1.88 2.12h-3.98c.22-1.38 1.06-2.12 2.1-2.12z"/><path d="m355.848 155.342h2.84v-14.48h-2.84z"/><path d="m365.364 155.582c2.74 0 4.86-2 4.86-5.28s-2.12-5.28-4.86-5.28c-2.76 0-4.88 2-4.88 5.28s2.12 5.28 4.88 5.28zm-2.02-5.28c0-1.8.62-3.12 2.02-3.12 1.38 0 2 1.32 2 3.12s-.62 3.12-2 3.12c-1.4 0-2.02-1.32-2.02-3.12z"/><path d="m374.719 146.922.12-1.66h-2.82v14h2.82v-5.34h.04c.46.74 1.32 1.66 2.84 1.66 2.14 0 3.94-2.06 3.94-5.28s-1.8-5.28-3.94-5.28c-1.52 0-2.46.92-2.96 1.9zm.04 3.38c0-1.8.72-3.02 2.02-3.02s2.02 1.22 2.02 3.02-.72 3.02-2.02 3.02-2.02-1.22-2.02-3.02z"/><path d="m394.072 145.262h-1.84l-1.2 4.16c-.44 1.5-1.06 3.98-1.06 4h-.04s-.5-2.48-.82-4l-.88-4.16h-1.76l2.4 10.08h1.98l1.28-4.64c.42-1.5.98-3.64.98-3.64h.04s.56 2.14.98 3.64l1.28 4.64h1.94l2.4-10.08h-1.68l-.88 4.16c-.32 1.52-.82 4-.82 4h-.04s-.62-2.5-1.06-4z"/><path d="m401.67 155.342h1.68v-10.08h-1.68zm.84-14.08c-.68 0-1.16.48-1.16 1.16s.48 1.16 1.16 1.16 1.16-.48 1.16-1.16-.48-1.16-1.16-1.16z"/><path d="m410.541 153.182c-.16.4-.52.96-1.08.96-.6 0-.88-.34-.88-1.3v-6.14h2.6v-1.44h-2.6v-3.36l-1.64 1.04v2.32h-1.84v1.44h1.84v6.28c0 2.04 1.06 2.6 2.34 2.6 1.04 0 1.8-.54 2.16-1.02z"/><path d="m421.276 149.022c0-2.64-1.36-4-3.44-4-1.76 0-2.72 1.12-3.12 2h-.04s.12-1.28.12-2.48v-3.68h-1.68v14.48h1.68v-5.96c0-1.54 1-2.84 2.56-2.84 1.44 0 2.24.8 2.24 2.8v6h1.68z"/><path d="m433.002 153.182c-.16.4-.52.96-1.08.96-.6 0-.88-.34-.88-1.3v-6.14h2.6v-1.44h-2.6v-3.36l-1.64 1.04v2.32h-1.84v1.44h1.84v6.28c0 2.04 1.06 2.6 2.34 2.6 1.04 0 1.8-.54 2.16-1.02z"/><path d="m443.737 149.022c0-2.64-1.36-4-3.44-4-1.76 0-2.72 1.12-3.12 2h-.04s.12-1.28.12-2.48v-3.68h-1.68v14.48h1.68v-5.96c0-1.54 1-2.84 2.56-2.84 1.44 0 2.24.8 2.24 2.8v6h1.68z"/><path d="m454.654 150.702s.12-.48.12-1.12c0-2.64-1.6-4.56-4.24-4.56-2.72 0-4.56 2.24-4.56 5.28 0 3.12 1.72 5.28 4.6 5.28 2.08 0 3.58-1.34 4.14-2.78l-1.58-.94c-.22 1.24-1.12 2.28-2.56 2.28-1.82 0-2.86-1.52-2.98-3.44zm-4.12-4.28c1.68 0 2.58 1.4 2.58 2.92h-5.46c.26-1.64 1.24-2.92 2.88-2.92z"/><path d="m317.04 185.582c3.2 0 5.28-2.4 5.52-4.64l-1.68-1.04c-.16 2.24-1.36 4.08-3.84 4.08-2.82 0-4.28-2.48-4.28-5.6s1.46-5.52 4.28-5.52c2.48 0 3.68 1.76 3.84 4l1.68-1.04c-.24-2.24-2.32-4.56-5.52-4.56-3.36 0-6.08 2.66-6.08 7.12 0 4.48 2.72 7.2 6.08 7.2z"/><path d="m328.956 185.582c2.8 0 4.56-2.24 4.56-5.28s-1.76-5.28-4.56-5.28-4.56 2.24-4.56 5.28 1.76 5.28 4.56 5.28zm-2.88-5.28c0-2.08.96-3.84 2.88-3.84s2.88 1.76 2.88 3.84-.96 3.84-2.88 3.84-2.88-1.76-2.88-3.84z"/><path d="m335.835 185.342h1.68v-5.96c0-1.7.92-2.84 2.32-2.84 1.24 0 2 .76 2 2.5v6.3h1.68v-5.84c0-1.76.88-2.96 2.32-2.96 1.28 0 2 .8 2 2.64v6.16h1.68v-6.56c0-2.4-1.28-3.76-3.28-3.76-1.76 0-2.68 1.12-3.08 2h-.04c-.44-1.32-1.4-2-2.8-2-1.6 0-2.48 1.12-2.88 2h-.04l.12-1.76h-1.68z"/><path d="m353.879 177.022.12-1.76h-1.68v14h1.68v-5.44h.04c.36.64 1.32 1.76 3.08 1.76 2.32 0 4.24-2.16 4.24-5.28s-1.92-5.28-4.24-5.28c-1.76 0-2.8 1.12-3.2 2zm.04 3.28c0-2.08.96-3.84 2.88-3.84s2.88 1.76 2.88 3.84-.96 3.84-2.88 3.84-2.88-1.76-2.88-3.84z"/><path d="m367.764 185.582c2.8 0 4.56-2.24 4.56-5.28s-1.76-5.28-4.56-5.28-4.56 2.24-4.56 5.28 1.76 5.28 4.56 5.28zm-2.88-5.28c0-2.08.96-3.84 2.88-3.84s2.88 1.76 2.88 3.84-.96 3.84-2.88 3.84-2.88-1.76-2.88-3.84z"/><path d="m382.803 179.022c0-2.64-1.36-4-3.44-4-1.76 0-2.72 1.12-3.12 2h-.04l.12-1.76h-1.68v10.08h1.68v-5.96c0-1.54 1-2.84 2.56-2.84 1.44 0 2.24.8 2.24 2.8v6h1.68z"/><path d="m393.72 180.702s.12-.48.12-1.12c0-2.64-1.6-4.56-4.24-4.56-2.72 0-4.56 2.24-4.56 5.28 0 3.12 1.72 5.28 4.6 5.28 2.08 0 3.58-1.34 4.14-2.78l-1.58-.94c-.22 1.24-1.12 2.28-2.56 2.28-1.82 0-2.86-1.52-2.98-3.44zm-4.12-4.28c1.68 0 2.58 1.4 2.58 2.92h-5.46c.26-1.64 1.24-2.92 2.88-2.92z"/><path d="m404.248 179.022c0-2.64-1.36-4-3.44-4-1.76 0-2.72 1.12-3.12 2h-.04l.12-1.76h-1.68v10.08h1.68v-5.96c0-1.54 1-2.84 2.56-2.84 1.44 0 2.24.8 2.24 2.8v6h1.68z"/><path d="m410.975 183.182c-.16.4-.52.96-1.08.96-.6 0-.88-.34-.88-1.3v-6.14h2.6v-1.44h-2.6v-3.36l-1.64 1.04v2.32h-1.84v1.44h1.84v6.28c0 2.04 1.06 2.6 2.34 2.6 1.04 0 1.8-.54 2.16-1.02z"/><path d="m417.609 184.222c-1.92 0-2.92-1.34-3.08-2.7l-1.6.96c.58 1.88 2.2 3.1 4.76 3.1 1.84 0 3.54-1.12 3.54-2.96 0-1.88-1.46-2.52-3.14-3.06-1.44-.46-3.1-.62-3.1-1.76 0-.96.94-1.42 1.9-1.42 1.54 0 2.52 1.1 2.72 2.22l1.56-.94c-.64-1.58-2.36-2.64-4.36-2.64-1.76 0-3.44 1.08-3.44 2.84 0 1.92 1.96 2.56 3.48 2.98 1.42.4 2.76.66 2.76 1.84 0 1.04-.96 1.54-2 1.54z"/><path d="m315.24 206.462c1.2 0 2.12.7 2.12 1.74 0 .86-.86 1.04-2.38 1.36-1.76.36-3.84.9-3.84 3.06 0 1.9 1.34 2.96 3.2 2.96 1.6 0 2.62-.88 3.1-1.6h.04c.06.48.12.8.44 1.36h1.36c-.14-.56-.24-1.04-.24-2.16v-4.62c0-2.5-1.72-3.54-3.8-3.54-2.16 0-3.82 1.36-4.32 3.14l1.56.94c.24-1.44 1.08-2.64 2.76-2.64zm2.2 4.96c0 1.68-1.34 2.72-2.78 2.72-1.22 0-1.84-.64-1.84-1.52 0-1.2 1.32-1.48 2.52-1.74 1.04-.24 1.78-.5 2.1-.98z"/><path d="m329.991 209.022c0-2.64-1.36-4-3.44-4-1.76 0-2.72 1.12-3.12 2h-.04l.12-1.76h-1.68v10.08h1.68v-5.96c0-1.54 1-2.84 2.56-2.84 1.44 0 2.24.8 2.24 2.8v6h1.68z"/><path d="m339.708 213.582-.12 1.76h1.68v-14.48h-1.68v5.92h-.04c-.36-.64-1.32-1.76-3.08-1.76-2.32 0-4.24 2.16-4.24 5.28s1.92 5.28 4.24 5.28c1.76 0 2.8-1.12 3.2-2zm-2.92.56c-1.92 0-2.88-1.76-2.88-3.84s.96-3.84 2.88-3.84 2.88 1.76 2.88 3.84-.96 3.84-2.88 3.84z"/><path d="m348.924 215.342h1.76v-5.76h3.68c3.04 0 4.84-1.52 4.84-4.08s-1.8-4-4.84-4h-5.44zm8.48-9.84c0 1.68-1.04 2.48-2.8 2.48h-3.92v-4.88h3.92c1.76 0 2.8.72 2.8 2.4z"/><path d="m364.927 206.462c1.2 0 2.12.7 2.12 1.74 0 .86-.859 1.04-2.379 1.36-1.76.36-3.84.9-3.84 3.06 0 1.9 1.339 2.96 3.199 2.96 1.6 0 2.621-.88 3.101-1.6h.04c.06.48.12.8.44 1.36h1.359c-.14-.56-.239-1.04-.239-2.16v-4.62c0-2.5-1.721-3.54-3.801-3.54-2.16 0-3.819 1.36-4.319 3.14l1.56.94c.24-1.44 1.079-2.64 2.759-2.64zm2.201 4.96c0 1.68-1.34 2.72-2.78 2.72-1.22 0-1.84-.64-1.84-1.52 0-1.2 1.319-1.48 2.519-1.74 1.04-.24 1.781-.5 2.101-.98z"/><path d="m375.448 213.182c-.16.4-.521.96-1.081.96-.6 0-.88-.34-.88-1.3v-6.14h2.6v-1.44h-2.6v-3.36l-1.639 1.04v2.32h-1.84v1.44h1.84v6.28c0 2.04 1.06 2.6 2.34 2.6 1.039 0 1.8-.54 2.16-1.02z"/><path d="m382.342 213.182c-.16.4-.52.96-1.08.96-.6 0-.88-.34-.88-1.3v-6.14h2.6v-1.44h-2.6v-3.36l-1.64 1.04v2.32h-1.84v1.44h1.84v6.28c0 2.04 1.06 2.6 2.34 2.6 1.04 0 1.8-.54 2.16-1.02z"/><path d="m392.958 210.702s.12-.48.12-1.12c0-2.64-1.6-4.56-4.24-4.56-2.72 0-4.56 2.24-4.56 5.28 0 3.12 1.72 5.28 4.6 5.28 2.08 0 3.58-1.34 4.14-2.78l-1.58-.94c-.22 1.24-1.12 2.28-2.56 2.28-1.82 0-2.86-1.52-2.98-3.44zm-4.12-4.28c1.68 0 2.58 1.4 2.58 2.92h-5.46c.26-1.64 1.24-2.92 2.88-2.92z"/><path d="m395.327 215.342h1.68v-5.76c0-1.58.56-2.96 1.88-2.96.88 0 1.28.7 1.28 1.58 0 .64-.18 1.5-.18 1.5l1.64-.98s.06-.46.06-1.02c0-1.46-.92-2.6-2.3-2.6-1.2 0-2.06.8-2.46 1.92h-.04l.12-1.76h-1.68z"/><path d="m411.69 209.022c0-2.64-1.36-4-3.44-4-1.76 0-2.72 1.12-3.12 2h-.04l.12-1.76h-1.68v10.08h1.68v-5.96c0-1.54 1-2.84 2.56-2.84 1.44 0 2.24.8 2.24 2.8v6h1.68z"/><path d="m418.547 214.222c-1.92 0-2.92-1.34-3.08-2.7l-1.6.96c.58 1.88 2.2 3.1 4.76 3.1 1.84 0 3.54-1.12 3.54-2.96 0-1.88-1.46-2.52-3.14-3.06-1.44-.46-3.1-.62-3.1-1.76 0-.96.94-1.42 1.9-1.42 1.54 0 2.52 1.1 2.72 2.22l1.56-.94c-.64-1.58-2.36-2.64-4.36-2.64-1.76 0-3.44 1.08-3.44 2.84 0 1.92 1.96 2.56 3.48 2.98 1.42.4 2.76.66 2.76 1.84 0 1.04-.96 1.54-2 1.54z"/><path d="m182.26 330.342h9v-2.62h-6.04v-11.22h-2.96z"/><path d="m201.386 326.062s.14-.56.14-1.38c0-2.74-1.8-4.66-4.5-4.66-2.72 0-4.82 2-4.82 5.28 0 3.32 2.06 5.28 4.88 5.28 2.1 0 3.62-1.12 4.32-2.4l-2.38-1.34c-.16.96-.88 1.66-1.94 1.66-1.18 0-2.1-.8-2.22-2.44zm-4.36-4c1.1 0 1.88.9 1.88 2.12h-3.98c.22-1.38 1.06-2.12 2.1-2.12z"/><path d="m207.373 322.182c.82 0 1.44.44 1.44 1.1 0 .7-.78.88-2.16 1.18-1.62.32-3.7.9-3.7 3.16 0 1.86 1.4 2.96 3.18 2.96 1.54 0 2.46-.88 2.86-1.5h.06c.12.48.24.8.56 1.26h2.12c-.2-.76-.24-1.48-.24-2.54v-4.02c0-2.52-1.8-3.76-4.08-3.76-2.24 0-3.98 1.16-4.76 2.84l2.48 1.32c.28-1.2 1.08-2 2.24-2zm1.52 4.36c0 1.24-.9 1.92-1.9 1.92-.88 0-1.32-.42-1.32-1.04 0-.8.78-1.02 1.64-1.24.76-.2 1.3-.42 1.58-.78z"/><path d="m213.762 330.342h2.82v-5.76c0-1.3.36-2.14 1.24-2.14.7 0 .94.62.94 1.28 0 .68-.12 1.36-.16 1.66l2.54-1.46s.1-.52.1-1.18c0-1.48-.78-2.68-2.2-2.68-1.28 0-2.04.88-2.54 1.86h-.06l.14-1.66h-2.82z"/><path d="m231.588 323.882c0-2.5-1.22-3.86-3.16-3.86-1.66 0-2.52.98-3.02 1.9h-.06l.14-1.66h-2.82v10.08h2.82v-5.98c0-1.16.68-1.96 1.74-1.96s1.52.7 1.52 2.04v5.9h2.84z"/><path d="m241.607 321.462c1.2 0 2.12.7 2.12 1.74 0 .86-.86 1.04-2.38 1.36-1.76.36-3.84.9-3.84 3.06 0 1.9 1.34 2.96 3.2 2.96 1.6 0 2.62-.88 3.1-1.6h.04c.06.48.12.8.44 1.36h1.36c-.14-.56-.24-1.04-.24-2.16v-4.62c0-2.5-1.72-3.54-3.8-3.54-2.16 0-3.82 1.36-4.32 3.14l1.56.94c.24-1.44 1.08-2.64 2.76-2.64zm2.2 4.96c0 1.68-1.34 2.72-2.78 2.72-1.22 0-1.84-.64-1.84-1.52 0-1.2 1.32-1.48 2.52-1.74 1.04-.24 1.78-.5 2.1-.98z"/><path d="m249.878 328.822h.04c.36.64 1.32 1.76 3.08 1.76 2.32 0 4.24-2.16 4.24-5.28s-1.92-5.28-4.24-5.28c-1.76 0-2.8 1.12-3.2 2h-.04s.12-1.28.12-2.48v-3.68h-1.68v14.48h1.68zm-.08-3.52c0-2.08.96-3.84 2.88-3.84s2.88 1.76 2.88 3.84-.96 3.84-2.88 3.84-2.88-1.76-2.88-3.84z"/><path d="m263.643 330.582c2.8 0 4.56-2.24 4.56-5.28s-1.76-5.28-4.56-5.28-4.56 2.24-4.56 5.28 1.76 5.28 4.56 5.28zm-2.88-5.28c0-2.08.96-3.84 2.88-3.84s2.88 1.76 2.88 3.84-.96 3.84-2.88 3.84-2.88-1.76-2.88-3.84z"/><path d="m270.442 326.582c0 2.64 1.28 4 3.36 4 1.76 0 2.64-1.12 3.04-2h.04l-.12 1.76h1.68v-10.08h-1.68v5.96c0 1.56-.92 2.84-2.48 2.84-1.44 0-2.16-.8-2.16-2.8v-6h-1.68z"/><path d="m285.643 328.182c-.16.4-.52.96-1.08.96-.6 0-.88-.34-.88-1.3v-6.14h2.6v-1.44h-2.6v-3.36l-1.64 1.04v2.32h-1.84v1.44h1.84v6.28c0 2.04 1.06 2.6 2.34 2.6 1.04 0 1.8-.54 2.16-1.02z"/><path d="m186.76 358.182c-.16.4-.52.96-1.08.96-.6 0-.88-.34-.88-1.3v-6.14h2.6v-1.44h-2.6v-3.36l-1.64 1.04v2.32h-1.84v1.44h1.84v6.28c0 2.04 1.06 2.6 2.34 2.6 1.04 0 1.8-.54 2.16-1.02z"/><path d="m197.495 354.022c0-2.64-1.36-4-3.44-4-1.76 0-2.72 1.12-3.12 2h-.04s.12-1.28.12-2.48v-3.68h-1.68v14.48h1.68v-5.96c0-1.54 1-2.84 2.56-2.84 1.44 0 2.24.8 2.24 2.8v6h1.68z"/><path d="m208.412 355.702s.12-.48.12-1.12c0-2.64-1.6-4.56-4.24-4.56-2.72 0-4.56 2.24-4.56 5.28 0 3.12 1.72 5.28 4.6 5.28 2.08 0 3.58-1.34 4.14-2.78l-1.58-.94c-.22 1.24-1.12 2.28-2.56 2.28-1.82 0-2.86-1.52-2.98-3.44zm-4.12-4.28c1.68 0 2.58 1.4 2.58 2.92h-5.46c.26-1.64 1.24-2.92 2.88-2.92z"/><path d="m219.449 359.222c-1.92 0-2.92-1.34-3.08-2.7l-1.6.96c.58 1.88 2.2 3.1 4.76 3.1 1.84 0 3.54-1.12 3.54-2.96 0-1.88-1.46-2.52-3.14-3.06-1.44-.46-3.1-.62-3.1-1.76 0-.96.94-1.42 1.9-1.42 1.54 0 2.52 1.1 2.72 2.22l1.56-.94c-.64-1.58-2.36-2.64-4.36-2.64-1.76 0-3.44 1.08-3.44 2.84 0 1.92 1.96 2.56 3.48 2.98 1.42.4 2.76.66 2.76 1.84 0 1.04-.96 1.54-2 1.54z"/><path d="m229.553 358.182c-.16.4-.52.96-1.08.96-.6 0-.88-.34-.88-1.3v-6.14h2.6v-1.44h-2.6v-3.36l-1.64 1.04v2.32h-1.84v1.44h1.84v6.28c0 2.04 1.06 2.6 2.34 2.6 1.04 0 1.8-.54 2.16-1.02z"/><path d="m236.084 351.462c1.2 0 2.12.7 2.12 1.74 0 .86-.86 1.04-2.38 1.36-1.76.36-3.84.9-3.84 3.06 0 1.9 1.34 2.96 3.2 2.96 1.6 0 2.62-.88 3.1-1.6h.04c.06.48.12.8.44 1.36h1.36c-.14-.56-.24-1.04-.24-2.16v-4.62c0-2.5-1.72-3.54-3.8-3.54-2.16 0-3.82 1.36-4.32 3.14l1.56.94c.24-1.44 1.08-2.64 2.76-2.64zm2.2 4.96c0 1.68-1.34 2.72-2.78 2.72-1.22 0-1.84-.64-1.84-1.52 0-1.2 1.32-1.48 2.52-1.74 1.04-.24 1.78-.5 2.1-.98z"/><path d="m250.834 354.022c0-2.64-1.36-4-3.44-4-1.76 0-2.72 1.12-3.12 2h-.04l.12-1.76h-1.68v10.08h1.68v-5.96c0-1.54 1-2.84 2.56-2.84 1.44 0 2.24.8 2.24 2.8v6h1.68z"/><path d="m260.551 358.582-.12 1.76h1.68v-14.48h-1.68v5.92h-.04c-.36-.64-1.32-1.76-3.08-1.76-2.32 0-4.24 2.16-4.24 5.28s1.92 5.28 4.24 5.28c1.76 0 2.8-1.12 3.2-2zm-2.92.56c-1.92 0-2.88-1.76-2.88-3.84s.96-3.84 2.88-3.84 2.88 1.76 2.88 3.84-.96 3.84-2.88 3.84z"/><path d="m268.799 351.462c1.2 0 2.12.7 2.12 1.74 0 .86-.86 1.04-2.38 1.36-1.76.36-3.84.9-3.84 3.06 0 1.9 1.34 2.96 3.2 2.96 1.6 0 2.62-.88 3.1-1.6h.04c.06.48.12.8.44 1.36h1.36c-.14-.56-.24-1.04-.24-2.16v-4.62c0-2.5-1.72-3.54-3.8-3.54-2.16 0-3.82 1.36-4.32 3.14l1.56.94c.24-1.44 1.08-2.64 2.76-2.64zm2.2 4.96c0 1.68-1.34 2.72-2.78 2.72-1.22 0-1.84-.64-1.84-1.52 0-1.2 1.32-1.48 2.52-1.74 1.04-.24 1.78-.5 2.1-.98z"/><path d="m275.389 360.342h1.68v-5.76c0-1.58.56-2.96 1.88-2.96.88 0 1.28.7 1.28 1.58 0 .64-.18 1.5-.18 1.5l1.64-.98s.06-.46.06-1.02c0-1.46-.92-2.6-2.3-2.6-1.2 0-2.06.8-2.46 1.92h-.04l.12-1.76h-1.68z"/><path d="m290.63 358.582-.12 1.76h1.68v-14.48h-1.68v5.92h-.04c-.36-.64-1.32-1.76-3.08-1.76-2.32 0-4.24 2.16-4.24 5.28s1.92 5.28 4.24 5.28c1.76 0 2.8-1.12 3.2-2zm-2.92.56c-1.92 0-2.88-1.76-2.88-3.84s.96-3.84 2.88-3.84 2.88 1.76 2.88 3.84-.96 3.84-2.88 3.84z"/><path d="m299.137 359.222c-1.92 0-2.92-1.34-3.08-2.7l-1.6.96c.58 1.88 2.2 3.1 4.76 3.1 1.84 0 3.54-1.12 3.54-2.96 0-1.88-1.46-2.52-3.14-3.06-1.44-.46-3.1-.62-3.1-1.76 0-.96.94-1.42 1.9-1.42 1.54 0 2.52 1.1 2.72 2.22l1.56-.94c-.64-1.58-2.36-2.64-4.36-2.64-1.76 0-3.44 1.08-3.44 2.84 0 1.92 1.96 2.56 3.48 2.98 1.42.4 2.76.66 2.76 1.84 0 1.04-.96 1.54-2 1.54z"/><path d="m186.24 381.462c1.2 0 2.12.7 2.12 1.74 0 .86-.86 1.04-2.38 1.36-1.76.36-3.84.9-3.84 3.06 0 1.9 1.34 2.96 3.2 2.96 1.6 0 2.62-.88 3.1-1.6h.04c.06.48.12.8.44 1.36h1.36c-.14-.56-.24-1.04-.24-2.16v-4.62c0-2.5-1.72-3.54-3.8-3.54-2.16 0-3.82 1.36-4.32 3.14l1.56.94c.24-1.44 1.08-2.64 2.76-2.64zm2.2 4.96c0 1.68-1.34 2.72-2.78 2.72-1.22 0-1.84-.64-1.84-1.52 0-1.2 1.32-1.48 2.52-1.74 1.04-.24 1.78-.5 2.1-.98z"/><path d="m200.991 384.022c0-2.64-1.36-4-3.44-4-1.76 0-2.72 1.12-3.12 2h-.04l.12-1.76h-1.68v10.08h1.68v-5.96c0-1.54 1-2.84 2.56-2.84 1.44 0 2.24.8 2.24 2.8v6h1.68z"/><path d="m210.708 388.582-.12 1.76h1.68v-14.48h-1.68v5.92h-.04c-.36-.64-1.32-1.76-3.08-1.76-2.32 0-4.24 2.16-4.24 5.28s1.92 5.28 4.24 5.28c1.76 0 2.8-1.12 3.2-2zm-2.92.56c-1.92 0-2.88-1.76-2.88-3.84s.96-3.84 2.88-3.84 2.88 1.76 2.88 3.84-.96 3.84-2.88 3.84z"/><path d="m219.724 383.382c0 1.32.72 2.26 1.84 2.78v.04c-1.12.32-2.12.86-2.12 1.94 0 .88.64 1.3 1.36 1.54v.04c-1.04.22-2.16 1-2.16 2.06 0 1.92 2.48 2.72 4.96 2.72 2.64 0 5.2-.88 5.2-3.28 0-1.84-1.52-2.72-3.36-2.72-1.12 0-2 .16-2.96.16-1.04 0-1.44-.24-1.44-.72 0-.72 1.28-1.2 2.48-1.2 2 0 3.8-1.36 3.8-3.36 0-1.12-.62-1.82-1-2.2v-.04c.24.08.64.16.96.16.96 0 1.52-.48 1.52-1.68l-1.84-1.04c.04.32.08.56.08.88 0 .48-.24.88-1.12.88s-1.44-.32-2.4-.32c-2 0-3.8 1.2-3.8 3.36zm.44 8.28c0-1.4 3-1.64 4.64-1.64 1.28 0 2.4.32 2.4 1.28 0 1.28-1.76 1.84-3.6 1.84-1.76 0-3.44-.48-3.44-1.48zm1.16-8.28c0-1.28 1-2.04 2.2-2.04s2.2.76 2.2 2.04-1 2.04-2.2 2.04-2.2-.76-2.2-2.04z"/><path d="m230.329 386.582c0 2.64 1.28 4 3.36 4 1.76 0 2.64-1.12 3.04-2h.04l-.12 1.76h1.68v-10.08h-1.68v5.96c0 1.56-.92 2.84-2.48 2.84-1.44 0-2.16-.8-2.16-2.8v-6h-1.68z"/><path d="m241.21 390.342h1.68v-10.08h-1.68zm.84-14.08c-.68 0-1.16.48-1.16 1.16s.48 1.16 1.16 1.16 1.16-.48 1.16-1.16-.48-1.16-1.16-1.16z"/><path d="m252.68 388.582-.12 1.76h1.68v-14.48h-1.68v5.92h-.04c-.36-.64-1.32-1.76-3.08-1.76-2.32 0-4.24 2.16-4.24 5.28s1.92 5.28 4.24 5.28c1.76 0 2.8-1.12 3.2-2zm-2.92.56c-1.92 0-2.88-1.76-2.88-3.84s.96-3.84 2.88-3.84 2.88 1.76 2.88 3.84-.96 3.84-2.88 3.84z"/><path d="m265.247 385.702s.12-.48.12-1.12c0-2.64-1.599-4.56-4.239-4.56-2.72 0-4.56 2.24-4.56 5.28 0 3.12 1.72 5.28 4.6 5.28 2.08 0 3.579-1.34 4.139-2.78l-1.579-.94c-.22 1.24-1.12 2.28-2.56 2.28-1.82 0-2.86-1.52-2.98-3.44zm-4.119-4.28c1.68 0 2.579 1.4 2.579 2.92h-5.46c.26-1.64 1.241-2.92 2.881-2.92z"/><path d="m267.616 390.342h1.68v-14.48h-1.68z"/><path d="m272.167 390.342h1.68v-10.08h-1.68zm.84-14.08c-.68 0-1.16.48-1.16 1.16s.48 1.16 1.16 1.16 1.16-.48 1.16-1.16-.48-1.16-1.16-1.16z"/><path d="m284.877 384.022c0-2.64-1.36-4-3.44-4-1.76 0-2.72 1.12-3.12 2h-.04l.12-1.76h-1.68v10.08h1.68v-5.96c0-1.54 1-2.84 2.56-2.84 1.44 0 2.24.8 2.24 2.8v6h1.68z"/><path d="m295.794 385.702s.12-.48.12-1.12c0-2.64-1.6-4.56-4.24-4.56-2.72 0-4.56 2.24-4.56 5.28 0 3.12 1.72 5.28 4.6 5.28 2.08 0 3.58-1.34 4.14-2.78l-1.58-.94c-.22 1.24-1.12 2.28-2.56 2.28-1.82 0-2.86-1.52-2.98-3.44zm-4.12-4.28c1.68 0 2.58 1.4 2.58 2.92h-5.46c.26-1.64 1.24-2.92 2.88-2.92z"/><path d="m302.223 389.222c-1.92 0-2.92-1.34-3.08-2.7l-1.6.96c.58 1.88 2.2 3.1 4.76 3.1 1.84 0 3.54-1.12 3.54-2.96 0-1.88-1.46-2.52-3.14-3.06-1.44-.46-3.1-.62-3.1-1.76 0-.96.94-1.42 1.9-1.42 1.54 0 2.52 1.1 2.72 2.22l1.56-.94c-.64-1.58-2.36-2.64-4.36-2.64-1.76 0-3.44 1.08-3.44 2.84 0 1.92 1.96 2.56 3.48 2.98 1.42.4 2.76.66 2.76 1.84 0 1.04-.96 1.54-2 1.54z"/></g><path d="m765.491 292.725c4.826-4.808 11.243-7.457 18.068-7.457h68.316c15.858 0 28.761-12.761 28.761-28.445v-69.571h-237.405v69.571c0 15.684 12.823 28.445 28.585 28.445h68.492c6.825 0 13.241 2.649 18.067 7.456l3.559 3.548zm108.38-98.709v62.807c0 11.955-9.868 21.681-21.996 21.681h-68.316c-8.065 0-15.679 2.926-21.625 8.276-5.945-5.349-13.561-8.276-21.626-8.276h-68.492c-12.032 0-21.82-9.726-21.82-21.681v-62.807z" fill="#0000bf"/><path d="m695.684 252.19h6.765v-31.846h-6.765v12.61h-12.701v-12.61h-6.765v31.846h6.765v-13.208h12.701zm33.04-9.849h-15.003c.276 3.776 2.392 5.615 5.108 5.615 2.439 0 4.097-1.61 4.464-3.82l5.477 3.084c-1.611 2.946-5.109 5.522-9.941 5.522-6.488 0-11.229-4.509-11.229-12.149 0-7.547 4.832-12.149 11.091-12.149 6.214 0 10.355 4.418 10.355 10.723 0 1.886-.322 3.174-.322 3.174zm-10.033-9.203c-2.393 0-4.327 1.702-4.832 4.878h9.158c0-2.807-1.795-4.878-4.326-4.878zm22.179-14.037h-6.535v26.692c0 2.393.514 4.136 1.542 5.223 1.028 1.091 2.661 1.634 4.902 1.634.766 0 1.548-.084 2.347-.253.797-.169 1.441-.406 1.932-.713l.553-4.372c-.523.185-.975.315-1.358.391-.384.077-.836.115-1.358.115-.859 0-1.219-.214-1.542-.644-.322-.429-.483-1.196-.483-2.302zm21.455 26.647c0-1.842-2.578-2.256-5.568-3.083-3.498-.921-7.87-2.67-7.87-7.088 0-4.372 4.188-7.133 9.158-7.133 4.602 0 8.836 2.208 10.631 5.292l-5.569 3.13c-.552-2.071-2.3-3.682-4.832-3.682-1.657 0-3.037.736-3.037 2.071 0 1.748 3.037 1.933 6.489 3.037 3.636 1.15 6.949 2.808 6.949 7.041 0 4.649-4.327 7.409-9.343 7.409-5.429 0-9.71-2.3-11.597-5.982l5.661-3.175c.736 2.531 2.761 4.418 5.845 4.418 1.795 0 3.083-.783 3.083-2.255zm11.806 6.442h6.535v-23.193h-6.535zm7.042-29.591c0 2.117-1.657 3.636-3.775 3.636-2.117 0-3.773-1.519-3.773-3.636s1.656-3.635 3.773-3.635c2.118 0 3.775 1.518 3.775 3.635zm26.835 14.726c0-5.753-2.807-8.881-7.271-8.881-3.82 0-5.799 2.255-6.949 4.372h-.139l.323-3.819h-6.489v23.193h6.489v-13.759c0-2.67 1.565-4.511 4.004-4.511 2.438 0 3.497 1.612 3.497 4.694v13.576h6.535zm20.411.875 8.515 13.99h-7.088l-5.706-9.296-3.083 3.912v5.384h-6.489v-33.319h6.489v15.371c0 2.854-.323 5.707-.323 5.707h.138s1.518-2.531 2.808-4.326l4.97-6.626h7.593zm12.625 13.99h6.536v-23.193h-6.536zm7.042-29.591c0 2.117-1.657 3.636-3.774 3.636s-3.774-1.519-3.774-3.636 1.657-3.635 3.774-3.635 3.774 1.518 3.774 3.635z" fill="#0000bf"/><path d="m517.951 13.2098c-.472-1.2975-1.907-1.9664-3.204-1.4942-1.298.4722-1.967 1.9068-1.495 3.2043zm75.797 222.8702.855 2.349 4.699-1.71-.855-2.349zm-80.496 222.29c-.472 1.298.197 2.732 1.495 3.204 1.297.473 2.732-.196 3.204-1.494zm85.195-219.45.855-2.349-4.699-1.71-.855 2.349zm-85.195-224.0001 80.496 221.1601 4.699-1.71-80.496-221.1602zm4.699 445.1601 80.496-221.16-4.699-1.71-80.496 221.16z" fill="#0000bf"/></svg>