<?xml version="1.0" encoding="UTF-8"?>
<svg width="111px" height="40px" viewBox="0 0 111 40" version="1.1" xmlns="http://www.w3.org/2000/svg" xmlns:xlink="http://www.w3.org/1999/xlink">
    <title>Logo/RU/02 S (height 40px)/02 White</title>
    <g id="Logo/RU/02-S-(height-40px)/02-White" stroke="none" stroke-width="1" fill="none" fill-rule="evenodd">
        <g id="Logo-colour" fill="#FFFFFF">
            <path d="M111,0 L111,25.5004366 C111,31.2654012 106.262725,35.9554377 100.439986,35.9554377 L63.3562072,35.9554377 C60.8502714,35.9554377 58.4945561,36.9288232 56.7222777,38.6957928 L55.4161673,40 L54.1094108,38.6957928 C52.3377785,36.9288232 49.9817401,35.9554377 47.4761274,35.9554377 L10.495403,35.9554377 C4.70820006,35.9554377 0,31.2654012 0,25.5004366 L0,0 L111,0 Z M108.516032,2.48617534 L2.48364499,2.48617534 L2.48364499,25.5004366 C2.48364499,29.8942535 6.07795224,33.4692624 10.495403,33.4692624 L47.4761274,33.4692624 C50.4372473,33.4692624 53.2336093,34.5448372 55.4161673,36.5110112 C57.5993714,34.5445138 60.3950872,33.4692624 63.3562072,33.4692624 L100.439986,33.4692624 C104.892973,33.4692624 108.516032,29.8942535 108.516032,25.5004366 L108.516032,2.48617534 Z" id="Outline"></path>
            <path d="M26.7583027,15.102351 C29.0393923,15.102351 30.5600111,16.7260615 30.5600111,19.0434305 C30.5600111,19.2767644 30.5466196,19.4852293 30.5288503,19.6591371 L30.5060024,19.8506189 L30.5060024,19.8506189 L30.4714217,20.0675005 L30.4714217,20.0675005 L30.441773,20.2105229 L24.9333663,20.2105229 C25.0348055,21.5978398 25.8117522,22.2740355 26.8086992,22.2740355 C27.6638105,22.2740355 28.256947,21.7345249 28.4265488,20.9795155 L28.447879,20.870226 L30.4588949,22.0036866 C29.8673817,23.0860525 28.583239,24.0332439 26.8086992,24.0332439 C24.4264934,24.0332439 22.6858744,22.3759014 22.6858744,19.5676357 C22.6858744,16.7939721 24.4604142,15.102351 26.7583027,15.102351 Z M55.6956097,15.102351 C57.8080647,15.102351 59.0922074,16.5061605 59.3626042,17.8760146 L57.1829538,18.9926592 C57.1829538,17.8591987 56.7432762,16.9291466 55.6956097,16.9291466 C54.5468269,16.9291466 54.0567529,18.0454678 54.0567529,19.5676357 C54.0567529,21.0901271 54.5468269,22.2067717 55.6956097,22.2067717 C56.7432762,22.2067717 57.1829538,21.2763962 57.1829538,20.1429357 L59.3626042,21.2592569 C59.0922074,22.6294344 57.8080647,24.0332439 55.6956097,24.0332439 C53.3638004,24.0332439 51.6403033,22.3419461 51.6403033,19.5676357 C51.6403033,16.7939721 53.3638004,15.102351 55.6956097,15.102351 Z M40.276206,15.1194903 L40.276206,23.8301588 L38.0119152,23.8301588 L38.0119152,16.84442 L35.8380797,16.84442 L35.8380797,20.0077612 C35.8380797,22.1049057 35.2821025,23.5261779 33.4904408,24.0332439 L31.4125526,22.4431653 C33.0006898,22.1049057 33.5414834,21.5299292 33.5414834,19.7878602 L33.5340532,15.1194903 L40.276206,15.1194903 Z M12.0260365,12.1252789 L14.7800783,12.1252789 L16.2717464,14.9725234 L16.2717464,14.9725234 L16.4341748,15.2953441 L16.4341748,15.2953441 L16.6788491,15.8037339 L16.6788491,15.8037339 L16.9768507,16.4553892 L16.9768507,16.4553892 L17.0275702,16.4553892 L17.4430426,15.6010329 L17.4430426,15.6010329 L17.7660509,14.9703444 L17.7660509,14.9703444 L19.2918611,12.1252789 L21.8772683,12.1252789 L18.7678662,17.7579795 L22.2151836,23.8301588 L19.4776175,23.8301588 L17.7880412,20.7347282 L17.3477821,19.8934851 L17.3477821,19.8934851 L16.9936495,19.1957443 L16.9936495,19.1957443 L16.9429299,19.1957443 L16.4296666,20.2017612 L16.4296666,20.2017612 L16.1488613,20.7347282 L16.1488613,20.7347282 L14.4589619,23.8301588 L11.8060362,23.8301588 L15.1858351,17.8423827 L12.0260365,12.1252789 Z M73.6329021,15.3089933 L73.6329021,18.4982052 L76.7384275,18.4982052 L76.7384275,15.3089933 L79.0263013,15.3089933 L79.0263013,23.8301588 L76.7384275,23.8301588 L76.7384275,20.5300262 L73.6329021,20.5300262 L73.6329021,23.8301588 L71.3443822,23.8301588 L71.3443822,15.3089933 L73.6329021,15.3089933 Z M81.7509452,15.3089933 L84.038819,15.3089933 L84.0382826,17.7625146 L84.0382826,17.7625146 L84.0272597,18.2272853 L84.0272597,18.2272853 L84.0073592,18.6676664 L84.0073592,18.6676664 L83.9648394,19.3234809 L83.9648394,19.3234809 L84.0139437,19.3234809 L84.169379,19.0264906 L84.169379,19.0264906 L84.2968993,18.7938994 L84.2968993,18.7938994 L84.513041,18.4178519 L84.513041,18.4178519 L84.6376281,18.2110698 L84.6376281,18.2110698 L84.7713017,17.9974092 L84.7713017,17.9974092 L84.9126187,17.7810904 L84.9126187,17.7810904 L86.5974127,15.3089933 L89.2177098,15.3089933 L86.5851366,18.7937781 L89.3776219,23.8301588 L86.8432573,23.8301588 L85.1087763,20.6778126 L84.038819,22.143065 L84.038819,23.8301588 L81.7509452,23.8301588 L81.7509452,15.3089933 Z M61.4012413,15.3066003 L63.529526,15.3066003 L63.5289835,19.1888185 L63.5289835,19.1888185 L63.5216221,19.5157585 L63.5216221,19.5157585 L63.5077012,19.8578907 L63.5077012,19.8578907 L63.4770492,20.4030472 L63.4770492,20.4030472 L63.4309943,21.0450474 L63.4800987,21.0450474 L63.7716874,20.253641 L63.7716874,20.253641 L63.9311384,19.8405724 L64.0786871,19.4774947 C64.0944245,19.44017 64.1098452,19.4041507 64.1248513,19.3697367 L64.1685284,19.2716101 L65.989588,15.3066003 L68.9419855,15.3066003 L68.9419855,23.8280891 L66.8259768,23.8280891 L66.8267222,19.9455089 L66.8267222,19.9455089 L66.8322848,19.7302493 L66.8322848,19.7302493 L66.8423864,19.5050527 L66.8423864,19.5050527 L66.8719349,19.0505018 L66.8719349,19.0505018 L66.9236002,18.4544812 L66.9236002,18.4544812 L66.9613367,18.0893186 L66.9119094,18.0893186 L66.5976118,18.8667578 L66.5976118,18.8667578 L66.3325494,19.5013201 L66.3325494,19.5013201 L66.1737292,19.8627559 L64.0961641,23.8280891 L61.4012413,23.8280891 L61.4012413,15.3066003 Z M93.1489632,15.3066003 L93.1489632,19.0869579 C93.1489632,19.2860499 93.1422578,19.5145216 93.1323455,19.7434955 L93.1092816,20.193557 L93.1092816,20.193557 L93.0504315,21.0450474 L93.0995358,21.0450474 L93.4288994,20.1548475 L93.4288994,20.1548475 L93.6009648,19.7147112 L93.6009648,19.7147112 L93.7446087,19.3697367 L93.7446087,19.3697367 L93.7882885,19.2716101 L95.6090252,15.3066003 L98.5614226,15.3066003 L98.5614226,23.8280891 L96.445737,23.8280891 L96.4464806,19.9455089 L96.4464806,19.9455089 L96.4520299,19.7302493 L96.4520299,19.7302493 L96.4621074,19.5050527 L96.4621074,19.5050527 L96.4915854,19.0505018 L96.4915854,19.0505018 L96.5349255,18.5406549 L96.5349255,18.5406549 L96.5807739,18.0893186 L96.5313465,18.0893186 L96.173661,18.9724125 L96.173661,18.9724125 L95.9607946,19.4811094 L95.9607946,19.4811094 L95.8453327,19.74729 L95.8453327,19.74729 L95.7934894,19.8627559 L93.7156012,23.8280891 L91.0206784,23.8280891 L91.0206784,15.3066003 L93.1489632,15.3066003 Z M44.9008964,14.9924652 L44.9008964,18.0646121 L47.1054221,18.0646121 C47.6187561,18.0646121 48.0778169,18.1212043 48.4819584,18.234712 C48.8860999,18.3482198 49.2282149,18.5241406 49.5076573,18.7615044 C49.7874227,18.9991915 50.0009619,19.3005853 50.1485979,19.6653624 C50.2959109,20.0301394 50.3695674,20.4612101 50.3695674,20.9582511 C50.3695674,21.407108 50.30851,21.7903179 50.1867184,22.1094978 C50.0642806,22.4280309 49.9082452,22.6941759 49.7176429,22.9076092 C49.5267175,23.1210426 49.3144705,23.2888788 49.0805789,23.4104712 C48.8466872,23.5320635 48.6176414,23.6239045 48.3940875,23.6859942 C48.1705336,23.748084 47.9631325,23.7872134 47.7725302,23.8033826 L47.5649326,23.818905 L47.5649326,23.818905 L47.4001953,23.8266662 L47.4001953,23.8266662 L42.7422445,23.8276364 L42.7422445,14.9924652 L44.9008964,14.9924652 Z M46.5407224,19.7908353 L44.9008964,19.7908353 L44.9008964,22.1014132 L46.7235714,22.1014132 C46.8915598,22.1014132 47.057933,22.0865375 47.2233371,22.0564628 C47.3887411,22.0270349 47.5386385,21.9704427 47.6733523,21.8863629 C47.8080662,21.8026065 47.9162895,21.6865117 47.9976993,21.5377551 C48.0791091,21.3893219 48.119814,21.1959383 48.119814,20.9582511 C48.119814,20.7260615 48.0778169,20.5339715 47.9938227,20.3829512 C47.9098284,20.2316075 47.7957901,20.1126023 47.6504155,20.0262588 C47.5053639,19.9399153 47.3380215,19.8787957 47.1470961,19.8435469 C47.0041444,19.8173528 46.8546508,19.8007996 46.6987517,19.7941601 L46.5407224,19.7908353 Z M26.7583027,16.827604 C25.9162066,16.827604 25.2292817,17.4025896 25.0100089,18.4777051 L24.9840859,18.6207677 L28.3467629,18.6207677 C28.3467629,17.5888497 27.6877312,16.827604 26.7583027,16.827604 Z" id="Text"></path>
        </g>
    </g>
</svg>
