<?xml version="1.0" encoding="UTF-8"?>
<svg width="167px" height="60px" viewBox="0 0 167 60" version="1.1" xmlns="http://www.w3.org/2000/svg" xmlns:xlink="http://www.w3.org/1999/xlink">
    <title>Logo/RU/01 M (height 60px)/02 White</title>
    <g id="Logo/RU/01-M-(height-60px)/02-White" stroke="none" stroke-width="1" fill="none" fill-rule="evenodd">
        <g id="Logo-colour" fill="#FFFFFF">
            <path d="M167,0 L167,38.2506549 C167,46.8981017 159.872748,53.9331566 151.112411,53.9331566 L95.3196991,53.9331566 C91.5495074,53.9331566 88.0053231,55.3932348 85.3389223,58.0436892 L83.3738733,60 L81.4078523,58.0436892 C78.7424235,55.3932348 75.1977532,53.9331566 71.4280476,53.9331566 L15.7903811,53.9331566 C7.0835082,53.9331566 0,46.8981017 0,38.2506549 L0,0 L167,0 Z M163.262859,3.72926301 L3.73665507,3.72926301 L3.73665507,38.2506549 C3.73665507,44.8413802 9.14430652,50.2038935 15.7903811,50.2038935 L71.4280476,50.2038935 C75.8830658,50.2038935 80.090205,51.8172558 83.3738733,54.7665168 C86.6585137,51.8167707 90.8646808,50.2038935 95.3196991,50.2038935 L151.112411,50.2038935 C157.81195,50.2038935 163.262859,44.8413802 163.262859,38.2506549 L163.262859,3.72926301 Z" id="Outline"></path>
            <path d="M40.2579869,22.6535265 C43.6898965,22.6535265 45.9776743,25.0890923 45.9776743,28.5651457 C45.9776743,28.9151466 45.9575268,29.227844 45.9307927,29.4887056 L45.8964181,29.7759283 L45.8964181,29.7759283 L45.8443912,30.1012508 L45.8443912,30.1012508 L45.7997846,30.3157844 L37.5123619,30.3157844 C37.6649777,32.3967597 38.8338975,33.4110533 40.3338087,33.4110533 C41.6203274,33.4110533 42.5127041,32.6017874 42.7678708,31.4692733 L42.7999622,31.3053391 L45.8255446,33.0055299 C44.9356102,34.6290787 43.0036118,36.0498658 40.3338087,36.0498658 C36.7497694,36.0498658 34.1310002,33.5638521 34.1310002,29.3514536 C34.1310002,25.1909582 36.8008033,22.6535265 40.2579869,22.6535265 Z M83.7942956,22.6535265 C86.9724938,22.6535265 88.9044922,24.7592407 89.3113055,26.8140219 L86.0320115,28.4889888 C86.0320115,26.788798 85.3705147,25.3937199 83.7942956,25.3937199 C82.0659468,25.3937199 81.3286282,27.0682017 81.3286282,29.3514536 C81.3286282,31.6351906 82.0659468,33.3101575 83.7942956,33.3101575 C85.3705147,33.3101575 86.0320115,31.9145943 86.0320115,30.2144035 L89.3113055,31.8888853 C88.9044922,33.9441516 86.9724938,36.0498658 83.7942956,36.0498658 C80.2860781,36.0498658 77.6930689,33.5129192 77.6930689,29.3514536 C77.6930689,25.1909582 80.2860781,22.6535265 83.7942956,22.6535265 Z M60.5957333,22.6792355 L60.5957333,35.7452382 L57.1890976,35.7452382 L57.1890976,25.26663 L53.9185524,25.26663 L53.9185524,30.0116418 C53.9185524,33.1573586 53.0820821,35.2892669 50.386519,36.0498658 L47.2603268,33.6647479 C49.6496864,33.1573586 50.4633129,32.2948938 50.4633129,29.6817903 L50.4521341,22.6792355 L60.5957333,22.6792355 Z M18.093226,18.1879184 L22.2366944,18.1879184 L24.4809158,22.4587851 L24.4809158,22.4587851 L24.72529,22.9430162 L24.72529,22.9430162 L25.0934036,23.7056008 L25.0934036,23.7056008 L25.5417483,24.6830838 L25.5417483,24.6830838 L25.6180561,24.6830838 L26.2431362,23.4015494 L26.2431362,23.4015494 L26.7291036,22.4555167 L26.7291036,22.4555167 L29.0246919,18.1879184 L32.9144487,18.1879184 L28.2363393,26.6369692 L33.4228438,35.7452382 L29.3041633,35.7452382 L26.762188,31.1020923 L26.0998164,29.8402277 L26.0998164,29.8402277 L25.5670222,28.7936164 L25.5670222,28.7936164 L25.4907144,28.7936164 L24.7185073,30.3026418 L24.7185073,30.3026418 L24.2960346,31.1020923 L24.2960346,31.1020923 L21.7535732,35.7452382 L17.7622346,35.7452382 L22.8471573,26.763574 L18.093226,18.1879184 Z M110.781033,22.96349 L110.781033,27.7473078 L115.45331,27.7473078 L115.45331,22.96349 L118.895426,22.96349 L118.895426,35.7452382 L115.45331,35.7452382 L115.45331,30.7950393 L110.781033,30.7950393 L110.781033,35.7452382 L107.337944,35.7452382 L107.337944,22.96349 L110.781033,22.96349 Z M122.994665,22.96349 L126.436782,22.96349 L126.435975,26.6437719 L126.435975,26.6437719 L126.419391,27.340928 L126.419391,27.340928 L126.38945,28.0014996 L126.38945,28.0014996 L126.325479,28.9852214 L126.325479,28.9852214 L126.399357,28.9852214 L126.63321,28.5397359 L126.63321,28.5397359 L126.825065,28.190849 L126.825065,28.190849 L127.150251,27.6267778 L127.150251,27.6267778 L127.337693,27.3166047 L127.337693,27.3166047 L127.538805,26.9961138 L127.538805,26.9961138 L127.751417,26.6716355 L127.751417,26.6716355 L130.286197,22.96349 L134.228446,22.96349 L130.267728,28.1906671 L134.469035,35.7452382 L130.656072,35.7452382 L128.046537,31.0167189 L126.436782,33.2145975 L126.436782,35.7452382 L122.994665,35.7452382 L122.994665,22.96349 Z M92.3784441,22.9599004 L95.5804581,22.9599004 L95.5796418,28.7832278 L95.5796418,28.7832278 L95.5685666,29.2736378 L95.5685666,29.2736378 L95.5476225,29.786836 L95.5476225,29.786836 L95.5015065,30.6045707 L95.5015065,30.6045707 L95.4322167,31.5675711 L95.5060944,31.5675711 L95.9447909,30.3804614 L95.9447909,30.3804614 L96.1846858,29.7608586 L96.4066734,29.2162421 C96.4303504,29.160255 96.4535508,29.106226 96.4761276,29.054605 L96.54184,28.9074152 L99.2816324,22.9599004 L103.723528,22.9599004 L103.723528,35.7421337 L100.539983,35.7421337 L100.541105,29.9182633 L100.541105,29.9182633 L100.549473,29.595374 L100.549473,29.595374 L100.564671,29.2575791 L100.564671,29.2575791 L100.609127,28.5757527 L100.609127,28.5757527 L100.686858,27.6817217 L100.686858,27.6817217 L100.743633,27.1339779 L100.669269,27.1339779 L100.196407,28.3001367 L100.196407,28.3001367 L99.7976193,29.2519801 L99.7976193,29.2519801 L99.5586737,29.7941338 L96.4329676,35.7421337 L92.3784441,35.7421337 L92.3784441,22.9599004 Z M140.143035,22.9599004 L140.143035,28.6304369 C140.143035,28.9290749 140.132946,29.2717823 140.118033,29.6152433 L140.083334,30.2903355 L140.083334,30.2903355 L139.994793,31.5675711 L140.068671,31.5675711 L140.5642,30.2322713 L140.5642,30.2322713 L140.823073,29.5720668 L140.823073,29.5720668 L141.039186,29.054605 L141.039186,29.054605 L141.104903,28.9074152 L143.844209,22.9599004 L148.286104,22.9599004 L148.286104,35.7421337 L145.103046,35.7421337 L145.104164,29.9182633 L145.104164,29.9182633 L145.112513,29.595374 L145.112513,29.595374 L145.127675,29.2575791 L145.127675,29.2575791 L145.172025,28.5757527 L145.172025,28.5757527 L145.23723,27.8109824 L145.23723,27.8109824 L145.306209,27.1339779 L145.231846,27.1339779 L144.693706,28.4586187 L144.693706,28.4586187 L144.373448,29.2216641 L144.373448,29.2216641 L144.199735,29.6209349 L144.199735,29.6209349 L144.121736,29.7941338 L140.995544,35.7421337 L136.941021,35.7421337 L136.941021,22.9599004 L140.143035,22.9599004 Z M67.5536009,22.4886977 L67.5536009,27.0969182 L70.8703197,27.0969182 C71.642633,27.0969182 72.3332921,27.1818064 72.9413248,27.352068 C73.5493575,27.5223297 74.0640711,27.7862109 74.4844934,28.1422566 C74.9054017,28.4987873 75.2266724,28.950878 75.4487915,29.4980435 C75.6704245,30.0452091 75.781241,30.6918152 75.781241,31.4373767 C75.781241,32.110662 75.6893799,32.6854768 75.5061439,33.1642467 C75.3219357,33.6420464 75.0871797,34.0412638 74.8004176,34.3614138 C74.5131696,34.6815639 74.193843,34.9333182 73.841952,35.1157068 C73.490061,35.2980953 73.1454605,35.4358568 72.8091227,35.5289914 C72.4727848,35.6221259 72.1607488,35.6808201 71.8739868,35.7050739 L71.5616553,35.7283575 L71.5616553,35.7283575 L71.3138074,35.7399994 L71.3138074,35.7399994 L64.3058994,35.7414546 L64.3058994,22.4886977 L67.5536009,22.4886977 Z M70.0207264,29.686253 L67.5536009,29.686253 L67.5536009,33.1521198 L70.2958236,33.1521198 C70.548563,33.1521198 70.7988722,33.1298063 71.0477233,33.0846942 C71.2965745,33.0405523 71.5220958,32.9556641 71.7247734,32.8295444 C71.9274509,32.7039097 72.0902734,32.5297675 72.2127548,32.3066326 C72.3352363,32.0839828 72.396477,31.7939074 72.396477,31.4373767 C72.396477,31.0890923 72.3332921,30.8009572 72.2069224,30.5744268 C72.0805527,30.3474113 71.9089815,30.1689034 71.6902647,30.0393882 C71.4720339,29.9098729 71.2202666,29.8181936 70.9330185,29.7653203 C70.717947,29.7260292 70.4930332,29.7011993 70.2584822,29.6912401 L70.0207264,29.686253 Z M40.2579869,25.2414061 C38.9910495,25.2414061 37.9575679,26.1038844 37.6276711,27.7165577 L37.5886698,27.9311516 L42.6478325,27.9311516 C42.6478325,26.3832746 41.6563163,25.2414061 40.2579869,25.2414061 Z" id="Xельсинки--text"></path>
        </g>
    </g>
</svg>
