<svg xmlns="http://www.w3.org/2000/svg" width="360" height="360" fill="none">
  <g clip-path="url(#a)">
    <path fill="#000" d="M48.179 244.371c.292 7.869.64 16.018 4.192 23.052 3.552 7.033 11.255 12.605 18.985 11.101 6.49-1.268 11.268-7.16 13.177-13.483 1.908-6.324 1.448-13.093.988-19.681-.028-.418-.07-.864-.334-1.198-.348-.446-.989-.543-1.546-.599-11.602-1.114-23.344-.738-35.462.808Z"/>
    <path fill="#000" d="M48.903 246.599c.098.641-.083 1.351 0 2.076.084.724.098 1.476.14 2.214.027.376.083.725.18 1.073.098.334 0 .752.196 1.058.014.028 0 .098.014.154.097.877.264 1.769.292 2.632.028 1.003.265 1.964.418 2.939.53 1.532.78 3.134 1.337 4.638.181.46.376.933.46 1.449.07.446.431.877.473 1.365 0 .042.084.111.112.167.083.139.209.279.25.418.307.877.335.863.78 1.49.056.07.042.209.098.307.223.362.432.724.682 1.072.237.293.39.683.752.864.084.041.154.195.223.292.251.307.502.613.766.906.307.334.585.71.99.933.18.097.25.418.361.459.21.098.363.209.516.363.14.153.237.334.39.473.14.112.334.153.473.265.363.264.683.627 1.073.78.418.167.724.445 1.1.627.39.195.752.459 1.156.64.32.126.558.335.836.502.265.181.655.167.864.445 0 0 .041.014.07.028.612.293 1.253.474 1.894.669 1.128.223 2.284.39 3.44.32.334 0 .668-.069.975.028.07.028.195-.042.292-.028.335.028.544-.264.864-.195.292.056.557-.083.836-.139.32-.056.612-.195.919-.293.209-.069.404-.139.53-.306.292.056.556-.181.863-.223.195-.028.473-.139.57-.251.21-.264.516-.334.767-.529.362-.265.794-.46 1.072-.836.126-.153.335-.278.53-.404.167-.111.362-.195.515-.334.293-.237.585-.501.78-.836.167-.292.585-.459.655-.835 0-.042.083-.126.139-.167.292-.223.543-.432.696-.822.126-.307.446-.585.641-.892.223-.334.432-.682.669-.989.153-.195 0-.417.292-.598.153-.098.265-.39.376-.599.126-.223.21-.46.349-.655.724-1.045 1.03-2.284 1.462-3.454.167-.502.195-1.073.501-1.519-.07-.403.168-.821.126-1.197-.028-.237.014-.432.055-.641.223-1.365.404-2.73.474-4.123.042-.905.028-1.825 0-2.744 0-.251-.014-.501.084-.794.07-.209.07-.585-.056-.849a.381.381 0 0 1-.028-.209c.209-.53-.028-1.045-.07-1.546-.055-1.003.042-1.992-.041-2.995-.014-.209.041-.474-.126-.627.112-.167.042-.292-.028-.487-.07-.209-.097-.544-.041-.739.083-.25.028-.487.028-.724 0-.251-.028-.515-.056-.71-.07-.432-.14-.543-.53-.711-.376-.139-.947-.167-1.476-.25-.209-.028-.404-.098-.613-.154-.209-.041-.445.001-.627-.139-.07-.055-.292-.042-.445-.042-.53-.041-1.1-.167-1.588-.097-.474.07-.975-.084-1.435.083-.125.042-.348-.027-.53-.013-.71 0-1.448-.181-2.158 0-.25-.14-.557-.126-.85-.126-.209 0-.46-.083-.64.07a.235.235 0 0 1-.14 0c-.25-.042-.487-.139-.78-.125-.236.013-.431.097-.696.097-.947-.014-1.88-.195-2.841-.125-.265-.112-.558-.098-.85-.098-.516 0-1.003.153-1.546.126-.502-.028-1.045-.056-1.518.041-.822.167-1.644.098-2.466.167-.209.014-.446.084-.64-.055-.042-.028-.279 0-.335.041-.125.098-.292.042-.418.084-.362.112-.752-.223-1.1.056l-1.226.069-1.225.084c-.195 0-.376.056-.571-.028-.14-.056-.446-.042-.572.028-.292.167-.626.139-.933.167l-2.813.265c-.418.028-.822.028-1.24.042-.418.014-.836.153-1.254.069h-.11c-.168.042-.321.098-.488.112-.21.014-.502-.07-.613 0-.223.125-.39.041-.571.055-.516.028-.878-.195-.864-.515 0-.07.056-.153.125-.223.418-.404.432-.39 1.184-.487.947-.14 1.909-.042 2.856-.223.64.111 1.295-.07 1.936-.098.668-.028 1.365.07 2.005-.097.641-.167 1.282-.181 1.937-.223.487-.028.988 0 1.476-.014.515-.014 1.03-.097 1.532-.07.306 0 .64.112.933.028.641-.181 1.31-.083 1.936-.181.878-.125 1.755-.097 2.619-.181.474-.042.933-.097 1.407-.097.209 0 .418 0 .654.055.237.07.585.07.864-.028.125-.041.32-.069.432-.041.431.139.891.083 1.323.083.278 0 .599.14.766.084.279-.098.543-.056.808-.056.181 0 .404-.042.571.084.042.041.223.055.278.028.32-.154.683-.07 1.017-.056.822.014 1.644.056 2.466.097.682.042 1.337-.097 2.02.014.431-.139.89-.028 1.322 0 .335.028.67.112 1.003.167.335.056.669.056 1.017.168.446.139.933.083 1.477.167.278.041.682.055.891.348.028.042.167.111.223.139.237.07.487.293.599.543.125.251.153.502.14.683-.029.585.027 1.017.055 1.532l.07 1.226c0 .292.055.585 0 .891-.042.237.07.543.097.822l.042.85.041.919.028.919c0 .334.028.669.014 1.003 0 .32-.07.627-.083.947-.014.878.139 1.755.041 2.647.112.25 0 .473-.027.724-.042.237-.098.501 0 .738.028.07 0 .195 0 .293 0 .222-.126.39-.07.654.042.181-.056.46-.056.683-.014.236-.125.501 0 .724-.292.39 0 .85-.18 1.254-.056.125-.098.264-.14.403-.028.07-.07.14-.07.209 0 1.156-.46 2.257-.752 3.371-.042.139-.042.279-.07.418 0 .07-.027.139-.055.209-.279.571-.293.571-.432 1.156-.042.153-.111.292-.167.432-.153.376-.334.71-.432 1.142-.111.418-.474.738-.738 1.086-.25.293-.516.585-.71.947-.558.878-1.17 1.742-1.867 2.522-.084.097-.237.208-.25.292-.07.348-.182.613-.586.627-.014 0-.097.083-.097.111-.056.307-.348.502-.585.683-.836.738-1.616 1.574-2.619 2.117-.153.097-.362.237-.473.251-.265 0-.265.222-.46.278-.167.042-.348.223-.501.237-.544.028-1.017.334-1.449.529-.404.195-.822.418-1.226.432-.807.111-1.56.209-2.326.32-.808.014-1.602.056-2.41-.027-.334-.014-.668-.112-.988-.028-.07.028-.21-.028-.307-.056-.237-.07-.473-.167-.71-.209-.237-.056-.487-.07-.724-.111-.195-.028-.376-.098-.6-.084-.166.028-.403-.111-.584-.279a5.357 5.357 0 0 0-1.31-.863 10.953 10.953 0 0 1-1.406-.697c-.195-.111-.363-.222-.613-.264-.223-.042-.502-.265-.683-.446a2.996 2.996 0 0 0-.96-.668c-.126-.056-.251-.154-.377-.251-.738-.557-1.407-1.17-2.061-1.811-.153-.153-.334-.306-.376-.515-.195 0-.335-.209-.46-.348-.181-.237-.32-.502-.501-.725a5.209 5.209 0 0 0-.71-.752c-.251-.209-.377-.599-.683-.808-.056-.042-.07-.195-.126-.278-.236-.321-.362-.752-.724-.961-.028-.014-.07-.098-.083-.126-.056-.501-.404-.822-.669-1.198-.279-.417-.32-.891-.53-1.323-.236-.487-.487-1.003-.626-1.504-.195-.878-.543-1.699-.78-2.549-.237-.878-.474-1.741-.683-2.633-.097-.376-.25-.752-.334-1.128a14.057 14.057 0 0 1-.237-1.295l-.195-1.226c-.027-.195-.111-.404 0-.585.014-.042 0-.153 0-.195-.18-.334-.209-.668-.139-1.044.028-.112-.028-.251-.028-.377 0-.334-.14-.612-.195-.919-.055-.278.028-.613-.167-.863-.028-.028-.042-.168-.028-.223.25-.599-.292-1.212-.055-1.811-.182-.223 0-.474-.042-.641-.056-.264-.112-.515-.126-.78 0-.25-.014-.515-.041-.766-.042-.459 0-.947-.14-1.407-.055-.153-.097-.445.028-.64.028-.042.014-.139 0-.209-.07-.515.056-1.142.293-1.282a.564.564 0 0 1 .473-.027c.07.027.14.25.195.39.098.236.237.473.293.738.055.32.041.654.055 1.072l.042-.014ZM247.496 259.999c1.56-5.502 3.134-11.046 5.697-16.157 2.563-5.112 6.226-9.82 11.143-12.731 1.727-1.017 3.691-1.825 5.683-1.588 2.758.334 4.958 2.66 5.933 5.279.975 2.618.92 5.474.794 8.26-.25 5.39-.766 10.766-1.56 16.101-.696 4.708-1.769 9.708-5.167 13.051-2.869 2.8-7.034 3.984-11.045 3.844-5.057-.181-10.475-2.925-11.826-7.8-.849-3.078-.195-6.379.334-8.231l.014-.028Z"/>
    <path fill="#000" d="M247.482 257.686c.098-.64.502-1.225.669-1.936.167-.71.404-1.406.627-2.103a5.58 5.58 0 0 0 .237-1.058c.055-.349.306-.683.236-1.059 0-.028.028-.097.042-.139.279-.836.516-1.727.906-2.493.459-.906.752-1.853 1.183-2.744.446-1.574 1.31-2.995 2.09-4.444.25-.445.473-.919.863-1.295.335-.32.46-.891.878-1.17.028-.028.056-.125.083-.181.07-.153.14-.32.237-.432.627-.71.627-.696 1.031-1.379.042-.083.181-.125.251-.209l.835-.989c.251-.306.599-.543.725-.933.027-.083.167-.181.25-.278.279-.307.585-.571.864-.878.334-.334.738-.599.989-1.017.111-.181.446-.236.515-.334.126-.195.279-.348.46-.46.181-.125.39-.195.557-.32.139-.111.251-.278.404-.39.376-.278.822-.487 1.142-.78.334-.32.738-.529 1.128-.752.418-.237.864-.418 1.296-.613.348-.153.696-.195 1.044-.251.348-.055.724-.264 1.073-.139h.083a7.059 7.059 0 0 1 2.229.112 7.073 7.073 0 0 1 3.384 1.685c.265.237.585.46.683.808.028.069.153.153.195.237.139.32.543.362.627.71.069.306.278.529.418.808.153.306.32.599.445.919.084.223.195.404.321.571-.07.293.139.613.153.919 0 .209.028.516.111.641.195.279.195.613.251.919.084.46.098.934.251 1.393.069.195.055.46.042.683 0 .209-.07.418-.07.627 0 .39 0 .78.083 1.17.07.334-.097.738.07 1.086.028.042 0 .153 0 .223-.083.362-.153.682-.07 1.1.07.334-.013.752-.041 1.128-.028.404 0 .822-.084 1.198-.042.251.181.39.014.669-.097.153-.07.473-.097.71-.028.251 0 .516-.056.752-.293 1.24-.237 2.521-.432 3.775-.084.529 0 1.1-.265 1.588.112.39-.069.835 0 1.212.042.236 0 .431-.014.64l-.557 4.123c-.125.905-.223 1.825-.376 2.73-.042.251-.083.515-.223.766-.111.181-.209.557-.139.85 0 .056 0 .167-.028.209-.348.459-.25 1.017-.39 1.518-.278.989-.752 1.88-1.156 2.814-.097.195-.264.403-.195.612-.181.098-.195.237-.237.446-.055.223-.209.543-.376.655-.223.167-.32.39-.459.585l-.46.64c-.696.864-1.49 1.658-2.382 2.299-.167.139-.376.209-.571.306-.181.112-.348.293-.585.293-.097 0-.251.139-.39.222-.473.265-1.031.46-1.421.753-.403.292-.919.348-1.281.668-.097.084-.348.098-.515.167-.697.251-1.449.265-2.117.571-.279-.083-.585-.014-.878.028-.209.028-.473-.014-.641.14a.366.366 0 0 1-.139.027c-.265 0-.501-.097-.794-.069-.237.028-.446.125-.71.111-.975-.028-1.908-.278-2.869-.404-.237-.153-.544-.195-.822-.278-.516-.126-1.017-.154-1.532-.349-.474-.222-.961-.445-1.435-.598-.836-.237-1.518-.753-2.215-1.226-.181-.126-.404-.237-.473-.474-.014-.055-.209-.195-.279-.209-.167-.028-.251-.181-.362-.25-.362-.195-.334-.725-.794-.836-.292-.32-.529-.669-.78-1.017-.209-.376-.473-.724-.627-1.128-.083-.181-.195-.348-.195-.571 0-.153-.083-.46-.181-.585-.25-.265-.264-.613-.348-.919a12.085 12.085 0 0 1-.292-2.912c0-.417.083-.835.153-1.253.069-.418.028-.864.209-1.254 0-.028.014-.069.014-.111 0-.167 0-.348.027-.502.042-.208.223-.459.195-.585-.055-.25.098-.39.154-.557.153-.501.501-.738.794-.599.069.028.125.112.153.195.223.53.195.516.056 1.226-.168.892-.488 1.741-.474 2.66-.209.585-.098 1.212-.098 1.825 0 .627-.041 1.295.209 1.867.251.571.418 1.114.683 1.657.195.404.362.836.627 1.212.264.404.613.738.905 1.114.181.223.348.515.585.655.557.278.989.752 1.532 1.003.766.32 1.477.78 2.271 1.002.417.14.849.209 1.267.349.195.055.376.097.571.223.195.125.515.195.808.139a.95.95 0 0 1 .404.042c.376.195.822.209 1.226.222.264 0 .557.182.71.126.265-.098.515-.042.766-.056.181 0 .376-.07.543.056a.429.429 0 0 0 .265 0c.292-.181.641-.126.961-.181.766-.112 1.532-.237 2.284-.432.627-.167 1.142-.515 1.755-.71.293-.293.711-.418 1.073-.599.278-.154.585-.251.863-.39.293-.14.516-.349.836-.474.39-.181.71-.557 1.045-.85.195-.153.306-.431.571-.487.041 0 .111-.098.125-.139.084-.362.39-.641.613-.836.362-.32.585-.724.85-1.128.208-.321.376-.683.571-1.017.125-.251.222-.501.404-.752.139-.181.167-.502.264-.752l.279-.766.278-.85.251-.85c.084-.306.153-.626.237-.933.083-.292.209-.571.278-.863.195-.836.168-1.686.363-2.535-.084-.251.041-.46.097-.697.056-.223.139-.473.056-.71-.028-.07 0-.181 0-.279 0-.209.153-.376.097-.627-.042-.181.056-.431.084-.654.014-.237.139-.488 0-.697.278-.376-.014-.808.139-1.211.056-.126.084-.265.112-.39.013-.07.055-.14.055-.195-.069-1.115.209-2.201.265-3.302 0-.139-.028-.264-.028-.403v-.195c.139-.599.139-.599.098-1.156 0-.14.027-.293.027-.446 0-.376.084-.752 0-1.156-.069-.404.14-.822.237-1.226.084-.362.195-.71.209-1.114l.153-2.995c0-.125.042-.292 0-.362-.153-.293-.264-.543.028-.808 0 0 .014-.111 0-.139-.167-.251-.083-.557-.083-.836 0-1.045-.237-2.047-.335-3.05-.014-.167-.097-.376-.055-.474.083-.223-.14-.278-.126-.459 0-.154-.125-.349-.111-.474.056-.474-.167-.947-.376-1.295-.195-.335-.432-.655-.557-.989-.237-.655-.697-1.17-1.17-1.672a5.946 5.946 0 0 0-1.644-1.239c-.251-.126-.487-.321-.794-.251-.056.014-.167-.042-.251-.084-.195-.069-.362-.195-.571-.223-.195-.041-.404 0-.613 0-.167.014-.32 0-.487.084-.125.056-.334.028-.543-.028-.404-.111-.878-.195-1.393 0-.446.167-.905.321-1.337.543-.181.098-.362.168-.516.335-.139.153-.445.278-.668.362a2.249 2.249 0 0 0-.933.585 1.643 1.643 0 0 1-.335.264c-.71.474-1.393 1.017-2.047 1.56-.167.126-.307.307-.502.335 0 .195-.195.306-.348.418-.209.181-.446.32-.654.515a2.8 2.8 0 0 0-.627.766c-.153.265-.488.46-.613.78-.028.056-.167.098-.223.181-.223.307-.571.543-.641.919 0 .028-.055.098-.083.112-.404.223-.571.654-.766 1.031-.223.403-.599.668-.85 1.044-.292.432-.515.919-.85 1.296-.543.668-.919 1.434-1.323 2.186a28.078 28.078 0 0 0-1.142 2.354c-.153.348-.237.725-.376 1.073l-.474 1.17-.431 1.114c-.07.167-.084.39-.265.501a.367.367 0 0 0-.084.182c0 .362-.111.668-.334.961-.069.083-.083.236-.139.334-.153.292-.139.599-.195.891-.056.279-.265.543-.181.836 0 .042-.028.167-.07.209-.459.446-.167 1.198-.599 1.657.098.265-.153.432-.181.599-.042.251-.069.502-.139.766-.07.237-.153.474-.209.725-.111.445-.306.863-.306 1.337 0 .153-.042.446-.223.585a.543.543 0 0 0-.07.181c-.084.501-.39 1.045-.669 1.1a.598.598 0 0 1-.459-.125c-.07-.042-.056-.279-.07-.418-.028-.251-.083-.515-.056-.78.042-.306.168-.627.279-1.017l.111-.042Z"/>
    <path fill="#fff" d="M320.705 98.567c-.167 11.491-1.184 22.954-2.674 34.32-1.477 9.708-3.023 19.583-5.377 29.932-2.033 9.026-4.652 19.556-7.326 29.348-2.814 10.112-5.892 20.154-9.054 30.155-1.184 3.705-2.409 7.661-3.51 10.572h.014l-.223.668s.014 0 .028-.014l-.028.07-.027.056c-.948 2.98-1.909 6.003-2.87 9.039-1.072 3.259-2.145 6.547-3.231 9.834l-4.541.515c-1.267.139-2.549.32-3.844.39l-7.619.543c-28.136 1.936-56.216 3.886-84.324 5.822-21.756 1.421-43.526 2.856-65.269 4.277-7.368.445-14.736.905-22.118 1.253l-2.772.112c-.46.027-.933.041-1.407.041h-.71c-.167.042-.697-.041-1.045-.111-.18-.056-.432.014-.543-.153-.14-.154-.293-.251-.39-.446l-.487-.766-.739-1.156-1.476-2.34c-1.853-2.925-3.705-5.836-5.558-8.747-4.638.501-9.248.989-13.858 1.49-2.48.279-4.778.543-7.16.822-7.145.891-10.586 1.198-13.4 1.17-3.133-.042-5.208-.181-5.766-.488h-.139c-.07-.376-.125-.78-.18-1.184-.07.808-.182 1.24-.405 1.31-.028 0-.07-.028-.097-.014-.084.042-.21-.307-.404-1.337-.153-1.031-.376-2.758-.167-5.391.25-3.273 1.072-6.504 2.493-9.471.696-1.491 1.588-2.897 2.577-4.22 1.058-1.282 2.172-2.522 3.51-3.524 2.618-2.104 5.766-3.371 8.928-4.165 1.588-.39 3.19-.669 4.791-.905l2.396-.307 1.142-.111-.418-.822a201.134 201.134 0 0 1-4.095-8.789l-.96-2.229-.642-1.532c-.014-.069-.083-.153-.041-.223l.153-.181.306-.376c.195-.223.488-.543.6-.654.612-.599 1.211-1.129 1.796-1.672l.836-.794c.097-.097.237-.209.278-.32-.07-.07-.139-.181-.18-.237a4.582 4.582 0 0 1-.419-1.017c-.195-.682-.236-1.379-.195-2.047.07-1.323.418-2.549.808-3.719l2.41-6.741c1.616-4.485 3.245-8.97 4.959-13.428 3.44-8.914 7.187-17.717 11.686-26.185.348-.683.71-1.351 1.072-2.02l1.295-2.34 20.099-4.875 9.82-2.465 4.889-1.282 2.423-.668 1.017-.321s.126-.041.181-.069c.028-.056.028-.126.028-.195l.529-5.641c.195-1.936.404-3.872.641-5.795.474-3.872 1.059-7.744 1.88-11.56 1.63-7.633 4.151-15.224 8.497-21.868a47.36 47.36 0 0 1 4.206-5.53 45.495 45.495 0 0 1 5.042-4.777c.92-.71 1.839-1.42 2.814-2.062a20.37 20.37 0 0 1 1.462-.947l.739-.445.459-.279c.098-.056.209-.14.321-.181h.376l6.88-.265c9.068-.334 18.121-.57 27.189-.738 13.734-.25 27.62-.209 41.41.014 23.051.362 46.075 1.532 69.085 3.413 5.697.487 11.394.975 17.09 1.573l4.304.432 1.964.195c.237-.042.181.167.195.335v1.476l.028 2.354c.014 2.87.098 5.738.042 8.608Z"/>
    <mask id="b" width="280" height="187" x="41" y="79" maskUnits="userSpaceOnUse" style="mask-type:luminance">
      <path fill="#fff" d="M320.705 98.567c-.167 11.491-1.184 22.954-2.674 34.32-1.477 9.708-3.023 19.583-5.377 29.932-2.033 9.026-4.652 19.556-7.326 29.348-2.814 10.112-5.892 20.154-9.054 30.155-1.184 3.705-2.409 7.661-3.51 10.572h.014l-.223.668s.014 0 .028-.014l-.028.07-.027.056c-.948 2.98-1.909 6.003-2.87 9.039-1.072 3.259-2.145 6.547-3.231 9.834l-4.541.515c-1.267.139-2.549.32-3.844.39l-7.619.543c-28.136 1.936-56.216 3.886-84.324 5.822-21.756 1.421-43.526 2.856-65.269 4.277-7.368.445-14.736.905-22.118 1.253l-2.772.112c-.46.027-.933.041-1.407.041h-.71c-.167.042-.697-.041-1.045-.111-.18-.056-.432.014-.543-.153-.14-.154-.293-.251-.39-.446l-.487-.766-.739-1.156-1.476-2.34c-1.853-2.925-3.705-5.836-5.558-8.747-4.638.501-9.248.989-13.858 1.49-2.48.279-4.778.543-7.16.822-7.145.891-10.586 1.198-13.4 1.17-3.133-.042-5.208-.181-5.766-.488h-.139c-.07-.376-.125-.78-.18-1.184-.07.808-.182 1.24-.405 1.31-.028 0-.07-.028-.097-.014-.084.042-.21-.307-.404-1.337-.153-1.031-.376-2.758-.167-5.391.25-3.273 1.072-6.504 2.493-9.471.696-1.491 1.588-2.897 2.577-4.22 1.058-1.282 2.172-2.522 3.51-3.524 2.618-2.104 5.766-3.371 8.928-4.165 1.588-.39 3.19-.669 4.791-.905l2.396-.307 1.142-.111-.418-.822a201.134 201.134 0 0 1-4.095-8.789l-.96-2.229-.642-1.532c-.014-.069-.083-.153-.041-.223l.153-.181.306-.376c.195-.223.488-.543.6-.654.612-.599 1.211-1.129 1.796-1.672l.836-.794c.097-.097.237-.209.278-.32-.07-.07-.139-.181-.18-.237a4.582 4.582 0 0 1-.419-1.017c-.195-.682-.236-1.379-.195-2.047.07-1.323.418-2.549.808-3.719l2.41-6.741c1.616-4.485 3.245-8.97 4.959-13.428 3.44-8.914 7.187-17.717 11.686-26.185.348-.683.71-1.351 1.072-2.02l1.295-2.34 20.099-4.875 9.82-2.465 4.889-1.282 2.423-.668 1.017-.321s.126-.041.181-.069c.028-.056.028-.126.028-.195l.529-5.641c.195-1.936.404-3.872.641-5.795.474-3.872 1.059-7.744 1.88-11.56 1.63-7.633 4.151-15.224 8.497-21.868a47.36 47.36 0 0 1 4.206-5.53 45.495 45.495 0 0 1 5.042-4.777c.92-.71 1.839-1.42 2.814-2.062a20.37 20.37 0 0 1 1.462-.947l.739-.445.459-.279c.098-.056.209-.14.321-.181h.376l6.88-.265c9.068-.334 18.121-.57 27.189-.738 13.734-.25 27.62-.209 41.41.014 23.051.362 46.075 1.532 69.085 3.413 5.697.487 11.394.975 17.09 1.573l4.304.432 1.964.195c.237-.042.181.167.195.335v1.476l.028 2.354c.014 2.87.098 5.738.042 8.608Z"/>
    </mask>
    <g mask="url(#b)">
      <path fill="#FD4F00" d="M61.021 203.741c82.986-.32 165.416-15.85 248.402-15.057 0 0-18.288 61.843-19.054 62.052-1.087 2.688-4.555 3.315-7.452 3.538a17302.293 17302.293 0 0 1-191.615 13.97c-1.49-2.939-2.98-5.864-4.471-8.803-.502-.975-1.045-2.005-1.964-2.59-1.1-.697-2.507-.627-3.817-.516-13.58 1.045-27.146 2.076-40.727 3.12-2.493-8.259-1.337-17.563 3.106-24.96 4.444-7.396 12.118-12.772 20.6-14.43.112-2.925-2.771-4.902-4.958-6.838-2.187-1.937-3.788-5.753 1.978-9.486h-.028Z"/>
      <path fill="#000" d="M183.76 198.978c.292-.446.32-.975.111-2.09-.07-.362-.097-.724-.139-1.114-.293-3.008-.39-6.045-.599-9.067-.237-3.357-.446-6.728-.738-10.071-.404-4.332-.752-8.663-1.31-12.981-.222-1.755-.348-3.566-.738-5.265v-.028l-.028-.097c.084-.502-.041-1.129-.111-1.714l-.641-4.819c-.223-1.546-.571-3.19-.682-4.61-.112-1.644-.669-3.106-.683-4.639-.613-3.482-1.198-6.964-1.866-10.432-.683-3.496-1.282-6.992-2.076-10.474-.487-2.076-.933-4.193-1.532-6.24-.794-2.702-1.629-5.418-2.73-8.037-1.824-4.401-4.178-8.691-7.354-12.34a31.798 31.798 0 0 0-9.402-7.522 27.49 27.49 0 0 0-6.003-2.284c-.794-.195-1.059-.154-1.072.027v.098c-.209 1.393 1.782 1.992 5.849 3.788 2.981 1.366 5.614 3.469 7.912 5.85a32.884 32.884 0 0 1 3.677 4.513c1.602 2.382 3.064 4.903 4.095 7.647.501 1.337 1.003 2.786 1.574 4.151.474 1.072.808 2.256 1.114 3.384 1.198 4.499 2.257 9.068 3.106 13.692.585 3.106 1.254 6.212 1.616 9.332.056.488.153.989.237 1.491.334 1.978.682 3.941 1.017 5.905.794 4.597 1.211 9.235 1.964 13.873.278 1.755.459 3.677.668 5.502.098.794-.056 1.254.084 1.922.278 1.282.223 2.549.376 3.844.306 2.591.445 5.21.654 7.828.181 2.354.432 4.736.558 7.062.25 4.415.487 8.789.738 13.19.042.627.125 1.003.32 1.198.752.808 1.435.474 2.075-.501l-.041.028Z"/>
      <path fill="#000" d="M312.167 188.615c-.906-.237-1.992-.181-4.235.181a38.13 38.13 0 0 1-2.256.292c-6.115.697-12.313 1.156-18.469 1.686l-20.545 1.685c-8.844.696-17.689 1.407-26.548 2.103-3.607.307-7.284.488-10.794.933h-.042l-.223.028c-.989-.069-2.284.07-3.51.154l-9.889.724c-3.176.237-6.574.599-9.485.696-3.329.112-6.435.669-9.542.641l-21.561 1.546c-7.243.474-14.486.961-21.728 1.435-4.332.278-8.692.571-13.01.849-5.696.376-11.393.752-17.09 1.115-9.583.64-19.194 1.197-28.804 1.727-8.023.432-16.032.877-24.069 1.309-4.248.195-8.482.404-12.689.543-1.615.056-2.089.167-2.061.362v.098c.125 1.323 4.568 1.671 14.11 1.045 6.992-.474 13.998-.767 20.976-1.157 4.053-.222 8.176-.459 12.271-.682 6.059-.306 12.062-.808 18.191-1.045 2.966-.125 6.17-.264 9.234-.571 2.424-.237 4.959-.376 7.382-.501 9.639-.502 19.236-1.254 28.846-1.839 6.463-.39 12.954-.947 19.375-1.198 1.003-.041 2.061-.125 3.092-.195 4.095-.306 8.19-.599 12.271-.905 9.541-.766 19.054-1.226 28.637-2.117 3.636-.334 7.577-.571 11.338-.878 1.63-.139 2.535 0 3.942-.181 2.646-.334 5.237-.362 7.897-.599 5.335-.459 10.711-.794 16.06-1.211 4.833-.404 9.722-.822 14.486-1.212 9.025-.697 18.009-1.477 27.007-2.354 1.268-.125 2.034-.265 2.438-.488 1.629-.863.947-1.504-1.031-2.019h.028Z"/>
      <path fill="#000" d="M160.917 270.668c.278-.571.265-1.24 0-2.619a20.774 20.774 0 0 1-.195-1.393c-.418-3.76-.613-7.577-.892-11.379l-.877-12.661c-.404-5.446-.71-10.906-1.156-16.352-.181-2.215-.237-4.485-.571-6.644v-.028l-.014-.125c.097-.613 0-1.407-.042-2.159l-.432-6.087c-.139-1.964-.404-4.039-.418-5.836 0-2.062-.473-3.956-.376-5.864l-1.002-13.26-.962-13.372c-.208-2.66-.403-5.348-.612-8.008l-.85-10.503c-.293-3.718-.585-7.451-.891-11.184-2.689-.279-5.391-.543-8.079-.822a5806.97 5806.97 0 0 1-14.764-1.476c-2.605-.279-5.196-.544-7.772-.878-.989-.125-1.282-.07-1.296.125v.098c-.111 1.323 2.535 2.173 8.413 2.619 4.304.334 8.594.835 12.87 1.253 2.493.251 5.014.502 7.521.752l1.254.126.028.236.097 1.129.181 2.256c.126 1.504.223 3.009.293 4.541.07 1.824.167 3.802.418 5.683.195 1.49.292 3.05.376 4.54.334 5.934.905 11.826 1.281 17.745.251 3.97.655 7.967.752 11.923.014.613.07 1.268.112 1.894l.585 7.55c.487 5.864.682 11.741 1.267 17.633.223 2.243.321 4.666.502 6.978.083 1.003-.084 1.574.042 2.438.236 1.629.195 3.231.32 4.861.265 3.287.418 6.602.627 9.903.209 2.981.432 5.989.64 8.928.321 5.572.725 11.101 1.198 16.645.07.78.181 1.253.376 1.49.794.989 1.449.543 2.048-.696Z"/>
      <path fill="#000" d="M142.448 272.534c.292-.473.32-1.058.125-2.256-.07-.39-.098-.78-.139-1.198-.251-3.245-.321-6.546-.474-9.82-.181-3.635-.334-7.284-.613-10.92-.362-4.694-.724-9.401-1.407-14.081-.278-1.909-.459-3.859-.933-5.697v-.028l-.028-.111c.07-.544-.097-1.212-.209-1.853a158.922 158.922 0 0 0-.975-5.195c-.362-1.672-.863-3.413-1.128-4.945-.306-1.783-1.086-3.329-1.504-4.986-1.477-3.664-4.151-7.327-8.246-8.803-.264-.084-.515-.181-.78-.237l-.139-.028s-.056-.028-.056-.069v-.168l-.069-2.883-.168-5.766-.209-6.895-.32-9.053c-.209-5.084-.362-10.182-.501-15.266l-.376-12.745c-.042-2.256-.112-4.499-.098-6.727 0-.85-.097-1.101-.278-1.087h-.098c-1.323.07-1.825 2.438-1.546 7.48.209 3.705.251 7.41.362 11.101.056 2.145.125 4.332.181 6.491.056 3.203.293 6.393.251 9.638-.014 1.574-.014 3.273.139 4.889.126 1.282.153 2.619.153 3.914.042 5.098.321 10.196.404 15.28l.084 3.175v.279s0 .097.028.125l.139.028.543.112c.335.069.78.139 1.045.222.362.098.724.223 1.086.377 1.421.612 2.675 1.629 3.636 2.869.306.376.626.794.905 1.198 1.142 1.657 1.95 3.579 2.591 5.585 1.434 4.736 2.159 9.764 3.134 14.709.376 1.88.585 3.955.863 5.919.112.85-.042 1.351.126 2.076.292 1.379.264 2.744.431 4.15.307 2.8.46 5.641.627 8.455.153 2.549.376 5.126.46 7.661.167 4.777.334 9.527.571 14.304.028.669.125 1.087.306 1.296.752.877 1.435.529 2.076-.516h.028ZM103.963 278.802c.153-.39.042-.724-.432-1.309a4.74 4.74 0 0 1-.404-.613c-1.003-1.713-1.838-3.524-2.744-5.293l-2.98-5.919c-1.324-2.535-2.563-5.098-3.942-7.605-.557-1.017-1.017-2.118-1.713-3.037v-.014l-.042-.056c-.028-.348-.25-.696-.432-1.044l-1.49-2.814c-.488-.905-1.115-1.81-1.463-2.688-.39-1.003-1.156-1.741-1.434-2.716l-3.399-6.059c-1.156-2.033-2.242-4.095-3.426-6.115-.71-1.197-1.38-2.437-2.103-3.621l-2.828-4.736c-1.588-2.646-3.19-5.306-4.778-7.953a1687.798 1687.798 0 0 0-4.025-6.63c-.696-1.17-1.407-2.34-2.047-3.538-.251-.459-.404-.543-.558-.432l-.083.042c-1.114.711-.864 2.215.864 4.764 1.253 1.866 2.367 3.83 3.523 5.738.669 1.115 1.38 2.243 2.02 3.385.961 1.699 2.062 3.287 2.953 5.042.432.85.905 1.769 1.49 2.563.474.627.864 1.337 1.226 2.034 1.463 2.73 3.106 5.348 4.582 8.064.99 1.825 2.09 3.608 2.94 5.502.125.292.292.585.459.877l1.936 3.441c1.518 2.66 2.772 5.46 4.36 8.12.613 1.003 1.128 2.159 1.713 3.218.25.459.209.808.474 1.184.5.696.752 1.504 1.156 2.27.807 1.518 1.532 3.078 2.298 4.624.682 1.393 1.462 2.758 2.13 4.151 1.24 2.632 2.55 5.209 3.901 7.772.195.362.376.557.585.599.891.167 1.421-.32 1.755-1.17l-.042-.028ZM280.772 259.539c.39-.306.529-.738.571-1.713 0-.321.056-.627.111-.961.404-2.591.989-5.154 1.449-7.758.501-2.884 1.003-5.781 1.309-8.706.376-3.788.599-7.786-.724-11.658-.543-1.546-1.281-3.148-2.479-4.304v-.014l-.07-.069c-.181-.432-.641-.864-1.058-1.24a12.997 12.997 0 0 0-3.9-2.396c-1.365-.543-2.898-.78-4.179-1.044-1.49-.321-2.897 0-4.276-.126-3.218.321-6.296 1.24-9.165 2.577-2.897 1.337-5.613 3.05-8.009 5.126-1.421 1.239-2.841 2.521-4.067 3.955-1.63 1.867-3.148 3.817-4.471 5.906-2.215 3.51-4.095 7.215-5.669 11.018-1.323 3.175-2.41 6.421-3.496 9.666-.571 1.713-1.128 3.426-1.685 5.126-.223.64-.195.863 0 .919l.083.028c1.282.362 2.34-1.282 3.426-5.154.808-2.841 1.825-5.613 2.898-8.329a60.704 60.704 0 0 1 2.033-4.722c1.114-2.27 2.173-4.554 3.636-6.644.696-1.017 1.504-2.075 2.172-3.162a17.54 17.54 0 0 1 1.881-2.409c2.674-2.953 5.599-5.725 9.025-7.73 2.285-1.338 4.708-2.563 7.299-3.093.404-.069.822-.181 1.226-.292 1.602-.404 3.259-.571 4.903-.585 3.844-.028 7.618 1.435 10 4.22.933 1.059 1.574 2.48 2.006 3.9.209.613.07 1.017.251 1.546.32 1.017.264 2.076.334 3.148.125 2.173-.139 4.374-.432 6.602-.251 2.006-.501 4.053-.863 6.031-.739 3.747-1.477 7.466-2.201 11.213-.098.529-.098.863.042 1.072.543.85 1.281.739 2.131.084l-.042-.028Z"/>
      <path fill="#000" d="M276.468 259.678c.362-.25.46-.599.418-1.393 0-.264 0-.515.028-.78.167-2.089.501-4.178.724-6.267.237-2.326.488-4.653.613-6.979.139-2.98.473-6.128-.432-9.304-.376-1.267-.864-2.632-1.825-3.607v-.014l-.055-.056c-.098-.404-.474-.738-.794-1.072a10.834 10.834 0 0 0-3.064-2.132c-1.087-.501-2.327-.738-3.357-1.03-1.212-.335-2.368-.028-3.496-.167-2.647.25-5.168 1.239-7.313 2.632a26.871 26.871 0 0 0-5.752 5.014c-.975 1.143-1.964 2.299-2.8 3.51-1.128 1.602-2.242 3.204-3.245 4.875-1.7 2.814-3.246 5.711-4.694 8.65-1.198 2.451-2.243 4.972-3.301 7.494-.557 1.337-1.101 2.66-1.658 3.983-.223.502-.195.683 0 .752l.084.042c1.253.446 2.284-.752 3.343-3.775.78-2.214 1.782-4.345 2.757-6.462.572-1.226 1.157-2.48 1.811-3.678.975-1.769 1.825-3.607 2.995-5.279.571-.807 1.184-1.685 1.657-2.59.362-.725.878-1.393 1.365-2.048 1.964-2.535 3.886-5.098 6.324-7.075 1.616-1.324 3.371-2.549 5.348-3.065.293-.097.613-.181.92-.278a12.252 12.252 0 0 1 3.76-.502c2.981.042 5.85 1.421 7.578 3.65.696.835 1.1 1.991 1.379 3.12.125.487-.028.807.111 1.225.237.808.139 1.658.167 2.507.056 1.728-.153 3.524-.278 5.321-.126 1.616-.195 3.259-.39 4.847-.39 3.009-.78 5.99-1.157 8.984-.055.418-.027.697.126.864.613.682 1.337.599 2.117.055l-.014.028ZM127.976 157.429c.404.278.891.292 1.88.069.32-.083.641-.111.989-.167 2.688-.334 5.418-.459 8.134-.654l5.655-.363.098 1.17c.278 3.887.571 7.773.849 11.673.126 1.587.126 3.203.404 4.749v.014l.014.098c-.111.431-.041 1.003-.014 1.546l.237 4.345c.084 1.393.265 2.898.209 4.165-.07 1.463.32 2.828.153 4.193l.195 3.816s-.097.028-.153.042l-1.058.167-2.34.348c-3.148.46-6.296.752-9.458 1.087-.947.097-1.894.167-2.841.236-.223.014-.53.028-.53.028-.041 0-.083 0-.111-.028-.042-.014-.07-.055-.084-.097-.014-.07-.014 0-.041-.251l-.488-7.507c-.292-4.221-.529-8.441-.766-12.675-.195-3.524-.404-7.048-.599-10.586-.084-1.866-.181-3.733-.209-5.585 0-.711-.111-.92-.306-.892h-.098c-1.323.098-1.783 2.076-1.421 6.254.279 3.064.377 6.157.558 9.221.097 1.783.195 3.593.306 5.39.111 2.661.404 5.307.418 7.995 0 1.309.042 2.716.223 4.067.153 1.059.195 2.173.223 3.246l.027.794c.014.292 0 .459.084.988.125.92.878 1.672 1.811 1.755.515.056.835 0 1.072 0l.794-.069 1.588-.139 6.351-.669c1.421-.153 2.842-.362 4.263-.557l2.131-.293 1.253-.167.933-.125.474-.056.237-.028s.014-.139.028-.209c0-.39-.014-.794-.028-1.211 0-.335-.028-.683-.042-1.017l-.279-5.404c-.264-4.207-.25-8.413-.668-12.62-.153-1.602-.195-3.343-.32-5-.056-.724.125-1.128 0-1.741-.209-1.156-.126-2.312-.223-3.482-.098-1.17-.181-2.354-.251-3.538l-.237-3.649c-.069-.808-.125-1.602-.195-2.41l-3.872.292-2.563.168c-3.983.208-7.925.487-11.881.835-.557.056-.891.153-1.058.335-.697.766-.377 1.448.515 2.061l.028.042ZM74.574 159.824c-.543.446-.892 1.115-1.38 2.633a24.63 24.63 0 0 1-.556 1.49c-1.616 3.998-3.44 7.954-5.182 11.923l-5.864 13.204-3.58 8.065 13.442-.292c2.535-.084 5.112-.028 7.59-.265h.015l.153-.028c.696.125 1.602.07 2.465.056l6.95-.14c2.23-.055 4.625-.222 6.659-.153 2.34.084 4.526-.292 6.699-.111 5.042-.126 10.098-.265 15.14-.39l2.939-.07c.223-4.819.446-9.624.655-14.43l.376-9.137.46-11.992c.055-1.31.097-2.605.153-3.914-3.259.223-6.505.459-9.764.682l-8.691.474c-5.614.264-11.227.515-16.854.627-2.98.055-5.947.097-8.9.055-1.128-.014-1.463.084-1.449.265v.097c.042 1.31 3.162 1.895 9.862 1.602l14.736-.543c2.855-.139 5.739-.293 8.608-.432 1.908-.097 3.816-.223 5.724-.362l2.87-.209 1.393-.097h.348l-.042.306c-.028.46-.07.919-.097 1.393-.028.543-.07 1.072-.098 1.63a51.045 51.045 0 0 0-.07 3.273c.014 1.699-.083 3.482-.181 5.181-.404 6.742-.571 13.497-.919 20.238l-.153 3.246-3.831.083c-1.573.028-3.147.028-4.721 0-.697 0-1.449 0-2.173.028-2.869.084-5.753.153-8.622.237-6.7.223-13.385.139-20.113.446-2.563.111-5.32.111-7.967.181-1.142.028-1.783-.154-2.772-.07-1.866.167-3.677.042-5.543.098h-.683l.126-.223.905-1.978 1.797-3.97c1.365-3.106 2.758-6.254 4.109-9.318a832.447 832.447 0 0 0 7.674-17.369c.349-.822.502-1.351.46-1.685-.167-1.379-.989-1.268-2.159-.307l.056-.028ZM83.92 217.405c.362.153.626.028 1.086-.39.153-.139.32-.251.502-.362 1.406-.877 2.994-1.449 4.568-1.922 1.77-.529 3.594-.808 5.418-.933 2.382-.167 4.764.083 7.132.445.947.154 1.643.488 2.089.794l.028.014c-.014.209.111.362.195.599.209.599.251 1.56.334 2.452.07.863.237 1.796.126 2.59-.112.906.208 1.769-.056 2.605 0 .975-.07 1.964-.153 2.939-.042.473-.112.822-.209.975-.084.153-.251.292-.599.446-.683.264-1.811.445-2.744.626l-2.94.474c-1.17.181-2.367.251-3.55.362-1.56.153-3.12.153-4.695.153a41.57 41.57 0 0 1-3.956-.195c-.654-.055-1.128-.153-1.378-.39-.279-.236-.488-.682-.6-1.239-.166-.92-.194-2.131-.292-3.232l-.209-3.357c-.055-1.183-.125-2.367-.125-3.551 0-.446-.098-.585-.293-.557h-.097c-1.323.097-1.81 1.365-1.504 4.025.222 1.95.278 3.886.417 5.878.056.599.14 1.253.376 1.95.223.682.71 1.448 1.463 1.908.557.334 1.128.446 1.602.515.473.056.877.07 1.323.112.864.055 1.727.111 2.59.209.836.083 1.756.167 2.633.027.697-.097 1.407-.097 2.103-.111 2.744-.028 5.46-.487 8.149-.989.905-.195 1.769-.278 2.869-.794.529-.25 1.1-.738 1.407-1.351.306-.599.39-1.17.487-1.629.056-.293.07-.585.098-.878.083-1.17.125-2.34.097-3.51-.028-1.365-.042-2.73-.111-4.095-.042-.696-.07-1.337-.195-2.103-.126-.738-.418-1.658-1.128-2.354-1.087-1.031-2.424-1.323-3.483-1.49-.459-.07-.696-.307-1.1-.307-.78.028-1.504-.223-2.284-.251-1.546-.069-3.12-.153-4.694-.027-1.42.111-2.828.403-4.193.724a24 24 0 0 0-7.312 2.981c-.32.195-.474.376-.488.585-.055.863.488 1.351 1.282 1.671l.014-.042Z"/>
      <path fill="#000" d="M88.711 218.895c.293.126.362.126.32-.097 0-.07 0-.111.028-.153.181-.362.627-.502 1.059-.557.474-.084 1.086.055 1.463.209.543.222.974.793 1.323 1.378.153.251.139.544.376.767-.126.111-.056.195-.056.292.042.265.042.515.028.78 0 .237.07.543-.111.724-.196.195.027.544-.293.655-.195.487-.585.891-1.03 1.212-.46.32-1.017.445-1.533.515-.32.056-.627-.028-.92-.07-.403-.069-.78-.306-1.127-.571a2.493 2.493 0 0 1-.99-1.894c-.013-.613.14-1.295.488-1.964.181-.348.39-.71.669-1.031.111-.125.055-.208-.112-.306l-.083-.056c-1.128-.668-1.867-.613-2.243.432-.25.752-.626 1.532-.696 2.452-.042.529.028 1.1.167 1.629.195.808.724 1.407 1.17 2.034.223.32.515.64.92.752.306.097.584.251.877.39 1.17.557 2.507.348 3.607-.056.766-.278 1.38-.822 2.062-1.295.111-.07.195-.181.278-.293.32-.431.571-.905.739-1.393.362-1.128.64-2.367.195-3.523-.168-.418-.28-.906-.516-1.324-.097-.181.014-.376-.14-.501-.292-.223-.361-.571-.612-.822-.502-.487-1.059-1.003-1.81-1.295-.67-.251-1.296-.251-1.95-.265-1.212-.056-2.633.557-3.371 1.685-.098.154-.098.293.013.432.474.571 1.156.808 1.797 1.087l.014.041ZM97.918 217.642c.181.265.292.278.46.056.055-.07.125-.112.195-.154.543-.306 1.156-.348 1.727-.39.292-.027.599 0 .877.014.07.014.126.028.167.07v.028s.028.056.042.139l.098.697c.055.459.111.933.195 1.392.069.376 0 .78.209 1.129v.027c-.14.112-.084.251-.084.376l.056 1.045c.014.334.153.697.028 1.003-.126.348.195.682-.028 1.003 0 .237.014.139.014.195 0 .028 0 .056-.028.083a.077.077 0 0 1-.07.042h-.042l-.264.07c-.711.153-1.435.139-2.16.181-.208.014-.459 0-.626 0h-.125c-.042 0-.084 0-.112-.028-.042-.028-.042-.084-.042-.139v-.112l-.028-.334a47.121 47.121 0 0 1-.097-3.134c0-.877-.07-1.741-.056-2.618 0-.46 0-.92.084-1.379.028-.181-.07-.223-.25-.223h-.098c-1.323-.028-1.895.459-1.741 1.504.111.766.055 1.532.07 2.298 0 .446.041.892.013 1.337-.028.669.125 1.324 0 1.992a3.06 3.06 0 0 0-.056.502c0 .153 0 .557.098.807.098.307.195.585.376.85.07.098.153.195.237.279.306.292.724.431 1.184.473.529.056.696.042 1.003.042.57 0 1.128-.056 1.685-.084.376-.027.752-.097 1.128-.167.139-.028.502-.083.78-.181.293-.097.557-.223.808-.418h.014a1.61 1.61 0 0 0 .334-.473c.167-.362.237-.766.237-1.17 0-.265 0-.474-.028-.711-.069-1.072.112-2.144-.139-3.217-.098-.404-.07-.85-.139-1.267-.028-.182.153-.307.069-.46-.167-.279-.042-.585-.097-.892-.056-.292-.084-.529-.126-.877-.055-.529-.181-1.059-.529-1.449l-.111-.125c-.362-.334-.864-.487-1.379-.515-.293-.028-.446-.028-.585-.042h-.46c-1.156-.084-2.284.153-3.287.571-.14.056-.209.167-.195.348.056.738.362 1.365.766 1.95l.028.056ZM62.54 228.381c-.154-.293-.293-.307-.53-.084a.591.591 0 0 1-.237.14c-.682.278-1.393.417-2.075.64-.78.209-1.518.502-2.27.794-.933.432-1.922.794-2.786 1.379-.362.223-.794.348-1.03.724l-.015.028c-.167-.055-.278.056-.404.14-.32.208-.654.403-.96.64-.293.223-.544.557-.878.669-.404.125-.474.613-.892.668-.612.585-1.253 1.129-1.81 1.755a21.748 21.748 0 0 0-1.7 1.881c-.292.418-.626.794-.891 1.225-.362.558-.71 1.129-1.045 1.7-.515.989-1.044 1.978-1.49 2.994-.418.836-.64 1.755-.975 2.619-.153.474-.292.947-.487 1.393-.084.167 0 .25.18.292l.084.028c1.282.307 1.978 0 2.103-1.003.14-.738.446-1.42.725-2.117.167-.404.334-.808.543-1.198.334-.557.515-1.198.947-1.713.223-.237.446-.501.53-.836.069-.264.222-.501.39-.696.347-.39.654-.808.946-1.226.32-.404.655-.808 1.003-1.184.488-.487.92-1.058 1.546-1.406.098-.056.181-.126.265-.209.32-.293.655-.585.961-.906.766-.682 1.727-1.114 2.507-1.783.293-.278.71-.404 1.045-.626.153-.098.334.041.432-.098.195-.251.501-.237.766-.362.515-.251 1.044-.46 1.588-.627.487-.153.947-.432 1.434-.543.474-.098.933-.223 1.393-.362.46-.112.92-.223 1.379-.362.125-.042.195-.14.209-.321a3.634 3.634 0 0 0-.474-2.033l-.028-.014Z"/>
    </g>
    <path fill="#FD4F00" d="M292.221 150.158c-1.867 4.179-4.764 7.828-8.204 10.753-5.335 4.555-11.965 7.41-18.831 8.538-6.199 1.003-12.48.474-18.539-.292-.766-.098-1.491-.195-2.243-.265-2.242-.209-3.287-.474-4.081-.975-.877-.543-1.435-1.045-1.518-1.462-.014-.014-.028-.014-.042-.014a3.545 3.545 0 0 0-.376-.07c.209.237.293.46.251.696 0 .042-.014.07-.028.098-.014.209-.502.223-2.048-.125-4.053-.892-8.162-1.769-12.215-2.953-3.844-1.115-7.619-2.507-11.212-4.346-3.58-1.853-6.937-4.234-9.764-7.159-3.371-3.482-6.101-7.759-7.355-12.55-1.295-4.791-.849-10.015 1.059-14.569 2.229-5.446 6.351-9.987 11.38-13.009 3.844-2.299 8.231-3.441 12.507-4.165 3.608-.599 7.188-.85 10.767-1.073 3.594-.209 7.187-.306 10.795-.292 7.145 0 14.346.682 21.366 2.298 2.939.947 6.059 1.518 9.123 2.883 2.661 1.184 5.836 2.494 8.594 4.207 2.842 1.769 5.516 3.914 7.675 6.588.808.961 1.574 2.089 1.978 3.036l.111.209h.014v.014c1.992 3.12 2.939 6.937 3.204 10.642.348 4.568-.53 9.179-2.382 13.357h.014Z"/>
    <mask id="c" width="100" height="65" x="195" y="106" maskUnits="userSpaceOnUse" style="mask-type:luminance">
      <path fill="#fff" d="M292.221 150.158c-1.867 4.179-4.764 7.828-8.204 10.753-5.335 4.555-11.965 7.41-18.831 8.538-6.199 1.003-12.48.474-18.539-.292-.766-.098-1.491-.195-2.243-.265-2.242-.209-3.287-.474-4.081-.975-.877-.543-1.435-1.045-1.518-1.462-.014-.014-.028-.014-.042-.014a3.545 3.545 0 0 0-.376-.07c.209.237.293.46.251.696 0 .042-.014.07-.028.098-.014.209-.502.223-2.048-.125-4.053-.892-8.162-1.769-12.215-2.953-3.844-1.115-7.619-2.507-11.212-4.346-3.58-1.853-6.937-4.234-9.764-7.159-3.371-3.482-6.101-7.759-7.355-12.55-1.295-4.791-.849-10.015 1.059-14.569 2.229-5.446 6.351-9.987 11.38-13.009 3.844-2.299 8.231-3.441 12.507-4.165 3.608-.599 7.188-.85 10.767-1.073 3.594-.209 7.187-.306 10.795-.292 7.145 0 14.346.682 21.366 2.298 2.939.947 6.059 1.518 9.123 2.883 2.661 1.184 5.836 2.494 8.594 4.207 2.842 1.769 5.516 3.914 7.675 6.588.808.961 1.574 2.089 1.978 3.036l.111.209h.014v.014c1.992 3.12 2.939 6.937 3.204 10.642.348 4.568-.53 9.179-2.382 13.357h.014Z"/>
    </mask>
    <g fill="#000" mask="url(#c)">
      <path d="m218.233 141.634 2.34-3.148c.278-.39.654-.724.793-1.267.07-.265.544-.488.808-.864l2.173-2.939 2.633-3.747.306.641c.209.46.432.933.655 1.393l.571 1.281c.237.544.487 1.073.78 1.56.501.85.696 1.741 1.114 2.577.446.892.892 1.825 1.198 2.744.223.683.418 1.365.738 1.992.195.39.474.724.655 1.17.167.418.264.919.641 1.184.027.028.069.223.069.334.042.501.279 1.045.529 1.379.251.32.363.655.516.989.39.919.78 1.852 1.128 2.786.265.71.446 1.434.696 2.145.265.738.669 1.476.808 2.2.153.725.404 1.365.655 2.034.139.376.209.863.543 1.086a.525.525 0 0 1 .084.237c0 .153.028.293.069.432.028.139.056.251.154.529.167.46.348.919.557 1.407l.654 1.532.307.794.139.376.07.181.028.084v.041l-.028-.027c-1.059-.599-2.006-1.101-2.995-1.63l-2.27-1.17c-.293-.153-.557-.376-.906-.362-.125 0-.431-.153-.557-.265-.682-.641-1.588-.947-2.382-1.407-.905-.529-1.894-.919-2.743-1.587-.363-.279-.878-.599-1.463-.655-.265-.028-.669-.362-1.031-.515-.292-.126-.613-.182-.891-.321-.237-.125-.432-.334-.655-.487a.883.883 0 0 0-.223-.126c-1.476-.487-2.674-1.504-4.067-2.173-1.407-.668-2.785-1.42-4.15-2.186-.753-.418-1.505-.906-1.825-1.574-.139-.307-.042-.502.334-.432.279.042.599.111.878.237.459.195.905.39 1.351.571.919.404 1.88.668 2.744 1.253.264.181.654.251.794.558.014.041.125.111.195.139 1.351.362 2.535 1.212 3.774 1.852 1.059.544 2.201.864 3.218 1.519.696.097 1.365.487 1.922.863 1.964 1.337 4.137 2.284 6.212 3.413l1.504.807s.056.028.07.028l-.028-.083-.056-.153-.236-.655c-.14-.376-.39-.669-.46-1.142-.056-.46-.334-.961-.529-1.449-.168-.446-.404-.891-.502-1.337-.432-1.839-1.267-3.538-1.936-5.279-.668-1.741-1.365-3.482-2.145-5.167-.473-1.031-1.044-2.02-1.448-3.079-.181-.459-.502-.877-.488-1.406 0-.154-.334-.502-.473-.78l-.962-2.131c-.431-.961-.905-2.034-1.337-2.911-.097-.168-.209-.195-.25-.223 0 0-.014.055-.014.069l-.084.098-.167.209-1.685 2.033c-.571.711-1.045 1.546-1.658 2.173-1.128 1.184-2.02 2.535-2.995 3.831-.975 1.281-1.963 2.562-2.883 3.872-.529.752-1.17 1.295-1.713 2.005-.251.335-1.045.446-1.1.181 0-.041 0-.125.028-.195.376-.807.626-1.615 1.239-2.409.906-1.17 1.769-2.368 2.661-3.552v.014Z"/>
      <path d="M222.912 129.572c-.417-.641-.863-1.254-1.378-1.797-.195-.195-.321-.474-.683-.529-.167-.028-.209-.376-.404-.544-.557-.431-1.114-.835-1.727-1.17a10.287 10.287 0 0 0-1.908-.64c-.627-.181-1.296-.418-1.936-.362-.544.055-1.031-.154-1.56-.07-.543.084-1.101.195-1.63.251-.39.028-.794.097-1.142.278-.209.14-.362.321-.585.46-.209.125-.515.167-.529.501 0 .028-.112.056-.181.056-.307.028-.558.251-.627.474-.084.222-.209.348-.334.501a10.83 10.83 0 0 0-.934 1.323c-.223.348-.487.683-.654 1.059-.195.404-.223.877-.446 1.239-.223.377-.293.767-.348 1.157-.042.222-.181.487.055.696.028.014 0 .111 0 .139-.376.641.042 1.31.028 1.964-.028.697.154 1.379.335 2.048.055.181.027.39.25.501.084.042.14.223.126.32-.07.571.278 1.017.459 1.505.223.557.613 1.03.808 1.629.07.265.251.585.627.669.167.042.279.334.446.487.139.126.32.181.459.293.112.111.154.278.237.418.028.042.07.083.112.097.807.39 1.295 1.17 2.117 1.546.808.376 1.615.752 2.451 1.059.474.167.933.348 1.184.85.111.222.084.445-.167.515-.181.056-.39.111-.585.083-.307-.041-.627-.069-.919-.125-.627-.111-1.296-.153-1.853-.543-.167-.112-.446-.125-.501-.376 0-.028-.07-.084-.112-.098-.919-.153-1.602-.849-2.298-1.406-.599-.474-1.309-.85-1.741-1.519-.46-.181-.752-.626-.919-1.03-.641-1.421-1.435-2.744-1.797-4.249-.376-1.504-.571-3.064-.46-4.624.028-.264-.097-.501.056-.808.153-.278.111-.668.195-1.003.07-.306.097-.64.237-.905.585-1.086.947-2.27 1.685-3.287.724-1.003 1.672-1.853 2.702-2.535.627-.432 1.296-.85 2.048-1.017.32-.056.627-.292.989-.097.097.055.362-.181.571-.209.515-.07 1.044-.084 1.56-.07.724.028 1.434.125 2.131.251.432.083.877.097 1.295.223a6.38 6.38 0 0 1 1.295.515c.516.279.989.641 1.463.975.487.362 1.045.655 1.393 1.128.641.85 1.393 1.574 1.978 2.438a25.522 25.522 0 0 1 1.532 2.674c.278.515.278 1.086.473 1.602.084.251-.348.766-.571.724a.167.167 0 0 1-.125-.07c-.334-.445-.78-.78-.989-1.323-.32-.808-.752-1.56-1.212-2.284l-.042.042ZM250.157 128.959l-4.764.251c-.585.041-1.198-.028-1.811.195-.306.111-.891-.112-1.434-.084l-4.444.125-2.158.126-1.087.055h-.265l-.055.014h-.084c-.167-.027-.083.112-.056.237.126.307.237.613.363.906.139.32.278.64.445.947.544 1.058.766 2.131 1.226 3.175.488 1.101.989 2.243 1.337 3.385.265.822.502 1.644.85 2.424.153.32.348.64.515.975l.028.055.028.237-.07-.306c.084.153.153.306.223.487.195.502.32 1.114.724 1.463.028.028.084.264.098.404a4.06 4.06 0 0 0 .627 1.671c.278.404.418.794.585 1.212.459 1.128.933 2.256 1.365 3.384l.362 1.059.069.223V151.732l-.069-.362c.167.501.334 1.017.515 1.518.334.892.808 1.783 1.031 2.647.223.863.543 1.643.863 2.437.084.237.182.474.265.724.07.154.112.167.209.098.014-.014.028 0 .014.042-.042.25.056.501.097.543.098-.362.056-.627.126-.683 0 .028.083-.153.125-.278l.167-.39.321-.794.613-1.602-.056.32v-.167l.069-.167.349-.933c.139-.362.362-.738.334-1.142 0-.139.139-.529.251-.697.626-.933.905-2.061 1.365-3.078.515-1.17.877-2.409 1.518-3.538.278-.473.585-1.156.613-1.852 0-.321.334-.864.487-1.309.126-.363.153-.753.293-1.101.083-.195.195-.39.306-.571l.195-.306h.014l.014-.028-.209.32.153-.264c.042-.084.098-.195.112-.293.445-1.839 1.448-3.44 2.061-5.223.627-1.783 1.351-3.552 2.089-5.321.404-.975.864-1.95 1.547-2.451.306-.223.501-.154.459.32-.028.334-.083.724-.209 1.073-.181.571-.362 1.142-.529 1.699-.376 1.156-.613 2.354-1.184 3.482-.181.348-.237.822-.529 1.045-.042.027-.112.181-.126.25-.32 1.672-1.142 3.204-1.741 4.806a37.309 37.309 0 0 0-.501 1.49l-.028.098-.139.167.181-.251c-.265.864-.529 1.727-.919 2.549-.07.836-.446 1.699-.808 2.423-1.296 2.577-2.173 5.307-3.26 7.968l-.515 1.295.056-.32v.181l-.056.153-2.967 7.507-.947-2.368c-.167-.417-.348-.766-.529-1.17-.167-.362-.418-.961-.432-1.156-.111-.543-.446-1.17-.682-1.755-.223-.543-.488-1.086-.641-1.615-.348-1.268-.836-2.507-1.337-3.733l-.056-.125V151.69l.042.251-1.087-2.66c-.821-2.117-1.643-4.249-2.549-6.324l-.306-.682-.042-.112v-.195l.042.265c-.46-.975-.961-2.02-1.337-3.078-.195-.558-.557-1.087-.557-1.728 0-.181-.376-.626-.516-.975l-1.072-2.646-1.616-4.011-.446-1.031-.236-.529c-.07-.168-.251-.418.041-.363l2.257-.097 1.476-.028h1.268l3.189.042c1.101 0 2.257-.139 3.315-.056 1.964.126 3.928-.097 5.892-.167 1.95-.084 3.914-.153 5.85-.306 1.101-.098 2.131.041 3.218-.028.501-.028 1.225.501 1.03.71a.364.364 0 0 1-.195.098c-1.044.25-1.991.585-3.217.64l-5.39.279h-.014Z"/>
      <path d="M254.489 124c.055-.682.097-1.379.013-2.061-.027-.251.056-.529-.195-.766-.125-.112.098-.39.042-.627-.139-.627-.264-1.253-.501-1.852-.223-.585-.571-1.101-.878-1.63-.32-.515-.571-1.1-1.03-1.49-.39-.321-.558-.78-.934-1.073-.404-.306-.821-.571-1.184-.877-.264-.223-.557-.446-.891-.53-.209-.041-.446.014-.669-.041-.208-.056-.445-.209-.668 0-.014.013-.112-.042-.153-.07a.692.692 0 0 0-.739-.084c-.195.098-.376.098-.557.098-.515.042-1.016.097-1.532.167-.376.028-.766.056-1.156.111-.39.098-.766.321-1.156.363-.404.013-.724.195-1.059.348-.195.083-.459.125-.487.418 0 .027-.07.069-.111.069-.697.028-.948.725-1.463 1.031-.529.334-.975.808-1.379 1.295-.111.126-.278.223-.251.446a.367.367 0 0 1-.167.265c-.487.209-.627.724-.919 1.1-.306.46-.446.989-.822 1.421-.153.181-.306.487-.153.808.056.153-.098.376-.125.571-.028.167.055.334.027.487-.027.139-.139.251-.195.39-.013.042-.027.084-.013.125.167.794-.195 1.574-.042 2.382.153.794.292 1.588.515 2.368.125.432.223.878-.042 1.351-.125.209-.32.321-.515.181-.139-.097-.306-.223-.39-.39-.139-.25-.293-.501-.418-.752-.251-.529-.599-1.045-.599-1.671 0-.195-.153-.39.028-.585.028-.028.028-.098 0-.14-.404-.766-.223-1.643-.181-2.465.042-.696-.084-1.435.195-2.117-.139-.446.056-.905.279-1.254.766-1.225 1.365-2.507 2.326-3.565.961-1.045 2.047-2.006 3.287-2.716.209-.112.32-.349.627-.39.278-.042.557-.251.835-.39.251-.126.516-.265.794-.307 1.128-.139 2.159-.557 3.273-.641a14.231 14.231 0 0 1 3.343.112c.683.111 1.421.237 2.034.627.264.167.613.236.724.599.028.097.362.125.515.25.39.293.725.641 1.045.989.446.488.808 1.017 1.198 1.546.223.335.515.613.71.961.223.363.404.753.53 1.143.167.501.264 1.03.376 1.546.125.529.334 1.058.306 1.587-.042.975.084 1.909.014 2.87a20.92 20.92 0 0 1-.418 2.799c-.111.53-.432.934-.627 1.421-.083.237-.738.306-.877.139a.206.206 0 0 1-.056-.125c.014-.515-.111-1.003.056-1.504.237-.739.362-1.519.432-2.299l.028.028ZM272.206 144.336a51 51 0 0 0-3.399-3.552c-.446-.418-.822-.919-1.435-1.212-.306-.139-.571-.724-.989-1.1l-1.727-1.532-.863-.766-.418-.362-.125-.098-.168-.125-.083.265-.028.111-.167.418-.711 1.713c-.585 1.379-1.309 2.73-1.782 4.095-.404 1.184-1.045 2.131-1.477 3.231-.459 1.143-.961 2.354-1.546 3.455l-.641 1.198c-.125.236-.167.278-.195.417v.07c.181-.056.293-.125.363-.111.027 0 0 0 .097.014h.446c.334 0 .487-.056.905-.182.084-.027.585 0 .808.028l.418.042h.209s.028.167.055.223c.042.306.098.613.154.905l.097.432.07.251c.042.139.097.278.153.404.209.459.279.891.376 1.351l.404 1.866.376 1.839.098.459.041.237s-.139 0-.195.028l-.947-.028-1.42-.042-.725-.055-1.42-.098h-1.588c-.474 0-.934 0-1.393-.014-.153.042-.126-.125-.139-.223l-.028-.334c-.014-.223-.042-.432-.056-.654a16.173 16.173 0 0 0-.056-.85l-.055-.641-.154-1.281 1.421.223-.056.125c-.209.474-.557.961-.501 1.449 0 .041-.07.222-.125.292-.878 1.198-1.087 2.688-1.755 4.011l-.502 1.031-.32.711c-.042.125-.098.25-.098.306.042-.014.084.042.265-.237.056-.097.042-.097.042-.042-.195.209.654-.125 1.128-.334.543-.237 1.072-.501 1.616-.71 1.239-.488 2.423-1.128 3.746-1.491.558-.153 1.282-.417 1.825-.905.07-.056.167-.111.279-.167l-.544.836-.014-.585.572-.265c.306-.139.724-.265 1.044-.432.362-.181.683-.432 1.045-.599.306-.139.654-.195.989-.292.097-.028.209-.084.306-.126 1.686-1.016 3.608-1.476 5.377-2.326 1.782-.849 3.635-1.615 5.473-2.381.502-.209 1.031-.418 1.533-.544.25-.069.501-.125.738-.139.237-.014.376 0 .529 0 .139 0 .265-.028.348.028.084.042.112.223-.069.46-.307.32-.641.501-.975.696l-1.644.864c-1.128.571-2.201 1.267-3.44 1.685-.39.125-.78.432-1.17.376a.62.62 0 0 0-.279.097c-1.476.975-3.217 1.519-4.847 2.243-1.379.627-2.618 1.435-4.067 1.936l-.125.098.543-.822.083.362-.626.487c-.655.502-1.505.822-2.257 1.073-1.421.473-2.799 1.058-4.178 1.657l-5.781 2.535-.473.209-.237.098-.112.056s.014-.07.028-.084l.432-.961.85-1.894 1.225-2.772 1.853-4.165c.209-.473.265-.933.613-1.448.125-.181.237-.404.348-.655l1.142-2.577.446 2.828c.056.39.125.808.195 1.211.042.293.097.599.139.906.028.209.028.153.028.195 0 .028 0 .056-.014.097-.028.084.07.07.125.112 0 0 .182.028.321.028l.446.027c.598.028 1.197.042 1.796.056h1.393c.042 0 0-.083 0-.111l-.056-.265-.696-3.468-.125-.571s0-.112-.042-.126h-.153l-1.63.084-2.632.139.947-2.298.362-.836.306-.654c.279-.557.418-1.212.878-1.672.125-.139.195-.724.362-1.114l1.212-2.744 1.671-3.788c.334-.78.571-1.574.892-2.354l.515-1.212.919-2.048.362-.794 2.062 1.881 1.044.989c.878.794 1.839 1.518 2.591 2.354 1.393 1.546 2.953 2.939 4.332 4.471a57.322 57.322 0 0 1 3.914 4.861c.682.947 1.03 2.005 1.629 2.98.07.126.126.307.126.502s-.056.418-.14.529c-.195.307-.445.223-.487.126-.028-.042-.056-.084-.056-.14-.042-.32-.529-.724-.863-1.156a9.325 9.325 0 0 1-1.017-1.407c-.975-1.574-2.117-3.008-3.343-4.401h-.097Z"/>
      <path d="M280.27 146.286c.697-.362 1.379-.752 1.992-1.24.223-.181.529-.292.613-.64.042-.167.418-.181.599-.376.501-.53 1.003-1.059 1.421-1.658.403-.585.682-1.226.961-1.866.278-.627.64-1.254.682-1.922.028-.571.32-1.031.307-1.588 0-.571-.042-1.142 0-1.713.027-.418.027-.836-.112-1.226-.083-.251-.278-.432-.362-.697-.07-.25-.098-.557-.404-.668-.028 0-.042-.126-.028-.195a.817.817 0 0 0-.362-.752c-.195-.14-.306-.307-.418-.474a9.399 9.399 0 0 0-1.1-1.253c-.293-.293-.557-.627-.906-.864-.362-.251-.807-.376-1.156-.627-.334-.264-.738-.39-1.142-.501-.223-.056-.487-.237-.724-.028-.028.014-.111 0-.153-.028-.613-.446-1.379-.125-2.062-.279-.724-.153-1.462-.139-2.186-.097-.195 0-.404-.056-.558.139-.055.07-.25.098-.348.056-.543-.181-1.058.084-1.546.209-.585.139-1.058.501-1.685.655-.265.069-.599.236-.697.612-.041.168-.348.279-.501.446-.125.139-.181.334-.32.46-.112.111-.279.153-.432.237a.408.408 0 0 0-.112.111c-.418.836-1.253 1.337-1.727 2.173l-1.448 2.465c-.265.46-.558.919-1.101 1.073-.25.069-.445-.014-.473-.279-.014-.195-.014-.418.055-.599.098-.306.209-.613.307-.905.223-.599.362-1.268.808-1.783.139-.153.167-.432.431-.46.042 0 .098-.069.112-.111.237-.919.961-1.56 1.546-2.27.501-.599.877-1.324 1.588-1.769.195-.474.682-.766 1.114-.948 1.518-.64 3.092-1.253 4.708-1.281 1.63-.042 3.162.098 4.708.39.264.056.529-.042.808.139.264.167.668.195 1.003.307.306.097.654.181.919.362 1.072.752 2.201 1.407 3.036 2.41.822.975 1.435 2.103 1.922 3.273.293.71.613 1.434.655 2.228.028.335.181.683-.042 1.017-.055.098.112.404.112.627a8.77 8.77 0 0 1-.168 1.602c-.139.724-.362 1.434-.598 2.131-.154.418-.251.863-.432 1.281-.195.432-.432.85-.711 1.226-.362.487-.78.905-1.183 1.337-.404.46-.794.975-1.296 1.295-.933.585-1.755 1.282-2.702 1.783-.933.502-1.922.919-2.897 1.296-.557.222-1.142.181-1.699.32-.265.07-.739-.418-.669-.641 0-.042.042-.083.084-.111.487-.293.891-.683 1.476-.85.864-.237 1.685-.599 2.479-1.003l.014.042ZM227.537 134.544c-.098.307-.209.613-.279.92-.028.111-.167.208 0 .39.084.083-.195.125-.209.236-.069.293-.195.571-.25.864-.07.278-.07.585-.14.877-.069.279-.264.53-.223.836.028.265-.222.418-.25.641-.028.251-.07.501-.237.696-.111.153-.251.279-.265.46 0 .111.084.251.042.362-.042.098-.181.195.028.348.014 0-.042.042-.084.056-.181.07-.222.209-.153.334.07.126.028.195 0 .293a4.614 4.614 0 0 1-.223.71c-.069.167-.223.32-.292.488-.084.181-.042.404-.209.543-.167.139-.209.292-.265.459-.028.098-.167.168.042.321.014.014 0 .056-.014.056-.39.167-.07.571-.237.821-.167.251-.209.571-.278.85-.028.084-.112.139.028.265.055.041.027.125-.028.153-.307.139-.223.404-.335.613-.125.236-.097.515-.348.71-.111.084-.195.209-.014.404.084.084-.055.181-.055.279 0 .083.069.181.055.264-.014.07-.125.098-.181.153-.014.014-.028.042-.014.056.14.446-.306.697-.362 1.073-.042.39-.195.738-.334 1.1-.084.195-.223.376-.683.39-.209 0-.417-.056-.515-.181-.07-.084-.125-.181-.125-.265 0-.125 0-.264-.014-.376 0-.251-.126-.557.055-.766.056-.07-.027-.195.182-.195.027 0 .055-.028.041-.042-.195-.418.112-.696.195-1.03.07-.293-.083-.627.112-.878-.181-.223-.084-.404.028-.529.417-.474.431-1.087.64-1.63.209-.557.349-1.128.544-1.685.027-.098-.07-.223.069-.293.126-.069.098-.236.139-.362.042-.111.028-.251.112-.334.39-.362.376-.85.543-1.282.167-.431.334-.863.404-1.323.042-.278 0-.585.139-.835.056-.112-.028-.265.223-.307.07 0-.056-.167-.042-.251.042-.195.112-.376.168-.557.083-.25.181-.501.236-.766.042-.153 0-.348.014-.501.028-.167.084-.335.153-.488.098-.195.237-.376.321-.571.097-.209.056-.459.223-.641.306-.32.334-.738.473-1.1.14-.376.279-.738.348-1.142.042-.223.293-.362.349-.571.028-.098.626-.056.794.042.027.014.069.041.069.069.112.265.321.53.223.766-.139.335-.223.697-.334 1.045v-.042ZM231.423 142.275c-.07.223-.153.431-.195.668-.014.084-.139.14.042.279.083.069-.181.083-.181.153-.042.209-.14.404-.168.627-.041.209-.014.432-.055.641-.042.208-.209.376-.14.598.056.195-.181.293-.181.46 0 .181-.028.362-.167.502-.097.097-.223.195-.209.334 0 .083.098.181.07.264-.028.07-.153.126.056.265.014 0-.028.028-.07.042-.181.042-.195.139-.111.237.083.097.055.153.041.209a2.346 2.346 0 0 1-.139.515c-.056.125-.167.223-.237.348-.055.126 0 .293-.139.39-.153.098-.167.209-.209.334-.014.07-.153.126.07.237.028 0 0 .042 0 .042-.362.111 0 .418-.14.599-.139.181-.139.404-.181.613 0 .056-.097.097.056.195.056.028.042.097 0 .111-.279.098-.181.293-.251.432-.097.167-.028.376-.264.515-.098.056-.167.154.028.293.097.07-.042.125-.028.209 0 .056.097.139.083.195 0 .042-.111.069-.167.111-.014 0-.028.028 0 .042.181.32-.223.501-.223.78s-.097.543-.209.808c-.055.139-.167.278-.626.264-.209 0-.418-.055-.53-.153-.083-.069-.153-.139-.153-.195-.014-.083-.042-.195-.056-.278-.028-.195-.181-.404-.028-.557.042-.042-.055-.14.154-.14.028 0 .055-.014.041-.028-.236-.306.028-.501.07-.752.042-.209-.153-.473 0-.654-.209-.181-.125-.293-.028-.39.362-.335.293-.794.446-1.184.139-.404.223-.822.348-1.226.028-.07-.097-.167.028-.223.111-.056.07-.167.098-.264.027-.084 0-.182.069-.251.334-.251.265-.613.376-.933.112-.321.237-.627.265-.961.028-.209-.056-.432.056-.613.041-.084-.056-.209.195-.223.069 0-.07-.126-.07-.195.028-.139.07-.265.111-.404.056-.181.126-.362.168-.557.013-.112-.042-.251-.028-.376 0-.126.041-.251.111-.362.07-.14.195-.265.265-.404.069-.154.014-.349.167-.46.278-.223.265-.529.362-.794.098-.265.209-.543.237-.822.014-.167.251-.25.292-.404 0-.041.265-.028.488 0v.028c.111-.014.237-.014.306 0h.042v.084c.014 0 .028.028.042.028.125.209.362.417.292.585-.097.236-.153.501-.236.752l-.056.014ZM235.03 150.019a1.954 1.954 0 0 0-.097.404c0 .056-.112.069.07.181.097.056-.154.028-.168.083 0 .126-.083.251-.083.377 0 .125.042.264.028.39 0 .125-.154.222-.07.362.084.125-.139.167-.111.278.014.112.014.223-.098.307-.083.055-.181.097-.167.181 0 .055.125.125.097.167-.013.042-.139.07.084.167.014 0-.028.014-.07.014-.167 0-.167.07-.083.139.097.07.069.098.069.14a.755.755 0 0 1-.083.306c-.042.07-.153.125-.195.195-.042.07.042.181-.098.223-.139.042-.153.111-.167.181 0 .042-.139.056.098.153.028 0 .014.028 0 .028-.348.028.028.265-.084.348-.111.098-.097.237-.111.362 0 .028-.084.056.083.126.056.028.056.069 0 .069-.264.028-.139.167-.209.237-.069.098 0 .237-.209.293-.083.027-.153.069.056.195.098.055-.028.083 0 .125 0 .042.098.097.098.125 0 .028-.098.028-.154.042-.013 0-.013.014 0 .028.209.223-.167.292-.153.46.028.181-.055.334-.125.473-.042.084-.139.153-.585.098a1.691 1.691 0 0 1-.529-.154.63.63 0 0 1-.168-.139c-.027-.056-.055-.125-.083-.181-.042-.125-.223-.278-.084-.348.042-.028-.055-.098.14-.07.027 0 .041 0 .027-.014-.264-.223-.027-.306 0-.459.014-.126-.195-.307-.055-.404-.223-.14-.153-.195-.07-.251.32-.167.223-.46.32-.682.098-.237.14-.488.223-.725.014-.042-.111-.111 0-.139.112-.014.056-.098.07-.153 0-.042-.028-.112.056-.14.306-.125.209-.348.278-.543.084-.181.153-.362.153-.571 0-.125-.097-.278-.027-.376.041-.042-.084-.125.153-.111.069 0-.084-.098-.084-.126 0-.083.042-.167.056-.236.028-.112.084-.223.084-.335 0-.069-.07-.167-.07-.237 0-.083.014-.153.056-.208.055-.084.153-.154.209-.237.055-.084-.028-.209.097-.265.237-.111.181-.306.251-.46.069-.153.125-.32.125-.487 0-.098.209-.125.237-.223 0-.042.585.056.766.125.042 0 .07.028.084.042.153.14.403.293.348.39-.07.14-.084.293-.126.446v.014Z"/>
      <path d="M228.888 154.253c.125-.028.251-.056.376-.111.042-.014.125.069.111-.154 0-.111.112.126.154.098.111-.056.236-.056.348-.111.111-.056.195-.168.306-.223.112-.056.251.028.335-.126.069-.125.195.042.278-.028.084-.069.181-.125.293-.069.083.042.181.111.236.056.042-.042.042-.168.098-.168.042 0 .125.084.097-.167 0-.014.028.014.042.042.084.139.139.111.153 0 0-.111.042-.111.084-.125a.69.69 0 0 1 .292-.07c.084 0 .168.07.251.07.084 0 .139-.126.237-.028.097.097.167.069.237.056.042 0 .111.083.083-.168 0-.027 0-.027.028 0 .195.279.195-.153.321-.111.139.056.236-.042.362-.084.028 0 .083.056.069-.125 0-.07.028-.084.056-.042.153.209.209.042.306.056.112.014.182-.111.335.042.069.069.139.097.125-.14 0-.111.07-.013.112-.055.027-.028.027-.14.055-.153.028 0 .07.069.112.111h.028c.083-.293.32 0 .445-.098.126-.111.293-.125.446-.125.084 0 .195.042.362.46.084.181.139.39.125.529 0 .098 0 .195-.027.223-.028.056-.07.111-.112.167-.069.098-.125.32-.251.251-.041-.028-.041.097-.125-.084 0-.028-.028-.042-.028-.028-.055.335-.237.167-.376.237-.111.056-.153.32-.306.251 0 .251-.084.237-.167.181-.293-.195-.474.042-.711.07-.237.027-.459.125-.696.167-.042 0-.042.153-.112.055-.069-.083-.111 0-.153.014-.042 0-.083.07-.139.028-.251-.195-.39 0-.571.014-.181.028-.376.042-.543.153-.098.07-.181.223-.293.209-.056 0-.07.14-.167-.083-.028-.056-.028.125-.056.139-.069.042-.153.042-.223.07-.111.027-.209.041-.306.083-.056.028-.098.139-.153.181a.32.32 0 0 1-.195.056c-.098 0-.195-.07-.293-.07-.097 0-.153.126-.264.042-.209-.153-.335 0-.502 0-.167.014-.32.042-.459.125-.084.056-.209-.125-.293-.097-.042 0-.237-.529-.279-.724v-.098c.042-.195.042-.487.14-.501.153 0 .292-.07.432-.112l-.07.042ZM232.217 147.052c-.223.084-.46.139-.683.237-.083.042-.195-.028-.223.195 0 .111-.167-.098-.25-.056-.209.098-.432.139-.627.223-.195.097-.376.237-.571.334-.195.098-.446.056-.599.237-.139.153-.348.014-.501.111-.154.098-.335.182-.53.154-.139-.028-.292-.07-.404 0-.069.055-.097.195-.195.209-.083.014-.209-.056-.195.195 0 .027-.041 0-.069-.042-.14-.126-.237-.084-.265.042-.042.125-.098.125-.167.153a3.429 3.429 0 0 1-.529.167c-.14.028-.293-.028-.432 0-.139.014-.265.167-.418.097-.167-.069-.279-.027-.404 0-.07.028-.181-.055-.167.195 0 .028-.028.028-.042.014-.292-.25-.376.223-.599.209-.237 0-.432.112-.641.181-.055.014-.139-.027-.139.154 0 .069-.056.097-.097.055-.223-.181-.349 0-.53.014-.195 0-.348.181-.599.056-.097-.056-.222-.07-.25.181-.014.111-.14.042-.195.084-.056.041-.07.153-.126.167-.041.014-.125-.056-.181-.084h-.041c-.195.334-.572.07-.822.223-.251.153-.543.195-.836.237-.153.028-.334 0-.557-.404l-.042-.098h-.056a1.223 1.223 0 0 1 0-.32h-.027v-.111c.027-.098.055-.209.097-.237.07-.07.153-.139.223-.195.153-.126.278-.376.487-.321.07.014.098-.111.195.056 0 .028.042.028.042.014.153-.362.46-.237.697-.334.209-.084.334-.376.571-.334.041-.265.195-.265.334-.237.487.125.85-.181 1.267-.265.432-.097.836-.265 1.254-.376.07-.014.098-.167.209-.097.111.069.181-.042.279-.07.083-.028.153-.098.25-.07.404.14.683-.111 1.031-.181.334-.069.668-.153.975-.32.181-.098.348-.293.557-.307.098 0 .139-.153.293.028.041.056.069-.139.125-.167.125-.056.265-.097.404-.139.195-.056.39-.098.571-.181.111-.056.195-.181.306-.237.112-.07.237-.098.362-.125.168-.028.335 0 .502-.028.167-.028.292-.181.487-.14.349.098.599-.097.878-.167a3.5 3.5 0 0 0 .836-.292c.153-.084.362.056.515 0 .07-.028.362.487.39.682v.098c-.098.223-.139.543-.32.585-.265.056-.516.167-.78.251l-.028.097ZM219.862 141.007a3.87 3.87 0 0 0 .571-.111c.07-.028.153.069.195-.154.014-.111.126.126.195.098.167-.056.362-.056.53-.111.167-.056.32-.168.487-.223.167-.056.362.028.501-.126.126-.139.293.042.418-.028.14-.069.279-.125.446-.069.111.042.237.111.334.056.056-.042.098-.168.167-.182.07 0 .154.084.168-.167 0-.028.041.014.055.042.098.139.181.125.223 0 .042-.111.098-.111.139-.125.14-.042.293-.07.432-.07.112 0 .237.07.348.07.112 0 .223-.126.349-.028.125.097.223.07.334.056.056 0 .153.083.153-.168 0-.027.028-.027.042 0 .223.293.32-.153.501-.111.195.056.363-.042.53-.084.041 0 .111.056.125-.139 0-.069.056-.083.084-.042.167.223.292.042.431.07.168.014.293-.125.488.042.083.07.181.097.209-.139.014-.112.111-.014.167-.056.042-.028.07-.139.111-.153.042 0 .098.069.14.111h.041c.182-.292.46 0 .683-.097.209-.112.446-.126.682-.126.126 0 .265.042.432.474.07.195.112.404.084.543-.028.097-.056.195-.098.223-.055.056-.125.111-.195.167-.125.097-.236.334-.404.251-.055-.028-.083.097-.167-.084 0-.028-.028-.042-.042-.028-.153.335-.39.181-.585.237-.167.056-.292.32-.487.251-.056.264-.181.237-.279.181-.39-.195-.71.042-1.058.056-.362.027-.697.125-1.045.167-.056 0-.083.153-.181.055-.083-.083-.153 0-.237.014-.069 0-.139.084-.209.028-.32-.209-.571 0-.849.014-.279.028-.557.042-.822.153-.153.07-.306.237-.474.209-.069 0-.125.14-.236-.083-.028-.056-.07.125-.112.139-.111.042-.223.042-.334.07-.153.027-.32.041-.474.083-.097.028-.167.139-.264.181a.749.749 0 0 1-.307.056c-.139 0-.278-.07-.404-.07-.139 0-.25.126-.404.042-.264-.153-.487 0-.724 0-.237.014-.473.042-.696.139-.126.056-.279-.125-.418-.097-.056 0-.251-.543-.251-.738v-.098c.098-.195.167-.501.307-.501.222 0 .431-.07.654-.112v.042ZM242.761 151.467c.097.07.195.154.306.195.042.014.028.126.181-.014.084-.069-.028.154.014.168.112.041.181.139.293.181.111.041.25.028.348.069.111.042.139.195.292.154.14-.042.098.167.195.181.098 0 .209.041.223.167.014.097.014.195.098.209.041 0 .153-.084.181-.042.028.028 0 .139.181-.042.014-.014 0 .028 0 .07-.056.153 0 .181.083.111.084-.069.112-.042.14-.028.083.042.167.084.223.167.041.056.055.168.097.223.042.056.167.014.153.154 0 .139.042.167.098.208.028.028 0 .14.167-.041.014-.014.028 0 .014 0-.098.32.237.041.278.167.042.125.168.153.265.209.028.014 0 .097.139-.042.042-.042.07-.028.056 0-.07.251.084.181.125.265.056.097.195.055.168.264 0 .084 0 .153.181 0 .083-.069.055.042.097.042s.125-.07.153-.056c.028 0 0 .098-.014.154 0 .013 0 .013.014.013.265-.125.181.237.335.265.153.028.264.139.362.251.055.056.083.167-.14.557l.126.265a2.513 2.513 0 0 1-.46 0l.056.125-.042.042c-.07.055-.153.111-.181.125a.81.81 0 0 0-.181.028c-.125 0-.32.125-.334-.014 0-.042-.098.028 0-.139v-.042c-.279.181-.279-.07-.39-.125-.098-.042-.335.097-.362-.056-.195.167-.223.083-.237 0-.028-.334-.307-.32-.46-.474-.153-.153-.362-.25-.529-.39-.028-.028-.139.07-.112-.041.028-.112-.069-.07-.097-.098-.042-.028-.098 0-.098-.084 0-.306-.222-.278-.348-.403-.125-.126-.251-.237-.432-.293-.111-.028-.264.028-.32-.084-.028-.041-.139.042-.042-.181.028-.055-.111.056-.139.056-.07-.028-.125-.07-.181-.111-.084-.056-.153-.126-.251-.167-.056-.028-.167.027-.223 0-.069-.014-.111-.056-.153-.112-.056-.07-.07-.181-.125-.251-.056-.069-.181-.027-.195-.153 0-.251-.195-.251-.307-.348-.111-.098-.223-.195-.376-.237-.083-.028-.042-.237-.111-.278-.014 0 .056-.181.139-.349l-.083-.167c.153 0 .32-.014.403 0h.084l-.139-.237c.167-.111.376-.306.445-.236.098.097.223.167.335.236l.014.014ZM248.611 150.102a5.632 5.632 0 0 0-.599-.39c-.084-.041-.098-.181-.293-.055-.097.055-.028-.195-.097-.237-.195-.098-.362-.251-.557-.362-.195-.098-.418-.153-.613-.251-.195-.097-.307-.32-.557-.334-.209 0-.237-.265-.404-.321-.181-.055-.349-.139-.446-.32-.07-.125-.125-.278-.265-.306-.083-.028-.209.041-.278-.014-.07-.056-.084-.195-.279-.028-.014 0-.028-.042-.014-.084.014-.181-.083-.236-.195-.181-.125.042-.167 0-.223-.028-.153-.097-.32-.181-.459-.306-.098-.098-.167-.251-.265-.348-.111-.098-.292-.098-.334-.265-.042-.167-.153-.237-.265-.306-.056-.042-.069-.181-.264 0-.014.014-.042 0-.042-.028 0-.39-.404-.153-.53-.334-.139-.195-.362-.265-.543-.39-.055-.028-.069-.126-.209 0-.055.041-.111 0-.111-.042 0-.293-.223-.265-.348-.404-.14-.153-.362-.153-.418-.432-.028-.111-.098-.209-.307-.07-.097.056-.111-.083-.181-.097-.055-.014-.167.042-.209 0-.041-.028-.027-.125-.055-.195 0-.014-.014-.028-.042-.028-.376.056-.418-.39-.697-.487-.278-.098-.501-.293-.71-.474-.125-.098-.209-.251-.056-.683l.042-.097-.097-.195a1.22 1.22 0 0 1 .32 0l-.042-.084s.056-.055.084-.069c.097-.056.181-.098.251-.084.097 0 .195.028.292.042.195.042.46-.028.557.167.028.056.153 0 .084.195 0 .028 0 .056.014.042.376-.112.487.195.71.32.195.112.501.014.627.237.237-.139.334-.028.39.111.209.46.668.558 1.017.822.348.279.724.488 1.086.752.056.042.195-.041.209.098 0 .125.139.125.223.181.069.056.181.056.209.153.139.404.515.474.78.683.264.209.543.431.863.571.195.083.446.083.585.25.056.07.209 0 .154.251-.014.07.153-.028.208 0 .126.07.237.153.363.237.167.111.32.237.501.334.111.056.265.042.376.098.125.055.223.125.32.209.112.111.209.278.321.39.125.111.334.125.404.306.139.334.432.418.668.599.237.181.474.362.739.488.153.069.167.32.306.403.07.042-.167.572-.306.725-.028.028-.056.055-.084.055-.237.056-.515.209-.655.098-.209-.181-.445-.306-.668-.46l.014-.028ZM236.131 132.803c.292.195.585.404.891.585.111.07.167.223.404.126.111-.056.084.222.195.292.292.153.557.376.836.529.278.154.599.265.877.418.279.153.488.432.822.502.279.055.376.348.613.445.251.112.501.237.682.46.126.167.237.334.418.404.112.042.279 0 .376.083.098.07.153.237.376.084.014 0 .042.056.042.098.028.208.167.278.32.25.154-.028.223.028.307.084.237.139.473.278.682.446.168.125.279.32.446.445.167.14.418.167.515.376.098.209.265.307.418.418.098.056.14.223.349.07.013-.014.055 0 .055.042.084.445.585.25.808.487.237.251.543.376.836.557.069.042.111.153.278.056.056-.042.14 0 .154.07.069.334.376.348.557.529.209.195.515.251.654.571.056.139.181.265.432.153.112-.056.181.112.279.153.083.028.209 0 .292.028.07.042.07.153.112.237 0 .028.028.042.055.042.502 0 .655.529 1.045.696.39.167.752.432 1.073.683.181.139.334.32.236.794-.041.209-.153.404-.306.459-.112.042-.223.07-.32.042a4.7 4.7 0 0 0-.418-.111c-.279-.084-.613-.056-.794-.307-.056-.069-.209-.028-.153-.237 0-.027-.014-.055-.042-.055-.488.055-.697-.321-1.031-.516-.279-.153-.682-.125-.905-.39-.293.112-.446-.041-.557-.209-.39-.571-1.031-.766-1.56-1.142-.53-.39-1.101-.71-1.63-1.072-.098-.07-.251 0-.293-.153-.041-.154-.222-.168-.348-.251-.111-.07-.251-.098-.32-.223-.293-.501-.808-.641-1.226-.947-.418-.307-.822-.599-1.295-.822-.279-.139-.613-.195-.85-.404-.097-.097-.292-.056-.278-.32 0-.07-.195 0-.279-.042-.195-.097-.362-.223-.543-.348-.251-.167-.488-.348-.752-.488-.154-.083-.363-.111-.53-.181a2.74 2.74 0 0 1-.473-.306c-.181-.153-.335-.362-.53-.516-.195-.153-.473-.208-.612-.431-.265-.404-.683-.571-1.045-.836a8.287 8.287 0 0 0-1.1-.724c-.223-.112-.307-.404-.516-.53-.097-.055.098-.626.237-.766.028-.028.07-.055.084-.055.306-.014.64-.14.863.027.321.251.669.446 1.003.669l.084-.028ZM253.36 137.776c-.195-.153-.39-.321-.599-.46-.083-.056-.097-.195-.292-.083-.098.055-.028-.195-.098-.237-.195-.126-.362-.293-.571-.418-.195-.125-.432-.195-.627-.307-.195-.125-.306-.348-.557-.39-.209-.027-.236-.292-.404-.362-.181-.083-.362-.181-.445-.362-.07-.139-.126-.292-.251-.334-.084-.028-.223.014-.293-.042-.055-.056-.069-.195-.278-.056-.014 0-.014-.041-.014-.083.028-.181-.07-.237-.195-.209-.125.042-.167 0-.223-.056a4.043 4.043 0 0 1-.46-.348c-.097-.098-.153-.265-.264-.376-.098-.112-.293-.125-.334-.307-.042-.181-.14-.25-.251-.334-.056-.042-.07-.195-.265-.028-.014.014-.042 0-.042-.028.028-.39-.404-.195-.529-.39-.125-.208-.348-.306-.543-.445-.056-.042-.056-.14-.209-.028-.056.042-.111 0-.111-.056 0-.306-.223-.292-.335-.432-.125-.167-.362-.195-.404-.473-.014-.112-.083-.223-.306-.112-.098.056-.112-.083-.195-.111-.056-.028-.167.028-.223 0-.042-.028-.028-.139-.042-.195 0-.014-.014-.028-.042-.028-.39.028-.417-.432-.696-.557-.279-.125-.501-.348-.724-.557-.126-.126-.209-.279-.014-.697.083-.181.223-.348.362-.404.097-.041.195-.069.265-.055.097.028.209.055.292.069.195.056.474 0 .557.223.028.07.153.014.07.209 0 .028 0 .056.014.056.404-.084.487.251.71.39.195.125.516.07.641.292.251-.111.348 0 .404.14.195.487.668.626 1.003.933.334.306.724.557 1.086.863.056.056.195-.013.209.126 0 .139.139.139.223.195.07.056.181.069.209.181.125.418.501.529.78.766.264.237.543.487.863.655.195.097.446.125.599.306.056.07.223.028.154.265-.014.069.153-.014.208 0 .126.069.237.181.363.264.167.126.32.265.501.376.111.07.265.07.376.126a.907.907 0 0 1 .32.25c.112.126.195.293.321.418.125.126.334.154.404.335.125.348.432.459.668.668.237.209.46.404.739.557.153.084.167.335.292.446.07.042-.195.571-.348.71-.028.028-.056.056-.084.056-.237.042-.543.167-.682.042-.209-.195-.446-.348-.669-.529l-.014-.028Z"/>
      <path d="M237.482 139.642c.097-.209.223-.418.292-.627.028-.083.167-.111 0-.292-.069-.084.181-.056.209-.126.07-.209.195-.39.265-.599.069-.195.083-.431.153-.626.07-.195.265-.349.237-.585-.028-.209.223-.265.251-.432.027-.181.083-.362.25-.474.112-.083.251-.153.279-.278.014-.084-.056-.209 0-.279.042-.069.181-.097 0-.264-.014-.014.042-.028.083-.028.181 0 .223-.098.168-.209-.056-.112-.014-.153 0-.223.069-.167.153-.32.264-.474.084-.111.223-.181.307-.292.083-.112.055-.293.222-.348.168-.056.223-.168.279-.279.028-.07.181-.084-.014-.251-.014-.014 0-.041.028-.041.376-.028.111-.404.279-.544.181-.153.222-.362.32-.557.028-.056.111-.069 0-.209-.042-.042-.028-.097.028-.111.292-.028.237-.237.362-.362.125-.14.125-.362.376-.432.111-.028.195-.098.042-.307-.07-.097.069-.125.083-.195 0-.055-.055-.153-.028-.208.014-.042.126-.042.182-.056.013 0 .027-.028.027-.042-.097-.376.335-.432.418-.71.07-.279.237-.502.404-.725.098-.125.237-.222.683-.083.195.056.39.167.459.292.056.084.112.181.098.237 0 .098-.014.195-.028.293-.028.195.07.445-.125.543-.056.028 0 .153-.181.097-.028 0-.056 0-.042.028.153.362-.153.488-.251.711-.084.195.028.487-.167.626.153.223.056.321-.07.39-.432.237-.473.683-.71 1.031-.237.348-.404.738-.627 1.1-.042.056.056.181-.083.209-.126.014-.112.154-.154.223-.041.07-.041.181-.125.223-.39.167-.404.529-.599.808-.181.278-.362.557-.46.877-.055.195-.041.432-.181.585-.055.07.028.209-.223.181-.069 0 .056.14.042.195-.042.14-.111.251-.181.377-.083.167-.181.334-.251.515-.041.111 0 .251-.027.376a.913.913 0 0 1-.154.334c-.097.126-.236.223-.32.362-.097.14-.07.335-.237.418-.306.167-.334.474-.487.711-.14.25-.279.487-.362.766-.042.153-.293.209-.349.348-.027.07-.599-.084-.766-.195a.166.166 0 0 1-.069-.07c-.098-.209-.293-.459-.195-.613.139-.222.236-.473.348-.71h.028ZM253.959 130.157c-.237.306-.487.599-.71.919-.084.125-.251.167-.181.418.042.125-.251.083-.321.195-.208.306-.459.571-.668.863-.195.293-.348.627-.543.92-.195.292-.516.501-.627.849-.098.293-.418.376-.543.627-.14.265-.307.529-.557.697-.181.125-.377.236-.474.431-.056.126-.042.293-.139.404-.084.098-.265.153-.14.39 0 .014-.055.042-.111.042-.209.014-.32.153-.306.32 0 .154-.07.237-.126.321a6.519 6.519 0 0 1-.557.71c-.153.167-.362.279-.515.446-.167.167-.237.432-.46.529-.223.098-.348.265-.487.432-.07.097-.251.139-.112.362 0 .028-.014.056-.042.056-.459.069-.348.599-.613.822-.292.236-.473.557-.682.849-.056.084-.181.112-.097.293.027.069-.028.153-.098.153-.362.056-.418.376-.613.571-.237.223-.334.529-.682.669-.14.055-.293.167-.209.445.042.126-.14.181-.195.279-.042.083-.014.223-.07.306-.042.07-.167.07-.251.112-.027 0-.041.028-.041.055-.084.516-.641.669-.864 1.073-.237.404-.543.752-.864 1.1-.181.195-.39.348-.849.209-.209-.056-.376-.195-.404-.362-.028-.125-.042-.251 0-.334.056-.14.111-.293.167-.418.125-.279.139-.641.418-.808.083-.056.07-.209.265-.153.027 0 .069 0 .069-.042 0-.515.432-.724.683-1.059.209-.292.223-.71.529-.933-.07-.306.111-.459.292-.571.641-.39.934-1.058 1.407-1.588.474-.543.878-1.128 1.337-1.671.084-.098.028-.265.209-.307.167-.041.209-.222.307-.348.083-.111.139-.264.264-.334.544-.279.78-.822 1.142-1.24.363-.418.739-.849 1.031-1.323.181-.292.279-.641.53-.877.111-.098.097-.307.362-.279.083 0 .027-.209.069-.292.126-.195.279-.376.432-.558.195-.25.418-.501.599-.766.111-.167.153-.376.265-.543a2.18 2.18 0 0 1 .39-.487c.181-.195.417-.349.599-.53.181-.195.278-.487.529-.626.459-.251.682-.697.989-1.059.32-.362.627-.724.891-1.142.153-.237.46-.307.613-.515.07-.098.627.125.752.292.028.028.042.07.042.098-.014.32.056.682-.139.905-.293.334-.557.682-.822 1.031l-.07-.028ZM243.36 153.014c.167-.223.348-.418.501-.641.056-.084.195-.098.097-.321-.055-.111.209-.027.251-.111.139-.209.321-.39.46-.599.139-.209.223-.46.348-.668.125-.209.376-.335.418-.599.042-.223.306-.251.39-.432.083-.195.195-.376.39-.488.139-.069.306-.139.362-.278.042-.084 0-.237.056-.307.069-.069.209-.083.069-.306 0-.014.042-.028.084-.014.181.028.251-.084.223-.209-.028-.125.028-.181.069-.237.126-.167.251-.334.404-.473.112-.112.279-.167.404-.279.126-.111.14-.32.335-.348.195-.042.278-.153.362-.265.055-.069.209-.069.055-.278 0-.014 0-.042.028-.042.404.014.223-.432.446-.571.223-.139.334-.376.501-.571.042-.056.14-.07.042-.223-.028-.056 0-.112.056-.112.306 0 .32-.236.473-.362.182-.139.223-.376.516-.431.125-.014.237-.098.125-.321-.042-.111.098-.125.139-.195.028-.069 0-.181.028-.237.028-.041.14-.027.209-.041.014 0 .042-.014.042-.042 0-.418.488-.446.641-.738.153-.293.39-.53.64-.766.126-.126.307-.223.711 0 .195.083.334.25.39.39.028.111.056.208.028.278-.028.098-.07.223-.098.32-.069.209-.055.502-.264.585-.07.028-.028.168-.209.07-.028 0-.056 0-.056.014.056.418-.293.501-.46.738-.139.195-.097.53-.348.655.098.265-.028.362-.181.418-.515.209-.682.696-1.031 1.044-.348.363-.626.766-.961 1.129-.055.069 0 .209-.139.209s-.153.153-.223.236c-.07.07-.084.195-.195.223-.446.139-.571.529-.85.822-.264.279-.529.571-.724.905-.111.209-.153.474-.348.627-.084.07-.042.237-.279.167-.069-.014 0 .167-.027.223-.084.139-.195.265-.293.39-.139.181-.293.348-.418.529-.07.112-.083.279-.153.404-.07.126-.153.237-.265.335-.139.125-.306.222-.445.348-.14.139-.168.348-.363.432-.362.139-.487.473-.71.71a4.724 4.724 0 0 0-.599.794c-.097.167-.348.181-.459.32-.056.07-.585-.181-.725-.334-.028-.028-.055-.056-.055-.084-.028-.25-.154-.557-.014-.71.209-.223.39-.487.571-.738l.028.056ZM254.878 154.601c.014.126.014.251.056.362.014.042-.083.098.139.126.112 0-.139.083-.111.125.042.112.028.223.056.334.042.112.139.209.181.307.042.111-.056.237.083.32.126.07-.055.181 0 .265.056.083.112.181.028.278-.055.07-.139.154-.083.209.028.042.167.056.153.098 0 .042-.098.111.153.097.014 0-.014.028-.056.042-.153.07-.125.126-.014.139.112.014.098.056.112.084a.616.616 0 0 1 .042.279c0 .069-.084.153-.098.222 0 .07.112.14 0 .223-.111.084-.083.154-.069.209 0 .042-.098.098.153.084.028 0 .028 0 0 .028-.293.167.139.195.083.32-.055.125.014.223.042.334 0 .028-.056.07.125.07.07 0 .07.028.028.056-.223.125-.069.181-.083.278-.028.112.097.181-.07.321-.07.055-.111.125.125.125.112 0 0 .07.042.097.028.028.14.028.14.056s-.084.07-.112.098v.028c.279.097-.042.306.056.431.097.126.097.279.083.432 0 .084-.055.181-.487.32-.195.07-.404.112-.529.098-.098 0-.181-.014-.209-.042-.042-.028-.098-.083-.154-.111-.097-.084-.306-.126-.222-.251.027-.042-.098-.056.097-.111.028 0 .042-.028.028-.028-.32-.07-.153-.237-.195-.376-.042-.112-.306-.167-.209-.307-.251-.014-.223-.097-.167-.181.223-.264 0-.459 0-.696 0-.237-.084-.446-.112-.683 0-.042-.153-.042-.055-.111.097-.056 0-.098 0-.153 0-.042-.07-.084-.014-.14.223-.223.042-.376.028-.557 0-.181 0-.362-.112-.529-.055-.098-.195-.195-.167-.307.014-.055-.125-.083.098-.153.069-.028-.112-.042-.126-.069-.028-.07-.028-.154-.042-.223 0-.098 0-.209-.041-.307-.028-.055-.126-.111-.154-.167a.311.311 0 0 1-.027-.195c.014-.083.083-.181.097-.264 0-.084-.111-.168 0-.265.181-.181.056-.32.056-.474 0-.153 0-.306-.07-.459-.042-.084.139-.181.139-.265 0-.042.558-.153.753-.167h.097c.195.056.488.097.474.195 0 .139.028.278.041.418v.083ZM258.765 146.69c.041.223.083.446.153.655.028.083-.056.181.167.222.111.028-.111.154-.084.223.07.195.084.418.14.613.069.195.195.376.264.571.07.195 0 .418.154.585.139.139-.014.334.055.474.084.153.153.32.098.501-.042.139-.098.265-.028.376.042.07.181.112.181.195 0 .084-.084.181.181.195.028 0-.014.042-.042.07-.139.111-.111.209 0 .251.112.041.112.111.14.167.055.167.097.334.097.501 0 .126-.056.279-.056.404 0 .139.14.251.056.404-.097.153-.056.265-.042.376.014.07-.083.167.181.181.028 0 .028.028 0 .042-.278.265.181.362.14.571-.042.223.055.418.111.627 0 .056-.042.125.139.139.07 0 .084.056.042.098-.209.209-.028.334-.042.501 0 .181.14.348 0 .557-.069.098-.083.209.154.251.111.014.027.125.069.195.028.056.139.083.153.125 0 .042-.069.112-.097.167v.042c.306.209.028.543.153.78.125.251.153.516.181.794 0 .153-.028.32-.446.502l-.097.041v.042a1.332 1.332 0 0 1-.334 0v.028h-.112c-.097-.028-.195-.056-.237-.111-.055-.07-.125-.154-.181-.223-.111-.154-.348-.279-.278-.474.028-.056-.112-.097.083-.181.028 0 .042-.042.014-.042-.348-.167-.209-.445-.278-.682-.056-.195-.348-.348-.279-.571-.264-.056-.251-.195-.195-.335.167-.459-.083-.821-.125-1.225-.056-.418-.167-.808-.237-1.212 0-.07-.167-.098-.07-.209.084-.098-.014-.181-.027-.265-.014-.083-.084-.153-.042-.25.181-.363-.028-.655-.07-.975-.042-.321-.083-.641-.209-.948-.083-.181-.251-.348-.237-.557 0-.083-.139-.153.07-.278.056-.042-.125-.084-.153-.126-.042-.125-.056-.264-.084-.39-.042-.181-.055-.376-.125-.557-.042-.111-.153-.195-.195-.306a1.032 1.032 0 0 1-.07-.348c0-.154.042-.321.042-.474 0-.153-.153-.292-.07-.474.14-.32-.014-.571-.055-.849-.042-.279-.07-.557-.181-.822-.056-.153.111-.334.069-.487-.014-.07.53-.265.738-.279h.098c.209.111.515.195.515.362.028.251.098.502.154.752l-.014.07ZM265.436 137.455c.056.321.098.655.181.975.028.126-.055.265.181.349.112.041-.111.208-.083.32.083.306.097.613.181.919.07.293.209.571.292.864.07.292.014.613.182.877.153.223 0 .488.083.711.098.236.167.487.125.752-.041.195-.083.376-.013.543.041.111.181.181.195.306 0 .112-.07.265.181.307.027 0 0 .056-.042.097-.139.154-.098.293.028.376.125.084.125.168.153.251.056.251.125.502.139.752.014.195-.042.39-.028.585 0 .195.167.39.084.585-.084.209-.042.376 0 .557.014.098-.07.237.195.279.028 0 .028.042 0 .056-.265.348.209.557.181.849-.028.321.097.613.167.92.014.083-.042.181.153.222.07.014.084.098.056.154-.195.278 0 .473 0 .724 0 .278.167.515.042.808-.056.125-.07.292.181.376.111.042.042.195.083.278.042.07.154.126.182.209.013.07-.056.154-.084.223v.07c.334.334.07.78.223 1.156.153.376.195.766.251 1.17.027.223 0 .46-.404.696-.181.112-.39.154-.544.098a.512.512 0 0 1-.25-.181c-.07-.112-.14-.237-.195-.335-.126-.236-.376-.431-.321-.724.014-.083-.111-.153.056-.264.028-.014.028-.056.014-.07-.376-.279-.251-.683-.348-1.031-.084-.292-.376-.529-.335-.849-.278-.112-.278-.321-.236-.502.125-.641-.154-1.198-.237-1.797-.084-.613-.237-1.197-.334-1.81-.014-.098-.168-.167-.084-.307.084-.125-.028-.264-.056-.39-.028-.125-.097-.237-.055-.362.167-.515-.084-.961-.14-1.435a8.06 8.06 0 0 0-.278-1.406c-.084-.279-.265-.544-.265-.836 0-.125-.153-.237.056-.39.056-.042-.139-.125-.153-.209-.056-.195-.07-.39-.112-.585-.042-.279-.083-.557-.153-.822-.042-.167-.167-.306-.223-.473a2.216 2.216 0 0 1-.097-.53c0-.222.027-.459.014-.682-.014-.237-.168-.46-.098-.697.125-.445-.042-.835-.097-1.239-.042-.404-.098-.822-.223-1.212-.07-.223.083-.46.055-.682-.014-.112.53-.335.725-.321.041 0 .083 0 .097.028.223.195.529.348.557.599.042.376.126.738.181 1.114l.014-.014ZM272.637 152.749c-.027-.167-.027-.348-.083-.502-.014-.055.069-.139-.139-.181-.112-.014.125-.111.111-.167-.056-.153-.042-.32-.084-.473-.041-.154-.153-.293-.195-.446-.041-.153.056-.32-.097-.446-.125-.111.056-.251 0-.362-.07-.125-.112-.251-.042-.39.056-.097.125-.209.07-.292-.028-.056-.167-.098-.167-.154 0-.055.097-.139-.154-.153-.027 0 .014-.028.056-.056.153-.083.125-.153.014-.195-.111-.041-.097-.083-.111-.125a1.193 1.193 0 0 1-.042-.39c0-.097.083-.209.097-.306 0-.098-.111-.195 0-.307.112-.111.084-.195.084-.292 0-.056.097-.126-.153-.14-.028 0-.028-.027 0-.027.306-.195-.14-.279-.084-.446.056-.167-.014-.321-.042-.474 0-.042.056-.097-.125-.111-.07 0-.084-.056-.028-.07.223-.139.07-.251.098-.376.027-.139-.098-.265.069-.432.07-.069.112-.153-.125-.195-.112-.014 0-.097-.042-.153-.028-.042-.139-.07-.139-.111 0-.028.083-.084.125-.126v-.028c-.278-.167.042-.403-.056-.598-.097-.195-.097-.404-.083-.613v-.167c.028-.084.153-.168.501-.237.195-.028.418-.028.544 0 .097.042.181.069.208.111l.084.112v-.056l.07.083c.097.126.32.223.223.377-.028.041.097.083-.098.139-.028 0-.042.028-.028.028.334.139.153.348.195.529.042.153.307.279.209.446.251.055.223.167.167.25-.223.335 0 .613 0 .934 0 .306.084.612.098.933 0 .056.153.083.055.153-.097.07 0 .139 0 .209 0 .056.07.125.014.181-.222.279-.041.501-.041.738 0 .251 0 .488.097.725.056.139.209.264.181.431-.014.07.126.112-.097.209-.056.028.125.056.139.098.028.097.028.195.042.306.014.139.014.279.055.418.028.084.126.153.168.237a.595.595 0 0 1 .041.264c0 .112-.083.237-.083.363 0 .125.111.222.028.348-.167.237-.042.432-.028.641 0 .208.014.417.097.612.042.112-.139.251-.111.363 0 .055-.543.222-.752.222h-.098c-.195-.083-.487-.139-.487-.278 0-.195-.056-.39-.084-.585h-.042Z"/>
      <path d="M271.161 144.378c-.237.042-.487.083-.724.153-.084.028-.195-.056-.251.167-.028.112-.153-.111-.237-.083-.223.069-.445.083-.668.139-.209.069-.418.195-.627.264-.209.07-.46 0-.641.154-.153.139-.362-.014-.529.055-.167.084-.362.154-.557.098-.14-.042-.293-.098-.404-.028-.07.042-.126.181-.223.181-.084 0-.195-.083-.223.181 0 .028-.042-.014-.07-.042-.111-.139-.222-.111-.278 0-.056.112-.125.112-.181.14-.181.041-.362.083-.557.097-.14 0-.293-.056-.432-.056-.153 0-.279.14-.432.042-.153-.097-.278-.069-.418-.042-.069 0-.181-.083-.195.168 0 .027-.028.027-.042 0-.264-.279-.403.181-.626.139-.237-.042-.46.056-.683.111-.056 0-.139-.041-.153.14 0 .069-.07.083-.111.041-.209-.209-.363-.027-.53-.041-.209 0-.376.139-.613-.014-.097-.07-.222-.084-.278.153-.028.111-.139.028-.209.056-.056.027-.098.139-.153.153-.056 0-.112-.07-.167-.098h-.042c-.237.307-.585.014-.85.14-.278.125-.571.139-.863.167h-.14.084c-.167-.042-.334-.14-.474-.446-.083-.195-.111-.404-.069-.543.027-.098.055-.195.097-.223l.084-.07h.055s.098-.083.14-.111c.167-.112.32-.348.529-.265.07.028.111-.111.195.084 0 .028.042.042.042.014.195-.348.501-.195.752-.265.209-.056.39-.334.627-.278.083-.265.223-.251.362-.195.473.181.877-.07 1.323-.112.446-.042.878-.153 1.323-.223.07 0 .112-.167.223-.069.098.083.195 0 .293-.028.083-.014.167-.084.264-.042.39.195.711-.028 1.059-.056.348-.042.696-.069 1.031-.195.195-.083.39-.25.598-.237.098 0 .168-.139.293.07.042.056.084-.125.139-.153.14-.042.293-.056.432-.084.195-.041.404-.055.599-.125.125-.042.223-.153.334-.195.126-.042.251-.07.376-.07.167 0 .349.042.516.042.167 0 .32-.153.501-.07.334.14.613-.013.919-.055.307-.028.599-.07.892-.181.153-.056.334.083.487.069h.098s.181.544.223.739c0 .041 0 .083-.028.097-.056.07-.126.139-.209.209h.097c-.083.153-.167.306-.292.32-.279.028-.543.098-.822.154l.014-.042ZM253.486 153.473s.055-.083.055-.125c0-.014.098 0-.083-.098-.098-.055.139.028.139.014 0-.056.042-.069.042-.125 0-.042-.07-.125-.07-.167 0-.042.126-.042.014-.126-.083-.069.112-.027.084-.069-.028-.056-.042-.098.056-.098.069 0 .167.014.125-.028-.014-.027-.125-.083-.112-.097.014 0 .112.014-.097-.098h.056c.153.042.153.028.055-.027-.097-.056-.069-.056-.069-.07 0-.042 0-.07.042-.098.027-.014.125 0 .153-.014.028-.013-.056-.083.069-.069.126.028.126 0 .14-.028 0 0 .111.014-.112-.098-.014-.013-.014 0 0 0 .307.098-.055-.111.028-.125.098 0 .056-.07.07-.111 0 0 .069 0-.084-.07-.056-.028-.056-.042 0-.028.237.07.112-.028.167-.042.056-.014-.028-.097.154-.055.083.014.125.014-.07-.098-.098-.056 0-.028 0-.042 0-.014-.112-.069-.098-.083 0 0 .084.014.14.028-.209-.154.125-.07.083-.14-.042-.083 0-.125.07-.153.028-.014.111-.014.529.139.181.07.39.168.502.223.083.042.153.098.181.112l.097.097c.056.07.223.181.112.167-.042 0 .069.056-.126-.014h-.028c.265.168.056.14.056.195 0 .042.209.182.098.182.209.125.167.125.083.125-.278-.028-.153.125-.209.181-.069.07-.069.153-.111.223 0 0 .111.083 0 .056-.098-.028-.028.027-.042.041 0 .014.028.056-.028.042-.264-.042-.153.084-.195.125-.056.056-.097.098-.069.182.013.055.125.139.055.167-.028 0 .084.083-.125 0-.056-.028.097.069.097.083 0 .028-.014.056-.027.084-.014.042-.042.069-.042.111 0 .028.083.084.097.112 0 .027 0 .055-.028.069-.041.014-.125 0-.167.028-.042.014.056.098-.055.084-.209-.028-.14.069-.182.111-.041.042-.083.084-.055.167 0 .042-.181 0-.195.014 0 0-.543-.195-.725-.278-.027-.014-.069-.042-.083-.042-.153-.098-.404-.237-.376-.265.042-.042.056-.097.069-.139l-.055-.042Z"/>
      <path d="M257.26 150.59c.363 0 .725 0 1.101-.042.139 0 .278.084.418-.125.069-.112.209.139.334.125.334-.028.682 0 1.017-.028.334-.028.654-.125.989-.153.334-.028.668.084.989-.056.278-.111.529.084.78.028.278-.056.571-.097.835 0 .195.07.404.139.599.098.126-.028.237-.154.376-.154.126 0 .265.112.376-.139 0-.014.07.028.098.056.139.153.306.139.418.028.111-.112.209-.098.306-.098.279-.014.557-.028.836-.014.209.014.418.098.627.126.222.028.445-.084.654.028.209.111.404.111.599.111.112 0 .251.111.334-.139 0-.028.056-.014.07 0 .32.32.641-.112.961-.028.334.083.683.014 1.017 0 .097 0 .195.069.265-.112.027-.069.125-.069.167-.027.25.236.515.097.78.125.292.042.585-.07.891.111.126.084.293.126.446-.097.07-.112.209 0 .32-.028.084-.014.181-.125.265-.125.07 0 .153.083.223.139h.069c.432-.265.864.083 1.296.028.432-.07.877-.042 1.309 0 .237.014.488.097.655.543.069.195.069.418-.028.543a.575.575 0 0 1-.251.209c-.139.042-.278.084-.404.125-.278.07-.557.279-.849.168-.084-.028-.195.083-.265-.112 0-.028-.042-.042-.07-.028-.39.307-.78.098-1.17.126-.334.014-.654.264-.989.153-.181.251-.404.195-.585.125-.654-.25-1.323-.069-1.978-.111-.668-.028-1.337 0-2.005 0-.112 0-.209.139-.348.028-.126-.098-.293-.014-.432-.014-.14 0-.279.055-.404 0-.529-.251-1.045-.098-1.574-.112-.529-.014-1.045-.028-1.574.042-.32.042-.627.181-.947.139-.139-.014-.279.112-.418-.111-.042-.07-.167.111-.251.125-.223.028-.432.014-.654.014-.307 0-.613 0-.906.028-.181.014-.362.112-.557.139-.195.028-.39.028-.585 0-.251-.027-.487-.097-.738-.125-.251-.014-.515.098-.766 0-.46-.181-.906-.07-1.365-.084-.446 0-.906-.013-1.351.042-.251.028-.488-.153-.738-.139-.112 0-.293-.571-.251-.766a.16.16 0 0 1 .042-.098c.236-.195.459-.473.738-.473.418.014.822-.014 1.239-.028l.014.014ZM264.74 156.593s.111-.028.167-.083c.014-.014.084.069.014-.14-.028-.097.084.126.097.098.042-.042.112-.042.154-.084.041-.042.055-.139.097-.195.042-.042.139.042.139-.097 0-.112.112.041.14-.014.028-.07.055-.112.139-.042.056.042.125.111.139.056 0-.028-.028-.154 0-.154s.084.084 0-.139c0-.014.014.014.042.042.084.139.112.111.084 0-.028-.111 0-.098 0-.111.041-.028.083-.056.125-.056.042 0 .111.069.153.083.042 0 .028-.111.112-.014.083.098.111.084.139.07.014 0 .084.084 0-.153 0-.028 0-.028 0 0 .181.278.056-.139.139-.084.084.056.112-.028.167-.055 0 0 .056.055 0-.126-.014-.055 0-.069.014-.028.14.209.112.056.167.07.07.028.07-.097.182.056.055.069.097.097.027-.126-.027-.097.028 0 .042-.041 0-.028-.028-.126 0-.14 0 0 .056.07.084.112-.042-.265.167.028.209-.07.041-.097.111-.097.195-.097.041 0 .111.055.32.445.098.181.181.376.209.502.028.097.042.181.042.209v.139c0 .084.028.292-.056.209-.028-.028 0 .083-.084-.084 0-.028-.027-.041-.027-.028.069.307-.084.154-.126.195-.042.042 0 .293-.083.209.069.237.014.209-.042.154-.209-.195-.237 0-.348.027-.112 0-.209.084-.321.126-.014 0 .028.139-.041.056-.056-.084-.056 0-.07 0-.014 0-.028.069-.07.013-.181-.195-.209-.027-.292 0-.098 0-.181.028-.237.112-.028.056-.028.209-.098.181-.027 0 0 .125-.111-.084-.028-.055.014.112 0 .126-.028.028-.07.042-.097.055-.042.014-.098.028-.14.07-.028.028 0 .125-.028.153-.014.042-.055.042-.083.042-.056 0-.126-.07-.167-.07-.056 0-.042.112-.126.028-.153-.153-.181-.028-.25-.014a.249.249 0 0 0-.209.098c-.028.042-.14-.125-.181-.098-.014 0-.265-.501-.349-.696 0-.042-.027-.07-.027-.084-.042-.181-.112-.459-.07-.459.07 0 .125-.042.195-.07Z"/>
      <path d="M263.598 158.111c-.195 0-.39-.027-.585 0-.07 0-.139-.097-.223.112-.042.097-.097-.153-.167-.139-.181.027-.362-.014-.543 0-.181.013-.362.097-.53.125-.181.014-.348-.098-.529.014-.153.111-.278-.098-.418-.056-.153.042-.306.07-.445-.028-.112-.069-.209-.153-.321-.111-.069.028-.125.153-.209.139-.069 0-.139-.111-.209.125 0 .014-.028-.027-.055-.055-.07-.167-.154-.153-.223-.042-.056.111-.112.097-.167.097-.154 0-.307.014-.446 0-.112-.013-.223-.111-.334-.139-.112-.028-.237.084-.349-.042-.111-.125-.209-.111-.32-.111-.056 0-.125-.111-.181.139 0 .028-.028.014-.042 0-.167-.32-.348.098-.515 0-.181-.083-.362-.028-.543-.028-.042 0-.098-.069-.154.112-.014.069-.069.069-.097.028-.125-.251-.279-.098-.418-.14-.153-.055-.32.056-.474-.125-.069-.084-.153-.125-.236.098-.042.111-.112 0-.167.027-.042.014-.098.126-.14.126-.042 0-.083-.098-.125-.14h-.042c-.223.265-.446-.097-.682-.027-.223.069-.46.041-.697 0-.125-.028-.264-.098-.362-.544-.042-.195-.056-.417 0-.543.042-.097.084-.181.125-.209.07-.042.154-.083.223-.125.153-.07.293-.279.46-.167.056.028.111-.084.153.111 0 .028.028.042.042.028.209-.306.432-.097.641-.125.181-.014.362-.265.543-.154.097-.25.223-.195.32-.125.348.265.711.098 1.059.139.362.042.724 0 1.072.028.056 0 .112-.139.181-.028.07.098.154.028.237.028.07 0 .153-.055.209 0 .279.265.557.112.85.14.278.027.557.055.849 0 .167-.042.349-.168.516-.112.069.028.153-.111.223.125.013.07.097-.111.139-.111.111-.014.237 0 .348 0 .167 0 .32.028.488 0 .097 0 .195-.111.306-.125.111-.028.209-.014.32 0 .126.028.265.125.39.139.14.028.279-.07.404.042.237.209.488.111.725.139.236.028.487.056.724 0 .139-.028.251.181.39.181.056 0 .125.571.083.78 0 .042-.014.07-.027.084-.14.181-.265.459-.418.431-.223-.027-.446-.013-.669-.027l.042.041Z"/>
    </g>
  </g>
  <defs>
    <clipPath id="a">
      <path fill="#fff" d="M39 80h281.719v200H39z"/>
    </clipPath>
  </defs>
</svg>
