<?xml version="1.0" encoding="UTF-8"?>
<svg width="115px" height="40px" viewBox="0 0 115 40" version="1.1" xmlns="http://www.w3.org/2000/svg" xmlns:xlink="http://www.w3.org/1999/xlink">
    <title>Logo/SE/02 S (height 40px)/03 Brand colour</title>
    <g id="Logo/SE/02-S-(height-40px)/03-Brand-colour" stroke="none" stroke-width="1" fill="none" fill-rule="evenodd">
        <g id="Logo-brand-colour" fill="#0000BF">
            <path d="M112.49388,2.4835637 L112.500715,25.480929 C112.500715,29.8698877 108.855123,33.4413684 104.37405,33.4413684 L65.4845968,33.476065 C62.504592,33.476065 59.6912279,34.5503628 57.4946297,36.5147744 C55.2983571,34.5510113 52.4840166,33.476065 49.5046627,33.476065 L10.5605304,33.476065 C6.11590983,33.476065 2.49895991,29.9049086 2.49895991,25.5156256 L2.49895991,2.4845365 L112.49388,2.4835637 Z M58.8092037,38.6977423 C60.5921293,36.9321065 62.962203,35.9596287 65.4845968,35.9596287 L104.37405,35.9249321 C110.233489,35.9249321 115,31.239593 115,25.480929 L114.993491,0 L0,0.000972802075 L0,25.5156256 C0,31.2742897 4.73754369,35.9596287 10.5605304,35.9596287 L49.5046627,35.9596287 C52.0264055,35.9596287 54.3971302,36.9321065 56.1797303,38.6970938 L57.4946297,40 L58.8092037,38.6977423 Z" id="Outline"></path>
            <path d="M69.1744846,13.426063 L71.3675025,14.6764379 C71.3333281,15.7915934 70.8236419,16.3149609 69.8540663,16.3149609 C69.6775312,16.3149609 69.4462131,16.2827936 69.2825927,16.2438607 L69.1744846,16.2137895 L69.1744846,16.2812371 C69.6506474,16.6531717 70.2283569,17.261173 70.2283569,18.2414333 C70.2283569,19.8722968 68.7070544,20.9212527 66.7808762,20.9916553 L66.5730015,20.9954359 C65.6382512,20.9954359 64.838571,21.2827368 64.838571,21.738981 C64.838571,22.0937295 65.1448385,22.2458109 65.85892,22.2458109 C66.0678718,22.2458109 66.28235,22.2347461 66.5039411,22.2189392 L67.1916397,22.1636152 C67.5477448,22.1351629 67.9234237,22.1102671 68.324031,22.1102671 C70.1775836,22.1102671 71.4016769,22.8538122 71.4016769,24.5098456 C71.4016769,26.503117 69.1575601,27.297572 66.6237749,27.297572 C64.2774605,27.297572 62.1352159,26.6386608 62.1352159,25.135033 C62.1352159,24.2732385 62.969861,23.7432005 63.7924743,23.5588506 L63.9373442,23.5299096 L63.9373442,23.4789996 C63.2916114,23.2763325 62.7135764,22.8538122 62.7135764,22.1274533 C62.7135764,21.2150673 63.5983828,20.696739 64.544425,20.4723838 L64.7025245,20.4376961 L64.7025245,20.3874346 C63.7677742,20.0151757 62.9856694,19.2719549 62.9856694,17.9541324 C62.9856694,16.2812371 64.4649313,15.1323578 66.4880538,15.1323578 C66.7749965,15.1323578 67.0164445,15.1537443 67.2366842,15.1804773 L67.6560817,15.2363197 C67.8588375,15.2630528 68.0565759,15.2844392 68.2735831,15.2844392 C68.9876647,15.2844392 69.2594323,14.8787808 69.2594323,14.2370557 C69.2594323,14.054558 69.2411539,13.8719436 69.2191495,13.7113456 L69.1744846,13.426063 Z M67.2359843,24.0195533 L66.8075066,24.0247403 L66.8075066,24.0247403 L66.4885921,24.0362206 L66.4885921,24.0362206 L66.1551207,24.0566486 C66.098903,24.0609194 66.0425093,24.0656533 65.9861547,24.0708957 L65.6502194,24.1088113 C64.8755029,24.2132017 64.1928382,24.4349398 64.1928382,24.8979936 C64.1928382,25.5066434 65.1959373,25.7770824 66.5902515,25.7770824 C68.1713855,25.7770824 69.0892114,25.4729196 69.0892114,24.7630984 C69.0892114,24.2053585 68.2563332,24.0195533 67.2359843,24.0195533 Z M99.5750251,15.1323578 C101.194317,15.1323578 102.69021,15.8679521 103.401714,16.9161679 L103.502474,17.0756921 L101.445177,18.2242471 C101.241758,17.4641644 100.595049,16.8727007 99.6596474,16.8727007 C99.047438,16.8727007 98.5377517,17.1431397 98.5377517,17.633432 C98.5377517,18.018467 98.9416341,18.1967622 99.5402519,18.3654149 L100.558087,18.6357994 C100.619842,18.6531565 100.682224,18.671131 100.74511,18.6898369 L101.102366,18.8020993 L101.102366,18.8020993 L101.431129,18.9168891 C102.565277,19.3375735 103.502474,19.973102 103.502474,21.3333225 C103.502474,23.0392931 101.90409,24.0532771 100.050862,24.0532771 C98.1315791,24.0532771 96.6020945,23.2807141 95.8623193,22.0307234 L95.7663733,21.8573386 L97.8575191,20.6912732 C98.1299376,21.6202991 98.877868,22.3132585 100.017014,22.3132585 C100.679996,22.3132585 101.156159,22.0256333 101.156159,21.4850796 C101.156159,21.0347804 100.732903,20.8170889 100.123527,20.6317761 L99.8044262,20.5408909 L99.8044262,20.5408909 L99.0995132,20.3530623 C99.0000946,20.327071 98.8987636,20.2992819 98.7964027,20.2693869 L98.4871129,20.1730761 C97.3481929,19.7945127 96.1914373,19.1238645 96.1914373,17.751141 C96.1914373,16.1463419 97.7387225,15.1323578 99.5750251,15.1323578 Z M83.2234041,15.1323578 C85.5527941,15.1323578 87.3549224,16.8217908 87.3549224,19.5929796 C87.3549224,22.3638442 85.5527941,24.0532771 83.2234041,24.0532771 C80.8770897,24.0532771 79.0749614,22.3638442 79.0749614,19.5929796 C79.0749614,16.8217908 80.8770897,15.1323578 83.2234041,15.1323578 Z M27.841564,15.1249645 C30.1351522,15.1249645 31.664211,16.7463013 31.664211,19.0589761 C31.664211,19.2987344 31.6499765,19.5121105 31.6313622,19.6886405 L31.6013876,19.9244931 L31.6013876,19.9244931 L31.5722342,20.0972287 L31.5722342,20.0972287 L31.5454144,20.2240687 L26.0065632,20.2240687 C26.1081099,21.6090146 26.8898892,22.2844635 27.8926628,22.2844635 C28.7929132,22.2844635 29.4044717,21.6936484 29.5405182,20.8826557 L31.5626643,22.0143488 C30.9680303,23.0948077 29.6762393,24.0406956 27.8926628,24.0406956 C25.4968769,24.0406956 23.7468238,22.385635 23.7468238,19.5823436 C23.7468238,16.8137489 25.5307258,15.1249645 27.841564,15.1249645 Z M42.3715284,15.1249645 C44.0704827,15.1249645 45.6340413,15.9353087 46.2963731,17.0670017 L44.2403781,18.2149082 C44.0363083,17.455474 43.3905755,16.8640104 42.4561507,16.8640104 C41.8449177,16.8640104 41.334906,17.1341251 41.334906,17.6240931 C41.334906,17.9770419 41.6740825,18.1562717 42.1913932,18.31349 L42.6511294,18.4402889 L42.6511294,18.4402889 L43.1707627,18.5757292 L43.1707627,18.5757292 L43.5407814,18.679942 L43.5407814,18.679942 L43.7306918,18.7382757 C45.0729308,19.1607961 46.2963731,19.7681488 46.2963731,21.322038 C46.2963731,23.0273601 44.6989656,24.0406956 42.8470403,24.0406956 C40.8421441,24.0406956 39.2619865,23.1959791 38.5651549,21.8454055 L40.6553243,20.6803129 C40.9270919,21.6090146 41.6746968,22.3010012 42.8131914,22.3010012 C43.4755232,22.3010012 43.9516861,22.0143488 43.9516861,21.4741194 C43.9516861,20.9862952 43.4552878,20.7714621 42.7633748,20.5752907 L41.8953656,20.3427506 C41.7960471,20.3167593 41.6948182,20.2889702 41.5925604,20.2590759 L41.2835821,20.1627703 C40.1458094,19.7842394 38.9902189,19.1138023 38.9902189,17.7424507 C38.9902189,16.1379758 40.5362022,15.1249645 42.3715284,15.1249645 Z M36.0303933,11.6971343 L36.0303933,21.1530947 C36.0303933,21.5581047 36.0896288,21.8402173 36.2090764,21.9968384 C36.3275475,22.1554051 36.4609903,22.2338778 36.7783237,22.2338778 C36.9700256,22.2338778 37.1373173,22.2199343 37.2792223,22.1917231 C37.3854069,22.1705646 37.5058716,22.1380974 37.6406162,22.0947317 L37.7801208,22.0477484 L37.576702,23.6522233 C37.3950896,23.764744 37.157171,23.8516477 36.8629459,23.9132585 C36.56807,23.9755178 36.2793779,24.0066475 35.9965444,24.0066475 C35.1691992,24.0066475 34.566103,23.8068988 34.1866048,23.4070771 C33.8416064,23.0436029 33.6534255,22.4826204 33.622062,21.7241295 L33.6173575,21.490657 L33.6173575,11.6971343 L36.0303933,11.6971343 Z M93.3025641,15.1660816 C94.509082,15.1660816 95.1720648,16.1800657 95.1720648,17.4304406 L95.1703997,17.5671495 L95.1703997,17.5671495 L95.1588425,17.82135 L95.1588425,17.82135 L95.1402335,18.0424887 L95.1402335,18.0424887 L95.1093816,18.2926795 L95.1093816,18.2926795 L95.0874425,18.4272385 L92.927948,19.6604272 L92.9990157,19.1604328 L92.9990157,19.1604328 L93.0367997,18.8205267 C93.053254,18.6408946 93.0646454,18.4493967 93.0646454,18.2579709 C93.0646454,17.7008796 92.8602502,17.1768635 92.2649653,17.1768635 C91.5585865,17.1768635 91.2461603,17.8100066 91.2136264,18.8050351 L91.2107674,18.9843298 L91.2107674,23.8509343 L88.8140051,23.8509343 L88.8140051,15.3347007 L91.2107674,15.3347007 L91.0919708,16.7378055 L91.1430696,16.7378055 C91.5681336,15.9096267 92.2138664,15.1660816 93.3025641,15.1660816 Z M76.7901609,11.4152811 C78.2355016,11.4152811 79.2105378,12.1236261 79.7583165,12.8426408 L79.8505568,12.9694945 L77.77601,14.2370557 C77.7418357,13.7302258 77.4869925,13.2062097 76.9089575,13.2062097 C76.3533582,13.2062097 76.0642684,13.6033666 76.0281924,14.2613778 L76.0243296,14.4063232 L76.0243296,15.3347007 L77.8948066,15.3347007 L77.8948066,17.1600016 L76.0243296,17.1600016 L76.0243296,23.8509343 L73.6448172,23.8509343 L73.6448172,17.1600016 L72.3354508,17.1600016 L72.3354508,15.3347007 L73.6448172,15.3347007 L73.6448172,14.4228608 C73.6448172,12.4289409 74.9711082,11.4152811 76.7901609,11.4152811 Z M58.133723,15.1249645 C59.7230403,15.1249645 60.7437018,16.1923418 60.814579,18.1616594 L60.8185263,18.3841758 L60.8185263,23.8377042 L58.4054905,23.8377042 L58.4054905,18.8566333 C58.4054905,17.7252645 58.0149263,17.1341251 57.1143504,17.1341251 C56.2638065,17.1341251 55.7009611,17.7368981 55.6410478,18.6288453 L55.6357395,18.7891857 L55.6357395,23.8377042 L53.2399536,23.8377042 L53.2399536,15.3276316 L55.6357395,15.3276316 L55.5169428,16.7291152 L55.5680417,16.7291152 C55.9924548,15.9524948 56.7231353,15.1249645 58.133723,15.1249645 Z M14.6577441,12.1530542 L14.6577441,16.7800251 L19.3471182,16.7800251 L19.3471182,12.1530542 L21.8447762,12.1530542 L21.8447762,23.8377042 L19.3471182,23.8377042 L19.3471182,18.9915285 L14.6577441,18.9915285 L14.6577441,23.8377042 L12.1597606,23.8377042 L12.1597606,12.1530542 L14.6577441,12.1530542 Z M50.7230928,15.3276316 L50.7230928,23.8377042 L48.310057,23.8377042 L48.310057,15.3276316 L50.7230928,15.3276316 Z M83.2234041,16.9573345 C82.0331597,16.9573345 81.5062236,18.0721657 81.5062236,19.5929796 C81.5062236,21.1134693 82.0331597,22.2286247 83.2234041,22.2286247 C84.3963986,22.2286247 84.9233348,21.1134693 84.9233348,19.5929796 C84.9233348,18.0721657 84.3963986,16.9573345 83.2234041,16.9573345 Z M66.6237749,16.7378055 C65.8081467,16.7378055 65.1614374,17.261173 65.1614374,18.0721657 C65.1614374,18.8831584 65.8081467,19.4071744 66.6237749,19.4071744 C67.4400541,19.4071744 68.0861123,18.8831584 68.0861123,18.0721657 C68.0861123,17.261173 67.4400541,16.7378055 66.6237749,16.7378055 Z M27.841564,16.8474727 C26.9582379,16.8474727 26.2441564,17.4720117 26.0573365,18.6371043 L29.4389715,18.6371043 C29.4389715,17.6075554 28.7759888,16.8474727 27.841564,16.8474727 Z M49.5169004,11.6468728 C50.2983543,11.6468728 50.9102382,12.2039642 50.9102382,12.9805845 C50.9102382,13.7575291 50.2983543,14.3146204 49.5169004,14.3146204 C48.7354465,14.3146204 48.1232372,13.7575291 48.1232372,12.9805845 C48.1232372,12.2039642 48.7354465,11.6468728 49.5169004,11.6468728 Z" id="Helsingfors-text"></path>
        </g>
    </g>
</svg>
