<svg width="1392" height="404" viewBox="0 0 1392 404" fill="none" xmlns="http://www.w3.org/2000/svg">
<rect x="606" y="224" width="180" height="180" rx="90" fill="#9FC9EB"/>
<path d="M654.082 304H656.818L652.48 291.544H649.276L644.938 304H647.566L648.52 301.156H653.128L654.082 304ZM650.338 295.702C650.572 295 650.806 294.064 650.806 294.064H650.86C650.86 294.064 651.094 295 651.328 295.702L652.408 298.978H649.24L650.338 295.702ZM661.679 296.656C662.795 296.656 663.263 297.646 663.263 298.852L665.585 297.664C665.297 296.206 663.929 294.712 661.679 294.712C659.195 294.712 657.359 296.512 657.359 299.464C657.359 302.416 659.195 304.216 661.679 304.216C663.929 304.216 665.297 302.722 665.585 301.264L663.263 300.076C663.263 301.282 662.795 302.272 661.679 302.272C660.455 302.272 659.933 301.084 659.933 299.464C659.933 297.844 660.455 296.656 661.679 296.656ZM670.908 296.656C672.024 296.656 672.492 297.646 672.492 298.852L674.814 297.664C674.526 296.206 673.158 294.712 670.908 294.712C668.424 294.712 666.588 296.512 666.588 299.464C666.588 302.416 668.424 304.216 670.908 304.216C673.158 304.216 674.526 302.722 674.814 301.264L672.492 300.076C672.492 301.282 672.024 302.272 670.908 302.272C669.684 302.272 669.162 301.084 669.162 299.464C669.162 297.844 669.684 296.656 670.908 296.656ZM684.078 300.148C684.078 300.148 684.204 299.644 684.204 298.906C684.204 296.44 682.584 294.712 680.154 294.712C677.706 294.712 675.816 296.512 675.816 299.464C675.816 302.452 677.67 304.216 680.208 304.216C682.098 304.216 683.466 303.208 684.096 302.056L681.954 300.85C681.81 301.714 681.162 302.344 680.208 302.344C679.146 302.344 678.318 301.624 678.21 300.148H684.078ZM680.154 296.548C681.144 296.548 681.846 297.358 681.846 298.456H678.264C678.462 297.214 679.218 296.548 680.154 296.548ZM689.628 302.362C688.422 302.362 687.63 301.624 687.342 300.634L685.128 301.876C685.866 303.316 687.54 304.216 689.664 304.216C691.626 304.216 693.318 303.136 693.318 301.318C693.318 299.662 692.022 299.014 690.6 298.564C689.25 298.132 688.062 298.06 688.062 297.376C688.062 296.854 688.602 296.566 689.25 296.566C690.24 296.566 690.924 297.196 691.14 298.006L693.318 296.782C692.616 295.576 690.96 294.712 689.16 294.712C687.216 294.712 685.578 295.792 685.578 297.502C685.578 299.23 687.288 299.914 688.656 300.274C689.826 300.598 690.834 300.76 690.834 301.48C690.834 302.056 690.33 302.362 689.628 302.362ZM698.646 302.362C697.44 302.362 696.648 301.624 696.36 300.634L694.146 301.876C694.884 303.316 696.558 304.216 698.682 304.216C700.644 304.216 702.336 303.136 702.336 301.318C702.336 299.662 701.04 299.014 699.618 298.564C698.268 298.132 697.08 298.06 697.08 297.376C697.08 296.854 697.62 296.566 698.268 296.566C699.258 296.566 699.942 297.196 700.158 298.006L702.336 296.782C701.634 295.576 699.978 294.712 698.178 294.712C696.234 294.712 694.596 295.792 694.596 297.502C694.596 299.23 696.306 299.914 697.674 300.274C698.844 300.598 699.852 300.76 699.852 301.48C699.852 302.056 699.348 302.362 698.646 302.362ZM703.882 304H706.438V294.928H703.882V304ZM705.16 291.004C704.332 291.004 703.684 291.598 703.684 292.426C703.684 293.254 704.332 293.848 705.16 293.848C705.988 293.848 706.636 293.254 706.636 292.426C706.636 291.598 705.988 291.004 705.16 291.004ZM710.971 302.596H711.043C711.475 303.388 712.285 304.216 713.653 304.216C715.579 304.216 717.199 302.362 717.199 299.464C717.199 296.566 715.579 294.712 713.653 294.712C712.285 294.712 711.439 295.54 710.989 296.422H710.935C710.935 296.422 711.061 295.324 711.061 294.19V290.968H708.523V304H710.971V302.596ZM710.989 299.464C710.989 297.844 711.637 296.746 712.807 296.746C713.977 296.746 714.625 297.844 714.625 299.464C714.625 301.084 713.977 302.182 712.807 302.182C711.637 302.182 710.989 301.084 710.989 299.464ZM718.823 304H721.379V294.928H718.823V304ZM720.101 291.004C719.273 291.004 718.625 291.598 718.625 292.426C718.625 293.254 719.273 293.848 720.101 293.848C720.929 293.848 721.577 293.254 721.577 292.426C721.577 291.598 720.929 291.004 720.101 291.004ZM723.464 304H726.02V290.968H723.464V304ZM728.105 304H730.661V294.928H728.105V304ZM729.383 291.004C728.555 291.004 727.907 291.598 727.907 292.426C727.907 293.254 728.555 293.848 729.383 293.848C730.211 293.848 730.859 293.254 730.859 292.426C730.859 291.598 730.211 291.004 729.383 291.004ZM737.173 301.588C737.065 301.822 736.849 302.164 736.471 302.164C736.057 302.164 735.841 301.93 735.841 301.228V296.872H737.893V294.928H735.841V291.688L733.321 293.092V294.928H731.863V296.872H733.321V301.48C733.321 303.406 734.347 304.216 735.931 304.216C736.975 304.216 737.821 303.712 738.127 303.424L737.173 301.588ZM742.97 301.138C742.97 301.138 742.592 299.59 742.268 298.51L741.206 294.928H738.47L741.764 303.982L741.728 304.126C741.368 305.26 740.396 305.818 739.298 306.088L741.35 307.744C742.952 307.204 743.708 305.836 744.194 304.342L747.308 294.928H744.68L743.654 298.6C743.348 299.716 743.024 301.138 743.024 301.138H742.97ZM650.909 329.588C650.801 329.822 650.585 330.164 650.207 330.164C649.793 330.164 649.577 329.93 649.577 329.228V324.872H651.629V322.928H649.577V319.688L647.057 321.092V322.928H645.599V324.872H647.057V329.48C647.057 331.406 648.083 332.216 649.667 332.216C650.711 332.216 651.557 331.712 651.863 331.424L650.909 329.588ZM660.726 328.148C660.726 328.148 660.852 327.644 660.852 326.906C660.852 324.44 659.232 322.712 656.802 322.712C654.354 322.712 652.464 324.512 652.464 327.464C652.464 330.452 654.318 332.216 656.856 332.216C658.746 332.216 660.114 331.208 660.744 330.056L658.602 328.85C658.458 329.714 657.81 330.344 656.856 330.344C655.794 330.344 654.966 329.624 654.858 328.148H660.726ZM656.802 324.548C657.792 324.548 658.494 325.358 658.494 326.456H654.912C655.11 325.214 655.866 324.548 656.802 324.548ZM666.113 324.656C666.851 324.656 667.409 325.052 667.409 325.646C667.409 326.276 666.707 326.438 665.465 326.708C664.007 326.996 662.135 327.518 662.135 329.552C662.135 331.226 663.395 332.216 664.997 332.216C666.383 332.216 667.211 331.424 667.571 330.866H667.625C667.733 331.298 667.841 331.586 668.129 332H670.037C669.857 331.316 669.821 330.668 669.821 329.714V326.096C669.821 323.828 668.201 322.712 666.149 322.712C664.133 322.712 662.567 323.756 661.865 325.268L664.097 326.456C664.349 325.376 665.069 324.656 666.113 324.656ZM667.481 328.58C667.481 329.696 666.671 330.308 665.771 330.308C664.979 330.308 664.583 329.93 664.583 329.372C664.583 328.652 665.285 328.454 666.059 328.256C666.743 328.076 667.229 327.878 667.481 327.554V328.58ZM671.863 332H674.365V326.546C674.365 325.484 674.923 324.854 675.787 324.854C676.615 324.854 677.047 325.412 677.047 326.456V332H679.549V326.708C679.549 325.556 680.071 324.854 680.971 324.854C681.799 324.854 682.231 325.412 682.231 326.456V332H684.733V326.006C684.733 323.9 683.707 322.712 681.997 322.712C680.575 322.712 679.783 323.504 679.243 324.386H679.189C678.829 323.27 678.037 322.712 676.885 322.712C675.481 322.712 674.743 323.63 674.293 324.422H674.239L674.365 322.928H671.863V332ZM694.647 324.656C695.763 324.656 696.231 325.646 696.231 326.852L698.553 325.664C698.265 324.206 696.897 322.712 694.647 322.712C692.163 322.712 690.327 324.512 690.327 327.464C690.327 330.416 692.163 332.216 694.647 332.216C696.897 332.216 698.265 330.722 698.553 329.264L696.231 328.076C696.231 329.282 695.763 330.272 694.647 330.272C693.423 330.272 692.901 329.084 692.901 327.464C692.901 325.844 693.423 324.656 694.647 324.656ZM708.016 326.186C708.016 323.936 706.918 322.712 705.172 322.712C703.678 322.712 702.904 323.594 702.454 324.422H702.4C702.4 324.422 702.526 323.324 702.526 322.19V318.968H699.988V332H702.526V326.618C702.526 325.574 703.138 324.854 704.092 324.854C705.046 324.854 705.46 325.484 705.46 326.69V332H708.016V326.186ZM717.837 328.148C717.837 328.148 717.963 327.644 717.963 326.906C717.963 324.44 716.343 322.712 713.913 322.712C711.465 322.712 709.575 324.512 709.575 327.464C709.575 330.452 711.429 332.216 713.967 332.216C715.857 332.216 717.225 331.208 717.855 330.056L715.713 328.85C715.569 329.714 714.921 330.344 713.967 330.344C712.905 330.344 712.077 329.624 711.969 328.148H717.837ZM713.913 324.548C714.903 324.548 715.605 325.358 715.605 326.456H712.023C712.221 325.214 712.977 324.548 713.913 324.548ZM723.51 324.656C724.626 324.656 725.094 325.646 725.094 326.852L727.416 325.664C727.128 324.206 725.76 322.712 723.51 322.712C721.026 322.712 719.19 324.512 719.19 327.464C719.19 330.416 721.026 332.216 723.51 332.216C725.76 332.216 727.128 330.722 727.416 329.264L725.094 328.076C725.094 329.282 724.626 330.272 723.51 330.272C722.286 330.272 721.764 329.084 721.764 327.464C721.764 325.844 722.286 324.656 723.51 324.656ZM737.33 322.928H734.36L732.416 325.52C731.912 326.222 731.318 327.212 731.318 327.212H731.264C731.264 327.212 731.39 326.096 731.39 324.98V318.968H728.852V332H731.39V329.894L732.596 328.364L734.828 332H737.6L734.27 326.528L737.33 322.928ZM742.371 330.362C741.165 330.362 740.373 329.624 740.085 328.634L737.871 329.876C738.609 331.316 740.283 332.216 742.407 332.216C744.369 332.216 746.061 331.136 746.061 329.318C746.061 327.662 744.765 327.014 743.343 326.564C741.993 326.132 740.805 326.06 740.805 325.376C740.805 324.854 741.345 324.566 741.993 324.566C742.983 324.566 743.667 325.196 743.883 326.006L746.061 324.782C745.359 323.576 743.703 322.712 741.903 322.712C739.959 322.712 738.321 323.792 738.321 325.502C738.321 327.23 740.031 327.914 741.399 328.274C742.569 328.598 743.577 328.76 743.577 329.48C743.577 330.056 743.073 330.362 742.371 330.362Z" fill="black"/>
<rect width="180" height="180" rx="90" fill="#F5A3C7"/>
<path d="M63.2731 57.5V46.428H61.0811V52.396C61.0811 53.42 61.2091 54.764 61.2091 54.764H61.1451C61.1451 54.764 60.5531 53.34 60.1851 52.588L57.0811 46.428H53.9611V57.5H56.1691V51.532C56.1691 50.524 56.0731 49.212 56.0731 49.18L56.1371 49.164C56.1371 49.164 56.6971 50.588 57.0651 51.34L60.1531 57.5H63.2731ZM72.1529 54.076C72.1529 54.076 72.2649 53.628 72.2649 52.972C72.2649 50.78 70.8249 49.244 68.6649 49.244C66.4889 49.244 64.8089 50.844 64.8089 53.468C64.8089 56.124 66.4569 57.692 68.7129 57.692C70.3929 57.692 71.6089 56.796 72.1689 55.772L70.2649 54.7C70.1369 55.468 69.5609 56.028 68.7129 56.028C67.7689 56.028 67.0329 55.388 66.9369 54.076H72.1529ZM68.6649 50.876C69.5449 50.876 70.1689 51.596 70.1689 52.572H66.9849C67.1609 51.468 67.8329 50.876 68.6649 50.876ZM80.6998 54.076C80.6998 54.076 80.8118 53.628 80.8118 52.972C80.8118 50.78 79.3718 49.244 77.2118 49.244C75.0358 49.244 73.3558 50.844 73.3558 53.468C73.3558 56.124 75.0038 57.692 77.2598 57.692C78.9398 57.692 80.1558 56.796 80.7158 55.772L78.8118 54.7C78.6838 55.468 78.1078 56.028 77.2598 56.028C76.3158 56.028 75.5798 55.388 75.4838 54.076H80.6998ZM77.2118 50.876C78.0918 50.876 78.7158 51.596 78.7158 52.572H75.5318C75.7078 51.468 76.3798 50.876 77.2118 50.876ZM87.4706 56.172L87.3426 57.5H89.5986V45.916H87.3426V50.54H87.2946C86.9586 49.98 86.2546 49.244 85.0386 49.244C83.3426 49.244 81.9026 50.892 81.9026 53.468C81.9026 56.044 83.3426 57.692 85.0386 57.692C86.2546 57.692 87.0226 56.956 87.4066 56.172H87.4706ZM85.8066 55.884C84.7666 55.884 84.1906 54.908 84.1906 53.468C84.1906 52.028 84.7666 51.052 85.8066 51.052C86.8306 51.052 87.4066 52.028 87.4066 53.468C87.4066 54.908 86.8306 55.884 85.8066 55.884ZM98.6854 47.42C99.2294 47.42 99.4694 47.916 99.5014 48.396L101.453 47.196C100.957 46.476 100.013 45.724 98.5734 45.724C96.8614 45.724 95.6134 46.684 95.6134 48.572V49.436H94.3814V51.164H95.6134V57.5H97.8534V51.164H99.6134V49.436H97.8534V48.556C97.8534 47.852 98.1254 47.42 98.6854 47.42ZM103.994 57.692C106.186 57.692 107.882 56.092 107.882 53.468C107.882 50.844 106.186 49.244 103.994 49.244C101.786 49.244 100.09 50.844 100.09 53.468C100.09 56.092 101.786 57.692 103.994 57.692ZM102.378 53.468C102.378 52.028 102.874 50.972 103.994 50.972C105.098 50.972 105.594 52.028 105.594 53.468C105.594 54.908 105.098 55.964 103.994 55.964C102.874 55.964 102.378 54.908 102.378 53.468ZM109.319 57.5H111.575V52.892C111.575 51.852 111.863 51.18 112.567 51.18C113.127 51.18 113.319 51.676 113.319 52.204C113.319 52.748 113.223 53.292 113.191 53.532L115.223 52.364C115.223 52.364 115.303 51.948 115.303 51.42C115.303 50.236 114.679 49.276 113.543 49.276C112.519 49.276 111.911 49.98 111.511 50.764H111.463L111.575 49.436H109.319V57.5ZM122.864 50.972C123.52 50.972 124.016 51.324 124.016 51.852C124.016 52.412 123.392 52.556 122.288 52.796C120.992 53.052 119.328 53.516 119.328 55.324C119.328 56.812 120.448 57.692 121.872 57.692C123.104 57.692 123.84 56.988 124.16 56.492H124.208C124.304 56.876 124.4 57.132 124.656 57.5H126.352C126.192 56.892 126.16 56.316 126.16 55.468V52.252C126.16 50.236 124.72 49.244 122.896 49.244C121.104 49.244 119.712 50.172 119.088 51.516L121.072 52.572C121.296 51.612 121.936 50.972 122.864 50.972ZM124.08 54.46C124.08 55.452 123.36 55.996 122.56 55.996C121.856 55.996 121.504 55.66 121.504 55.164C121.504 54.524 122.128 54.348 122.816 54.172C123.424 54.012 123.856 53.836 124.08 53.548V54.46ZM83.4781 76.332C83.4781 74.332 82.5021 73.244 80.9501 73.244C79.6221 73.244 78.9341 74.028 78.5341 74.764H78.4861L78.5981 73.436H76.3421V81.5H78.5981V76.716C78.5981 75.788 79.1421 75.148 79.9901 75.148C80.8381 75.148 81.2061 75.708 81.2061 76.78V81.5H83.4781V76.332ZM92.2076 78.076C92.2076 78.076 92.3196 77.628 92.3196 76.972C92.3196 74.78 90.8796 73.244 88.7196 73.244C86.5436 73.244 84.8636 74.844 84.8636 77.468C84.8636 80.124 86.5116 81.692 88.7676 81.692C90.4476 81.692 91.6636 80.796 92.2236 79.772L90.3196 78.7C90.1916 79.468 89.6156 80.028 88.7676 80.028C87.8236 80.028 87.0876 79.388 86.9916 78.076H92.2076ZM88.7196 74.876C89.5996 74.876 90.2236 75.596 90.2236 76.572H87.0396C87.2156 75.468 87.8876 74.876 88.7196 74.876ZM98.7727 75.5H98.8207C98.8207 75.5 99.1087 76.844 99.3327 77.852L100.101 81.5H102.789L104.469 73.436H102.261L101.797 76.364C101.621 77.484 101.349 79.356 101.349 79.356H101.301C101.301 79.356 100.965 77.468 100.725 76.364L100.101 73.436H97.5407L96.9167 76.364C96.6767 77.468 96.3567 79.356 96.3567 79.356H96.3087C96.3087 79.356 96.0367 77.484 95.8607 76.364L95.3807 73.436H93.0767L94.7567 81.5H97.5087L98.2767 77.852C98.4847 76.86 98.7727 75.5 98.7727 75.5ZM44.7036 98.972C45.6956 98.972 46.1116 99.852 46.1116 100.924L48.1756 99.868C47.9196 98.572 46.7036 97.244 44.7036 97.244C42.4956 97.244 40.8636 98.844 40.8636 101.468C40.8636 104.092 42.4956 105.692 44.7036 105.692C46.7036 105.692 47.9196 104.364 48.1756 103.068L46.1116 102.012C46.1116 103.084 45.6956 103.964 44.7036 103.964C43.6156 103.964 43.1516 102.908 43.1516 101.468C43.1516 100.028 43.6156 98.972 44.7036 98.972ZM52.9707 105.692C55.1627 105.692 56.8587 104.092 56.8587 101.468C56.8587 98.844 55.1627 97.244 52.9707 97.244C50.7627 97.244 49.0667 98.844 49.0667 101.468C49.0667 104.092 50.7627 105.692 52.9707 105.692ZM51.3547 101.468C51.3547 100.028 51.8507 98.972 52.9707 98.972C54.0747 98.972 54.5707 100.028 54.5707 101.468C54.5707 102.908 54.0747 103.964 52.9707 103.964C51.8507 103.964 51.3547 102.908 51.3547 101.468ZM58.2952 105.5H60.5192V100.652C60.5192 99.708 61.0152 99.148 61.7832 99.148C62.5192 99.148 62.9032 99.644 62.9032 100.572V105.5H65.1272V100.796C65.1272 99.772 65.5912 99.148 66.3912 99.148C67.1272 99.148 67.5112 99.644 67.5112 100.572V105.5H69.7352V100.172C69.7352 98.3 68.8232 97.244 67.3032 97.244C66.0392 97.244 65.3352 97.948 64.8552 98.732H64.8072C64.4872 97.74 63.7832 97.244 62.7592 97.244C61.5112 97.244 60.8552 98.06 60.4552 98.764H60.4072L60.5192 97.436H58.2952V105.5ZM73.7052 98.764L73.8012 97.436H71.5452V108.636H73.8012V104.364H73.8332C74.2012 104.956 74.8892 105.692 76.1052 105.692C77.8172 105.692 79.2572 104.044 79.2572 101.468C79.2572 98.892 77.8172 97.244 76.1052 97.244C74.8892 97.244 74.1372 97.98 73.7372 98.764H73.7052ZM73.7372 101.468C73.7372 100.028 74.3132 99.052 75.3532 99.052C76.3932 99.052 76.9692 100.028 76.9692 101.468C76.9692 102.908 76.3932 103.884 75.3532 103.884C74.3132 103.884 73.7372 102.908 73.7372 101.468ZM84.2676 105.692C86.4596 105.692 88.1556 104.092 88.1556 101.468C88.1556 98.844 86.4596 97.244 84.2676 97.244C82.0596 97.244 80.3636 98.844 80.3636 101.468C80.3636 104.092 82.0596 105.692 84.2676 105.692ZM82.6516 101.468C82.6516 100.028 83.1476 98.972 84.2676 98.972C85.3716 98.972 85.8676 100.028 85.8676 101.468C85.8676 102.908 85.3716 103.964 84.2676 103.964C83.1476 103.964 82.6516 102.908 82.6516 101.468ZM96.7281 100.332C96.7281 98.332 95.7521 97.244 94.2001 97.244C92.8721 97.244 92.1841 98.028 91.7841 98.764H91.7361L91.8481 97.436H89.5921V105.5H91.8481V100.716C91.8481 99.788 92.3921 99.148 93.2401 99.148C94.0881 99.148 94.4561 99.708 94.4561 100.78V105.5H96.7281V100.332ZM105.458 102.076C105.458 102.076 105.57 101.628 105.57 100.972C105.57 98.78 104.13 97.244 101.97 97.244C99.7936 97.244 98.1136 98.844 98.1136 101.468C98.1136 104.124 99.7616 105.692 102.018 105.692C103.698 105.692 104.914 104.796 105.474 103.772L103.57 102.7C103.442 103.468 102.866 104.028 102.018 104.028C101.074 104.028 100.338 103.388 100.242 102.076H105.458ZM101.97 98.876C102.85 98.876 103.474 99.596 103.474 100.572H100.29C100.466 99.468 101.138 98.876 101.97 98.876ZM114.119 100.332C114.119 98.332 113.143 97.244 111.591 97.244C110.263 97.244 109.575 98.028 109.175 98.764H109.127L109.239 97.436H106.983V105.5H109.239V100.716C109.239 99.788 109.783 99.148 110.631 99.148C111.479 99.148 111.847 99.708 111.847 100.78V105.5H114.119V100.332ZM119.622 103.356C119.526 103.564 119.334 103.868 118.998 103.868C118.63 103.868 118.438 103.66 118.438 103.036V99.164H120.262V97.436H118.438V94.556L116.198 95.804V97.436H114.902V99.164H116.198V103.26C116.198 104.972 117.11 105.692 118.518 105.692C119.446 105.692 120.198 105.244 120.47 104.988L119.622 103.356ZM128.549 105.692C130.741 105.692 132.437 104.092 132.437 101.468C132.437 98.844 130.741 97.244 128.549 97.244C126.341 97.244 124.645 98.844 124.645 101.468C124.645 104.092 126.341 105.692 128.549 105.692ZM126.933 101.468C126.933 100.028 127.429 98.972 128.549 98.972C129.653 98.972 130.149 100.028 130.149 101.468C130.149 102.908 129.653 103.964 128.549 103.964C127.429 103.964 126.933 102.908 126.933 101.468ZM133.873 105.5H136.129V100.892C136.129 99.852 136.417 99.18 137.121 99.18C137.681 99.18 137.873 99.676 137.873 100.204C137.873 100.748 137.777 101.292 137.745 101.532L139.777 100.364C139.777 100.364 139.857 99.948 139.857 99.42C139.857 98.236 139.233 97.276 138.097 97.276C137.073 97.276 136.465 97.98 136.065 98.764H136.017L136.129 97.436H133.873V105.5ZM68.3729 119.42C68.9169 119.42 69.1569 119.916 69.1889 120.396L71.1409 119.196C70.6449 118.476 69.7009 117.724 68.2609 117.724C66.5489 117.724 65.3009 118.684 65.3009 120.572V121.436H64.0689V123.164H65.3009V129.5H67.5409V123.164H69.3009V121.436H67.5409V120.556C67.5409 119.852 67.8129 119.42 68.3729 119.42ZM77.1216 126.076C77.1216 126.076 77.2336 125.628 77.2336 124.972C77.2336 122.78 75.7936 121.244 73.6336 121.244C71.4576 121.244 69.7776 122.844 69.7776 125.468C69.7776 128.124 71.4256 129.692 73.6816 129.692C75.3616 129.692 76.5776 128.796 77.1376 127.772L75.2336 126.7C75.1056 127.468 74.5296 128.028 73.6816 128.028C72.7376 128.028 72.0016 127.388 71.9056 126.076H77.1216ZM73.6336 122.876C74.5136 122.876 75.1376 123.596 75.1376 124.572H71.9536C72.1296 123.468 72.8016 122.876 73.6336 122.876ZM81.9108 122.972C82.5668 122.972 83.0628 123.324 83.0628 123.852C83.0628 124.412 82.4388 124.556 81.3348 124.796C80.0388 125.052 78.3748 125.516 78.3748 127.324C78.3748 128.812 79.4948 129.692 80.9188 129.692C82.1508 129.692 82.8868 128.988 83.2068 128.492H83.2548C83.3508 128.876 83.4468 129.132 83.7028 129.5H85.3988C85.2388 128.892 85.2068 128.316 85.2068 127.468V124.252C85.2068 122.236 83.7668 121.244 81.9427 121.244C80.1508 121.244 78.7588 122.172 78.1348 123.516L80.1188 124.572C80.3428 123.612 80.9828 122.972 81.9108 122.972ZM83.1268 126.46C83.1268 127.452 82.4068 127.996 81.6068 127.996C80.9028 127.996 80.5508 127.66 80.5508 127.164C80.5508 126.524 81.1748 126.348 81.8628 126.172C82.4708 126.012 82.9028 125.836 83.1268 125.548V126.46ZM90.7234 127.356C90.6274 127.564 90.4354 127.868 90.0994 127.868C89.7314 127.868 89.5394 127.66 89.5394 127.036V123.164H91.3634V121.436H89.5394V118.556L87.2994 119.804V121.436H86.0034V123.164H87.2994V127.26C87.2994 128.972 88.2114 129.692 89.6194 129.692C90.5474 129.692 91.2994 129.244 91.5714 128.988L90.7234 127.356ZM92.5363 126.604C92.5363 128.604 93.4643 129.692 95.0163 129.692C96.3443 129.692 96.9843 128.908 97.3843 128.172H97.4323L97.3203 129.5H99.5923V121.436H97.3203V126.236C97.3203 127.164 96.8243 127.788 95.9763 127.788C95.1283 127.788 94.7923 127.228 94.7923 126.156V121.436H92.5363V126.604ZM101.428 129.5H103.684V124.892C103.684 123.852 103.972 123.18 104.676 123.18C105.236 123.18 105.428 123.676 105.428 124.204C105.428 124.748 105.332 125.292 105.3 125.532L107.332 124.364C107.332 124.364 107.412 123.948 107.412 123.42C107.412 122.236 106.788 121.276 105.652 121.276C104.628 121.276 104.02 121.98 103.62 122.764H103.572L103.684 121.436H101.428V129.5ZM115.606 126.076C115.606 126.076 115.718 125.628 115.718 124.972C115.718 122.78 114.278 121.244 112.118 121.244C109.942 121.244 108.262 122.844 108.262 125.468C108.262 128.124 109.91 129.692 112.166 129.692C113.846 129.692 115.062 128.796 115.622 127.772L113.718 126.7C113.59 127.468 113.014 128.028 112.166 128.028C111.222 128.028 110.486 127.388 110.39 126.076H115.606ZM112.118 122.876C112.998 122.876 113.622 123.596 113.622 124.572H110.438C110.614 123.468 111.286 122.876 112.118 122.876Z" fill="black"/>
<path d="M181 88.5C180.172 88.5 179.5 89.1716 179.5 90C179.5 90.8284 180.172 91.5 181 91.5L181 88.5ZM235.061 91.0607C235.646 90.4749 235.646 89.5251 235.061 88.9393L225.515 79.3934C224.929 78.8076 223.979 78.8076 223.393 79.3934C222.808 79.9792 222.808 80.9289 223.393 81.5147L231.879 90L223.393 98.4853C222.808 99.0711 222.808 100.021 223.393 100.607C223.979 101.192 224.929 101.192 225.515 100.607L235.061 91.0607ZM181 91.5L234 91.5L234 88.5L181 88.5L181 91.5Z" fill="black"/>
<rect x="234" y="90" width="100" height="100" rx="5" transform="rotate(-45 234 90)" fill="#E2F5F3"/>
<path d="M272.746 93.9159L274.154 93.9196L274.166 89.1837L276.822 89.1906L279.626 93.934L281.162 93.9381L278.295 89.0505C279.88 88.6547 280.859 87.5373 280.863 86.0013C280.868 84.0813 279.431 82.8615 276.999 82.8551L272.775 82.844L272.746 93.9159ZM279.423 85.9975C279.419 87.2615 278.586 87.9153 277.178 87.9116L274.17 87.9037L274.18 84.1277L277.188 84.1356C278.596 84.1393 279.426 84.7495 279.423 85.9975ZM289.014 90.2467C289.014 90.2467 289.111 89.863 289.113 89.351C289.118 87.239 287.842 85.6996 285.73 85.6941C283.554 85.6883 282.077 87.4765 282.071 89.9085C282.064 92.4044 283.436 94.1361 285.74 94.1421C287.404 94.1465 288.607 93.0777 289.058 91.9268L287.796 91.1715C287.617 92.163 286.895 92.9931 285.743 92.9901C284.287 92.9863 283.458 91.7681 283.366 90.2319L289.014 90.2467ZM285.727 86.8141C287.071 86.8176 287.788 87.9395 287.785 89.1555L283.417 89.144C283.629 87.8325 284.415 86.8106 285.727 86.8141ZM294.149 93.0762C292.613 93.0722 291.816 91.9981 291.691 90.9098L290.409 91.6744C290.869 93.1796 292.163 94.159 294.211 94.1644C295.683 94.1683 297.045 93.2758 297.049 91.8038C297.053 90.2999 295.886 89.7848 294.543 89.3493C293.392 88.9782 292.065 88.8467 292.067 87.9347C292.069 87.1667 292.822 86.8007 293.59 86.8027C294.822 86.806 295.604 87.688 295.761 88.5845L297.011 87.8357C296.503 86.5704 295.129 85.7188 293.529 85.7146C292.121 85.7109 290.774 86.5713 290.771 87.9793C290.767 89.5153 292.333 90.0314 293.549 90.3706C294.684 90.6936 295.755 90.9044 295.753 91.8484C295.75 92.6804 294.981 93.0784 294.149 93.0762ZM305.342 90.2897C305.342 90.2897 305.439 89.9059 305.441 89.3939C305.446 87.2819 304.17 85.7426 302.058 85.737C299.882 85.7313 298.406 87.5194 298.399 89.9514C298.393 92.4474 299.764 94.179 302.068 94.1851C303.732 94.1894 304.935 93.1206 305.386 91.9698L304.124 91.2145C303.945 92.206 303.223 93.0361 302.071 93.0331C300.615 93.0292 299.786 91.811 299.694 90.2748L305.342 90.2897ZM302.055 86.857C303.399 86.8605 304.116 87.9824 304.113 89.1984L299.745 89.1869C299.957 87.8755 300.743 86.8535 302.055 86.857ZM310.286 86.9106C311.246 86.9132 311.98 87.4751 311.978 88.3071C311.976 88.9951 311.288 89.1373 310.071 89.3901C308.663 89.6744 306.997 90.102 306.993 91.83C306.989 93.35 308.059 94.2008 309.547 94.2047C310.827 94.2081 311.644 93.5062 312.03 92.9313L312.062 92.9313C312.109 93.3155 312.156 93.5716 312.411 94.0203L313.499 94.0231C313.388 93.5748 313.309 93.1906 313.312 92.2946L313.321 88.5986C313.327 86.5986 311.953 85.763 310.289 85.7586C308.561 85.7541 307.23 86.8386 306.826 88.2616L308.072 89.0168C308.267 87.8653 308.942 86.9071 310.286 86.9106ZM312.035 90.8833C312.032 92.2273 310.958 93.0564 309.806 93.0534C308.83 93.0508 308.335 92.5375 308.337 91.8335C308.339 90.8735 309.396 90.6523 310.356 90.4468C311.189 90.257 311.782 90.0506 312.039 89.6673L312.035 90.8833ZM315.54 94.0285L316.884 94.032L316.896 89.424C316.899 88.16 317.35 87.0572 318.406 87.06C319.11 87.0619 319.428 87.6227 319.427 88.3267C319.425 88.8387 319.279 89.5263 319.279 89.5263L320.593 88.7458C320.593 88.7458 320.642 88.3779 320.644 87.9299C320.647 86.7619 319.913 85.848 318.809 85.8451C317.849 85.8425 317.159 86.4807 316.837 87.3759L316.805 87.3758L316.905 85.9681L315.561 85.9645L315.54 94.0285ZM325.35 86.9503C326.694 86.9538 327.331 88.1075 327.328 89.2595L328.61 88.4948C328.421 87.3423 327.402 85.8037 325.354 85.7983C323.114 85.7924 321.765 87.5808 321.758 90.0128C321.752 92.4448 323.091 94.2404 325.331 94.2462C327.379 94.2516 328.407 92.7183 328.602 91.5668L327.324 90.7955C327.321 91.9475 326.678 93.0978 325.334 93.0942C323.798 93.0902 323.098 91.6804 323.102 90.0164C323.107 88.3524 323.814 86.9462 325.35 86.9503ZM336.862 89.0286C336.868 86.9166 335.782 85.8257 334.118 85.8213C332.71 85.8176 331.94 86.7116 331.618 87.4148L331.586 87.4147C331.586 87.4147 331.685 86.3909 331.688 85.4309L331.695 82.4869L330.351 82.4834L330.321 94.0674L331.665 94.0709L331.677 89.3029C331.681 88.0709 332.483 87.033 333.731 87.0363C334.883 87.0393 335.522 87.681 335.517 89.281L335.505 94.081L336.849 94.0845L336.862 89.0286Z" fill="black"/>
<path d="M374.998 88.5616C374.17 88.5625 373.499 89.2349 373.5 90.0633C373.501 90.8918 374.173 91.5625 375.002 91.5616L374.998 88.5616ZM429.062 91.0594C429.647 90.473 429.646 89.5232 429.059 88.9381L419.502 79.4033C418.916 78.8182 417.966 78.8193 417.381 79.4057C416.796 79.9922 416.797 80.942 417.384 81.5271L425.879 90.0025L417.403 98.4976C416.818 99.0841 416.819 100.034 417.406 100.619C417.992 101.204 418.942 101.203 419.527 100.616L429.062 91.0594ZM375.002 91.5616L428.002 91.5L427.998 88.5L374.998 88.5616L375.002 91.5616Z" fill="black"/>
<rect x="429.421" y="90" width="100" height="100" rx="5" transform="rotate(-45 429.421 90)" fill="#E2F5F3"/>
<path d="M477.204 82.8677L477.175 93.9396L480.887 93.9494C484.023 93.9577 486.204 91.9794 486.214 88.3954C486.223 84.8114 484.052 82.8857 480.916 82.8774L477.204 82.8677ZM484.774 88.3916C484.767 90.8236 483.498 92.6763 481.29 92.6705L478.586 92.6633L478.609 84.1514L481.313 84.1585C483.521 84.1643 484.78 85.9596 484.774 88.3916ZM494.756 90.2739C494.756 90.2739 494.853 89.8901 494.854 89.3781C494.86 87.2661 493.584 85.7268 491.472 85.7212C489.296 85.7155 487.819 87.5036 487.813 89.9356C487.806 92.4316 489.178 94.1632 491.482 94.1693C493.146 94.1736 494.348 93.1048 494.799 91.954L493.537 91.1987C493.359 92.1902 492.637 93.0203 491.485 93.0173C490.029 93.0134 489.2 91.7953 489.108 90.259L494.756 90.2739ZM491.469 86.8412C492.813 86.8447 493.53 87.9666 493.527 89.1826L489.159 89.1711C489.37 87.8597 490.157 86.8378 491.469 86.8412ZM499.891 93.1034C498.355 93.0993 497.558 92.0252 497.433 90.9369L496.151 91.7015C496.611 93.2068 497.904 94.1862 499.952 94.1915C501.424 94.1954 502.786 93.303 502.79 91.831C502.794 90.327 501.628 89.8119 500.285 89.3764C499.134 89.0054 497.806 88.8739 497.809 87.9619C497.811 87.1939 498.563 86.8279 499.331 86.8299C500.563 86.8331 501.345 87.7152 501.503 88.6116L502.753 87.8629C502.244 86.5975 500.87 85.7459 499.27 85.7417C497.862 85.738 496.516 86.5985 496.512 88.0065C496.508 89.5425 498.075 90.0586 499.29 90.3978C500.425 90.7208 501.497 90.9316 501.494 91.8756C501.492 92.7076 500.723 93.1056 499.891 93.1034ZM504.641 94.0119L505.985 94.0154L506.006 85.9514L504.662 85.9479L504.641 94.0119ZM505.342 82.7497C504.798 82.7483 504.413 83.1312 504.412 83.6752C504.41 84.2192 504.793 84.6042 505.337 84.6057C505.881 84.6071 506.266 84.2241 506.268 83.6801C506.269 83.1361 505.886 82.7511 505.342 82.7497ZM508.264 88.4534C508.261 89.5094 508.835 90.2629 509.73 90.6813L509.73 90.7133C508.833 90.9669 508.032 91.3968 508.03 92.2608C508.028 92.9648 508.539 93.3021 509.115 93.4956L509.115 93.5276C508.282 93.7015 507.384 94.3231 507.382 95.1711C507.378 96.7071 509.36 97.3523 511.344 97.3575C513.456 97.3631 515.506 96.6645 515.511 94.7445C515.515 93.2725 514.301 92.5653 512.829 92.5614C511.933 92.5591 511.229 92.6852 510.461 92.6832C509.629 92.681 509.309 92.4882 509.31 92.1042C509.312 91.5282 510.337 91.1468 511.297 91.1494C512.897 91.1536 514.34 90.0694 514.344 88.4694C514.346 87.5734 513.852 87.0121 513.548 86.7073L513.549 86.6753C513.74 86.7398 514.06 86.8046 514.316 86.8053C515.084 86.8073 515.533 86.4245 515.536 85.4645L514.066 84.6286C514.097 84.8847 514.129 85.0768 514.128 85.3328C514.127 85.7168 513.934 86.0363 513.23 86.0344C512.526 86.0326 512.079 85.7754 511.311 85.7734C509.711 85.7692 508.268 86.7254 508.264 88.4534ZM508.598 95.0783C508.601 93.9583 511.002 93.7726 512.314 93.7761C513.338 93.7788 514.233 94.0371 514.231 94.8051C514.228 95.8291 512.819 96.2734 511.347 96.2695C509.939 96.2658 508.596 95.8783 508.598 95.0783ZM509.544 88.4568C509.547 87.4328 510.348 86.8269 511.308 86.8294C512.268 86.8319 513.067 87.442 513.064 88.466C513.061 89.49 512.26 90.0959 511.3 90.0934C510.34 90.0909 509.541 89.4808 509.544 88.4568ZM523.276 89.0049C523.281 86.8929 522.196 85.802 520.532 85.7976C519.124 85.7939 518.354 86.6879 518.032 87.3911L518 87.391L518.1 85.9832L516.756 85.9797L516.734 94.0437L518.078 94.0472L518.091 89.2792C518.094 88.0472 518.897 87.0093 520.145 87.0126C521.297 87.0157 521.935 87.6573 521.931 89.2573L521.918 94.0573L523.262 94.0609L523.276 89.0049Z" fill="black"/>
<path d="M570.998 88.5616C570.17 88.5625 569.499 89.2349 569.5 90.0633C569.501 90.8918 570.173 91.5625 571.002 91.5616L570.998 88.5616ZM625.062 91.0594C625.647 90.473 625.646 89.5232 625.059 88.9381L615.502 79.4033C614.916 78.8182 613.966 78.8193 613.381 79.4057C612.796 79.9922 612.797 80.942 613.384 81.5271L621.879 90.0025L613.403 98.4976C612.818 99.0841 612.819 100.034 613.406 100.619C613.992 101.204 614.942 101.203 615.527 100.616L625.062 91.0594ZM571.002 91.5616L624.002 91.5L623.998 88.5L570.998 88.5616L571.002 91.5616Z" fill="black"/>
<rect x="624.843" y="90" width="100" height="100" rx="5" transform="rotate(-45 624.843 90)" fill="#E2F5F3"/>
<path d="M654.7 88.6445C656.298 89.1608 658.074 89.3574 658.07 90.9254C658.066 92.1414 656.961 92.8425 655.553 92.8388C653.489 92.8334 652.468 91.3907 652.313 89.7263L650.967 90.5547C651.409 92.8439 653.309 94.0809 655.549 94.0868C657.853 94.0929 659.473 92.7851 659.478 90.8651C659.483 88.8171 657.757 88.1566 656.078 87.6082C654.544 87.1081 652.768 86.8955 652.772 85.5195C652.775 84.4955 653.736 83.874 654.888 83.877C656.488 83.8812 657.669 84.9083 657.889 86.5249L659.235 85.6965C658.521 83.5506 656.683 82.6337 654.891 82.629C652.923 82.6239 651.368 83.7878 651.364 85.6438C651.358 87.6278 653.293 88.1928 654.7 88.6445ZM662.531 87.2571L662.63 85.8494L661.286 85.8459L661.257 97.0458L662.601 97.0494L662.612 92.6974L662.644 92.6975C662.931 93.2102 663.697 94.1082 665.105 94.1119C666.961 94.1168 668.501 92.3929 668.508 89.8969C668.514 87.4009 666.983 85.6688 665.127 85.664C663.719 85.6603 662.885 86.5541 662.563 87.2572L662.531 87.2571ZM662.556 89.8812C662.56 88.2172 663.332 86.8112 664.868 86.8153C666.404 86.8193 667.168 88.2293 667.164 89.8933C667.159 91.5573 666.388 92.9633 664.852 92.9593C663.316 92.9552 662.551 91.5452 662.556 89.8812ZM676.927 90.239C676.927 90.239 677.024 89.8553 677.025 89.3433C677.031 87.2313 675.755 85.6919 673.643 85.6864C671.467 85.6806 669.99 87.4688 669.984 89.9008C669.977 92.3967 671.349 94.1284 673.653 94.1344C675.317 94.1388 676.52 93.07 676.971 91.9191L675.709 91.1638C675.53 92.1553 674.808 92.9854 673.656 92.9824C672.2 92.9786 671.371 91.7604 671.279 90.2242L676.927 90.239ZM673.64 86.8064C674.984 86.8099 675.701 87.9318 675.698 89.1478L671.33 89.1363C671.541 87.8248 672.328 86.8029 673.64 86.8064ZM682.029 86.8604C683.373 86.864 684.01 88.0176 684.007 89.1696L685.289 88.405C685.1 87.2525 684.08 85.7138 682.032 85.7084C679.792 85.7025 678.443 87.491 678.437 89.923C678.431 92.355 679.77 94.1505 682.01 94.1564C684.058 94.1618 685.086 92.6285 685.281 91.477L684.003 90.7056C684 91.8576 683.357 93.0079 682.013 93.0044C680.477 93.0004 679.777 91.5905 679.781 89.9265C679.785 88.2625 680.493 86.8564 682.029 86.8604ZM686.999 93.9775L688.343 93.9811L688.365 85.9171L687.021 85.9135L686.999 93.9775ZM687.701 82.7153C687.157 82.7139 686.772 83.0969 686.771 83.6409C686.769 84.1849 687.152 84.5699 687.696 84.5713C688.24 84.5727 688.625 84.1898 688.627 83.6458C688.628 83.1018 688.245 82.7168 687.701 82.7153ZM691.28 93.9888L692.592 93.9922L692.61 87.0802L694.562 87.0854L694.565 85.9334L692.613 85.9283L692.615 85.3203C692.619 83.9123 693.356 83.3702 694.188 83.3724C694.892 83.3742 695.419 83.7116 695.609 84.5441L696.923 83.7636C696.397 82.8182 695.535 82.2239 694.191 82.2204C692.751 82.2166 691.309 83.0768 691.303 85.3488L691.301 85.9248L689.893 85.9211L689.89 87.0731L691.298 87.0768L691.28 93.9888ZM695.584 94.0001L696.928 94.0036L696.949 85.9397L695.605 85.9361L695.584 94.0001ZM702.388 86.914C703.732 86.9175 704.369 88.0712 704.366 89.2232L705.648 88.4585C705.459 87.306 704.439 85.7674 702.392 85.762C700.152 85.7561 698.803 87.5445 698.796 89.9765C698.79 92.4085 700.129 94.2041 702.369 94.2099C704.417 94.2153 705.445 92.682 705.64 91.5305L704.362 90.7592C704.359 91.9112 703.716 93.0615 702.372 93.0579C700.836 93.0539 700.136 91.6441 700.14 89.9801C700.145 88.3161 700.852 86.9099 702.388 86.914ZM710.417 86.9351C711.377 86.9376 712.112 87.4995 712.11 88.3315C712.108 89.0195 711.42 89.1617 710.203 89.4145C708.794 89.6988 707.129 90.1264 707.124 91.8544C707.12 93.3744 708.19 94.2253 709.678 94.2292C710.958 94.2325 711.776 93.5307 712.162 92.9557L712.194 92.9558C712.241 93.3399 712.288 93.596 712.543 94.0447L713.631 94.0476C713.52 93.5993 713.441 93.2151 713.443 92.3191L713.453 88.6231C713.458 86.6231 712.084 85.7875 710.42 85.7831C708.692 85.7785 707.362 86.863 706.958 88.286L708.204 89.0413C708.399 87.8898 709.073 86.9315 710.417 86.9351ZM712.167 90.9077C712.163 92.2517 711.089 93.0809 709.937 93.0778C708.961 93.0753 708.467 92.562 708.468 91.858C708.471 90.898 709.528 90.6768 710.488 90.4713C711.321 90.2815 711.913 90.075 712.17 89.6917L712.167 90.9077ZM718.819 92.3332C718.69 92.6529 718.401 93.1001 717.953 93.0989C717.473 93.0977 717.25 92.8251 717.252 92.0571L717.265 87.1451L719.345 87.1506L719.348 85.9986L717.268 85.9931L717.275 83.3051L715.961 84.1337L715.956 85.9896L714.484 85.9858L714.481 87.1378L715.953 87.1416L715.94 92.1656C715.935 93.7976 716.782 94.2478 717.806 94.2505C718.638 94.2527 719.247 93.8223 719.536 93.4391L718.819 92.3332ZM720.874 94.0666L722.218 94.0701L722.24 86.0062L720.896 86.0026L720.874 94.0666ZM721.576 82.8044C721.032 82.803 720.647 83.186 720.646 83.73C720.644 84.274 721.027 84.659 721.571 84.6604C722.115 84.6618 722.5 84.2788 722.502 83.7349C722.503 83.1909 722.12 82.8058 721.576 82.8044ZM727.714 94.2766C729.954 94.2825 731.367 92.4942 731.374 90.0622C731.38 87.6302 729.977 85.8345 727.737 85.8286C725.497 85.8227 724.084 87.611 724.078 90.043C724.071 92.475 725.474 94.2707 727.714 94.2766ZM725.422 90.0466C725.426 88.3826 726.198 86.9766 727.734 86.9806C729.27 86.9847 730.034 88.3947 730.03 90.0587C730.025 91.7227 729.253 93.1286 727.717 93.1246C726.181 93.1206 725.417 91.7105 725.422 90.0466ZM739.759 89.0603C739.765 86.9483 738.68 85.8574 737.016 85.853C735.608 85.8493 734.837 86.7433 734.516 87.4465L734.484 87.4464L734.583 86.0386L733.239 86.0351L733.218 94.0991L734.562 94.1026L734.575 89.3346C734.578 88.1026 735.381 87.0647 736.629 87.068C737.781 87.071 738.419 87.7127 738.415 89.3127L738.402 94.1127L739.746 94.1162L739.759 89.0603Z" fill="black"/>
<path d="M766.999 88.5C766.171 88.5005 765.5 89.1724 765.5 90.0008C765.5 90.8293 766.172 91.5005 767.001 91.5L766.999 88.5ZM819.325 91.031C819.911 90.4449 819.91 89.4952 819.324 88.9097L809.773 79.3692C809.186 78.7837 808.237 78.7843 807.651 79.3704C807.066 79.9565 807.066 80.9062 807.652 81.4917L816.143 89.9722L807.662 98.4623C807.077 99.0484 807.077 99.9981 807.663 100.584C808.249 101.169 809.199 101.168 809.785 100.582L819.325 91.031ZM767.001 91.5L818.265 91.471L818.263 88.471L766.999 88.5L767.001 91.5Z" fill="black"/>
<rect x="820.264" y="90" width="100" height="100" rx="5" transform="rotate(-45 820.264 90)" fill="#E2F5F3"/>
<path d="M837.939 93.8605L839.379 93.8643L839.409 82.7923L837.969 82.7886L837.939 93.8605ZM841.811 93.8707L843.155 93.8742L843.168 89.1063C843.172 87.7463 843.91 86.8362 845.03 86.8391C846.022 86.8417 846.628 87.4513 846.625 88.8433L846.611 93.8833L847.955 93.8869L847.968 89.2149C847.971 87.8069 848.678 86.8487 849.83 86.8518C850.854 86.8545 851.428 87.496 851.424 88.968L851.411 93.896L852.755 93.8995L852.769 88.6515C852.774 86.7315 851.753 85.6408 850.153 85.6366C848.745 85.6329 848.007 86.527 847.685 87.2301L847.653 87.23C847.304 86.1731 846.537 85.6271 845.417 85.6242C844.137 85.6208 843.431 86.5149 843.109 87.2181L843.077 87.218L843.177 85.8103L841.833 85.8067L841.811 93.8707ZM856.264 87.2527L856.364 85.8449L855.02 85.8414L854.991 97.0414L856.335 97.0449L856.346 92.6929L856.378 92.693C856.665 93.2058 857.43 94.1038 858.838 94.1075C860.694 94.1124 862.235 92.3884 862.242 89.8924C862.248 87.3964 860.717 85.6644 858.861 85.6595C857.453 85.6558 856.618 86.5496 856.296 87.2528L856.264 87.2527ZM856.29 89.8768C856.294 88.2128 857.066 86.8068 858.602 86.8108C860.138 86.8149 860.902 88.2249 860.898 89.8889C860.893 91.5529 860.121 92.9589 858.585 92.9548C857.049 92.9508 856.285 91.5408 856.29 89.8768ZM864.093 93.9293L865.437 93.9328L865.467 82.3489L864.123 82.3453L864.093 93.9293ZM874.239 90.244C874.239 90.244 874.336 89.8602 874.337 89.3482C874.343 87.2362 873.067 85.6969 870.955 85.6913C868.779 85.6856 867.302 87.4737 867.296 89.9057C867.289 92.4017 868.661 94.1333 870.965 94.1394C872.629 94.1438 873.832 93.0749 874.283 91.9241L873.021 91.1688C872.842 92.1603 872.12 92.9904 870.968 92.9874C869.512 92.9836 868.683 91.7654 868.591 90.2291L874.239 90.244ZM870.952 86.8113C872.296 86.8149 873.013 87.9367 873.01 89.1527L868.642 89.1412C868.853 87.8298 869.64 86.8079 870.952 86.8113ZM876.124 93.9609L877.468 93.9645L877.48 89.1965C877.484 87.8365 878.222 86.9264 879.342 86.9294C880.334 86.932 880.941 87.5416 880.937 88.9336L880.924 93.9736L882.268 93.9771L882.28 89.3051C882.284 87.8971 882.99 86.939 884.142 86.942C885.166 86.9447 885.741 87.5862 885.737 89.0582L885.724 93.9862L887.068 93.9897L887.082 88.7417C887.087 86.8218 886.066 85.7311 884.466 85.7269C883.058 85.7232 882.319 86.6172 881.997 87.3204L881.965 87.3203C881.616 86.2634 880.85 85.7173 879.73 85.7144C878.45 85.711 877.743 86.6052 877.421 87.3083L877.389 87.3082L877.489 85.9005L876.145 85.897L876.124 93.9609ZM895.817 90.3007C895.817 90.3007 895.914 89.917 895.915 89.405C895.921 87.293 894.645 85.7536 892.533 85.7481C890.357 85.7423 888.88 87.5305 888.874 89.9625C888.867 92.4585 890.239 94.1901 892.543 94.1961C894.207 94.2005 895.41 93.1317 895.861 91.9808L894.599 91.2255C894.42 92.2171 893.698 93.0472 892.546 93.0441C891.09 93.0403 890.261 91.8221 890.169 90.2859L895.817 90.3007ZM892.53 86.8681C893.874 86.8716 894.591 87.9935 894.588 89.2095L890.22 89.198C890.431 87.8866 891.218 86.8646 892.53 86.8681ZM904.243 88.9789C904.249 86.8669 903.164 85.776 901.5 85.7717C900.092 85.768 899.321 86.6619 898.999 87.3651L898.967 87.365L899.067 85.9573L897.723 85.9537L897.702 94.0177L899.046 94.0212L899.058 89.2532C899.062 88.0213 899.864 86.9834 901.112 86.9866C902.264 86.9897 902.903 87.6314 902.899 89.2313L902.886 94.0313L904.23 94.0349L904.243 88.9789ZM909.616 92.321C909.487 92.6407 909.198 93.0879 908.75 93.0867C908.27 93.0855 908.046 92.8129 908.048 92.0449L908.061 87.1329L910.141 87.1384L910.144 85.9864L908.064 85.9809L908.071 83.2929L906.757 84.1215L906.752 85.9775L905.28 85.9736L905.277 87.1256L906.749 87.1295L906.736 92.1534C906.732 93.7854 907.579 94.2357 908.603 94.2384C909.435 94.2406 910.044 93.8102 910.333 93.4269L909.616 92.321ZM914.854 86.9588C915.814 86.9613 916.549 87.5232 916.547 88.3552C916.545 89.0432 915.856 89.1854 914.64 89.4382C913.231 89.7225 911.566 90.1501 911.561 91.8781C911.557 93.3981 912.627 94.249 914.115 94.2529C915.395 94.2562 916.213 93.5544 916.598 92.9794L916.63 92.9795C916.677 93.3636 916.725 93.6197 916.98 94.0684L918.068 94.0713C917.957 93.623 917.878 93.2388 917.88 92.3428L917.89 88.6468C917.895 86.6468 916.521 85.8112 914.857 85.8068C913.129 85.8022 911.798 86.8867 911.395 88.3097L912.641 89.065C912.836 87.9135 913.51 86.9552 914.854 86.9588ZM916.604 90.9314C916.6 92.2754 915.526 93.1046 914.374 93.1015C913.398 93.099 912.904 92.5857 912.905 91.8817C912.908 90.9217 913.964 90.7005 914.925 90.495C915.758 90.3052 916.35 90.0987 916.607 89.7154L916.604 90.9314ZM923.256 92.3569C923.127 92.6766 922.838 93.1238 922.39 93.1226C921.91 93.1214 921.687 92.8488 921.689 92.0808L921.702 87.1688L923.782 87.1743L923.785 86.0223L921.705 86.0168L921.712 83.3288L920.398 84.1574L920.393 86.0133L918.921 86.0095L918.918 87.1615L920.39 87.1653L920.377 92.1893C920.372 93.8213 921.219 94.2715 922.243 94.2742C923.075 94.2764 923.684 93.846 923.973 93.4628L923.256 92.3569ZM925.311 94.0903L926.655 94.0938L926.676 86.0299L925.332 86.0263L925.311 94.0903ZM926.013 82.8281C925.469 82.8267 925.084 83.2097 925.082 83.7537C925.081 84.2977 925.464 84.6827 926.008 84.6841C926.552 84.6855 926.937 84.3025 926.938 83.7586C926.94 83.2146 926.557 82.8295 926.013 82.8281ZM932.151 94.3003C934.391 94.3062 935.804 92.5179 935.81 90.0859C935.817 87.6539 934.414 85.8582 932.174 85.8523C929.934 85.8464 928.521 87.6347 928.514 90.0667C928.508 92.4987 929.911 94.2944 932.151 94.3003ZM929.858 90.0703C929.863 88.4063 930.635 87.0003 932.171 87.0043C933.706 87.0084 934.471 88.4184 934.466 90.0824C934.462 91.7464 933.69 93.1523 932.154 93.1483C930.618 93.1443 929.854 91.7342 929.858 90.0703ZM944.196 89.084C944.202 86.972 943.117 85.8811 941.453 85.8767C940.045 85.873 939.274 86.767 938.952 87.4702L938.92 87.4701L939.02 86.0623L937.676 86.0588L937.655 94.1228L938.999 94.1263L939.011 89.3583C939.015 88.1263 939.817 87.0884 941.065 87.0917C942.217 87.0947 942.856 87.7364 942.852 89.3364L942.839 94.1364L944.183 94.1399L944.196 89.084Z" fill="black"/>
<path d="M961.998 88.5616C961.17 88.5625 960.499 89.2349 960.5 90.0633C960.501 90.8918 961.173 91.5625 962.002 91.5616L961.998 88.5616ZM1016.06 91.0594C1016.65 90.473 1016.65 89.5232 1016.06 88.9381L1006.5 79.4033C1005.92 78.8182 1004.97 78.8193 1004.38 79.4057C1003.8 79.9922 1003.8 80.942 1004.38 81.5271L1012.88 90.0025L1004.4 98.4976C1003.82 99.0841 1003.82 100.034 1004.41 100.619C1004.99 101.204 1005.94 101.203 1006.53 100.616L1016.06 91.0594ZM962.002 91.5616L1015 91.5L1015 88.5L961.998 88.5616L962.002 91.5616Z" fill="black"/>
<rect x="1015.69" y="90" width="100" height="100" rx="5" transform="rotate(-45 1015.69 90)" fill="#E2F5F3"/>
<path d="M1034.18 82.7906L1034.15 93.8626L1037.86 93.8724C1041 93.8806 1043.18 91.9023 1043.19 88.3183C1043.2 84.7344 1041.03 82.8086 1037.89 82.8004L1034.18 82.7906ZM1041.75 88.3146C1041.74 90.7465 1040.47 92.5992 1038.27 92.5934L1035.56 92.5863L1035.58 84.0743L1038.29 84.0814C1040.5 84.0872 1041.75 85.8826 1041.75 88.3146ZM1048.42 94.0921C1050.66 94.098 1052.08 92.3097 1052.08 89.8777C1052.09 87.4457 1050.69 85.6501 1048.45 85.6442C1046.21 85.6383 1044.79 87.4266 1044.79 89.8586C1044.78 92.2905 1046.18 94.0862 1048.42 94.0921ZM1046.13 89.8621C1046.14 88.1981 1046.91 86.7921 1048.44 86.7962C1049.98 86.8002 1050.74 88.2102 1050.74 89.8742C1050.74 91.5382 1049.96 92.9442 1048.43 92.9401C1046.89 92.9361 1046.13 91.5261 1046.13 89.8621ZM1057.15 86.819C1058.49 86.8226 1059.13 87.9763 1059.12 89.1283L1060.41 88.3636C1060.22 87.2111 1059.2 85.6724 1057.15 85.667C1054.91 85.6612 1053.56 87.4496 1053.55 89.8816C1053.55 92.3136 1054.89 94.1091 1057.13 94.115C1059.17 94.1204 1060.2 92.5871 1060.4 91.4356L1059.12 90.6642C1059.12 91.8162 1058.47 92.9666 1057.13 92.963C1055.59 92.959 1054.89 91.5491 1054.9 89.8851C1054.9 88.2211 1055.61 86.815 1057.15 86.819ZM1062.06 90.928C1062.05 93.04 1063.07 94.1307 1064.74 94.135C1066.15 94.1387 1066.85 93.2446 1067.18 92.5414L1067.21 92.5415L1067.11 93.9493L1068.45 93.9528L1068.47 85.8888L1067.13 85.8853L1067.12 90.6533C1067.11 91.9013 1066.37 92.9233 1065.13 92.9201C1063.97 92.917 1063.4 92.2755 1063.4 90.6755L1063.42 85.8755L1062.07 85.872L1062.06 90.928ZM1070.76 93.9589L1072.1 93.9624L1072.11 89.1944C1072.12 87.8344 1072.85 86.9244 1073.97 86.9273C1074.97 86.9299 1075.57 87.5395 1075.57 88.9315L1075.56 93.9715L1076.9 93.975L1076.91 89.303C1076.92 87.895 1077.62 86.9369 1078.77 86.9399C1079.8 86.9426 1080.37 87.5841 1080.37 89.0561L1080.36 93.9841L1081.7 93.9877L1081.71 88.7397C1081.72 86.8197 1080.7 85.729 1079.1 85.7248C1077.69 85.7211 1076.95 86.6151 1076.63 87.3183L1076.6 87.3182C1076.25 86.2613 1075.48 85.7153 1074.36 85.7123C1073.08 85.709 1072.38 86.6031 1072.05 87.3063L1072.02 87.3062L1072.12 85.8984L1070.78 85.8949L1070.76 93.9589ZM1090.45 90.2986C1090.45 90.2986 1090.55 89.9149 1090.55 89.4029C1090.55 87.2909 1089.28 85.7515 1087.17 85.746C1084.99 85.7403 1083.51 87.5284 1083.51 89.9604C1083.5 92.4564 1084.87 94.188 1087.18 94.1941C1088.84 94.1984 1090.04 93.1296 1090.49 91.9788L1089.23 91.2234C1089.05 92.215 1088.33 93.0451 1087.18 93.0421C1085.72 93.0382 1084.89 91.82 1084.8 90.2838L1090.45 90.2986ZM1087.16 86.866C1088.51 86.8695 1089.22 87.9914 1089.22 89.2074L1084.85 89.1959C1085.06 87.8845 1085.85 86.8625 1087.16 86.866ZM1098.88 88.9768C1098.88 86.8648 1097.8 85.774 1096.13 85.7696C1094.72 85.7659 1093.95 86.6599 1093.63 87.363L1093.6 87.3629L1093.7 85.9552L1092.36 85.9516L1092.33 94.0156L1093.68 94.0192L1093.69 89.2512C1093.69 88.0192 1094.5 86.9813 1095.74 86.9846C1096.9 86.9876 1097.53 87.6293 1097.53 89.2293L1097.52 94.0293L1098.86 94.0328L1098.88 88.9768ZM1104.25 92.3189C1104.12 92.6386 1103.83 93.0858 1103.38 93.0847C1102.9 93.0834 1102.68 92.8108 1102.68 92.0428L1102.69 87.1308L1104.77 87.1363L1104.78 85.9843L1102.7 85.9788L1102.7 83.2909L1101.39 84.1194L1101.38 85.9754L1099.91 85.9715L1099.91 87.1235L1101.38 87.1274L1101.37 92.1514C1101.36 93.7834 1102.21 94.2336 1103.23 94.2363C1104.07 94.2385 1104.68 93.8081 1104.96 93.4248L1104.25 92.3189ZM1109.49 86.9567C1110.45 86.9592 1111.18 87.5212 1111.18 88.3532C1111.18 89.0412 1110.49 89.1833 1109.27 89.4361C1107.86 89.7204 1106.2 90.1481 1106.19 91.8761C1106.19 93.3961 1107.26 94.2469 1108.75 94.2508C1110.03 94.2542 1110.85 93.5523 1111.23 92.9773L1111.26 92.9774C1111.31 93.3615 1111.36 93.6176 1111.61 94.0663L1112.7 94.0692C1112.59 93.6209 1112.51 93.2367 1112.51 92.3407L1112.52 88.6447C1112.53 86.6447 1111.15 85.8091 1109.49 85.8047C1107.76 85.8002 1106.43 86.8847 1106.03 88.3076L1107.27 89.0629C1107.47 87.9114 1108.14 86.9532 1109.49 86.9567ZM1111.24 90.9293C1111.23 92.2733 1110.16 93.1025 1109.01 93.0995C1108.03 93.0969 1107.54 92.5836 1107.54 91.8796C1107.54 90.9196 1108.6 90.6984 1109.56 90.4929C1110.39 90.3031 1110.98 90.0966 1111.24 89.7133L1111.24 90.9293ZM1117.89 92.3548C1117.76 92.6745 1117.47 93.1217 1117.02 93.1205C1116.54 93.1193 1116.32 92.8467 1116.32 92.0787L1116.33 87.1667L1118.41 87.1722L1118.42 86.0202L1116.34 86.0147L1116.34 83.3267L1115.03 84.1553L1115.03 86.0113L1113.55 86.0074L1113.55 87.1594L1115.02 87.1633L1115.01 92.1872C1115 93.8192 1115.85 94.2695 1116.88 94.2722C1117.71 94.2744 1118.32 93.844 1118.61 93.4607L1117.89 92.3548ZM1119.94 94.0882L1121.29 94.0918L1121.31 86.0278L1119.96 86.0243L1119.94 94.0882ZM1120.65 82.826C1120.1 82.8246 1119.72 83.2076 1119.71 83.7516C1119.71 84.2956 1120.1 84.6806 1120.64 84.682C1121.18 84.6835 1121.57 84.3005 1121.57 83.7565C1121.57 83.2125 1121.19 82.8275 1120.65 82.826ZM1126.78 94.2982C1129.02 94.3041 1130.44 92.5158 1130.44 90.0838C1130.45 87.6518 1129.05 85.8561 1126.81 85.8502C1124.57 85.8444 1123.15 87.6326 1123.15 90.0646C1123.14 92.4966 1124.54 94.2923 1126.78 94.2982ZM1124.49 90.0682C1124.49 88.4042 1125.27 86.9982 1126.8 87.0022C1128.34 87.0063 1129.1 88.4163 1129.1 90.0803C1129.09 91.7443 1128.32 93.1503 1126.79 93.1462C1125.25 93.1422 1124.49 91.7322 1124.49 90.0682ZM1138.83 89.0819C1138.83 86.9699 1137.75 85.879 1136.08 85.8747C1134.68 85.871 1133.91 86.7649 1133.58 87.4681L1133.55 87.468L1133.65 86.0603L1132.31 86.0567L1132.29 94.1207L1133.63 94.1242L1133.64 89.3562C1133.65 88.1243 1134.45 87.0864 1135.7 87.0896C1136.85 87.0927 1137.49 87.7344 1137.48 89.3343L1137.47 94.1343L1138.82 94.1379L1138.83 89.0819Z" fill="black"/>
<path d="M1156 88.5295C1155.17 88.53 1154.5 89.2019 1154.5 90.0304C1154.5 90.8588 1155.17 91.53 1156 91.5295L1156 88.5295ZM1210.06 91.0601C1210.65 90.474 1210.65 89.5242 1210.06 88.9388L1200.51 79.3981C1199.92 78.8127 1198.97 78.8132 1198.39 79.3993C1197.8 79.9854 1197.8 80.9352 1198.39 81.5206L1206.88 90.0012L1198.4 98.4912C1197.81 99.0773 1197.81 100.027 1198.4 100.613C1198.99 101.198 1199.94 101.197 1200.52 100.611L1210.06 91.0601ZM1156 91.5295L1209 91.5L1209 88.5L1156 88.5295L1156 91.5295Z" fill="black"/>
<rect x="1211.11" width="180" height="180" rx="90" fill="#A3E3C2"/>
<path d="M1232.21 94.216C1235.13 94.216 1237.29 92.668 1237.29 88.888V81.544H1234.64V89.05C1234.64 90.868 1233.85 91.876 1232.21 91.876C1230.57 91.876 1229.78 90.868 1229.78 89.05V81.544H1227.15V88.888C1227.15 92.668 1229.3 94.216 1232.21 94.216ZM1241.8 86.422L1241.91 84.928H1239.37V97.528H1241.91V92.722H1241.94C1242.36 93.388 1243.13 94.216 1244.5 94.216C1246.43 94.216 1248.05 92.362 1248.05 89.464C1248.05 86.566 1246.43 84.712 1244.5 84.712C1243.13 84.712 1242.29 85.54 1241.84 86.422H1241.8ZM1241.84 89.464C1241.84 87.844 1242.48 86.746 1243.65 86.746C1244.82 86.746 1245.47 87.844 1245.47 89.464C1245.47 91.084 1244.82 92.182 1243.65 92.182C1242.48 92.182 1241.84 91.084 1241.84 89.464ZM1255.55 92.506L1255.41 94H1257.95V80.968H1255.41V86.17H1255.36C1254.98 85.54 1254.19 84.712 1252.82 84.712C1250.91 84.712 1249.29 86.566 1249.29 89.464C1249.29 92.362 1250.91 94.216 1252.82 94.216C1254.19 94.216 1255.05 93.388 1255.48 92.506H1255.55ZM1253.68 92.182C1252.51 92.182 1251.86 91.084 1251.86 89.464C1251.86 87.844 1252.51 86.746 1253.68 86.746C1254.83 86.746 1255.48 87.844 1255.48 89.464C1255.48 91.084 1254.83 92.182 1253.68 92.182ZM1263.71 86.656C1264.45 86.656 1265.01 87.052 1265.01 87.646C1265.01 88.276 1264.31 88.438 1263.07 88.708C1261.61 88.996 1259.74 89.518 1259.74 91.552C1259.74 93.226 1261 94.216 1262.6 94.216C1263.98 94.216 1264.81 93.424 1265.17 92.866H1265.23C1265.33 93.298 1265.44 93.586 1265.73 94H1267.64C1267.46 93.316 1267.42 92.668 1267.42 91.714V88.096C1267.42 85.828 1265.8 84.712 1263.75 84.712C1261.73 84.712 1260.17 85.756 1259.47 87.268L1261.7 88.456C1261.95 87.376 1262.67 86.656 1263.71 86.656ZM1265.08 90.58C1265.08 91.696 1264.27 92.308 1263.37 92.308C1262.58 92.308 1262.18 91.93 1262.18 91.372C1262.18 90.652 1262.89 90.454 1263.66 90.256C1264.34 90.076 1264.83 89.878 1265.08 89.554V90.58ZM1273.63 91.588C1273.52 91.822 1273.3 92.164 1272.93 92.164C1272.51 92.164 1272.3 91.93 1272.3 91.228V86.872H1274.35V84.928H1272.3V81.688L1269.78 83.092V84.928H1268.32V86.872H1269.78V91.48C1269.78 93.406 1270.8 94.216 1272.39 94.216C1273.43 94.216 1274.28 93.712 1274.58 93.424L1273.63 91.588ZM1283.45 90.148C1283.45 90.148 1283.57 89.644 1283.57 88.906C1283.57 86.44 1281.95 84.712 1279.52 84.712C1277.07 84.712 1275.18 86.512 1275.18 89.464C1275.18 92.452 1277.04 94.216 1279.58 94.216C1281.47 94.216 1282.83 93.208 1283.46 92.056L1281.32 90.85C1281.18 91.714 1280.53 92.344 1279.58 92.344C1278.51 92.344 1277.69 91.624 1277.58 90.148H1283.45ZM1279.52 86.548C1280.51 86.548 1281.21 87.358 1281.21 88.456H1277.63C1277.83 87.214 1278.59 86.548 1279.52 86.548ZM1289.19 94H1291.74V84.928H1289.19V94ZM1290.46 81.004C1289.64 81.004 1288.99 81.598 1288.99 82.426C1288.99 83.254 1289.64 83.848 1290.46 83.848C1291.29 83.848 1291.94 83.254 1291.94 82.426C1291.94 81.598 1291.29 81.004 1290.46 81.004ZM1297.66 92.362C1296.46 92.362 1295.66 91.624 1295.38 90.634L1293.16 91.876C1293.9 93.316 1295.57 94.216 1297.7 94.216C1299.66 94.216 1301.35 93.136 1301.35 91.318C1301.35 89.662 1300.06 89.014 1298.63 88.564C1297.28 88.132 1296.1 88.06 1296.1 87.376C1296.1 86.854 1296.64 86.566 1297.28 86.566C1298.27 86.566 1298.96 87.196 1299.17 88.006L1301.35 86.782C1300.65 85.576 1298.99 84.712 1297.19 84.712C1295.25 84.712 1293.61 85.792 1293.61 87.502C1293.61 89.23 1295.32 89.914 1296.69 90.274C1297.86 90.598 1298.87 90.76 1298.87 91.48C1298.87 92.056 1298.36 92.362 1297.66 92.362ZM1306.92 94H1309.46V88.816C1309.46 87.646 1309.78 86.89 1310.58 86.89C1311.21 86.89 1311.42 87.448 1311.42 88.042C1311.42 88.654 1311.31 89.266 1311.28 89.536L1313.56 88.222C1313.56 88.222 1313.65 87.754 1313.65 87.16C1313.65 85.828 1312.95 84.748 1311.67 84.748C1310.52 84.748 1309.84 85.54 1309.39 86.422H1309.33L1309.46 84.928H1306.92V94ZM1322.87 90.148C1322.87 90.148 1323 89.644 1323 88.906C1323 86.44 1321.38 84.712 1318.95 84.712C1316.5 84.712 1314.61 86.512 1314.61 89.464C1314.61 92.452 1316.47 94.216 1319 94.216C1320.89 94.216 1322.26 93.208 1322.89 92.056L1320.75 90.85C1320.61 91.714 1319.96 92.344 1319 92.344C1317.94 92.344 1317.11 91.624 1317.01 90.148H1322.87ZM1318.95 86.548C1319.94 86.548 1320.64 87.358 1320.64 88.456H1317.06C1317.26 87.214 1318.01 86.548 1318.95 86.548ZM1324.59 94H1327.14V80.968H1324.59V94ZM1337.02 90.148C1337.02 90.148 1337.15 89.644 1337.15 88.906C1337.15 86.44 1335.53 84.712 1333.1 84.712C1330.65 84.712 1328.76 86.512 1328.76 89.464C1328.76 92.452 1330.62 94.216 1333.15 94.216C1335.04 94.216 1336.41 93.208 1337.04 92.056L1334.9 90.85C1334.76 91.714 1334.11 92.344 1333.15 92.344C1332.09 92.344 1331.26 91.624 1331.16 90.148H1337.02ZM1333.1 86.548C1334.09 86.548 1334.79 87.358 1334.79 88.456H1331.21C1331.41 87.214 1332.16 86.548 1333.1 86.548ZM1342.41 86.656C1343.15 86.656 1343.71 87.052 1343.71 87.646C1343.71 88.276 1343.01 88.438 1341.76 88.708C1340.31 88.996 1338.43 89.518 1338.43 91.552C1338.43 93.226 1339.69 94.216 1341.3 94.216C1342.68 94.216 1343.51 93.424 1343.87 92.866H1343.92C1344.03 93.298 1344.14 93.586 1344.43 94H1346.34C1346.16 93.316 1346.12 92.668 1346.12 91.714V88.096C1346.12 85.828 1344.5 84.712 1342.45 84.712C1340.43 84.712 1338.87 85.756 1338.16 87.268L1340.4 88.456C1340.65 87.376 1341.37 86.656 1342.41 86.656ZM1343.78 90.58C1343.78 91.696 1342.97 92.308 1342.07 92.308C1341.28 92.308 1340.88 91.93 1340.88 91.372C1340.88 90.652 1341.58 90.454 1342.36 90.256C1343.04 90.076 1343.53 89.878 1343.78 89.554V90.58ZM1352 92.362C1350.79 92.362 1350 91.624 1349.71 90.634L1347.5 91.876C1348.23 93.316 1349.91 94.216 1352.03 94.216C1353.99 94.216 1355.69 93.136 1355.69 91.318C1355.69 89.662 1354.39 89.014 1352.97 88.564C1351.62 88.132 1350.43 88.06 1350.43 87.376C1350.43 86.854 1350.97 86.566 1351.62 86.566C1352.61 86.566 1353.29 87.196 1353.51 88.006L1355.69 86.782C1354.98 85.576 1353.33 84.712 1351.53 84.712C1349.58 84.712 1347.95 85.792 1347.95 87.502C1347.95 89.23 1349.66 89.914 1351.02 90.274C1352.19 90.598 1353.2 90.76 1353.2 91.48C1353.2 92.056 1352.7 92.362 1352 92.362ZM1365.04 90.148C1365.04 90.148 1365.17 89.644 1365.17 88.906C1365.17 86.44 1363.55 84.712 1361.12 84.712C1358.67 84.712 1356.78 86.512 1356.78 89.464C1356.78 92.452 1358.64 94.216 1361.17 94.216C1363.06 94.216 1364.43 93.208 1365.06 92.056L1362.92 90.85C1362.78 91.714 1362.13 92.344 1361.17 92.344C1360.11 92.344 1359.28 91.624 1359.18 90.148H1365.04ZM1361.12 86.548C1362.11 86.548 1362.81 87.358 1362.81 88.456H1359.23C1359.43 87.214 1360.18 86.548 1361.12 86.548ZM1372.66 92.506L1372.52 94H1375.05V80.968H1372.52V86.17H1372.46C1372.08 85.54 1371.29 84.712 1369.92 84.712C1368.02 84.712 1366.4 86.566 1366.4 89.464C1366.4 92.362 1368.02 94.216 1369.92 94.216C1371.29 94.216 1372.16 93.388 1372.59 92.506H1372.66ZM1370.79 92.182C1369.62 92.182 1368.97 91.084 1368.97 89.464C1368.97 87.844 1369.62 86.746 1370.79 86.746C1371.94 86.746 1372.59 87.844 1372.59 89.464C1372.59 91.084 1371.94 92.182 1370.79 92.182Z" fill="black"/>
<path d="M305.061 157.939C304.475 157.354 303.525 157.354 302.939 157.939L293.393 167.485C292.808 168.071 292.808 169.021 293.393 169.607C293.979 170.192 294.929 170.192 295.515 169.607L304 161.121L312.485 169.607C313.071 170.192 314.021 170.192 314.607 169.607C315.192 169.021 315.192 168.071 314.607 167.485L305.061 157.939ZM305.5 191V159H302.5V191H305.5Z" fill="black"/>
<path d="M500.561 157.939C499.975 157.354 499.025 157.354 498.439 157.939L488.893 167.485C488.308 168.071 488.308 169.021 488.893 169.607C489.479 170.192 490.429 170.192 491.015 169.607L499.5 161.121L507.985 169.607C508.571 170.192 509.521 170.192 510.107 169.607C510.692 169.021 510.692 168.071 510.107 167.485L500.561 157.939ZM501 191V159H498V191H501Z" fill="black"/>
<path d="M696.061 157.939C695.475 157.354 694.525 157.354 693.939 157.939L684.393 167.485C683.808 168.071 683.808 169.021 684.393 169.607C684.979 170.192 685.929 170.192 686.515 169.607L695 161.121L703.485 169.607C704.071 170.192 705.021 170.192 705.607 169.607C706.192 169.021 706.192 168.071 705.607 167.485L696.061 157.939ZM696.5 224V159H693.5V224H696.5Z" fill="black"/>
<path d="M891.561 157.939C890.975 157.354 890.025 157.354 889.439 157.939L879.893 167.485C879.308 168.071 879.308 169.021 879.893 169.607C880.479 170.192 881.429 170.192 882.015 169.607L890.5 161.121L898.985 169.607C899.571 170.192 900.521 170.192 901.107 169.607C901.692 169.021 901.692 168.071 901.107 167.485L891.561 157.939ZM892 191V159H889V191H892Z" fill="black"/>
<path d="M1087.06 157.939C1086.47 157.354 1085.53 157.354 1084.94 157.939L1075.39 167.485C1074.81 168.071 1074.81 169.021 1075.39 169.607C1075.98 170.192 1076.93 170.192 1077.51 169.607L1086 161.121L1094.49 169.607C1095.07 170.192 1096.02 170.192 1096.61 169.607C1097.19 169.021 1097.19 168.071 1096.61 167.485L1087.06 157.939ZM1087.5 191V159H1084.5V191H1087.5Z" fill="black"/>
<path d="M302.5 192.5H1087.5" stroke="black" stroke-width="3"/>
</svg>
