<?xml version="1.0" encoding="UTF-8"?>
<svg width="1200px" height="400px" viewBox="0 0 1200 400" version="1.1" 
    xmlns="http://www.w3.org/2000/svg" 
    xmlns:xlink="http://www.w3.org/1999/xlink">
    <defs>
        <polygon id="path-1" points="25.5359165 7 22.3626565 10.17326 33.4896053 21.3019203 6 21.3019203 6 25.7913814 33.4878937 25.7913814 22.3626565 36.9166186 25.5359165 40.088167 42.08 23.5440835"></polygon>
    </defs>
    <g id="for-designers" stroke="none" stroke-width="1" fill="none" fill-rule="evenodd">
        <rect fill="#FFFFFF" x="0" y="0" width="1200" height="400"></rect>
        <path d="M1321.80869,70.6938141 L1321.80869,127.093814 L-118.19131,127.093814 L-118.19131,70.6938141 L1321.80869,70.6938141 Z M143.428675,127.090988 C111.380227,127.090988 110.072127,85.9604658 78.0236786,85.9604658 C45.9901067,85.9604658 45.9752374,127.052813 12.665111,127.090962 L12.7095227,127.090988 C-19.3611813,127.090988 -20.6701896,85.5275129 -52.7408936,85.5275129 C-84.8115977,85.5275129 -84.8115977,127.090988 -118.19131,127.090988 L143.428675,127.090988 Z M1256.40369,85.9604658 C1224.35525,85.9604658 1224.35525,127.090988 1190.9987,127.090988 L1321.80869,127.090988 C1289.76024,127.090988 1288.45214,85.9604658 1256.40369,85.9604658 Z M1125.5937,85.9604658 C1093.54525,85.9604658 1093.54525,127.090988 1060.18871,127.090988 L1190.9987,127.090988 C1158.95025,127.090988 1157.64215,85.9604658 1125.5937,85.9604658 Z M994.783709,85.9604658 C962.735261,85.9604658 962.735261,127.090988 929.378713,127.090988 L1060.18871,127.090988 C1028.14026,127.090988 1026.83216,85.9604658 994.783709,85.9604658 Z M863.973716,85.9604658 C831.925268,85.9604658 831.925268,127.090988 798.56872,127.090988 L929.378713,127.090988 C897.330265,127.090988 896.022165,85.9604658 863.973716,85.9604658 Z M733.163724,85.9604658 C701.115276,85.9604658 701.115276,127.090988 667.758728,127.090988 L798.56872,127.090988 C766.520272,127.090988 765.212172,85.9604658 733.163724,85.9604658 Z M602.353732,85.9604658 C570.305283,85.9604658 570.305283,127.090988 536.948735,127.090988 L667.758728,127.090988 C635.71028,127.090988 634.40218,85.9604658 602.353732,85.9604658 Z M470.453656,85.9604658 C438.405208,85.9604658 438.405208,127.090988 405.04866,127.090988 L535.858652,127.090988 C503.810204,127.090988 502.502104,85.9604658 470.453656,85.9604658 Z M339.643664,85.9604658 C307.595215,85.9604658 307.595215,127.090988 274.238667,127.090988 L405.04866,127.090988 C373.000212,127.090988 371.692112,85.9604658 339.643664,85.9604658 Z M208.833671,85.9604658 C176.785223,85.9604658 176.785223,127.090988 143.428675,127.090988 L274.238667,127.090988 C242.190219,127.090988 240.882119,85.9604658 208.833671,85.9604658 Z" id="pulssi" fill="#FFE977" transform="translate(601.808690, 98.893814) rotate(-180.000000) translate(-601.808690, -98.893814) "></path>
        <rect id="Rectangle-6" fill="#FFE977" transform="translate(601.808690, 259.593814) rotate(-180.000000) translate(-601.808690, -259.593814) " x="-118.19131" y="119.093814" width="1440" height="281"></rect>
        <g id="logo-hki" transform="translate(49.000000, 224.000000)" fill="#27272D">
            <path d="M252.511156,7.50327941 L252.511156,76.5019676 C252.511156,89.6720595 241.59432,100.428509 228.146045,100.428509 L153.943205,100.428509 C145.030426,100.428509 136.592292,103.629209 130,109.558373 C123.407708,103.681679 114.969574,100.428509 106.056795,100.428509 L31.6957404,100.428509 C18.3529412,100.428509 7.54158215,89.72453 7.54158215,76.5019676 L7.54158215,7.50327941 L252.511156,7.50327941 Z M133.955375,116.117184 C139.281947,110.817665 146.401623,107.879318 153.995943,107.879318 L228.146045,107.879318 C245.707911,107.879318 260,93.8172278 260,76.5019676 L260,0 L0,0 L0,76.4494972 C0,93.7647573 14.1866126,107.826847 31.6957404,107.826847 L106.056795,107.826847 C113.598377,107.826847 120.718053,110.765195 126.097363,116.064714 L130.052738,120 L133.955375,116.117184 Z" id="Outline"></path>
            <path d="M225,39.1053371 C225,41.3918539 223.148044,43.0547753 220.819871,43.0547753 C218.491697,43.0547753 216.639741,41.3918539 216.639741,39.1053371 C216.639741,36.8188202 218.491697,35.1558989 220.819871,35.1558989 C223.148044,35.0519663 225,36.7148876 225,39.1053371 L225,39.1053371 Z M217.168871,71.3764045 L224.417957,71.3764045 L224.417957,46.0688202 L217.168871,46.0688202 L217.168871,71.3764045 Z M204.152266,56.0983146 L213.623698,71.3764045 L205.739657,71.3764045 L199.390093,61.2429775 L195.950746,65.5042135 L195.950746,71.3764045 L188.754574,71.3764045 L188.754574,35 L195.950746,35 L195.950746,51.7851124 C195.950746,54.9030899 195.580355,58.0210674 195.580355,58.0210674 L195.739094,58.0210674 C195.739094,58.0210674 197.432311,55.2668539 198.860963,53.2921348 L204.363918,46.0688202 L212.830003,46.0688202 L204.152266,56.0983146 Z M181.452575,55.1629213 C181.452575,48.875 178.330706,45.4452247 173.356882,45.4452247 C169.123839,45.4452247 166.901492,47.8876404 165.631579,50.2261236 L165.47284,50.2261236 L165.843231,46.0688202 L158.647059,46.0688202 L158.647059,71.3764045 L165.843231,71.3764045 L165.843231,56.3581461 C165.843231,53.4480337 167.589361,51.4213483 170.287926,51.4213483 C172.98649,51.4213483 174.150577,53.1882022 174.150577,56.5660112 L174.150577,71.3764045 L181.399662,71.3764045 L181.452575,55.1629213 L181.452575,55.1629213 Z M151.715452,39.1053371 C151.715452,41.3918539 149.863496,43.0547753 147.535322,43.0547753 C145.207149,43.0547753 143.355193,41.3918539 143.355193,39.1053371 C143.355193,36.8188202 145.207149,35.1558989 147.535322,35.1558989 C149.916409,35.0519663 151.715452,36.7148876 151.715452,39.1053371 L151.715452,39.1053371 Z M143.884323,71.3764045 L151.133408,71.3764045 L151.133408,46.0688202 L143.884323,46.0688202 L143.884323,71.3764045 Z M131.396848,64.3089888 C131.396848,62.2823034 128.539544,61.866573 125.206023,60.9311798 C121.343372,59.9438202 116.475373,58.0210674 116.475373,53.1882022 C116.475373,48.4073034 121.13172,45.3932584 126.634675,45.3932584 C131.767239,45.3932584 136.476499,47.7837079 138.434281,51.1615169 L132.243456,54.5912921 C131.6085,52.3567416 129.703631,50.5898876 126.846327,50.5898876 C124.994371,50.5898876 123.459893,51.369382 123.459893,52.8764045 C123.459893,54.7991573 126.846327,55.0070225 130.656065,56.2022472 C134.677456,57.4494382 138.381368,59.2682584 138.381368,63.8932584 C138.381368,68.9859551 133.566282,72 128.010414,72 C121.978328,72 117.216155,69.505618 115.099634,65.4522472 L121.396285,61.9705056 C122.18998,64.7247191 124.465241,66.8033708 127.904588,66.8033708 C129.968196,66.8033708 131.396848,65.9719101 131.396848,64.3089888 L131.396848,64.3089888 Z M108.485505,35.2078652 L101.23642,35.2078652 L101.23642,64.3609551 C101.23642,66.9592697 101.818463,68.8820225 102.929637,70.0772472 C104.093724,71.2724719 105.892767,71.8441011 108.379679,71.8441011 C109.226288,71.8441011 110.125809,71.7401685 110.972418,71.5842697 C111.871939,71.3764045 112.559809,71.116573 113.141852,70.8047753 L113.776808,66.0238764 C113.194765,66.2317416 112.718548,66.3876404 112.24233,66.4396067 C111.819026,66.5435393 111.289896,66.5435393 110.707853,66.5435393 C109.755418,66.5435393 109.332114,66.2837079 109.014636,65.8160112 C108.644244,65.3483146 108.485505,64.5168539 108.485505,63.3216292 L108.485505,35.2078652 Z M84.357163,50.5379213 C81.7115114,50.5379213 79.5420771,52.4087079 78.9600338,55.8384831 L89.1193358,55.8384831 C89.1722488,52.8244382 87.1615536,50.5379213 84.357163,50.5379213 L84.357163,50.5379213 Z M95.5218126,60.619382 L78.8542077,60.619382 C79.1716859,64.7247191 81.4998593,66.7514045 84.5159021,66.7514045 C87.2144666,66.7514045 89.0664227,64.9845506 89.489727,62.5941011 L95.5747256,65.9719101 C93.7756825,69.1938202 89.9130312,72 84.5159021,72 C77.3197298,72 72.0284267,67.0632022 72.0284267,58.7485955 C72.0284267,50.4859551 77.4255559,45.497191 84.357163,45.497191 C91.2887701,45.497191 95.8922038,50.3300562 95.8922038,57.1896067 C95.8392907,59.2162921 95.5218126,60.619382 95.5218126,60.619382 L95.5218126,60.619382 Z M58.6414298,71.3764045 L66.1550802,71.3764045 L66.1550802,36.5589888 L58.6414298,36.5589888 L58.6414298,50.3300562 L44.5136504,50.3300562 L44.5136504,36.6109551 L37,36.6109551 L37,71.3764045 L44.5136504,71.3764045 L44.5136504,56.9817416 L58.6414298,56.9817416 L58.6414298,71.3764045 L58.6414298,71.3764045 Z" id="Helsinki-text"></path>
        </g>
        <rect id="Rectangle" fill="#27272D" x="874" y="224" width="301" height="176" rx="2"></rect>
        <g id="Icons/Arrow-right/48" transform="translate(1095.000000, 329.000000)">
            <rect id="Bounding-box" x="0" y="0" width="48" height="48"></rect>
            <mask id="mask-2" fill="white">
                <use xlink:href="#path-1"></use>
            </mask>
            <use id="Color" fill="#FFFFFF" fill-rule="evenodd" xlink:href="#path-1"></use>
        </g>
        <path d="M909.72869,362 L911.84069,362 L911.84069,354.512 L919.61669,354.512 L919.61669,352.592 L911.84069,352.592 L911.84069,347.312 L920.00069,347.312 L920.00069,345.392 L909.72869,345.392 L909.72869,362 Z M927.39269,362.288 C930.75269,362.288 932.86469,359.6 932.86469,355.952 C932.86469,352.304 930.75269,349.616 927.39269,349.616 C924.03269,349.616 921.92069,352.304 921.92069,355.952 C921.92069,359.6 924.03269,362.288 927.39269,362.288 Z M923.93669,355.952 C923.93669,353.456 925.08869,351.344 927.39269,351.344 C929.69669,351.344 930.84869,353.456 930.84869,355.952 C930.84869,358.448 929.69669,360.56 927.39269,360.56 C925.08869,360.56 923.93669,358.448 923.93669,355.952 Z M935.64869,362 L937.66469,362 L937.66469,355.088 C937.66469,353.192 938.33669,351.536 939.92069,351.536 C940.97669,351.536 941.45669,352.376 941.45669,353.432 C941.45669,354.2 941.24069,355.232 941.24069,355.232 L943.20869,354.056 L943.240544,353.745715 C943.259814,353.520899 943.28069,353.193846 943.28069,352.832 C943.28069,351.08 942.17669,349.712 940.52069,349.712 C939.08069,349.712 938.04869,350.672 937.56869,352.016 L937.52069,352.016 L937.66469,349.904 L935.64869,349.904 L935.64869,362 Z M950.52869,345.392 L950.52869,362 L956.09669,362 C960.80069,362 964.06469,359.024 964.06469,353.648 C964.06469,348.272 960.80069,345.392 956.09669,345.392 L950.52869,345.392 Z M961.90469,353.648 C961.90469,357.296 960.00869,360.08 956.69669,360.08 L952.64069,360.08 L952.64069,347.312 L956.69669,347.312 C960.00869,347.312 961.90469,350 961.90469,353.648 Z M968.40869,356.432 L976.88069,356.432 L976.909238,356.299895 C976.951221,356.087184 977.02469,355.636571 977.02469,355.088 C977.02469,351.92 975.10469,349.616 971.93669,349.616 C968.67269,349.616 966.46469,352.304 966.46469,355.952 C966.46469,359.696 968.52869,362.288 971.98469,362.288 C974.48069,362.288 976.28069,360.68 976.95269,358.952 L975.05669,357.824 C974.79269,359.312 973.71269,360.56 971.98469,360.56 C969.80069,360.56 968.55269,358.736 968.40869,356.432 Z M971.93669,351.296 C973.95269,351.296 975.03269,352.976 975.03269,354.8 L968.48069,354.8 C968.79269,352.832 969.96869,351.296 971.93669,351.296 Z M984.58469,360.656 C982.28069,360.656 981.08069,359.048 980.88869,357.416 L978.96869,358.568 C979.66469,360.824 981.60869,362.288 984.68069,362.288 C986.88869,362.288 988.92869,360.944 988.92869,358.736 C988.92869,356.48 987.17669,355.712 985.16069,355.064 L984.787186,354.950665 C983.158282,354.478571 981.44069,354.222286 981.44069,352.952 C981.44069,351.8 982.56869,351.248 983.72069,351.248 C985.56869,351.248 986.74469,352.568 986.98469,353.912 L988.85669,352.784 C988.08869,350.888 986.02469,349.616 983.62469,349.616 C981.51269,349.616 979.49669,350.912 979.49669,353.024 C979.49669,355.184 981.563878,355.994 983.325206,356.502096 L984.599878,356.857461 C985.917102,357.233416 986.98469,357.654222 986.98469,358.808 C986.98469,360.056 985.83269,360.656 984.58469,360.656 Z M991.71269,362 L993.72869,362 L993.72869,349.904 L991.71269,349.904 L991.71269,362 Z M992.72069,345.104 C991.90469,345.104 991.32869,345.68 991.32869,346.496 C991.32869,347.312 991.90469,347.888 992.72069,347.888 C993.53669,347.888 994.11269,347.312 994.11269,346.496 C994.11269,345.68 993.53669,345.104 992.72069,345.104 Z M997.13669,353.648 C997.13669,355.232 998.00069,356.36 999.34469,356.984 L999.34469,357.032 C998.00069,357.416 996.80069,358.064 996.80069,359.36 C996.80069,360.416 997.56869,360.92 998.43269,361.208 L998.43269,361.256 C997.18469,361.52 995.84069,362.456 995.84069,363.728 C995.84069,366.032 998.81669,366.992 1001.79269,366.992 C1004.96069,366.992 1008.03269,365.936 1008.03269,363.056 C1008.03269,360.848 1006.20869,359.792 1004.00069,359.792 C1002.65669,359.792 1001.60069,359.984 1000.44869,359.984 C999.20069,359.984 998.72069,359.696 998.72069,359.12 C998.72069,358.292 1000.13136,357.7285 1001.51631,357.682979 L1001.69669,357.68 C1004.09669,357.68 1006.25669,356.048 1006.25669,353.648 C1006.25669,352.304 1005.51269,351.464 1005.05669,351.008 L1005.05669,350.96 C1005.34469,351.056 1005.82469,351.152 1006.20869,351.152 C1007.36069,351.152 1008.03269,350.576 1008.03269,349.136 L1005.82469,347.888 L1005.89069,348.416 C1005.90869,348.584 1005.92069,348.752 1005.92069,348.944 C1005.92069,349.52 1005.63269,350 1004.57669,350 C1003.52069,350 1002.84869,349.616 1001.69669,349.616 C999.29669,349.616 997.13669,351.056 997.13669,353.648 Z M997.66469,363.584 C997.66469,361.952 1001.06191,361.633593 1003.06013,361.616731 L1003.23269,361.616 C1004.76869,361.616 1006.11269,362 1006.11269,363.152 C1006.11269,364.688 1004.00069,365.36 1001.79269,365.36 C999.68069,365.36 997.66469,364.784 997.66469,363.584 Z M999.05669,353.648 C999.05669,352.112 1000.25669,351.2 1001.69669,351.2 C1003.13669,351.2 1004.33669,352.112 1004.33669,353.648 C1004.33669,355.184 1003.13669,356.096 1001.69669,356.096 C1000.25669,356.096 999.05669,355.184 999.05669,353.648 Z M1019.64869,354.416 C1019.64869,351.248 1018.01669,349.616 1015.52069,349.616 C1013.40869,349.616 1012.25669,350.96 1011.77669,352.016 L1011.72869,352.016 L1011.87269,349.904 L1009.85669,349.904 L1009.85669,362 L1011.87269,362 L1011.87269,354.848 C1011.87269,353 1013.07269,351.44 1014.94469,351.44 C1016.67269,351.44 1017.63269,352.4 1017.63269,354.8 L1017.63269,362 L1019.64869,362 L1019.64869,354.416 Z M1024.28069,356.432 L1032.75269,356.432 L1032.78124,356.299895 C1032.82322,356.087184 1032.89669,355.636571 1032.89669,355.088 C1032.89669,351.92 1030.97669,349.616 1027.80869,349.616 C1024.54469,349.616 1022.33669,352.304 1022.33669,355.952 C1022.33669,359.696 1024.40069,362.288 1027.85669,362.288 C1030.35269,362.288 1032.15269,360.68 1032.82469,358.952 L1030.92869,357.824 C1030.66469,359.312 1029.58469,360.56 1027.85669,360.56 C1025.67269,360.56 1024.42469,358.736 1024.28069,356.432 Z M1027.80869,351.296 C1029.82469,351.296 1030.90469,352.976 1030.90469,354.8 L1024.35269,354.8 C1024.66469,352.832 1025.84069,351.296 1027.80869,351.296 Z M1035.58469,362 L1037.60069,362 L1037.60069,355.088 C1037.60069,353.192 1038.27269,351.536 1039.85669,351.536 C1040.91269,351.536 1041.39269,352.376 1041.39269,353.432 C1041.39269,354.2 1041.17669,355.232 1041.17669,355.232 L1043.14469,354.056 L1043.17654,353.745715 C1043.19581,353.520899 1043.21669,353.193846 1043.21669,352.832 C1043.21669,351.08 1042.11269,349.712 1040.45669,349.712 C1039.01669,349.712 1037.98469,350.672 1037.50469,352.016 L1037.45669,352.016 L1037.60069,349.904 L1035.58469,349.904 L1035.58469,362 Z M1050.39269,360.656 C1051.64069,360.656 1052.79269,360.056 1052.79269,358.808 C1052.79269,357.654222 1051.7251,357.233416 1050.40788,356.857461 L1049.13321,356.502096 C1047.37188,355.994 1045.30469,355.184 1045.30469,353.024 C1045.30469,350.912 1047.32069,349.616 1049.43269,349.616 C1051.83269,349.616 1053.89669,350.888 1054.66469,352.784 L1052.79269,353.912 C1052.55269,352.568 1051.37669,351.248 1049.52869,351.248 C1048.37669,351.248 1047.24869,351.8 1047.24869,352.952 C1047.24869,354.32 1049.24069,354.512 1050.96869,355.064 L1051.36793,355.195605 C1053.2105,355.821013 1054.73669,356.6304 1054.73669,358.736 C1054.73669,360.944 1052.69669,362.288 1050.48869,362.288 C1047.41669,362.288 1045.47269,360.824 1044.77669,358.568 L1046.69669,357.416 C1046.88869,359.048 1048.08869,360.656 1050.39269,360.656 Z" id="ForDesigners" fill="#FFFFFF" fill-rule="nonzero"></path>
    </g>
</svg>