<?xml version="1.0" standalone="no"?>
<!DOCTYPE svg PUBLIC "-//W3C//DTD SVG 20010904//EN"
 "http://www.w3.org/TR/2001/REC-SVG-20010904/DTD/svg10.dtd">
<svg version="1.0" xmlns="http://www.w3.org/2000/svg"
 width="560.000000pt" height="560.000000pt" viewBox="0 0 560.000000 560.000000"
 preserveAspectRatio="xMidYMid meet">
<metadata>
Created by potrace 1.14, written by Peter Selinger 2001-2017
</metadata>
<g transform="translate(0.000000,560.000000) scale(0.100000,-0.100000)"
fill="#000000" stroke="none">
<path d="M0 3248 c1 -520 5 -875 11 -908 40 -222 196 -416 405 -503 62 -26 82
-32 164 -47 25 -4 432 -8 906 -9 490 0 882 -5 910 -10 123 -24 234 -85 343
-189 l64 -62 61 61 c97 98 198 156 318 184 53 12 201 15 918 15 470 0 871 3
890 5 87 13 109 18 178 46 170 68 298 189 373 355 58 129 58 121 59 1057 l0
857 -2800 0 -2800 0 0 -852z m5438 -77 c0 -487 -4 -786 -10 -817 -40 -190
-184 -340 -380 -394 -68 -19 -107 -20 -937 -20 -805 0 -872 -2 -957 -19 -101
-21 -216 -70 -284 -122 -25 -19 -50 -38 -57 -42 -7 -4 -43 14 -85 42 -40 27
-104 63 -143 80 -145 61 -138 61 -1081 61 -944 0 -939 0 -1063 61 -71 35 -164
122 -205 191 -14 25 -36 71 -48 104 -21 59 -21 66 -23 844 -2 432 -1 788 2
792 2 4 1189 8 2637 8 l2634 0 0 -769z"/>
<path d="M2189 3321 c0 -20 -1 -174 -1 -344 1 -277 2 -311 19 -345 10 -20 30
-43 44 -49 34 -17 115 -22 156 -11 33 9 35 12 47 84 l5 31 -48 -5 c-34 -3 -51
0 -57 9 -5 8 -9 157 -9 331 -1 174 -4 321 -9 325 -4 4 -39 8 -77 9 l-69 1 -1
-36z"/>
<path d="M3151 3349 c-83 -32 -60 -159 28 -161 63 -2 105 42 95 99 -10 54 -66
83 -123 62z"/>
<path d="M4079 3353 c-1 -11 -1 -743 0 -764 1 -14 13 -17 76 -16 83 1 77 -4
77 79 -1 45 12 69 73 136 1 1 33 -46 71 -106 l69 -108 82 0 c46 -1 83 1 83 3
0 2 -45 76 -100 165 l-101 161 23 26 c13 14 25 28 28 31 3 3 30 34 60 70 30
36 58 67 62 68 5 2 8 8 8 13 0 5 -40 9 -89 9 l-89 0 -73 -101 c-73 -99 -127
-166 -114 -141 4 7 7 117 8 245 l1 232 -77 3 c-42 2 -77 -1 -78 -5z"/>
<path d="M4734 3350 c-55 -21 -71 -95 -29 -134 32 -30 65 -36 103 -20 105 44
32 194 -74 154z"/>
<path d="M805 3321 c-3 -2 -5 -172 -5 -376 l0 -372 75 1 c45 1 79 6 83 13 4 6
6 76 6 155 l-2 143 149 0 c124 0 150 -3 154 -15 2 -8 4 -64 4 -125 -1 -60 0
-124 0 -141 l1 -32 78 2 77 1 3 376 2 375 -80 1 c-75 0 -80 -1 -81 -21 0 -11
-1 -78 0 -148 l0 -128 -153 0 -154 0 0 138 c0 75 -1 142 -1 147 -1 10 -147 16
-156 6z"/>
<path d="M2670 3126 c-89 -23 -128 -58 -150 -136 -8 -28 -6 -42 11 -77 26 -53
76 -85 189 -117 91 -27 126 -52 116 -84 -8 -25 -54 -42 -97 -37 -29 4 -99 48
-99 63 0 4 -4 14 -9 21 -8 13 -20 9 -75 -19 -36 -19 -66 -38 -66 -42 0 -20 68
-80 115 -103 158 -74 357 -17 380 109 19 99 -35 160 -180 201 -110 32 -135 45
-135 71 0 32 33 47 88 41 43 -5 92 -40 92 -67 0 -15 8 -13 76 25 58 33 63 37
51 56 -15 25 -91 73 -139 89 -54 17 -116 19 -168 6z"/>
<path d="M3730 3132 c-54 -7 -90 -25 -120 -58 -30 -35 -34 -33 -30 19 l2 27
-76 0 c-42 0 -76 -3 -77 -7 0 -12 -1 -474 0 -509 l1 -32 75 1 c60 1 75 4 75
17 1 8 2 92 3 186 2 187 5 196 64 220 46 20 89 2 103 -42 7 -19 12 -107 12
-207 l0 -173 78 0 79 0 1 192 c0 115 -4 211 -11 238 -20 81 -101 139 -179 128z"/>
<path d="M1729 3116 c-164 -58 -226 -293 -118 -450 28 -41 89 -83 144 -97 47
-13 140 -5 189 15 39 16 116 83 116 100 0 18 -123 82 -128 66 -10 -30 -59 -71
-87 -75 -39 -4 -97 20 -114 47 -22 35 -31 76 -18 81 7 2 88 3 180 3 l168 -1 6
23 c17 70 -17 191 -69 239 -61 57 -184 80 -269 49z m155 -115 c16 -14 46 -69
46 -86 0 -3 -49 -5 -110 -5 -121 0 -124 2 -90 58 35 56 108 72 154 33z"/>
<path d="M3110 2847 l0 -274 69 1 c38 1 73 5 78 9 4 5 8 128 8 273 l0 264 -77
0 -78 0 0 -273z"/>
<path d="M4690 2847 l0 -274 78 1 77 1 2 273 1 272 -79 0 -79 0 0 -273z"/>
</g>
</svg>
