<?xml version="1.0" standalone="no"?>
<!DOCTYPE svg PUBLIC "-//W3C//DTD SVG 20010904//EN"
 "http://www.w3.org/TR/2001/REC-SVG-20010904/DTD/svg10.dtd">
<svg version="1.0" xmlns="http://www.w3.org/2000/svg"
 width="260.000000pt" height="260.000000pt" viewBox="0 0 260.000000 260.000000"
 preserveAspectRatio="xMidYMid meet">
<metadata>
Created by potrace 1.11, written by Peter Selinger 2001-2013
</metadata>
<g transform="translate(0.000000,260.000000) scale(0.100000,-0.100000)"
fill="#000000" stroke="none">
<path d="M70 1487 c0 -442 2 -453 76 -537 89 -98 67 -94 559 -100 478 -6 457
-3 551 -78 l52 -41 31 33 c18 18 53 44 79 57 47 24 47 24 477 29 492 6 470 2
559 100 74 84 76 95 76 537 l0 383 -1230 0 -1230 0 0 -383z m2390 -28 c0 -230
-4 -354 -12 -380 -6 -22 -27 -57 -46 -79 -65 -77 -47 -74 -522 -80 l-425 -5
-60 -28 c-33 -15 -67 -35 -77 -44 -17 -15 -19 -15 -36 0 -10 9 -44 29 -77 44
l-60 28 -425 5 c-476 6 -456 3 -523 80 -19 23 -40 61 -46 85 -7 28 -11 168
-11 379 l0 336 1160 0 1160 0 0 -341z"/>
<path d="M1032 1378 l3 -162 26 -15 c32 -18 75 -8 82 18 3 15 -1 21 -17 23
-20 3 -21 8 -24 151 l-3 147 -35 0 -34 0 2 -162z"/>
<path d="M1442 1528 c-17 -17 -15 -46 6 -56 36 -19 75 24 46 52 -19 19 -36 20
-52 4z"/>
<path d="M1860 1370 l0 -170 30 0 c24 0 30 4 30 23 0 12 9 33 19 46 l18 23 29
-46 c26 -41 33 -46 67 -46 l37 0 -40 64 c-22 35 -40 68 -40 75 0 6 16 28 35
50 19 21 35 41 35 45 0 3 -16 6 -35 6 -31 0 -40 -7 -78 -55 l-42 -55 -3 105
-3 105 -29 0 -30 0 0 -170z"/>
<path d="M2130 1525 c-14 -17 -5 -51 16 -59 22 -8 54 11 54 32 0 38 -46 56
-70 27z"/>
<path d="M627 1524 c-4 -4 -7 -36 -7 -70 l0 -63 -62 2 -63 2 -3 63 -3 62 -34
0 -35 0 0 -160 0 -160 35 0 35 0 0 65 0 65 65 0 65 0 0 -65 0 -65 40 0 40 0
-2 163 -3 162 -30 3 c-17 2 -34 0 -38 -4z"/>
<path d="M809 1425 c-30 -16 -59 -70 -59 -110 0 -97 105 -155 188 -105 38 24
40 37 7 52 -20 9 -28 8 -43 -5 -23 -21 -46 -22 -66 -1 -35 34 -20 44 64 44
l80 0 0 28 c0 37 -34 90 -66 102 -35 14 -74 12 -105 -5z m89 -47 c25 -25 13
-38 -33 -38 -30 0 -45 4 -45 13 0 19 21 37 45 37 12 0 26 -5 33 -12z"/>
<path d="M1209 1425 c-28 -15 -43 -52 -33 -79 8 -21 44 -42 93 -56 31 -8 41
-16 39 -28 -5 -26 -47 -27 -74 -1 -22 21 -24 21 -49 5 -23 -15 -24 -20 -13
-33 18 -22 71 -43 108 -43 37 0 85 23 94 45 19 50 -3 81 -74 105 -30 10 -55
25 -55 32 0 19 44 22 65 3 14 -13 22 -14 43 -4 32 14 26 33 -18 53 -41 20 -91
20 -126 1z"/>
<path d="M1437 1433 c-4 -3 -7 -57 -7 -120 l0 -113 35 0 35 0 0 120 0 120 -28
0 c-16 0 -32 -3 -35 -7z"/>
<path d="M1577 1433 c-4 -3 -7 -57 -7 -120 l0 -113 35 0 35 0 0 78 c0 83 9
102 46 102 29 0 34 -17 34 -106 l0 -74 36 0 36 0 -4 101 c-3 92 -5 103 -27
120 -28 23 -69 24 -99 3 -20 -14 -22 -14 -22 0 0 16 -49 23 -63 9z"/>
<path d="M2130 1320 l0 -120 30 0 30 0 0 120 0 120 -30 0 -30 0 0 -120z"/>
</g>
</svg>
