<svg role="img" xmlns="http://www.w3.org/2000/svg" viewBox="0 0 24 24">
  <g fill="none" fill-rule="evenodd">
    <rect width="24" height="24"/>
    <path fill="currentColor" d="M18,2.18036665 L18.6170955,3.07374524 C19.7056028,4.64959381 20.25,5.73838824 20.25,6.5 C20.25,7.47956939 19.6240154,8.31293223 18.7502535,8.6218811 L18.750584,10.007947 C20.6239926,10.1275594 22,11.5844616 22,13.5000171 L22,22.0000171 L2,22.0000171 L2,13.5000171 C2,11.5841197 3.37649862,10.1270394 5.25041913,10.0078831 L5.25076538,8.62224108 C4.37647132,8.31357999 3.75,7.4799501 3.75,6.5 C3.75,5.78318893 4.23223421,4.77655515 5.19646322,3.34681278 L5.38290448,3.07374524 L6,2.18036665 L6.61709552,3.07374524 C7.70560278,4.64959381 8.25,5.73838824 8.25,6.5 C8.25,7.47956939 7.62401536,8.31293223 6.7502535,8.6218811 L6.75,9.99936665 L11.25,9.99936665 L11.2507654,8.62224108 C10.4226656,8.32988842 9.81689238,7.566576 9.75519081,6.65404881 L9.75,6.5 C9.75,5.78318893 10.2322342,4.77655515 11.1964632,3.34681278 L11.3829045,3.07374524 L12,2.18036665 L12.6170955,3.07374524 C13.7056028,4.64959381 14.25,5.73838824 14.25,6.5 C14.25,7.47956939 13.6240154,8.31293223 12.7502535,8.6218811 L12.75,9.99936665 L17.25,9.99936665 L17.2507654,8.62224108 C16.4226656,8.32988842 15.8168924,7.566576 15.7551908,6.65404881 L15.75,6.5 C15.75,5.78318893 16.2322342,4.77655515 17.1964632,3.34681278 L17.3829045,3.07374524 L18,2.18036665 Z M15.2524986,17.1749293 L15,17.025 L14.9911282,17.0311542 C14.1889167,17.533117 13.2875201,17.8080212 12.2991185,17.8538553 L12,17.8607314 C10.9943191,17.8607314 10.0744254,17.6314602 9.25249863,17.1749293 L9,17.025 L8.99112819,17.0311542 C8.18891668,17.533117 7.28752013,17.8080212 6.29911847,17.8538553 L6,17.8607314 C5.28908765,17.8607314 4.62104336,17.746164 4.00016954,17.5177396 L4,20 L20,20 L20.00084,17.5173681 C19.3796808,17.7460397 18.7112977,17.8607314 18,17.8607314 C16.9943191,17.8607314 16.0744254,17.6314602 15.2524986,17.1749293 Z M18.5,12.0000171 L5.5,12.0000171 C4.5,12.0000171 3.99984155,12.5000171 3.99984155,13.5000171 L3.99984155,15.8740735 C4.59297228,16.1991606 5.25576505,16.3607314 6,16.3607314 C6.88939013,16.3607314 7.66247112,16.129989 8.33934762,15.665184 L8.53954454,15.5187173 L9,15.1605852 L9.46045546,15.5187173 C10.1840758,16.0815331 11.0216709,16.3607314 12,16.3607314 C12.8893901,16.3607314 13.6624711,16.129989 14.3393476,15.665184 L14.5395445,15.5187173 L15,15.1605852 L15.4604555,15.5187173 C16.1840758,16.0815331 17.0216709,16.3607314 18,16.3607314 C18.7446545,16.3607314 19.4077749,16.1989784 20.0011614,15.8735236 L20,13.5000171 C20,12.5000171 19.5,12.0000171 18.5,12.0000171 Z M12.1776599,5.16381918 L12,4.868 L11.7714885,5.25185018 L11.7714885,5.25185018 L11.5527141,5.65496405 C11.3508947,6.0513759 11.25,6.33860812 11.25,6.5 C11.25,6.91421356 11.5857864,7.25 12,7.25 C12.4142136,7.25 12.75,6.91421356 12.75,6.5 C12.75,6.35878211 12.6727525,6.1212177 12.5182374,5.79846816 L12.4472859,5.65496405 L12.2769975,5.33744432 L12.1776599,5.16381918 L12.1776599,5.16381918 Z M18.1776599,5.16381918 L18,4.868 L17.7714885,5.25185018 L17.7714885,5.25185018 L17.5527141,5.65496405 C17.3508947,6.0513759 17.25,6.33860812 17.25,6.5 C17.25,6.91421356 17.5857864,7.25 18,7.25 C18.4142136,7.25 18.75,6.91421356 18.75,6.5 C18.75,6.35878211 18.6727525,6.1212177 18.5182374,5.79846816 L18.4472859,5.65496405 L18.2769975,5.33744432 L18.1776599,5.16381918 L18.1776599,5.16381918 Z M6.17765988,5.16381918 L6,4.868 L5.7714885,5.25185018 L5.7714885,5.25185018 L5.55271413,5.65496405 C5.35089473,6.0513759 5.25,6.33860812 5.25,6.5 C5.25,6.91421356 5.58578644,7.25 6,7.25 C6.41421356,7.25 6.75,6.91421356 6.75,6.5 C6.75,6.35878211 6.67275247,6.1212177 6.51823736,5.79846816 L6.44728587,5.65496405 L6.27699748,5.33744432 L6.17765988,5.16381918 L6.17765988,5.16381918 Z"/>
  </g>
</svg>
