<svg role="img" xmlns="http://www.w3.org/2000/svg" viewBox="0 0 24 24">
  <g fill="none" fill-rule="evenodd">
    <rect width="24" height="24"/>
    <path fill="currentColor" d="M13.5789474,13 L13.578,14.653 L13.5964916,14.6345961 C14.5967535,13.6419041 15.8661449,13.0738529 17.2267216,13.0067242 L17.5,13 C20.5375661,13 23,15.4624339 23,18.5 C23,21.5375661 20.5375661,24 17.5,24 C16.1146872,24 14.8088198,23.4842858 13.8071287,22.5759524 L13.6109127,22.3890873 L15.0251263,20.9748737 L15.1797332,21.1204973 C15.8137111,21.682743 16.6306629,22 17.5,22 C19.4329966,22 21,20.4329966 21,18.5 C21,16.5670034 19.4329966,15 17.5,15 C16.5853683,15 15.7291639,15.3515202 15.0843467,15.9672102 L14.9276349,16.1265857 L14.701,16.421 L17,16.4210526 L17,18 L12,18 L12,13 L13.5789474,13 Z M17,2 C17.5522847,2 18,2.44771525 18,3 L18,4 L22,4 L22.0008195,13.3103588 C21.4253055,12.7578757 20.7483079,12.3103075 20.000576,11.9984036 L20,11 L4,11 L4,19 L11,19 L11,21 L2,21 L2,4 L6,4 L6,3 C6,2.44771525 6.44771525,2 7,2 C7.55228475,2 8,2.44771525 8,3 L8,4 L16,4 L16,3 C16,2.44771525 16.4477153,2 17,2 Z M20,6 L4,6 L4,9 L20,9 L20,6 Z"/>
  </g>
</svg>
