<svg role="img" xmlns="http://www.w3.org/2000/svg" viewBox="0 0 24 24">
  <g fill="none" fill-rule="evenodd">
    <rect width="24" height="24"/>
    <path fill="currentColor" d="M16.5,24 L16.2787929,23.9956328 C13.34378,23.8795391 11,21.4634791 11,18.5 C11,15.5365209 13.34378,13.1204609 16.2787929,13.0043672 L16.5,13 L16.7732784,13.0067242 C18.0431499,13.0693776 19.233589,13.5683903 20.1999204,14.4417422 L20.422,14.653 L20.4210526,13 L22,13 L22,18 L17,18 L17,16.4210526 L19.299,16.421 L19.0723651,16.1265857 L18.9156533,15.9672102 C18.2708361,15.3515202 17.4146317,15 16.5,15 C14.5670034,15 13,16.5670034 13,18.5 C13,20.4329966 14.5670034,22 16.5,22 L16.6058825,21.9984281 L16.6058825,21.9984281 L16.7500024,21.9912088 L16.9499759,21.971343 L17.118356,21.9455928 L17.2213075,21.9255927 L17.3972515,21.883929 L17.5850289,21.8285631 L17.6959994,21.7905955 L17.8733374,21.7206279 L18.0690175,21.6298559 L18.1649577,21.5793864 L18.3374394,21.4794671 L18.3374394,21.4794671 L18.2260872,21.5458731 C18.3669611,21.4658472 18.5024167,21.3758927 18.6315119,21.2765307 L18.8060993,21.1329137 C19.229017,20.7621923 19.5618464,20.2912056 19.7674734,19.7570681 L21.6347628,20.4749725 C21.3907662,21.1089351 21.0327422,21.6862961 20.5858175,22.1819289 L20.3890873,22.3890873 L20.1633223,22.6025548 L20.1633223,22.6025548 L19.9501038,22.7836402 L19.9501038,22.7836402 L19.7949017,22.9043159 L19.7949017,22.9043159 L19.6184802,23.0311641 L19.6184802,23.0311641 L19.4441479,23.1464729 L19.4441479,23.1464729 L19.2063141,23.289208 L19.2063141,23.289208 L18.9788104,23.4110622 L18.9788104,23.4110622 L18.7397969,23.5247595 L18.7397969,23.5247595 L18.4974858,23.6260162 L18.4974858,23.6260162 L18.3538,23.6794869 L18.3538,23.6794869 L18.1096346,23.7606795 L18.1096346,23.7606795 L17.8371768,23.8360421 L17.8371768,23.8360421 L17.5225645,23.9048532 L17.5225645,23.9048532 L17.3735885,23.9310058 L17.3735885,23.9310058 L17.0542405,23.9723156 L17.0542405,23.9723156 L16.8756787,23.9873711 L16.8756787,23.9873711 L16.7212071,23.9956328 L16.7212071,23.9956328 L16.5,24 Z M17,2 C17.5522847,2 18,2.44771525 18,3 L18,4 L22,4 L22,11 L4,11 L4,19 L10,19 C10,19.5 10.2046135,20.3783843 10.5,21 L2,21 L2,4 L6,4 L6,3 C6,2.44771525 6.44771525,2 7,2 C7.55228475,2 8,2.44771525 8,3 L8,4 L16,4 L16,3 C16,2.44771525 16.4477153,2 17,2 Z M20,6 L4,6 L4,9 L20,9 L20,6 Z"/>
  </g>
</svg>
