<svg role="img" xmlns="http://www.w3.org/2000/svg" viewBox="0 0 24 24">
  <g fill="none" fill-rule="evenodd">
    <rect width="24" height="24"/>
    <path fill="currentColor" d="M18,5 L6,5 C3.790861,5 2,6.790861 2,9 L2,17 C2,19.209139 3.790861,21 6,21 L18,21 C20.209139,21 22,19.209139 22,17 L22,9 C22,6.790861 20.209139,5 18,5 Z M18,7 C19.1045695,7 20,7.8954305 20,9 L20,17 C20,18.1045695 19.1045695,19 18,19 L6,19 C4.8954305,19 4,18.1045695 4,17 L4,9 C4,7.8954305 4.8954305,7 6,7 L18,7 Z M17,15.0286701 L7,15.0286701 L7,17 L17,17 L17,15.0286701 Z M8.50003646,9 C7.39544402,9 6.5,9.89538742 6.5,11 C6.5,12.1045397 7.39544402,13 8.50003646,13 C9.60455598,13 10.5,12.1045397 10.5,11 C10.5,9.89538742 9.60455598,9 8.50003646,9 Z M15.5000365,9 C14.395444,9 13.5,9.89538742 13.5,11 C13.5,12.1045397 14.395444,13 15.5000365,13 C16.604556,13 17.5,12.1045397 17.5,11 C17.5,9.89538742 16.604556,9 15.5000365,9 Z M12.0000273,1 C12.828417,1 13.5,1.67154057 13.5,2.5 C13.5,2.94372132 13.3073207,3.34245349 13.0010702,3.61708682 L13,5 L11,5 L10.9999087,3.61795642 C10.6930865,3.34329553 10.5,2.94418987 10.5,2.5 C10.5,1.67154057 11.171583,1 12.0000273,1 Z"/>
  </g>
</svg>
