<svg role="img" xmlns="http://www.w3.org/2000/svg" viewBox="0 0 24 24">
  <g fill="none" fill-rule="evenodd">
    <rect width="24" height="24"/>
    <path fill="currentColor" d="M8,16 C9.1045695,16 10,16.8954305 10,18 C10,19.1045695 9.1045695,20 8,20 C6.8954305,20 6,19.1045695 6,18 C6,16.8954305 6.8954305,16 8,16 Z M16,16 C17.1045695,16 18,16.8954305 18,18 C18,19.1045695 17.1045695,20 16,20 C14.8954305,20 14,19.1045695 14,18 C14,16.8954305 14.8954305,16 16,16 Z M8,10 C9.1045695,10 10,10.8954305 10,12 C10,13.1045695 9.1045695,14 8,14 C6.8954305,14 6,13.1045695 6,12 C6,10.8954305 6.8954305,10 8,10 Z M16,10 C17.1045695,10 18,10.8954305 18,12 C18,13.1045695 17.1045695,14 16,14 C14.8954305,14 14,13.1045695 14,12 C14,10.8954305 14.8954305,10 16,10 Z M8,4 C9.1045695,4 10,4.8954305 10,6 C10,7.1045695 9.1045695,8 8,8 C6.8954305,8 6,7.1045695 6,6 C6,4.8954305 6.8954305,4 8,4 Z M16,4 C17.1045695,4 18,4.8954305 18,6 C18,7.1045695 17.1045695,8 16,8 C14.8954305,8 14,7.1045695 14,6 C14,4.8954305 14.8954305,4 16,4 Z"/>
  </g>
</svg>
