<svg viewBox="0 0 24 24" role="img" xmlns="http://www.w3.org/2000/svg"><g fill="none" fill-rule="evenodd"><path d="M0 0h24v24H0z"/><path d="M12 2c5.523 0 10 4.477 10 10s-4.477 10-10 10S2 17.523 2 12 6.477 2 12 2zm0 2a8 8 0 100 16 8 8 0 000-16zm-3.103 9.558a3.463 3.463 0 003.108 1.942c1.28 0 2.434-.703 3.038-1.805l.062-.12 1.79.893a5.463 5.463 0 01-4.89 3.032 5.462 5.462 0 01-4.832-2.92l-.07-.138 1.794-.884zM8.5 8a1.5 1.5 0 110 3 1.5 1.5 0 010-3zm7 0a1.5 1.5 0 110 3 1.5 1.5 0 010-3z" fill="currentColor"/></g></svg>
