<svg viewBox="0 0 24 24" role="img" xmlns="http://www.w3.org/2000/svg"><g fill="none" fill-rule="evenodd"><path d="M0 0h24v24H0z"/><path d="M12 2c5.523 0 10 4.477 10 10s-4.477 10-10 10S2 17.523 2 12 6.477 2 12 2zm0 2a8 8 0 100 16 8 8 0 000-16zm.005 9a5.46 5.46 0 014.78 2.822l.11.21-1.79.893-.062-.12A3.461 3.461 0 0012.005 15a3.461 3.461 0 00-3.011 1.759l-.097.183-1.794-.884.07-.138A5.462 5.462 0 0112.005 13zM8.5 8a1.5 1.5 0 110 3 1.5 1.5 0 010-3zm7 0a1.5 1.5 0 110 3 1.5 1.5 0 010-3z" fill="currentColor"/></g></svg>
