<svg viewBox="0 0 24 24" role="img" xmlns="http://www.w3.org/2000/svg"><g fill="none" fill-rule="evenodd"><path d="M0 0h24v24H0z"/><path d="M12 2c5.523 0 10 4.477 10 10s-4.477 10-10 10S2 17.523 2 12 6.477 2 12 2zM7.345 17.04c-.666.07-1.33.157-1.991.258a8.509 8.509 0 003.898 2.748 12.433 12.433 0 01-1.907-3.005zm9.311.009a12.437 12.437 0 01-1.9 2.995 8.519 8.519 0 003.883-2.735l-.697-.103a43.226 43.226 0 00-1.286-.157zm-3.906-.245v3.18c.961-.902 1.74-1.942 2.317-3.076-.77-.056-1.543-.09-2.317-.104zm-1.5-.001c-.737.012-1.474.042-2.209.091l-.105.008a11.137 11.137 0 002.314 3.077v-3.176zm9.217-4.053h-2.759c-.058.98-.23 1.935-.51 2.853.783.091 1.562.203 2.336.335a8.437 8.437 0 00.933-3.188zM4.46 15.926l.05-.008a44.627 44.627 0 012.296-.324 12.278 12.278 0 01-.508-2.844H3.533c.1 1.138.423 2.212.926 3.176zm8.291-3.176v2.556c.977.017 1.954.065 2.927.146.29-.866.47-1.771.534-2.702H12.75zm-1.5 0H7.795c.063.928.243 1.832.532 2.696.972-.08 1.947-.126 2.923-.142V12.75zm8.284-4.689l-.316.054c-.67.11-1.344.204-2.02.283.28.917.452 1.872.51 2.852h2.76a8.446 8.446 0 00-.934-3.189zM4.46 8.074l-.017.033a8.446 8.446 0 00-.91 3.143h2.765c.059-.977.23-1.93.508-2.845-.786-.089-1.568-.2-2.346-.33zm11.218.474l-.47.037c-.817.058-1.637.095-2.457.11v2.554h3.461a10.803 10.803 0 00-.534-2.7zm-7.35.007l-.039.116a10.808 10.808 0 00-.493 2.579h3.455V8.695a45.328 45.328 0 01-2.923-.141zm2.923-4.533a11.137 11.137 0 00-2.315 3.077c.77.053 1.543.086 2.315.099V4.022zm1.5-.005v3.18a43.965 43.965 0 002.317-.103 11.127 11.127 0 00-2.316-3.077zm-3.497-.064l-.027.01a8.517 8.517 0 00-3.873 2.74c.661.101 1.326.187 1.993.257a12.43 12.43 0 011.907-3.007zm5.504.004l.142.169a12.424 12.424 0 011.758 2.825c.663-.07 1.324-.157 1.982-.259a8.51 8.51 0 00-3.882-2.735z" fill="currentColor"/></g></svg>
