<svg role="img" xmlns="http://www.w3.org/2000/svg" viewBox="0 0 24 24">
  <g fill="none" fill-rule="evenodd">
    <rect width="24" height="24"/>
    <path fill="currentColor" d="M12.6201117,20 C15.5698324,20 17.2234637,17.877095 17.7821229,15.7318436 L15.4357542,14.2569832 C15.3240223,16.0670391 14.6759777,17.877095 12.6201117,17.877095 C10.6759777,17.877095 9.78212291,16.5139665 9.42458101,14.6592179 L12.5083799,14.6592179 L13.1564246,12.8268156 L9.24581006,12.8268156 C9.23091248,12.6480447 9.22594662,12.459342 9.22429133,12.2673288 L9.22346369,11.396648 L13.5810056,11.396648 L14.2067039,9.54189944 L9.44692737,9.54189944 C9.82681564,7.62011173 10.7877095,6.1452514 12.6201117,6.1452514 C14.6536313,6.1452514 15.3240223,7.75418994 15.4357542,9.58659218 L17.7821229,8.11173184 C17.2234637,5.96648045 15.5251397,4 12.6201117,4 C9.84916201,4 7.63687151,5.94413408 6.94413408,9.54189944 L5,9.54189944 L5,11.396648 L6.74301676,11.396648 L6.74301676,11.9776536 C6.74301676,12.2681564 6.74301676,12.5586592 6.76536313,12.8268156 L5,12.8268156 L5,14.6592179 L6.96648045,14.6592179 C7.61452514,18.1899441 9.67039106,20 12.6201117,20 Z"/>
  </g>
</svg>
