<svg role="img" xmlns="http://www.w3.org/2000/svg" viewBox="0 0 24 24">
  <g fill="none" fill-rule="evenodd">
    <rect width="24" height="24"/>
    <path fill="currentColor" d="M11.8769231,20 C14.8307692,20 17.0666667,18.8307692 18.2153846,17.6205128 L16.3692308,16.5333333 C15.5487179,17.7435897 13.8871795,18.3589744 11.8769231,18.3589744 C8.38974359,18.3589744 5.86666667,15.7948718 5.86666667,11.9794872 C5.86666667,8.24615385 8.36923077,5.68205128 11.9589744,5.68205128 C15.3230769,5.68205128 17.7025641,8 17.7025641,11.3435897 C17.7025641,12.9641026 16.9846154,14.174359 15.9589744,14.174359 C15.3025641,14.174359 14.974359,13.8051282 14.974359,13.025641 L14.974359,10.625641 C14.974359,8.71794872 13.7230769,7.83589744 12.0410256,7.83589744 C10.2564103,7.83589744 9.08717949,8.82051282 8.49230769,9.92820513 L10.1538462,10.8512821 C10.3384615,10.0923077 10.9333333,9.37435897 11.9794872,9.37435897 C12.5948718,9.37435897 13.1487179,9.7025641 13.1487179,10.2564103 C13.1487179,10.7897436 12.4102564,10.9538462 11.3846154,11.1589744 C10.0717949,11.425641 8.67692308,11.9384615 8.67692308,13.4974359 C8.67692308,14.7692308 9.80512821,15.6923077 11.1384615,15.6923077 C12.3282051,15.6923077 13.1487179,15.0153846 13.4769231,14.5846154 L13.5179487,14.5846154 C13.9487179,15.3846154 14.8923077,15.6923077 15.8974359,15.6923077 C17.6410256,15.6923077 19.5692308,14.3794872 19.5692308,11.3435897 C19.5692308,7.03589744 16.2666667,4 11.9589744,4 C7.40512821,4 4,7.28205128 4,11.9794872 C4,16.8410256 7.42564103,20 11.8769231,20 Z M11.5692308,14.174359 C10.974359,14.174359 10.5025641,13.8871795 10.5025641,13.374359 C10.5025641,12.8 11.0679487,12.586859 11.6215545,12.4326122 L11.8564103,12.3692308 L11.8564103,12.3692308 C12.5128205,12.2051282 13.025641,12.0615385 13.2102564,11.7948718 L13.2102564,12.5948718 C13.2102564,13.6615385 12.3692308,14.174359 11.5692308,14.174359 Z"/>
  </g>
</svg>
