<svg role="img" fill="none" viewBox="0 0 24 24" xmlns="http://www.w3.org/2000/svg">
    <path clip-rule="evenodd" d="m14.5 16c1.8927 0 3.4345 1.5024 3.498 3.3797l.002.1203v2.5h-2v-2.5c0-.7988-.6245-1.4518-1.4119-1.4975l-.0881-.0025h-5c-.79884 0-1.45183.6245-1.49745 1.4119l-.00255.0881v2.5h-2v-2.5c0-1.8927 1.50239-3.4345 3.37967-3.498l.12033-.002zm2.3997-6.00119 3.6003.00119.1203.002c1.8147.0613 3.2791 1.5041 3.3747 3.3099l.005.1881v2.5h-2v-2.5l-.0025-.0881c-.043-.7411-.6239-1.3379-1.3581-1.4055l-.1394-.0064-3.6003.0012c.0658-.3235.1003-.6583.1003-1.0012s-.0345-.6777-.1003-1.00119zm-9.79944 0c-.06575.32349-.10026.65829-.10026 1.00119s.03451.6777.10026 1.0012l-3.60026-.0012c-.79884 0-1.45183.6245-1.49745 1.4119l-.00255.0881v2.5h-2v-2.5c0-1.8927 1.50239-3.4345 3.37968-3.498l.12032-.002zm4.89974-2.99881c2.2091 0 4 1.79086 4 4 0 2.2091-1.7909 4-4 4-2.20914 0-4-1.7909-4-4 0-2.20914 1.79086-4 4-4zm0 2c-1.1046 0-2 .89543-2 2 0 1.1046.8954 2 2 2s2-.8954 2-2c0-1.10457-.8954-2-2-2zm-6.5-7c1.933 0 3.5 1.567 3.5 3.5s-1.567 3.5-3.5 3.5-3.5-1.567-3.5-3.5 1.567-3.5 3.5-3.5zm13 0c1.933 0 3.5 1.567 3.5 3.5s-1.567 3.5-3.5 3.5-3.5-1.567-3.5-3.5 1.567-3.5 3.5-3.5zm-13 2c-.82843 0-1.5.67157-1.5 1.5s.67157 1.5 1.5 1.5 1.5-.67157 1.5-1.5-.67157-1.5-1.5-1.5zm13 0c-.8284 0-1.5.67157-1.5 1.5s.6716 1.5 1.5 1.5 1.5-.67157 1.5-1.5-.6716-1.5-1.5-1.5z" fill="currentColor" fill-rule="evenodd"/>
</svg>