<svg xmlns="http://www.w3.org/2000/svg" viewBox="0 0 24 24"><g fill="none" fill-rule="evenodd"><path d="M0 0h24v24H0z"/><path clip-rule="evenodd" d="M17.977 3.905c0-.953 0-1.905-5.978-1.905-5.976 0-5.976.953-5.976 1.905 0 .443 1.197 1.851 2.833 2.825C5.24 8.818 2.38 13.981 2.038 17.238 1.54 22 6.023 22 11.999 22c5.977 0 10.461 0 9.963-4.762-.339-3.24-3.173-8.367-6.763-10.475 1.608-.92 2.778-2.262 2.778-2.858zm-5.513 10.811l-.348 1.14h-1.404c.204.804.624 1.344 1.5 1.344.972 0 1.308-.864 1.32-1.848l1.584.996c-.372 1.212-1.332 2.244-2.904 2.244-1.572 0-2.76-.912-3.18-2.736H8v-1.14h.888c-.012-.132-.012-.276-.012-.432v-.264H8v-1.14h1.02c.42-1.896 1.692-2.88 3.192-2.88 1.512 0 2.532.96 2.904 2.184l-1.584.984c0-.984-.372-1.776-1.32-1.776-.828 0-1.284.624-1.5 1.488h2.268l-.336 1.14h-2.076v.696h1.896z" fill="currentColor"/></g></svg>