<svg xmlns="http://www.w3.org/2000/svg" viewBox="0 0 24 24"><g fill="none" fill-rule="evenodd"><path d="M0 0h24v24H0z"/><path d="M12.464 14.716l-.348 1.14h-1.404c.204.804.624 1.344 1.5 1.344.972 0 1.308-.864 1.32-1.848l1.584.996c-.372 1.212-1.332 2.244-2.904 2.244-1.572 0-2.76-.912-3.18-2.736H8v-1.14h.888c-.012-.132-.012-.276-.012-.432v-.264H8v-1.14h1.02c.42-1.896 1.692-2.88 3.192-2.88 1.512 0 2.532.96 2.904 2.184l-1.584.984c0-.984-.372-1.776-1.32-1.776-.828 0-1.284.624-1.5 1.488h2.268l-.336 1.14h-2.076v.696h1.896z" fill="currentColor"/><path clip-rule="evenodd" d="M12 2c5.977 0 5.977.952 5.977 1.905 0 .596-1.17 1.937-2.778 2.858 3.59 2.108 6.424 7.235 6.763 10.475C22.46 22 17.976 22 12 22c-5.976 0-10.46 0-9.961-4.762.34-3.257 3.202-8.42 6.818-10.508-1.636-.974-2.833-2.382-2.833-2.826 0-.952 0-1.904 5.976-1.904zm3.549 2.102c-.184.178-.406.37-.663.561-.94.699-2.01 1.147-2.886 1.147-.83 0-1.884-.468-2.858-1.22a7.9 7.9 0 01-.59-.504l.248-.033c.724-.09 1.751-.148 3.2-.148 1.448 0 2.475.058 3.2.148.128.016.244.032.349.049zm4.224 14.87c.132-.2.303-.626.207-1.544-.173-1.653-1.236-4.19-2.895-6.329C15.372 8.892 13.508 7.714 12 7.714c-1.508 0-3.372 1.178-5.085 3.385-1.659 2.138-2.72 4.676-2.894 6.329-.096.918.075 1.345.207 1.544.128.193.386.425 1.013.632.65.214 1.545.35 2.735.42 1.179.07 2.514.071 4.024.071 1.51 0 2.846 0 4.025-.07 1.19-.071 2.085-.207 2.735-.421.628-.207.886-.439 1.014-.632z" fill="currentColor"/></g></svg>