<svg role="img" xmlns="http://www.w3.org/2000/svg" viewBox="0 0 24 24">
  <g fill="none" fill-rule="evenodd">
    <rect width="24" height="24"/>
    <path fill="currentColor" d="M9,24 L9,22 L10.999039,22 L10.9991931,19.9169061 C8.23375814,19.4525651 6.10997266,17.0964753 6.00413847,14.2249383 L6,14 L8,14 C8,16.209139 9.790861,18 12,18 C14.1421954,18 15.8910789,16.3160315 15.9951047,14.1996403 L16,14 L18,14 C18,16.9730632 15.8376161,19.4410745 12.9998085,19.9170737 L12.999039,22 L15,22 L15,24 L9,24 Z M16.0595763,4.58173892 L16.2426407,4.75735931 L14.8284271,6.17157288 C13.3183999,4.66154561 10.9014356,4.61121137 9.33094591,6.02057015 L9.17157288,6.17157288 L7.75735931,4.75735931 C10.0404244,2.47429422 13.7056321,2.41575409 16.0595763,4.58173892 Z M12,7 C13.1045695,7 14,7.8954305 14,9 L14,14 C14,15.1045695 13.1045695,16 12,16 C10.8954305,16 10,15.1045695 10,14 L10,9 C10,7.8954305 10.8954305,7 12,7 Z M18.154727,2.4333447 L18.363961,2.63603897 L16.9497475,4.05025253 C14.2782063,1.37871135 9.98450684,1.31799451 7.2392312,3.868102 L7.05025253,4.05025253 L5.63603897,2.63603897 C9.08184154,-0.809763605 14.626612,-0.877328361 18.154727,2.4333447 Z"/>
  </g>
</svg>
