<svg role="img" xmlns="http://www.w3.org/2000/svg" viewBox="0 0 24 24">
  <g fill="none" fill-rule="evenodd">
    <rect width="24" height="24"/>
    <path fill="currentColor" d="M20,2 L20,9 L13,9 L13,7 L16.8992186,7.00023118 C15.636661,5.762908 13.9074239,5 12,5 C8.13400675,5 5,8.13400675 5,12 C5,15.8659932 8.13400675,19 12,19 C15.8659932,19 19,15.8659932 19,12 L21,12 C21,16.9705627 16.9705627,21 12,21 C7.02943725,21 3,16.9705627 3,12 C3,7.02943725 7.02943725,3 12,3 C14.3056345,3 16.4087725,3.86699019 18.0011835,5.29273993 L18,2 L20,2 Z"/>
  </g>
</svg>
