<svg role="img" xmlns="http://www.w3.org/2000/svg" viewBox="0 0 24 24">
  <g fill="none" fill-rule="evenodd">
    <rect width="24" height="24"/>
    <path fill="currentColor" d="M10.9910906,4.085 C11.3530672,4.085 11.6522186,4.3539867 11.6995635,4.70297874 L11.7060906,4.8 L11.7060906,7.8 C11.7060906,9.04863681 10.8631864,10.1004028 9.71534818,10.4173278 L9.71463289,13.3004998 C9.86174666,13.4507761 9.96184242,13.6472631 9.99112118,13.8661618 L10,14 L10,19 C10,19.5522847 9.55228475,20 9,20 C8.48716416,20 8.06449284,19.6139598 8.00672773,19.1166211 L8,19 L8,14 L8.00672773,13.8833789 C8.03295504,13.6575703 8.13440655,13.4547056 8.28536711,13.3004998 L8.28537109,10.4223752 C7.179279,10.125449 6.35207044,9.147354 6.28104552,7.96539023 L6.2760906,7.8 L6.2760906,4.8 C6.2760906,4.4051164 6.596207,4.085 6.9910906,4.085 C7.35306723,4.085 7.65221865,4.3539867 7.69956349,4.70297874 L7.7060906,4.8 L7.7060906,7.8 L8.2840906,7.8 L8.285,4.8 C8.285,4.4051164 8.6051164,4.085 9,4.085 C9.36197663,4.085 9.66112805,4.3539867 9.70847289,4.70297874 L9.715,4.8 L9.7140906,7.8 L10.2760906,7.8 L10.2760906,4.8 C10.2760906,4.4051164 10.596207,4.085 10.9910906,4.085 Z M17,4 C17.5522847,4 18,4.44771525 18,5 L18,19 C18,19.5522847 17.5522847,20 17,20 C16.4871642,20 16.0644928,19.6139598 16.0067277,19.1166211 L16,19 L15.9990069,12.5 L14.9652205,12.242251 C14.4675282,12.1185447 14.1509559,11.6416485 14.2153915,11.1451328 L14.2371157,11.0303558 C14.2371631,11.0301659 14.2372106,11.0299761 14.2378274,11.0299288 L15.7543798,4.97128214 C15.8972744,4.40041638 16.4102735,4 16.9987517,4 L17,4 Z"/>
  </g>
</svg>
