<svg xmlns="http://www.w3.org/2000/svg" viewBox="0 0 24 24"><g fill="none" fill-rule="evenodd"><path d="M0 0h24v24H0z"/><path clip-rule="evenodd" d="M2 17a4 4 0 004 4h4v-2H6a2 2 0 111.414-3.414L10 13V7h10v2h2V5H10a4 4 0 10-8 0v12zM6 3a2 2 0 012 2v8.535A3.982 3.982 0 006 13c-.729 0-1.412.195-2 .535V5a2 2 0 012-2z" fill="currentColor"/><path clip-rule="evenodd" d="M16.028 10.658c.35-.877 1.593-.877 1.944 0 .243.608.977.846 1.53.498.8-.504 1.805.226 1.573 1.142-.16.634.293 1.259.946 1.302.943.062 1.327 1.244.6 1.849a1.047 1.047 0 000 1.609c.727.605.343 1.786-.6 1.849a1.047 1.047 0 00-.946 1.301c.232.917-.773 1.647-1.573 1.143a1.047 1.047 0 00-1.53.497c-.35.878-1.593.878-1.944 0a1.047 1.047 0 00-1.53-.497c-.8.504-1.805-.226-1.573-1.143a1.047 1.047 0 00-.946-1.301c-.943-.063-1.327-1.244-.6-1.85a1.047 1.047 0 000-1.608c-.727-.605-.343-1.787.6-1.85a1.047 1.047 0 00.946-1.3c-.232-.917.773-1.647 1.573-1.143.553.348 1.287.11 1.53-.498zm2.945 5.568a2 2 0 11-4 0 2 2 0 014 0z" fill="currentColor"/></g></svg>