<svg xmlns="http://www.w3.org/2000/svg" viewBox="0 0 24 24"><g fill="none" fill-rule="evenodd"><path d="M0 0h24v24H0z"/><path d="M17 9.25L15.75 8l-5 5-2.5-2.5L7 11.75l3.75 3.75L17 9.25z" fill="currentColor"/><path clip-rule="evenodd" d="M21 6c0 16-9 16-9 16S3 22 3 6l9-4 9 4zM8.829 18.505C7.233 17.087 5.247 14.013 5.02 7.29L12 4.19l6.979 3.101c-.226 6.723-2.212 9.797-3.808 11.215-.871.775-1.723 1.147-2.333 1.327a4.508 4.508 0 01-.838.166 4.51 4.51 0 01-.838-.166c-.61-.18-1.462-.552-2.333-1.327z" fill="currentColor"/></g></svg>