<svg role="img" xmlns="http://www.w3.org/2000/svg" viewBox="0 0 24 24">
  <g fill="none" fill-rule="evenodd">
    <polygon points="0 0 24 0 24 12 24 24 0 24"/>
    <path fill="currentColor" d="M16,15 C17.3062521,15 18.4175144,15.8348501 18.8293257,17.0000889 L22,17 L22,19 L18.8289758,19.0009007 C18.4168852,20.1656226 17.3058822,21 16,21 C14.6941178,21 13.5831148,20.1656226 13.1710242,19.0009007 L2,19 L2,17 L13.1706743,17.0000889 C13.5824856,15.8348501 14.6937479,15 16,15 Z M16,17 C15.4477153,17 15,17.4477153 15,18 C15,18.5522847 15.4477153,19 16,19 C16.5522847,19 17,18.5522847 17,18 C17,17.4477153 16.5522847,17 16,17 Z M7,9 C8.30625206,9 9.41751442,9.8348501 9.82932572,11.0000889 L22,11 L22,13 L9.82897577,13.0009007 L9.82510412,13.0117763 C9.42883126,14.1181296 8.40112287,14.9239379 7.17627279,14.9949073 L7,15 C5.69411778,15 4.58311485,14.1656226 4.17102423,13.0009007 L2,13 L2,11 L4.17067428,11.0000889 L4.17489588,10.9882237 C4.59003888,9.82918692 5.69818595,9 7,9 Z M7,11 C6.44771525,11 6,11.4477153 6,12 C6,12.5522847 6.44771525,13 7,13 C7.55228475,13 8,12.5522847 8,12 C8,11.4477153 7.55228475,11 7,11 Z M12,3 C13.3062521,3 14.4175144,3.8348501 14.8293257,5.00008893 L22,5 L22,7 L14.8289758,7.00090072 C14.4168852,8.16562257 13.3058822,9 12,9 C10.6941178,9 9.58311485,8.16562257 9.17102423,7.00090072 L2,7 L2,5 L9.17067428,5.00008893 C9.58248558,3.8348501 10.6937479,3 12,3 Z M12,5 C11.4477153,5 11,5.44771525 11,6 C11,6.55228475 11.4477153,7 12,7 C12.5522847,7 13,6.55228475 13,6 C13,5.44771525 12.5522847,5 12,5 Z"/>
  </g>
</svg>
