<svg role="img" fill="none" viewBox="0 0 24 24" xmlns="http://www.w3.org/2000/svg">
    <g clip-rule="evenodd" fill="currentColor" fill-rule="evenodd">
        <path d="m12 16.5c2.4853 0 4.5-2.0147 4.5-4.5 0-2.48528-2.0147-4.5-4.5-4.5-2.48528 0-4.5 2.01472-4.5 4.5 0 2.4853 2.01472 4.5 4.5 4.5zm0 2c3.5899 0 6.5-2.9101 6.5-6.5 0-3.58985-2.9101-6.5-6.5-6.5-3.58985 0-6.5 2.91015-6.5 6.5 0 3.5899 2.91015 6.5 6.5 6.5z"/>
        <path d="m3 4c.55228 0 1-.44772 1-1s-.44772-1-1-1-1 .44772-1 1 .44772 1 1 1zm0 2c1.65685 0 3-1.34315 3-3s-1.34315-3-3-3-3 1.34315-3 3 1.34315 3 3 3z"/>
        <path d="m12 3c.2761 0 .5-.22386.5-.5s-.2239-.5-.5-.5-.5.22386-.5.5.2239.5.5.5zm0 2c1.3807 0 2.5-1.11929 2.5-2.5s-1.1193-2.5-2.5-2.5-2.5 1.11929-2.5 2.5 1.1193 2.5 2.5 2.5z"/>
        <path d="m12 22c.2761 0 .5-.2239.5-.5s-.2239-.5-.5-.5-.5.2239-.5.5.2239.5.5.5zm0 2c1.3807 0 2.5-1.1193 2.5-2.5s-1.1193-2.5-2.5-2.5-2.5 1.1193-2.5 2.5 1.1193 2.5 2.5 2.5z"/>
        <path d="m7 13h-3v-2h3z"/>
        <path d="m13 17v4h-2v-4z"/>
        <path d="m2.5 12.5c.27614 0 .5-.2239.5-.5s-.22386-.5-.5-.5-.5.2239-.5.5.22386.5.5.5zm0 2c1.38071 0 2.5-1.1193 2.5-2.5s-1.11929-2.5-2.5-2.5-2.5 1.1193-2.5 2.5 1.11929 2.5 2.5 2.5z"/>
        <path d="m7.79289 9.20711-4-4 1.41422-1.41422 4 4z"/>
        <path d="m11 7v-3h2v3z"/>
        <path d="m15.0429 7.29289 2.5-2.5 1.4142 1.41422-2.5 2.5z"/>
        <path d="m16.7071 15.2929 3 3-1.4142 1.4142-3-3z"/>
        <path d="m9.20711 16.2071-3 3-1.41422-1.4142 3-3z"/>
        <path d="m19.25 5c.2761 0 .5-.22386.5-.5s-.2239-.5-.5-.5-.5.22386-.5.5.2239.5.5.5zm0 2c1.3807 0 2.5-1.11929 2.5-2.5s-1.1193-2.5-2.5-2.5-2.5 1.11929-2.5 2.5 1.1193 2.5 2.5 2.5z"/>
        <path d="m20.75 21.5c.4142 0 .75-.3358.75-.75s-.3358-.75-.75-.75-.75.3358-.75.75.3358.75.75.75zm0 2c1.5188 0 2.75-1.2312 2.75-2.75s-1.2312-2.75-2.75-2.75-2.75 1.2312-2.75 2.75 1.2312 2.75 2.75 2.75z"/>
        <path d="m4.75 20c.27614 0 .5-.2239.5-.5s-.22386-.5-.5-.5-.5.2239-.5.5.22386.5.5.5zm0 2c1.38071 0 2.5-1.1193 2.5-2.5s-1.11929-2.5-2.5-2.5-2.5 1.1193-2.5 2.5 1.11929 2.5 2.5 2.5z"/>
        <path d="m21.5 12.5c.2761 0 .5-.2239.5-.5s-.2239-.5-.5-.5-.5.2239-.5.5.2239.5.5.5zm0 2c1.3807 0 2.5-1.1193 2.5-2.5s-1.1193-2.5-2.5-2.5-2.5 1.1193-2.5 2.5 1.1193 2.5 2.5 2.5z"/>
        <path d="m20 13h-3v-2h3z"/>
    </g>
</svg>