<svg viewBox="0 0 24 24" role="img" xmlns="http://www.w3.org/2000/svg"><g fill="none" fill-rule="evenodd"><path d="M0 0h24v24H0z"/><path d="M15 2.5v19L9.273 17H6a5 5 0 01-.14-9.998L9.273 7 15 2.5zm5.745 3.03c3.67 3.67 3.714 9.591.128 13.305l-.118.12-1.414-1.414c2.886-2.886 2.918-7.547.1-10.484l-.11-.112 1.414-1.415zM13 6.811l-3 2.115v6.147l3 2.115V6.811zm4.826 1.081c2.121 2.122 2.075 5.595-.049 7.825l-.103.105-1.414-1.414c1.428-1.428 1.508-3.65.233-5.017l-.082-.085 1.415-1.414zM8 9H6.027L5.915 9a3 3 0 00-.027 5.997L6 15h2V9z" fill="currentColor"/></g></svg>
