<?xml version="1.0" standalone="no"?>
<!DOCTYPE svg PUBLIC "-//W3C//DTD SVG 20010904//EN"
 "http://www.w3.org/TR/2001/REC-SVG-20010904/DTD/svg10.dtd">
<svg version="1.0" xmlns="http://www.w3.org/2000/svg"
 width="260.000000pt" height="260.000000pt" viewBox="0 0 260.000000 260.000000"
 preserveAspectRatio="xMidYMid meet">
<metadata>
Created by potrace 1.11, written by Peter Selinger 2001-2013
</metadata>
<g transform="translate(0.000000,260.000000) scale(0.100000,-0.100000)"
fill="#000000" stroke="none">
<path d="M0 1300 l0 -1300 1300 0 1300 0 0 1300 0 1300 -1300 0 -1300 0 0
-1300z m2527 173 c-2 -280 -7 -410 -16 -437 -17 -54 -115 -151 -166 -166 -25
-7 -194 -14 -461 -19 l-421 -8 -51 -28 c-28 -15 -63 -40 -78 -56 l-27 -28 -56
43 c-31 24 -72 49 -91 56 -24 8 -171 15 -450 20 -259 6 -430 13 -455 20 -51
15 -149 112 -166 166 -9 27 -14 157 -16 437 l-5 397 1232 0 1232 0 -5 -397z"/>
<path d="M142 1443 c3 -319 5 -362 21 -390 30 -56 77 -102 115 -114 24 -7 189
-14 457 -18 417 -6 420 -6 465 -30 25 -13 57 -32 73 -43 27 -19 27 -19 55 0
15 11 47 30 72 43 45 24 48 24 465 30 268 4 433 11 457 18 38 12 85 58 115
114 16 28 18 71 21 390 l4 357 -1162 0 -1162 0 4 -357z m960 -44 c2 -120 6
-143 21 -153 24 -18 21 -34 -7 -47 -18 -9 -31 -8 -52 3 l-29 13 -3 163 -2 162
34 0 34 0 4 -141z m391 120 c15 -24 1 -49 -27 -49 -29 0 -44 33 -25 56 15 18
38 15 52 -7z m427 -79 c0 -55 3 -100 8 -100 4 0 22 21 41 45 33 44 62 60 96
53 13 -2 9 -12 -21 -50 l-37 -48 41 -70 40 -70 -33 0 c-28 0 -39 7 -61 38 -16
20 -31 41 -36 46 -4 5 -17 -11 -28 -37 -17 -38 -26 -47 -45 -47 l-25 0 0 170
0 170 30 0 30 0 0 -100z m268 88 c19 -19 14 -48 -10 -57 -41 -15 -67 13 -48
50 12 21 40 25 58 7z m-1490 -165 l2 -163 -40 0 -40 0 0 65 0 65 -65 0 -65 0
0 -65 0 -65 -35 0 -35 0 0 160 0 160 35 0 34 0 3 -62 3 -63 63 -3 62 -3 0 64
c0 35 3 67 7 71 4 4 21 6 38 4 l30 -3 3 -162z m221 62 c30 -15 61 -68 61 -104
0 -19 -5 -21 -74 -21 -83 0 -100 -11 -67 -43 21 -21 22 -21 55 -3 27 14 38 16
55 7 27 -15 27 -26 -1 -45 -58 -41 -142 -23 -178 36 -26 43 -25 87 3 129 38
57 91 73 146 44z m411 -1 c28 -11 40 -22 38 -33 -3 -16 -21 -18 -87 -9 -41 5
-34 -18 11 -37 85 -37 110 -83 69 -124 -31 -31 -86 -37 -140 -15 -51 22 -63
47 -31 64 17 9 25 7 47 -9 30 -25 46 -26 63 -6 10 12 1 19 -53 43 -73 34 -89
58 -62 98 29 45 79 54 145 28z m170 -104 l0 -120 -35 0 -35 0 0 113 c0 63 3
117 7 120 3 4 19 7 35 7 l28 0 0 -120z m136 110 c7 -7 21 -7 43 1 27 10 39 9
66 -4 37 -17 45 -46 45 -159 l0 -68 -35 0 -35 0 0 78 c0 80 -9 102 -42 102
-27 0 -38 -32 -38 -109 l0 -71 -35 0 -35 0 0 113 c0 63 3 117 7 120 10 10 48
8 59 -3z m554 -110 l0 -120 -30 0 -30 0 0 120 0 120 30 0 30 0 0 -120z"/>
<path d="M830 1375 c-17 -21 -4 -35 35 -35 19 0 37 5 40 10 10 16 -14 40 -40
40 -12 0 -28 -7 -35 -15z"/>
</g>
</svg>
