<?xml version="1.0" standalone="no"?>
<!DOCTYPE svg PUBLIC "-//W3C//DTD SVG 20010904//EN"
 "http://www.w3.org/TR/2001/REC-SVG-20010904/DTD/svg10.dtd">
<svg version="1.0" xmlns="http://www.w3.org/2000/svg"
 width="560.000000pt" height="560.000000pt" viewBox="0 0 560.000000 560.000000"
 preserveAspectRatio="xMidYMid meet">
<metadata>
Created by potrace 1.14, written by Peter Selinger 2001-2017
</metadata>
<g transform="translate(0.000000,560.000000) scale(0.100000,-0.100000)"
fill="#000000" stroke="none">
<path d="M0 4850 l0 -750 2800 0 2800 0 0 750 0 750 -2800 0 -2800 0 0 -750z"/>
<path d="M162 3148 l3 -793 27 -69 c61 -157 164 -258 325 -319 58 -22 61 -22
983 -28 845 -5 930 -7 985 -23 83 -24 192 -78 256 -126 29 -22 56 -40 59 -40
3 0 30 19 60 42 63 47 167 98 255 124 55 16 136 18 980 24 854 5 924 7 975 24
185 61 326 219 359 400 7 39 11 320 11 818 l0 758 -2640 0 -2641 0 3 -792z
m2179 -100 c1 -172 4 -324 8 -338 6 -22 12 -25 58 -25 l50 0 -5 -45 c-6 -55
-9 -59 -62 -71 -47 -11 -100 -4 -143 18 -54 27 -57 50 -57 428 l0 345 75 0 75
0 1 -312z m910 286 c37 -34 32 -99 -10 -131 -9 -7 -33 -13 -54 -13 -99 -1
-120 127 -27 163 23 9 71 -1 91 -19z m979 -221 l0 -248 26 40 c15 22 56 79 91
128 l65 87 90 0 c85 0 90 -1 77 -17 -13 -17 -110 -132 -151 -179 -18 -20 -16
-24 82 -182 55 -89 100 -164 100 -167 0 -3 -37 -5 -82 -5 l-83 0 -57 93 c-89
144 -78 136 -121 81 -34 -43 -37 -53 -37 -111 l0 -63 -75 0 -75 0 0 395 0 395
75 0 75 0 0 -247z m608 211 c49 -56 10 -134 -68 -134 -74 0 -114 71 -74 128
34 48 102 51 142 6z m-3878 -144 l0 -150 155 0 155 0 0 150 0 150 80 0 80 0 0
-380 0 -380 -80 0 -80 0 0 155 0 155 -155 0 -155 0 0 -155 0 -155 -80 0 -80 0
0 380 0 380 80 0 80 0 0 -150z m1921 -78 c24 -11 59 -35 77 -55 l34 -35 -68
-38 c-53 -29 -69 -35 -73 -23 -2 7 -17 26 -32 41 -46 47 -149 35 -149 -16 0
-26 25 -39 135 -71 117 -34 168 -73 181 -142 21 -110 -85 -203 -228 -203 -56
0 -139 23 -182 50 -34 20 -86 74 -86 88 0 4 30 23 67 42 47 25 67 31 70 22 11
-29 56 -71 89 -82 69 -23 135 10 119 59 -7 22 -34 35 -117 56 -159 41 -228
125 -189 228 39 101 216 141 352 79z m-945 4 c87 -40 133 -121 134 -233 l0
-63 -180 0 -180 0 0 -30 c0 -20 11 -42 33 -67 30 -32 39 -36 82 -36 41 0 52 4
75 30 15 17 29 36 32 43 4 13 128 -48 128 -64 0 -5 -20 -29 -45 -52 -102 -98
-279 -97 -379 2 -57 57 -71 99 -71 209 0 92 2 104 29 153 50 89 123 131 231
131 43 1 75 -6 111 -23z m1894 6 c20 -11 46 -38 60 -63 24 -43 25 -51 28 -261
l3 -218 -80 0 -81 0 0 189 c0 175 -1 190 -21 215 -15 19 -30 26 -55 26 -90 0
-104 -36 -104 -260 l0 -170 -75 0 -75 0 0 275 0 275 75 0 75 0 0 -41 0 -42 22
28 c12 15 35 36 52 46 41 25 129 25 176 1z m-570 -267 l0 -275 -75 0 -75 0 0
275 0 275 75 0 75 0 0 -275z m1588 3 l-3 -273 -77 -3 -78 -3 0 276 0 275 80 0
80 0 -2 -272z"/>
<path d="M1762 3004 c-22 -15 -52 -63 -52 -84 0 -6 40 -10 109 -10 l110 0 -10
33 c-19 67 -102 100 -157 61z"/>
<path d="M1 1193 l-1 -1193 2800 0 2800 0 -1 1193 c-1 1078 -2 1185 -15 1122
-41 -193 -188 -379 -367 -463 -146 -69 -86 -65 -1102 -72 -918 -5 -920 -5
-985 -28 -96 -32 -162 -74 -248 -156 l-77 -74 -74 68 c-87 80 -170 132 -261
163 -65 22 -69 22 -985 27 -1016 7 -956 3 -1102 72 -179 84 -326 270 -367 463
-13 63 -14 -44 -15 -1122z"/>
</g>
</svg>
